<svg version="1.1" viewBox="0.0 0.0 693.0 491.0" fill="none" stroke="none" stroke-linecap="square" stroke-miterlimit="10" width="693" height="491" xmlns:xlink="http://www.w3.org/1999/xlink" xmlns="http://www.w3.org/2000/svg"><path fill="#ffffff" fill-opacity="0.0" d="M0 0L693.0 0L693.0 491.0L0 491.0L0 0Z" fill-rule="nonzero"/><path fill="#4285f4" d="M242.85513 59.916668C307.9218 59.916668 369.0561 91.06614 407.30133 143.70618L242.85513 263.18332Z" fill-rule="nonzero"/><path fill="#ea4335" d="M407.30133 143.70618C445.54657 196.34624 456.27994 264.1141 436.17322 325.9962L242.85513 263.18332Z" fill-rule="nonzero"/><path fill="#fbbc04" d="M436.17322 325.9962C408.96106 409.74667 330.9156 466.45 242.85513 466.45L242.85513 263.18332Z" fill-rule="nonzero"/><path fill="#f07b72" d="M41.19129 237.70726C54.026764 136.10403 140.44438 59.916668 242.85513 59.916668L242.85513 263.18332Z" fill-rule="nonzero"/><path fill="#7baaf7" d="M64.7312 361.1078C44.051586 323.49173 35.81127 280.2945 41.19129 237.70726L242.85513 263.18332Z" fill-rule="nonzero"/><path fill="#46bdc6" d="M78.40895 382.6605C73.40266 375.7699 68.834404 368.5715 64.7312 361.1078L242.85513 263.18332Z" fill-rule="nonzero"/><path fill="#ff6d01" d="M123.37799 427.62952C106.12173 415.0921 90.94636 399.91675 78.40895 382.6605L242.85513 263.18332Z" fill-rule="nonzero"/><path fill="#34a853" d="M242.85513 466.45C199.92944 466.45 158.1056 452.86063 123.37799 427.62952L242.85513 263.18332Z" fill-rule="nonzero"/><path fill="#000000" d="M299.98868 127.04262L298.7543 127.04262L298.7543 119.19887Q298.3168 119.62074 297.58243 120.05824Q296.86368 120.48012 296.30118 120.68324L296.30118 119.49574Q297.33243 119.01137 298.09805 118.32387Q298.8793 117.63637 299.1918 116.98012L299.98868 116.98012L299.98868 127.04262ZM303.34805 124.41762L304.64493 124.30824Q304.78555 125.24574 305.30118 125.73012Q305.83243 126.19887 306.5668 126.19887Q307.45743 126.19887 308.0668 125.52699Q308.6918 124.85512 308.6918 123.76137Q308.6918 122.69887 308.09805 122.08949Q307.5043 121.48012 306.55118 121.48012Q305.95743 121.48012 305.47305 121.76137Q305.0043 122.02699 304.72305 122.44887L303.5668 122.30824L304.53555 117.15199L309.51993 117.15199L309.51993 118.33949L305.51993 118.33949L304.98868 121.02699Q305.89493 120.40199 306.8793 120.40199Q308.1918 120.40199 309.08243 121.30824Q309.98868 122.21449 309.98868 123.65199Q309.98868 125.01137 309.20743 125.99574Q308.23868 127.21449 306.5668 127.21449Q305.20743 127.21449 304.33243 126.44887Q303.47305 125.68324 303.34805 124.41762ZM312.03555 127.04262L312.03555 125.63637L313.4418 125.63637L313.4418 127.04262L312.03555 127.04262ZM315.34805 122.10512Q315.34805 120.32387 315.70743 119.24574Q316.08243 118.15199 316.80118 117.57387Q317.51993 116.98012 318.61368 116.98012Q319.42618 116.98012 320.03555 117.30824Q320.64493 117.63637 321.03555 118.24574Q321.4418 118.85512 321.66055 119.73012Q321.8793 120.60512 321.8793 122.10512Q321.8793 123.87074 321.51993 124.94887Q321.16055 126.02699 320.4418 126.62074Q319.72305 127.21449 318.61368 127.21449Q317.17618 127.21449 316.34805 126.16762Q315.34805 124.91762 315.34805 122.10512ZM316.61368 122.10512Q316.61368 124.57387 317.1918 125.38637Q317.76993 126.19887 318.61368 126.19887Q319.47305 126.19887 320.05118 125.38637Q320.6293 124.55824 320.6293 122.10512Q320.6293 119.62074 320.05118 118.80824Q319.47305 117.99574 318.59805 117.99574Q317.7543 117.99574 317.2543 118.71449Q316.61368 119.63637 316.61368 122.10512ZM323.58243 119.43324Q323.58243 118.35512 324.11368 117.60512Q324.66055 116.85512 325.6918 116.85512Q326.6293 116.85512 327.23868 117.52699Q327.86368 118.19887 327.86368 119.49574Q327.86368 120.77699 327.23868 121.46449Q326.61368 122.15199 325.70743 122.15199Q324.80118 122.15199 324.1918 121.48012Q323.58243 120.79262 323.58243 119.43324ZM325.72305 117.69887Q325.26993 117.69887 324.95743 118.10512Q324.66055 118.49574 324.66055 119.54262Q324.66055 120.51137 324.95743 120.90199Q325.26993 121.29262 325.72305 121.29262Q326.1918 121.29262 326.48868 120.90199Q326.80118 120.51137 326.80118 119.44887Q326.80118 118.48012 326.48868 118.08949Q326.17618 117.69887 325.72305 117.69887ZM325.72305 127.41762L331.20743 116.85512L332.20743 116.85512L326.7543 127.41762L325.72305 127.41762ZM330.0668 124.68324Q330.0668 123.60512 330.59805 122.87074Q331.14493 122.12074 332.17618 122.12074Q333.11368 122.12074 333.73868 122.79262Q334.36368 123.46449 334.36368 124.76137Q334.36368 126.04262 333.73868 126.73012Q333.11368 127.41762 332.17618 127.41762Q331.26993 127.41762 330.66055 126.74574Q330.0668 126.05824 330.0668 124.68324ZM332.20743 122.96449Q331.73868 122.96449 331.4418 123.37074Q331.14493 123.76137 331.14493 124.80824Q331.14493 125.77699 331.4418 126.16762Q331.7543 126.55824 332.20743 126.55824Q332.67618 126.55824 332.97305 126.16762Q333.28555 125.77699 333.28555 124.71449Q333.28555 123.74574 332.97305 123.35512Q332.67618 122.96449 332.20743 122.96449Z" fill-rule="nonzero"/><path fill="#000000" d="M383.97742 243.49065L382.74304 243.49065L382.74304 235.6469Q382.30554 236.06877 381.57117 236.50627Q380.85242 236.92815 380.28992 237.13127L380.28992 235.94377Q381.32117 235.4594 382.0868 234.7719Q382.86804 234.0844 383.18054 233.42815L383.97742 233.42815L383.97742 243.49065ZM387.3368 240.86565L388.63367 240.75627Q388.7743 241.69377 389.28992 242.17815Q389.82117 242.6469 390.55554 242.6469Q391.44617 242.6469 392.05554 241.97502Q392.68054 241.30315 392.68054 240.2094Q392.68054 239.1469 392.0868 238.53752Q391.49304 237.92815 390.53992 237.92815Q389.94617 237.92815 389.4618 238.2094Q388.99304 238.47502 388.7118 238.8969L387.55554 238.75627L388.5243 233.60002L393.50867 233.60002L393.50867 234.78752L389.50867 234.78752L388.97742 237.47502Q389.88367 236.85002 390.86804 236.85002Q392.18054 236.85002 393.07117 237.75627Q393.97742 238.66252 393.97742 240.10002Q393.97742 241.4594 393.19617 242.44377Q392.22742 243.66252 390.55554 243.66252Q389.19617 243.66252 388.32117 242.8969Q387.4618 242.13127 387.3368 240.86565ZM396.0243 243.49065L396.0243 242.0844L397.43054 242.0844L397.43054 243.49065L396.0243 243.49065ZM399.3368 238.55315Q399.3368 236.7719 399.69617 235.69377Q400.07117 234.60002 400.78992 234.0219Q401.50867 233.42815 402.60242 233.42815Q403.41492 233.42815 404.0243 233.75627Q404.63367 234.0844 405.0243 234.69377Q405.43054 235.30315 405.6493 236.17815Q405.86804 237.05315 405.86804 238.55315Q405.86804 240.31877 405.50867 241.3969Q405.1493 242.47502 404.43054 243.06877Q403.7118 243.66252 402.60242 243.66252Q401.16492 243.66252 400.3368 242.61565Q399.3368 241.36565 399.3368 238.55315ZM400.60242 238.55315Q400.60242 241.0219 401.18054 241.8344Q401.75867 242.6469 402.60242 242.6469Q403.4618 242.6469 404.03992 241.8344Q404.61804 241.00627 404.61804 238.55315Q404.61804 236.06877 404.03992 235.25627Q403.4618 234.44377 402.5868 234.44377Q401.74304 234.44377 401.24304 235.16252Q400.60242 236.0844 400.60242 238.55315ZM407.57117 235.88127Q407.57117 234.80315 408.10242 234.05315Q408.6493 233.30315 409.68054 233.30315Q410.61804 233.30315 411.22742 233.97502Q411.85242 234.6469 411.85242 235.94377Q411.85242 237.22502 411.22742 237.91252Q410.60242 238.60002 409.69617 238.60002Q408.78992 238.60002 408.18054 237.92815Q407.57117 237.24065 407.57117 235.88127ZM409.7118 234.1469Q409.25867 234.1469 408.94617 234.55315Q408.6493 234.94377 408.6493 235.99065Q408.6493 236.9594 408.94617 237.35002Q409.25867 237.74065 409.7118 237.74065Q410.18054 237.74065 410.47742 237.35002Q410.78992 236.9594 410.78992 235.8969Q410.78992 234.92815 410.47742 234.53752Q410.16492 234.1469 409.7118 234.1469ZM409.7118 243.86565L415.19617 233.30315L416.19617 233.30315L410.74304 243.86565L409.7118 243.86565ZM414.05554 241.13127Q414.05554 240.05315 414.5868 239.31877Q415.13367 238.56877 416.16492 238.56877Q417.10242 238.56877 417.72742 239.24065Q418.35242 239.91252 418.35242 241.2094Q418.35242 242.49065 417.72742 243.17815Q417.10242 243.86565 416.16492 243.86565Q415.25867 243.86565 414.6493 243.19377Q414.05554 242.50627 414.05554 241.13127ZM416.19617 239.41252Q415.72742 239.41252 415.43054 239.81877Q415.13367 240.2094 415.13367 241.25627Q415.13367 242.22502 415.43054 242.61565Q415.74304 243.00627 416.19617 243.00627Q416.66492 243.00627 416.9618 242.61565Q417.2743 242.22502 417.2743 241.16252Q417.2743 240.19377 416.9618 239.80315Q416.66492 239.41252 416.19617 239.41252Z" fill-rule="nonzero"/><path fill="#000000" d="M321.60696 393.21686L321.60696 394.40436L314.98196 394.40436Q314.96634 393.96686 315.1226 393.54498Q315.3882 392.8731 315.9351 392.21686Q316.4976 391.5606 317.54446 390.70123Q319.1851 389.35748 319.7476 388.57623Q320.3257 387.79498 320.3257 387.09186Q320.3257 386.35748 319.79446 385.85748Q319.27884 385.35748 318.4507 385.35748Q317.5601 385.35748 317.0132 385.88873Q316.48196 386.41998 316.48196 387.3731L315.21634 387.23248Q315.34134 385.82623 316.1851 385.09186Q317.04446 384.34186 318.46634 384.34186Q319.91946 384.34186 320.7476 385.13873Q321.59134 385.9356 321.59134 387.1231Q321.59134 387.73248 321.34134 388.3106Q321.10696 388.88873 320.52884 389.52936Q319.96634 390.16998 318.6382 391.29498Q317.52884 392.21686 317.21634 392.5606Q316.90384 392.88873 316.7007 393.21686L321.60696 393.21686ZM323.1382 389.46686Q323.1382 387.6856 323.4976 386.60748Q323.8726 385.51373 324.59134 384.9356Q325.3101 384.34186 326.40384 384.34186Q327.21634 384.34186 327.8257 384.66998Q328.4351 384.9981 328.8257 385.60748Q329.23196 386.21686 329.4507 387.09186Q329.66946 387.96686 329.66946 389.46686Q329.66946 391.23248 329.3101 392.3106Q328.9507 393.38873 328.23196 393.98248Q327.5132 394.57623 326.40384 394.57623Q324.96634 394.57623 324.1382 393.52936Q323.1382 392.27936 323.1382 389.46686ZM324.40384 389.46686Q324.40384 391.9356 324.98196 392.7481Q325.5601 393.5606 326.40384 393.5606Q327.2632 393.5606 327.84134 392.7481Q328.41946 391.91998 328.41946 389.46686Q328.41946 386.98248 327.84134 386.16998Q327.2632 385.35748 326.3882 385.35748Q325.54446 385.35748 325.04446 386.07623Q324.40384 386.9981 324.40384 389.46686ZM331.8257 394.40436L331.8257 392.9981L333.23196 392.9981L333.23196 394.40436L331.8257 394.40436ZM335.1382 389.46686Q335.1382 387.6856 335.4976 386.60748Q335.8726 385.51373 336.59134 384.9356Q337.3101 384.34186 338.40384 384.34186Q339.21634 384.34186 339.8257 384.66998Q340.4351 384.9981 340.8257 385.60748Q341.23196 386.21686 341.4507 387.09186Q341.66946 387.96686 341.66946 389.46686Q341.66946 391.23248 341.3101 392.3106Q340.9507 393.38873 340.23196 393.98248Q339.5132 394.57623 338.40384 394.57623Q336.96634 394.57623 336.1382 393.52936Q335.1382 392.27936 335.1382 389.46686ZM336.40384 389.46686Q336.40384 391.9356 336.98196 392.7481Q337.5601 393.5606 338.40384 393.5606Q339.2632 393.5606 339.84134 392.7481Q340.41946 391.91998 340.41946 389.46686Q340.41946 386.98248 339.84134 386.16998Q339.2632 385.35748 338.3882 385.35748Q337.54446 385.35748 337.04446 386.07623Q336.40384 386.9981 336.40384 389.46686ZM343.3726 386.79498Q343.3726 385.71686 343.90384 384.96686Q344.4507 384.21686 345.48196 384.21686Q346.41946 384.21686 347.02884 384.88873Q347.65384 385.5606 347.65384 386.85748Q347.65384 388.13873 347.02884 388.82623Q346.40384 389.51373 345.4976 389.51373Q344.59134 389.51373 343.98196 388.84186Q343.3726 388.15436 343.3726 386.79498ZM345.5132 385.0606Q345.0601 385.0606 344.7476 385.46686Q344.4507 385.85748 344.4507 386.90436Q344.4507 387.8731 344.7476 388.26373Q345.0601 388.65436 345.5132 388.65436Q345.98196 388.65436 346.27884 388.26373Q346.59134 387.8731 346.59134 386.8106Q346.59134 385.84186 346.27884 385.45123Q345.96634 385.0606 345.5132 385.0606ZM345.5132 394.77936L350.9976 384.21686L351.9976 384.21686L346.54446 394.77936L345.5132 394.77936ZM349.85696 392.04498Q349.85696 390.96686 350.3882 390.23248Q350.9351 389.48248 351.96634 389.48248Q352.90384 389.48248 353.52884 390.15436Q354.15384 390.82623 354.15384 392.1231Q354.15384 393.40436 353.52884 394.09186Q352.90384 394.77936 351.96634 394.77936Q351.0601 394.77936 350.4507 394.10748Q349.85696 393.41998 349.85696 392.04498ZM351.9976 390.32623Q351.52884 390.32623 351.23196 390.73248Q350.9351 391.1231 350.9351 392.16998Q350.9351 393.13873 351.23196 393.52936Q351.54446 393.91998 351.9976 393.91998Q352.46634 393.91998 352.7632 393.52936Q353.0757 393.13873 353.0757 392.07623Q353.0757 391.10748 352.7632 390.71686Q352.46634 390.32623 351.9976 390.32623Z" fill-rule="nonzero"/><path fill="#000000" d="M178.10643 421.96738L176.87206 421.96738L176.87206 414.12363Q176.43456 414.5455 175.70018 414.983Q174.98143 415.40488 174.41893 415.608L174.41893 414.4205Q175.45018 413.93613 176.2158 413.24863Q176.99706 412.56113 177.30956 411.90488L178.10643 411.90488L178.10643 421.96738ZM181.4658 417.02988Q181.4658 415.24863 181.82518 414.1705Q182.20018 413.07675 182.91893 412.49863Q183.63768 411.90488 184.73143 411.90488Q185.54393 411.90488 186.1533 412.233Q186.76268 412.56113 187.1533 413.1705Q187.55956 413.77988 187.7783 414.65488Q187.99706 415.52988 187.99706 417.02988Q187.99706 418.7955 187.63768 419.87363Q187.2783 420.95175 186.55956 421.5455Q185.8408 422.13925 184.73143 422.13925Q183.29393 422.13925 182.4658 421.09238Q181.4658 419.84238 181.4658 417.02988ZM182.73143 417.02988Q182.73143 419.49863 183.30956 420.31113Q183.88768 421.12363 184.73143 421.12363Q185.5908 421.12363 186.16893 420.31113Q186.74706 419.483 186.74706 417.02988Q186.74706 414.5455 186.16893 413.733Q185.5908 412.9205 184.7158 412.9205Q183.87206 412.9205 183.37206 413.63925Q182.73143 414.56113 182.73143 417.02988ZM190.1533 421.96738L190.1533 420.56113L191.55956 420.56113L191.55956 421.96738L190.1533 421.96738ZM193.4658 417.02988Q193.4658 415.24863 193.82518 414.1705Q194.20018 413.07675 194.91893 412.49863Q195.63768 411.90488 196.73143 411.90488Q197.54393 411.90488 198.1533 412.233Q198.76268 412.56113 199.1533 413.1705Q199.55956 413.77988 199.7783 414.65488Q199.99706 415.52988 199.99706 417.02988Q199.99706 418.7955 199.63768 419.87363Q199.2783 420.95175 198.55956 421.5455Q197.8408 422.13925 196.73143 422.13925Q195.29393 422.13925 194.4658 421.09238Q193.4658 419.84238 193.4658 417.02988ZM194.73143 417.02988Q194.73143 419.49863 195.30956 420.31113Q195.88768 421.12363 196.73143 421.12363Q197.5908 421.12363 198.16893 420.31113Q198.74706 419.483 198.74706 417.02988Q198.74706 414.5455 198.16893 413.733Q197.5908 412.9205 196.7158 412.9205Q195.87206 412.9205 195.37206 413.63925Q194.73143 414.56113 194.73143 417.02988ZM201.70018 414.358Q201.70018 413.27988 202.23143 412.52988Q202.7783 411.77988 203.80956 411.77988Q204.74706 411.77988 205.35643 412.45175Q205.98143 413.12363 205.98143 414.4205Q205.98143 415.70175 205.35643 416.38925Q204.73143 417.07675 203.82518 417.07675Q202.91893 417.07675 202.30956 416.40488Q201.70018 415.71738 201.70018 414.358ZM203.8408 412.62363Q203.38768 412.62363 203.07518 413.02988Q202.7783 413.4205 202.7783 414.46738Q202.7783 415.43613 203.07518 415.82675Q203.38768 416.21738 203.8408 416.21738Q204.30956 416.21738 204.60643 415.82675Q204.91893 415.43613 204.91893 414.37363Q204.91893 413.40488 204.60643 413.01425Q204.29393 412.62363 203.8408 412.62363ZM203.8408 422.34238L209.32518 411.77988L210.32518 411.77988L204.87206 422.34238L203.8408 422.34238ZM208.18456 419.608Q208.18456 418.52988 208.7158 417.7955Q209.26268 417.0455 210.29393 417.0455Q211.23143 417.0455 211.85643 417.71738Q212.48143 418.38925 212.48143 419.68613Q212.48143 420.96738 211.85643 421.65488Q211.23143 422.34238 210.29393 422.34238Q209.38768 422.34238 208.7783 421.6705Q208.18456 420.983 208.18456 419.608ZM210.32518 417.88925Q209.85643 417.88925 209.55956 418.2955Q209.26268 418.68613 209.26268 419.733Q209.26268 420.70175 209.55956 421.09238Q209.87206 421.483 210.32518 421.483Q210.79393 421.483 211.0908 421.09238Q211.4033 420.70175 211.4033 419.63925Q211.4033 418.6705 211.0908 418.27988Q210.79393 417.88925 210.32518 417.88925Z" fill-rule="nonzero"/><path fill="#000000" d="M116.084366 376.90723L117.38124 376.79785Q117.521866 377.73535 118.03749 378.21973Q118.56874 378.68848 119.303116 378.68848Q120.19374 378.68848 120.803116 378.0166Q121.428116 377.34473 121.428116 376.25098Q121.428116 375.18848 120.834366 374.5791Q120.240616 373.96973 119.28749 373.96973Q118.69374 373.96973 118.209366 374.25098Q117.740616 374.5166 117.459366 374.93848L116.303116 374.79785L117.271866 369.6416L122.25624 369.6416L122.25624 370.8291L118.25624 370.8291L117.72499 373.5166Q118.63124 372.8916 119.615616 372.8916Q120.928116 372.8916 121.81874 373.79785Q122.72499 374.7041 122.72499 376.1416Q122.72499 377.50098 121.94374 378.48535Q120.97499 379.7041 119.303116 379.7041Q117.94374 379.7041 117.06874 378.93848Q116.209366 378.17285 116.084366 376.90723ZM124.771866 379.53223L124.771866 378.12598L126.178116 378.12598L126.178116 379.53223L124.771866 379.53223ZM128.08437 374.59473Q128.08437 372.81348 128.44374 371.73535Q128.81874 370.6416 129.53749 370.06348Q130.25624 369.46973 131.34999 369.46973Q132.16249 369.46973 132.77187 369.79785Q133.38124 370.12598 133.77187 370.73535Q134.17812 371.34473 134.39687 372.21973Q134.61562 373.09473 134.61562 374.59473Q134.61562 376.36035 134.25624 377.43848Q133.89687 378.5166 133.17812 379.11035Q132.45937 379.7041 131.34999 379.7041Q129.91249 379.7041 129.08437 378.65723Q128.08437 377.40723 128.08437 374.59473ZM129.34999 374.59473Q129.34999 377.06348 129.92812 377.87598Q130.50624 378.68848 131.34999 378.68848Q132.20937 378.68848 132.78749 377.87598Q133.36562 377.04785 133.36562 374.59473Q133.36562 372.11035 132.78749 371.29785Q132.20937 370.48535 131.33437 370.48535Q130.49062 370.48535 129.99062 371.2041Q129.34999 372.12598 129.34999 374.59473ZM136.31874 371.92285Q136.31874 370.84473 136.84999 370.09473Q137.39687 369.34473 138.42812 369.34473Q139.36562 369.34473 139.97499 370.0166Q140.59999 370.68848 140.59999 371.98535Q140.59999 373.2666 139.97499 373.9541Q139.34999 374.6416 138.44374 374.6416Q137.53749 374.6416 136.92812 373.96973Q136.31874 373.28223 136.31874 371.92285ZM138.45937 370.18848Q138.00624 370.18848 137.69374 370.59473Q137.39687 370.98535 137.39687 372.03223Q137.39687 373.00098 137.69374 373.3916Q138.00624 373.78223 138.45937 373.78223Q138.92812 373.78223 139.22499 373.3916Q139.53749 373.00098 139.53749 371.93848Q139.53749 370.96973 139.22499 370.5791Q138.91249 370.18848 138.45937 370.18848ZM138.45937 379.90723L143.94374 369.34473L144.94374 369.34473L139.49062 379.90723L138.45937 379.90723ZM142.80312 377.17285Q142.80312 376.09473 143.33437 375.36035Q143.88124 374.61035 144.91249 374.61035Q145.84999 374.61035 146.47499 375.28223Q147.09999 375.9541 147.09999 377.25098Q147.09999 378.53223 146.47499 379.21973Q145.84999 379.90723 144.91249 379.90723Q144.00624 379.90723 143.39687 379.23535Q142.80312 378.54785 142.80312 377.17285ZM144.94374 375.4541Q144.47499 375.4541 144.17812 375.86035Q143.88124 376.25098 143.88124 377.29785Q143.88124 378.2666 144.17812 378.65723Q144.49062 379.04785 144.94374 379.04785Q145.41249 379.04785 145.70937 378.65723Q146.02187 378.2666 146.02187 377.2041Q146.02187 376.23535 145.70937 375.84473Q145.41249 375.4541 144.94374 375.4541Z" fill-rule="nonzero"/><path fill="#000000" d="M73.527336 297.66467L72.29296 297.66467L72.29296 289.82092Q71.85546 290.2428 71.121086 290.6803Q70.402336 291.10217 69.839836 291.3053L69.839836 290.1178Q70.871086 289.63342 71.63671 288.94592Q72.41796 288.25842 72.73046 287.60217L73.527336 287.60217L73.527336 297.66467ZM76.88671 292.72717Q76.88671 290.94592 77.246086 289.8678Q77.621086 288.77405 78.339836 288.19592Q79.058586 287.60217 80.152336 287.60217Q80.964836 287.60217 81.57421 287.9303Q82.183586 288.25842 82.57421 288.8678Q82.98046 289.47717 83.19921 290.35217Q83.41796 291.22717 83.41796 292.72717Q83.41796 294.4928 83.058586 295.57092Q82.69921 296.64905 81.98046 297.2428Q81.26171 297.83655 80.152336 297.83655Q78.714836 297.83655 77.88671 296.78967Q76.88671 295.53967 76.88671 292.72717ZM78.152336 292.72717Q78.152336 295.19592 78.73046 296.00842Q79.308586 296.82092 80.152336 296.82092Q81.01171 296.82092 81.589836 296.00842Q82.16796 295.1803 82.16796 292.72717Q82.16796 290.2428 81.589836 289.4303Q81.01171 288.6178 80.13671 288.6178Q79.29296 288.6178 78.79296 289.33655Q78.152336 290.25842 78.152336 292.72717ZM85.57421 297.66467L85.57421 296.25842L86.98046 296.25842L86.98046 297.66467L85.57421 297.66467ZM88.88671 292.72717Q88.88671 290.94592 89.246086 289.8678Q89.621086 288.77405 90.339836 288.19592Q91.058586 287.60217 92.152336 287.60217Q92.964836 287.60217 93.57421 287.9303Q94.183586 288.25842 94.57421 288.8678Q94.98046 289.47717 95.19921 290.35217Q95.41796 291.22717 95.41796 292.72717Q95.41796 294.4928 95.058586 295.57092Q94.69921 296.64905 93.98046 297.2428Q93.26171 297.83655 92.152336 297.83655Q90.714836 297.83655 89.88671 296.78967Q88.88671 295.53967 88.88671 292.72717ZM90.152336 292.72717Q90.152336 295.19592 90.73046 296.00842Q91.308586 296.82092 92.152336 296.82092Q93.01171 296.82092 93.589836 296.00842Q94.16796 295.1803 94.16796 292.72717Q94.16796 290.2428 93.589836 289.4303Q93.01171 288.6178 92.13671 288.6178Q91.29296 288.6178 90.79296 289.33655Q90.152336 290.25842 90.152336 292.72717ZM97.121086 290.0553Q97.121086 288.97717 97.652336 288.22717Q98.19921 287.47717 99.23046 287.47717Q100.16796 287.47717 100.777336 288.14905Q101.402336 288.82092 101.402336 290.1178Q101.402336 291.39905 100.777336 292.08655Q100.152336 292.77405 99.246086 292.77405Q98.339836 292.77405 97.73046 292.10217Q97.121086 291.41467 97.121086 290.0553ZM99.26171 288.32092Q98.808586 288.32092 98.496086 288.72717Q98.19921 289.1178 98.19921 290.16467Q98.19921 291.13342 98.496086 291.52405Q98.808586 291.91467 99.26171 291.91467Q99.73046 291.91467 100.027336 291.52405Q100.339836 291.13342 100.339836 290.07092Q100.339836 289.10217 100.027336 288.71155Q99.714836 288.32092 99.26171 288.32092ZM99.26171 298.03967L104.746086 287.47717L105.746086 287.47717L100.29296 298.03967L99.26171 298.03967ZM103.60546 295.3053Q103.60546 294.22717 104.13671 293.4928Q104.683586 292.7428 105.714836 292.7428Q106.652336 292.7428 107.277336 293.41467Q107.902336 294.08655 107.902336 295.38342Q107.902336 296.66467 107.277336 297.35217Q106.652336 298.03967 105.714836 298.03967Q104.808586 298.03967 104.19921 297.3678Q103.60546 296.6803 103.60546 295.3053ZM105.746086 293.58655Q105.277336 293.58655 104.98046 293.9928Q104.683586 294.38342 104.683586 295.4303Q104.683586 296.39905 104.98046 296.78967Q105.29296 297.1803 105.746086 297.1803Q106.214836 297.1803 106.51171 296.78967Q106.82421 296.39905 106.82421 295.33655Q106.82421 294.3678 106.51171 293.97717Q106.214836 293.58655 105.746086 293.58655Z" fill-rule="nonzero"/><path fill="#000000" d="M127.38313 150.711L127.38313 151.8985L120.75813 151.8985Q120.74251 151.461 120.89876 151.03912Q121.16438 150.36725 121.71126 149.711Q122.27376 149.05475 123.32063 148.19537Q124.96126 146.85162 125.52376 146.07037Q126.10188 145.28912 126.10188 144.586Q126.10188 143.85162 125.57063 143.35162Q125.05501 142.85162 124.22688 142.85162Q123.33626 142.85162 122.78938 143.38287Q122.25813 143.91412 122.25813 144.86725L120.99251 144.72662Q121.11751 143.32037 121.96126 142.586Q122.82063 141.836 124.24251 141.836Q125.69563 141.836 126.52376 142.63287Q127.36751 143.42975 127.36751 144.61725Q127.36751 145.22662 127.11751 145.80475Q126.88313 146.38287 126.30501 147.0235Q125.74251 147.66412 124.41438 148.78912Q123.30501 149.711 122.99251 150.05475Q122.68001 150.38287 122.47688 150.711L127.38313 150.711ZM128.93001 149.25787L130.14876 149.086Q130.36751 150.13287 130.86751 150.60162Q131.38313 151.05475 132.11751 151.05475Q132.99251 151.05475 133.58626 150.461Q134.18001 149.85162 134.18001 148.961Q134.18001 148.11725 133.61751 147.57037Q133.07063 147.0235 132.22688 147.0235Q131.86751 147.0235 131.35188 147.1485L131.49251 146.07037Q131.61751 146.086 131.68001 146.086Q132.47688 146.086 133.10188 145.67975Q133.72688 145.2735 133.72688 144.41412Q133.72688 143.74225 133.27376 143.30475Q132.82063 142.85162 132.08626 142.85162Q131.36751 142.85162 130.88313 143.30475Q130.41438 143.74225 130.27376 144.6485L129.05501 144.42975Q129.27376 143.19537 130.07063 142.5235Q130.86751 141.836 132.05501 141.836Q132.88313 141.836 133.57063 142.19537Q134.25813 142.53912 134.61751 143.1485Q134.99251 143.75787 134.99251 144.44537Q134.99251 145.086 134.64876 145.61725Q134.30501 146.1485 133.61751 146.47662Q134.50813 146.67975 134.99251 147.32037Q135.49251 147.961 135.49251 148.94537Q135.49251 150.25787 134.52376 151.16412Q133.57063 152.07037 132.11751 152.07037Q130.78938 152.07037 129.91438 151.28912Q129.05501 150.50787 128.93001 149.25787ZM137.60188 151.8985L137.60188 150.49225L139.00813 150.49225L139.00813 151.8985L137.60188 151.8985ZM140.91438 146.961Q140.91438 145.17975 141.27376 144.10162Q141.64876 143.00787 142.36751 142.42975Q143.08626 141.836 144.18001 141.836Q144.99251 141.836 145.60188 142.16412Q146.21126 142.49225 146.60188 143.10162Q147.00813 143.711 147.22688 144.586Q147.44563 145.461 147.44563 146.961Q147.44563 148.72662 147.08626 149.80475Q146.72688 150.88287 146.00813 151.47662Q145.28938 152.07037 144.18001 152.07037Q142.74251 152.07037 141.91438 151.0235Q140.91438 149.7735 140.91438 146.961ZM142.18001 146.961Q142.18001 149.42975 142.75813 150.24225Q143.33626 151.05475 144.18001 151.05475Q145.03938 151.05475 145.61751 150.24225Q146.19563 149.41412 146.19563 146.961Q146.19563 144.47662 145.61751 143.66412Q145.03938 142.85162 144.16438 142.85162Q143.32063 142.85162 142.82063 143.57037Q142.18001 144.49225 142.18001 146.961ZM149.14876 144.28912Q149.14876 143.211 149.68001 142.461Q150.22688 141.711 151.25813 141.711Q152.19563 141.711 152.80501 142.38287Q153.43001 143.05475 153.43001 144.35162Q153.43001 145.63287 152.80501 146.32037Q152.18001 147.00787 151.27376 147.00787Q150.36751 147.00787 149.75813 146.336Q149.14876 145.6485 149.14876 144.28912ZM151.28938 142.55475Q150.83626 142.55475 150.52376 142.961Q150.22688 143.35162 150.22688 144.3985Q150.22688 145.36725 150.52376 145.75787Q150.83626 146.1485 151.28938 146.1485Q151.75813 146.1485 152.05501 145.75787Q152.36751 145.36725 152.36751 144.30475Q152.36751 143.336 152.05501 142.94537Q151.74251 142.55475 151.28938 142.55475ZM151.28938 152.2735L156.77376 141.711L157.77376 141.711L152.32063 152.2735L151.28938 152.2735ZM155.63313 149.53912Q155.63313 148.461 156.16438 147.72662Q156.71126 146.97662 157.74251 146.97662Q158.68001 146.97662 159.30501 147.6485Q159.93001 148.32037 159.93001 149.61725Q159.93001 150.8985 159.30501 151.586Q158.68001 152.2735 157.74251 152.2735Q156.83626 152.2735 156.22688 151.60162Q155.63313 150.91412 155.63313 149.53912ZM157.77376 147.82037Q157.30501 147.82037 157.00813 148.22662Q156.71126 148.61725 156.71126 149.66412Q156.71126 150.63287 157.00813 151.0235Q157.32063 151.41412 157.77376 151.41412Q158.24251 151.41412 158.53938 151.0235Q158.85188 150.63287 158.85188 149.57037Q158.85188 148.60162 158.53938 148.211Q158.24251 147.82037 157.77376 147.82037Z" fill-rule="nonzero"/><path fill="#4285f4" d="M485.5058 162.1639C485.5058 165.4776 482.81952 168.1639 479.5058 168.1639C476.1921 168.1639 473.5058 165.4776 473.5058 162.1639C473.5058 158.85019 476.1921 156.1639 479.5058 156.1639C482.81952 156.1639 485.5058 158.85019 485.5058 162.1639Z" fill-rule="nonzero"/><path fill="#ffffff" d="M494.53705 167.1639L494.53705 157.14827L498.28705 157.14827Q499.4433 157.14827 500.1308 157.46077Q500.83392 157.75764 501.22455 158.38264Q501.61517 159.00764 501.61517 159.71077Q501.61517 160.3514 501.2558 160.9139Q500.91205 161.4764 500.20892 161.83577Q501.11517 162.1014 501.59955 162.74202Q502.09955 163.38264 502.09955 164.25764Q502.09955 164.96077 501.80267 165.57014Q501.5058 166.17952 501.0683 166.50764Q500.6308 166.83577 499.95892 167.00764Q499.30267 167.1639 498.34955 167.1639L494.53705 167.1639ZM495.86517 161.3514L498.02142 161.3514Q498.91205 161.3514 499.28705 161.24202Q499.80267 161.08577 500.05267 160.74202Q500.30267 160.38264 500.30267 159.86702Q500.30267 159.36702 500.0683 158.99202Q499.83392 158.6014 499.3808 158.46077Q498.9433 158.32014 497.86517 158.32014L495.86517 158.32014L495.86517 161.3514ZM495.86517 165.9764L498.34955 165.9764Q498.99017 165.9764 499.2558 165.92952Q499.70892 165.8514 500.02142 165.6639Q500.33392 165.46077 500.52142 165.1014Q500.72455 164.74202 500.72455 164.25764Q500.72455 163.69514 500.42767 163.2889Q500.14642 162.86702 499.6308 162.71077Q499.1308 162.5389 498.17767 162.5389L495.86517 162.5389L495.86517 165.9764ZM502.9433 164.99202L504.14642 164.80452Q504.2558 165.5389 504.72455 165.92952Q505.1933 166.32014 506.03705 166.32014Q506.8808 166.32014 507.28705 165.9764Q507.70892 165.63264 507.70892 165.1639Q507.70892 164.74202 507.33392 164.50764Q507.08392 164.33577 506.08392 164.08577Q504.72455 163.74202 504.1933 163.49202Q503.67767 163.24202 503.41205 162.80452Q503.14642 162.36702 503.14642 161.83577Q503.14642 161.3514 503.36517 160.94514Q503.58392 160.52327 503.97455 160.24202Q504.2558 160.0389 504.74017 159.89827Q505.24017 159.74202 505.8183 159.74202Q506.66205 159.74202 507.30267 159.99202Q507.95892 160.2264 508.27142 160.64827Q508.58392 161.07014 508.6933 161.77327L507.49017 161.94514Q507.41205 161.38264 507.0058 161.07014Q506.61517 160.75764 505.89642 160.75764Q505.05267 160.75764 504.6933 161.0389Q504.33392 161.30452 504.33392 161.69514Q504.33392 161.92952 504.47455 162.11702Q504.6308 162.32014 504.95892 162.44514Q505.1308 162.50764 506.03705 162.75764Q507.34955 163.11702 507.86517 163.33577Q508.3808 163.55452 508.66205 163.9764Q508.95892 164.39827 508.95892 165.02327Q508.95892 165.64827 508.59955 166.19514Q508.2558 166.7264 507.5683 167.0389Q506.89642 167.33577 506.03705 167.33577Q504.6308 167.33577 503.8808 166.74202Q503.14642 166.14827 502.9433 164.99202ZM515.16205 164.50764L516.3808 164.6639Q516.1777 165.9139 515.34955 166.63264Q514.53705 167.33577 513.34955 167.33577Q511.86517 167.33577 510.95892 166.36702Q510.05267 165.38264 510.05267 163.55452Q510.05267 162.38264 510.4433 161.50764Q510.83392 160.61702 511.6308 160.17952Q512.4277 159.74202 513.3652 159.74202Q514.53705 159.74202 515.28705 160.33577Q516.0527 160.92952 516.2558 162.0389L515.0683 162.2264Q514.8964 161.49202 514.4589 161.13264Q514.0214 160.75764 513.41205 160.75764Q512.47455 160.75764 511.89642 161.42952Q511.3183 162.08577 511.3183 163.52327Q511.3183 164.99202 511.8808 165.6639Q512.4433 166.32014 513.3339 166.32014Q514.0683 166.32014 514.5527 165.88264Q515.03705 165.42952 515.16205 164.50764ZM521.3964 167.1639L521.3964 157.14827L522.6308 157.14827L522.6308 167.1639L521.3964 167.1639ZM529.16205 166.27327Q528.4902 166.8514 527.84955 167.1014Q527.22455 167.33577 526.4902 167.33577Q525.3027 167.33577 524.6464 166.75764Q524.0058 166.1639 524.0058 165.24202Q524.0058 164.71077 524.2402 164.27327Q524.4902 163.83577 524.8808 163.57014Q525.28705 163.30452 525.7714 163.1639Q526.1308 163.07014 526.8652 162.9764Q528.3652 162.80452 529.0683 162.55452Q529.0683 162.30452 529.0683 162.24202Q529.0683 161.4764 528.72455 161.17952Q528.2558 160.75764 527.3183 160.75764Q526.4589 160.75764 526.03705 161.07014Q525.6308 161.36702 525.4277 162.13264L524.22455 161.9764Q524.3808 161.19514 524.7558 160.7264Q525.1464 160.25764 525.84955 160.00764Q526.5683 159.74202 527.5058 159.74202Q528.4277 159.74202 529.0058 159.96077Q529.5839 160.17952 529.84955 160.50764Q530.1308 160.83577 530.2402 161.3514Q530.3027 161.6639 530.3027 162.4764L530.3027 164.11702Q530.3027 165.83577 530.3808 166.2889Q530.4589 166.74202 530.6933 167.1639L529.41205 167.1639Q529.22455 166.77327 529.16205 166.27327ZM529.0683 163.52327Q528.3964 163.7889 527.0527 163.99202Q526.3027 164.1014 525.97455 164.24202Q525.66205 164.36702 525.4902 164.63264Q525.3183 164.89827 525.3183 165.21077Q525.3183 165.71077 525.6933 166.0389Q526.0683 166.36702 526.78705 166.36702Q527.5058 166.36702 528.0527 166.05452Q528.59955 165.74202 528.8652 165.19514Q529.0683 164.7889 529.0683 163.9764L529.0683 163.52327ZM537.1933 167.1639L537.1933 166.1014Q536.3339 167.33577 534.8808 167.33577Q534.2402 167.33577 533.6777 167.08577Q533.1308 166.83577 532.84955 166.46077Q532.5839 166.08577 532.47455 165.55452Q532.3964 165.19514 532.3964 164.39827L532.3964 159.89827L533.6308 159.89827L533.6308 163.92952Q533.6308 164.89827 533.7089 165.2264Q533.8183 165.71077 534.1933 165.99202Q534.5683 166.27327 535.1308 166.27327Q535.6777 166.27327 536.16205 165.99202Q536.6464 165.69514 536.84955 165.21077Q537.0527 164.7264 537.0527 163.7889L537.0527 159.89827L538.28705 159.89827L538.28705 167.1639L537.1933 167.1639ZM540.4277 167.1639L540.4277 159.89827L541.53705 159.89827L541.53705 160.92952Q542.3339 159.74202 543.84955 159.74202Q544.5058 159.74202 545.0527 159.9764Q545.59955 160.21077 545.8652 160.6014Q546.1464 160.9764 546.2558 161.50764Q546.3339 161.8514 546.3339 162.69514L546.3339 167.1639L545.09955 167.1639L545.09955 162.74202Q545.09955 161.99202 544.9589 161.63264Q544.8183 161.25764 544.4433 161.0389Q544.0839 160.80452 543.5839 160.80452Q542.8027 160.80452 542.22455 161.30452Q541.66205 161.80452 541.66205 163.19514L541.66205 167.1639L540.4277 167.1639ZM553.16205 164.50764L554.3808 164.6639Q554.1777 165.9139 553.34955 166.63264Q552.53705 167.33577 551.34955 167.33577Q549.8652 167.33577 548.9589 166.36702Q548.0527 165.38264 548.0527 163.55452Q548.0527 162.38264 548.4433 161.50764Q548.8339 160.61702 549.6308 160.17952Q550.4277 159.74202 551.3652 159.74202Q552.53705 159.74202 553.28705 160.33577Q554.0527 160.92952 554.2558 162.0389L553.0683 162.2264Q552.8964 161.49202 552.4589 161.13264Q552.0214 160.75764 551.41205 160.75764Q550.47455 160.75764 549.8964 161.42952Q549.3183 162.08577 549.3183 163.52327Q549.3183 164.99202 549.8808 165.6639Q550.4433 166.32014 551.3339 166.32014Q552.0683 166.32014 552.5527 165.88264Q553.03705 165.42952 553.16205 164.50764ZM555.4277 167.1639L555.4277 157.14827L556.66205 157.14827L556.66205 160.74202Q557.5214 159.74202 558.8339 159.74202Q559.6464 159.74202 560.2402 160.07014Q560.8339 160.38264 561.0839 160.94514Q561.34955 161.49202 561.34955 162.57014L561.34955 167.1639L560.1152 167.1639L560.1152 162.57014Q560.1152 161.63264 559.7089 161.2264Q559.3183 160.80452 558.5839 160.80452Q558.03705 160.80452 557.5527 161.08577Q557.0683 161.36702 556.8652 161.8514Q556.66205 162.33577 556.66205 163.19514L556.66205 167.1639L555.4277 167.1639Z" fill-rule="nonzero"/><path fill="#ea4335" d="M485.5058 188.1639C485.5058 191.4776 482.81952 194.1639 479.5058 194.1639C476.1921 194.1639 473.5058 191.4776 473.5058 188.1639C473.5058 184.85019 476.1921 182.1639 479.5058 182.1639C482.81952 182.1639 485.5058 184.85019 485.5058 188.1639Z" fill-rule="nonzero"/><path fill="#ffffff" d="M494.61517 193.1639L494.61517 183.14827L501.86517 183.14827L501.86517 184.32014L495.9433 184.32014L495.9433 187.39827L501.49017 187.39827L501.49017 188.57014L495.9433 188.57014L495.9433 191.9764L502.09955 191.9764L502.09955 193.1639L494.61517 193.1639ZM506.11517 192.07014L506.28705 193.14827Q505.77142 193.25764 505.36517 193.25764Q504.6933 193.25764 504.3183 193.05452Q503.95892 192.83577 503.80267 192.49202Q503.66205 192.14827 503.66205 191.0389L503.66205 186.86702L502.7558 186.86702L502.7558 185.89827L503.66205 185.89827L503.66205 184.1014L504.8808 183.36702L504.8808 185.89827L506.11517 185.89827L506.11517 186.86702L504.8808 186.86702L504.8808 191.1014Q504.8808 191.63264 504.9433 191.7889Q505.0058 191.92952 505.14642 192.02327Q505.30267 192.11702 505.5683 192.11702Q505.78705 192.11702 506.11517 192.07014ZM507.42767 193.1639L507.42767 183.14827L508.66205 183.14827L508.66205 186.74202Q509.52142 185.74202 510.83392 185.74202Q511.64642 185.74202 512.2402 186.07014Q512.8339 186.38264 513.0839 186.94514Q513.34955 187.49202 513.34955 188.57014L513.34955 193.1639L512.1152 193.1639L512.1152 188.57014Q512.1152 187.63264 511.70892 187.2264Q511.3183 186.80452 510.58392 186.80452Q510.03705 186.80452 509.55267 187.08577Q509.0683 187.36702 508.86517 187.8514Q508.66205 188.33577 508.66205 189.19514L508.66205 193.1639L507.42767 193.1639ZM519.3964 193.1639L519.3964 183.14827L520.6308 183.14827L520.6308 193.1639L519.3964 193.1639ZM527.16205 192.27327Q526.4902 192.8514 525.84955 193.1014Q525.22455 193.33577 524.4902 193.33577Q523.3027 193.33577 522.6464 192.75764Q522.0058 192.1639 522.0058 191.24202Q522.0058 190.71077 522.2402 190.27327Q522.4902 189.83577 522.8808 189.57014Q523.28705 189.30452 523.7714 189.1639Q524.1308 189.07014 524.8652 188.9764Q526.3652 188.80452 527.0683 188.55452Q527.0683 188.30452 527.0683 188.24202Q527.0683 187.4764 526.72455 187.17952Q526.2558 186.75764 525.3183 186.75764Q524.4589 186.75764 524.03705 187.07014Q523.6308 187.36702 523.4277 188.13264L522.22455 187.9764Q522.3808 187.19514 522.7558 186.7264Q523.1464 186.25764 523.84955 186.00764Q524.5683 185.74202 525.5058 185.74202Q526.4277 185.74202 527.0058 185.96077Q527.5839 186.17952 527.84955 186.50764Q528.1308 186.83577 528.2402 187.3514Q528.3027 187.6639 528.3027 188.4764L528.3027 190.11702Q528.3027 191.83577 528.3808 192.2889Q528.4589 192.74202 528.6933 193.1639L527.41205 193.1639Q527.22455 192.77327 527.16205 192.27327ZM527.0683 189.52327Q526.3964 189.7889 525.0527 189.99202Q524.3027 190.1014 523.97455 190.24202Q523.66205 190.36702 523.4902 190.63264Q523.3183 190.89827 523.3183 191.21077Q523.3183 191.71077 523.6933 192.0389Q524.0683 192.36702 524.78705 192.36702Q525.5058 192.36702 526.0527 192.05452Q526.59955 191.74202 526.8652 191.19514Q527.0683 190.7889 527.0683 189.9764L527.0683 189.52327ZM535.1933 193.1639L535.1933 192.1014Q534.3339 193.33577 532.8808 193.33577Q532.2402 193.33577 531.6777 193.08577Q531.1308 192.83577 530.84955 192.46077Q530.5839 192.08577 530.47455 191.55452Q530.3964 191.19514 530.3964 190.39827L530.3964 185.89827L531.6308 185.89827L531.6308 189.92952Q531.6308 190.89827 531.7089 191.2264Q531.8183 191.71077 532.1933 191.99202Q532.5683 192.27327 533.1308 192.27327Q533.6777 192.27327 534.16205 191.99202Q534.6464 191.69514 534.84955 191.21077Q535.0527 190.7264 535.0527 189.7889L535.0527 185.89827L536.28705 185.89827L536.28705 193.1639L535.1933 193.1639ZM538.4277 193.1639L538.4277 185.89827L539.53705 185.89827L539.53705 186.92952Q540.3339 185.74202 541.84955 185.74202Q542.5058 185.74202 543.0527 185.9764Q543.59955 186.21077 543.8652 186.6014Q544.1464 186.9764 544.2558 187.50764Q544.3339 187.8514 544.3339 188.69514L544.3339 193.1639L543.09955 193.1639L543.09955 188.74202Q543.09955 187.99202 542.9589 187.63264Q542.8183 187.25764 542.4433 187.0389Q542.0839 186.80452 541.5839 186.80452Q540.8027 186.80452 540.22455 187.30452Q539.66205 187.80452 539.66205 189.19514L539.66205 193.1639L538.4277 193.1639ZM551.16205 190.50764L552.3808 190.6639Q552.1777 191.9139 551.34955 192.63264Q550.53705 193.33577 549.34955 193.33577Q547.8652 193.33577 546.9589 192.36702Q546.0527 191.38264 546.0527 189.55452Q546.0527 188.38264 546.4433 187.50764Q546.8339 186.61702 547.6308 186.17952Q548.4277 185.74202 549.3652 185.74202Q550.53705 185.74202 551.28705 186.33577Q552.0527 186.92952 552.2558 188.0389L551.0683 188.2264Q550.8964 187.49202 550.4589 187.13264Q550.0214 186.75764 549.41205 186.75764Q548.47455 186.75764 547.8964 187.42952Q547.3183 188.08577 547.3183 189.52327Q547.3183 190.99202 547.8808 191.6639Q548.4433 192.32014 549.3339 192.32014Q550.0683 192.32014 550.5527 191.88264Q551.03705 191.42952 551.16205 190.50764ZM553.4277 193.1639L553.4277 183.14827L554.66205 183.14827L554.66205 186.74202Q555.5214 185.74202 556.8339 185.74202Q557.6464 185.74202 558.2402 186.07014Q558.8339 186.38264 559.0839 186.94514Q559.34955 187.49202 559.34955 188.57014L559.34955 193.1639L558.1152 193.1639L558.1152 188.57014Q558.1152 187.63264 557.7089 187.2264Q557.3183 186.80452 556.5839 186.80452Q556.03705 186.80452 555.5527 187.08577Q555.0683 187.36702 554.8652 187.8514Q554.66205 188.33577 554.66205 189.19514L554.66205 193.1639L553.4277 193.1639Z" fill-rule="nonzero"/><path fill="#fbbc04" d="M485.5058 214.1639C485.5058 217.4776 482.81952 220.1639 479.5058 220.1639C476.1921 220.1639 473.5058 217.4776 473.5058 214.1639C473.5058 210.85019 476.1921 208.1639 479.5058 208.1639C482.81952 208.1639 485.5058 210.85019 485.5058 214.1639Z" fill-rule="nonzero"/><path fill="#ffffff" d="M501.74017 215.64827L503.0683 215.99202Q502.64642 217.61702 501.55267 218.4764Q500.47455 219.33577 498.91205 219.33577Q497.28705 219.33577 496.27142 218.67952Q495.2558 218.00764 494.72455 216.75764Q494.20892 215.50764 494.20892 214.07014Q494.20892 212.50764 494.80267 211.3514Q495.39642 210.17952 496.5058 209.58577Q497.61517 208.9764 498.92767 208.9764Q500.4433 208.9764 501.45892 209.74202Q502.49017 210.50764 502.89642 211.88264L501.58392 212.19514Q501.24017 211.1014 500.5683 210.6014Q499.91205 210.1014 498.91205 210.1014Q497.7558 210.1014 496.97455 210.6639Q496.1933 211.21077 495.8808 212.14827Q495.5683 213.08577 495.5683 214.07014Q495.5683 215.3514 495.9433 216.30452Q496.3183 217.25764 497.09955 217.7264Q497.8808 218.19514 498.80267 218.19514Q499.91205 218.19514 500.67767 217.55452Q501.45892 216.9139 501.74017 215.64827ZM503.97455 215.5389Q503.97455 213.52327 505.09955 212.5389Q506.02142 211.74202 507.3808 211.74202Q508.86517 211.74202 509.8183 212.7264Q510.77142 213.69514 510.77142 215.42952Q510.77142 216.83577 510.34955 217.64827Q509.92767 218.44514 509.11517 218.89827Q508.3183 219.33577 507.3808 219.33577Q505.84955 219.33577 504.91205 218.3514Q503.97455 217.36702 503.97455 215.5389ZM505.24017 215.5389Q505.24017 216.92952 505.84955 217.63264Q506.45892 218.32014 507.3808 218.32014Q508.28705 218.32014 508.89642 217.61702Q509.5058 216.9139 509.5058 215.49202Q509.5058 214.14827 508.89642 213.46077Q508.28705 212.75764 507.3808 212.75764Q506.45892 212.75764 505.84955 213.44514Q505.24017 214.13264 505.24017 215.5389ZM512.41205 219.1639L512.41205 211.89827L513.5214 211.89827L513.5214 213.00764Q513.9433 212.2264 514.3027 211.99202Q514.66205 211.74202 515.09955 211.74202Q515.72455 211.74202 516.3652 212.13264L515.9433 213.27327Q515.4902 213.00764 515.03705 213.00764Q514.6308 213.00764 514.3027 213.25764Q513.9902 213.49202 513.84955 213.92952Q513.6464 214.58577 513.6464 215.36702L513.6464 219.1639L512.41205 219.1639ZM522.3964 216.82014L523.6777 216.9764Q523.3652 218.1014 522.5527 218.7264Q521.7402 219.33577 520.47455 219.33577Q518.8808 219.33577 517.9433 218.3514Q517.0214 217.36702 517.0214 215.6014Q517.0214 213.75764 517.9589 212.75764Q518.91205 211.74202 520.41205 211.74202Q521.8652 211.74202 522.78705 212.74202Q523.7089 213.7264 523.7089 215.52327Q523.7089 215.63264 523.7089 215.8514L518.28705 215.8514Q518.3652 217.0389 518.9589 217.67952Q519.5683 218.32014 520.4902 218.32014Q521.16205 218.32014 521.6308 217.96077Q522.1152 217.6014 522.3964 216.82014ZM518.3652 214.83577L522.41205 214.83577Q522.3339 213.9139 521.9433 213.46077Q521.3652 212.75764 520.4277 212.75764Q519.5683 212.75764 518.9902 213.32014Q518.4277 213.88264 518.3652 214.83577ZM532.1308 219.1639L532.1308 210.32014L528.8339 210.32014L528.8339 209.14827L536.7714 209.14827L536.7714 210.32014L533.4589 210.32014L533.4589 219.1639L532.1308 219.1639ZM543.3964 216.82014L544.6777 216.9764Q544.3652 218.1014 543.5527 218.7264Q542.7402 219.33577 541.47455 219.33577Q539.8808 219.33577 538.9433 218.3514Q538.0214 217.36702 538.0214 215.6014Q538.0214 213.75764 538.9589 212.75764Q539.91205 211.74202 541.41205 211.74202Q542.8652 211.74202 543.78705 212.74202Q544.7089 213.7264 544.7089 215.52327Q544.7089 215.63264 544.7089 215.8514L539.28705 215.8514Q539.3652 217.0389 539.9589 217.67952Q540.5683 218.32014 541.4902 218.32014Q542.16205 218.32014 542.6308 217.96077Q543.1152 217.6014 543.3964 216.82014ZM539.3652 214.83577L543.41205 214.83577Q543.3339 213.9139 542.9433 213.46077Q542.3652 212.75764 541.4277 212.75764Q540.5683 212.75764 539.9902 213.32014Q539.4277 213.88264 539.3652 214.83577ZM551.16205 218.27327Q550.4902 218.8514 549.84955 219.1014Q549.22455 219.33577 548.4902 219.33577Q547.3027 219.33577 546.6464 218.75764Q546.0058 218.1639 546.0058 217.24202Q546.0058 216.71077 546.2402 216.27327Q546.4902 215.83577 546.8808 215.57014Q547.28705 215.30452 547.7714 215.1639Q548.1308 215.07014 548.8652 214.9764Q550.3652 214.80452 551.0683 214.55452Q551.0683 214.30452 551.0683 214.24202Q551.0683 213.4764 550.72455 213.17952Q550.2558 212.75764 549.3183 212.75764Q548.4589 212.75764 548.03705 213.07014Q547.6308 213.36702 547.4277 214.13264L546.22455 213.9764Q546.3808 213.19514 546.7558 212.7264Q547.1464 212.25764 547.84955 212.00764Q548.5683 211.74202 549.5058 211.74202Q550.4277 211.74202 551.0058 211.96077Q551.5839 212.17952 551.84955 212.50764Q552.1308 212.83577 552.2402 213.3514Q552.3027 213.6639 552.3027 214.4764L552.3027 216.11702Q552.3027 217.83577 552.3808 218.2889Q552.4589 218.74202 552.6933 219.1639L551.41205 219.1639Q551.22455 218.77327 551.16205 218.27327ZM551.0683 215.52327Q550.3964 215.7889 549.0527 215.99202Q548.3027 216.1014 547.97455 216.24202Q547.66205 216.36702 547.4902 216.63264Q547.3183 216.89827 547.3183 217.21077Q547.3183 217.71077 547.6933 218.0389Q548.0683 218.36702 548.78705 218.36702Q549.5058 218.36702 550.0527 218.05452Q550.59955 217.74202 550.8652 217.19514Q551.0683 216.7889 551.0683 215.9764L551.0683 215.52327ZM554.4277 219.1639L554.4277 211.89827L555.53705 211.89827L555.53705 212.92952Q555.8652 212.38264 556.4277 212.07014Q557.0058 211.74202 557.72455 211.74202Q558.53705 211.74202 559.0527 212.08577Q559.5683 212.4139 559.78705 213.00764Q560.6464 211.74202 562.0214 211.74202Q563.09955 211.74202 563.6777 212.33577Q564.2714 212.92952 564.2714 214.17952L564.2714 219.1639L563.03705 219.1639L563.03705 214.58577Q563.03705 213.8514 562.91205 213.52327Q562.8027 213.19514 562.4902 213.00764Q562.1777 212.80452 561.7558 212.80452Q560.9902 212.80452 560.47455 213.32014Q559.97455 213.82014 559.97455 214.94514L559.97455 219.1639L558.7402 219.1639L558.7402 214.44514Q558.7402 213.63264 558.4433 213.2264Q558.1464 212.80452 557.4589 212.80452Q556.9433 212.80452 556.4902 213.08577Q556.0527 213.3514 555.84955 213.88264Q555.66205 214.39827 555.66205 215.39827L555.66205 219.1639L554.4277 219.1639Z" fill-rule="nonzero"/><path fill="#34a853" d="M485.5058 240.1639C485.5058 243.4776 482.81952 246.1639 479.5058 246.1639C476.1921 246.1639 473.5058 243.4776 473.5058 240.1639C473.5058 236.85019 476.1921 234.1639 479.5058 234.1639C482.81952 234.1639 485.5058 236.85019 485.5058 240.1639Z" fill-rule="nonzero"/><path fill="#ffffff" d="M501.74017 241.64827L503.0683 241.99202Q502.64642 243.61702 501.55267 244.4764Q500.47455 245.33577 498.91205 245.33577Q497.28705 245.33577 496.27142 244.67952Q495.2558 244.00764 494.72455 242.75764Q494.20892 241.50764 494.20892 240.07014Q494.20892 238.50764 494.80267 237.3514Q495.39642 236.17952 496.5058 235.58577Q497.61517 234.9764 498.92767 234.9764Q500.4433 234.9764 501.45892 235.74202Q502.49017 236.50764 502.89642 237.88264L501.58392 238.19514Q501.24017 237.1014 500.5683 236.6014Q499.91205 236.1014 498.91205 236.1014Q497.7558 236.1014 496.97455 236.6639Q496.1933 237.21077 495.8808 238.14827Q495.5683 239.08577 495.5683 240.07014Q495.5683 241.3514 495.9433 242.30452Q496.3183 243.25764 497.09955 243.7264Q497.8808 244.19514 498.80267 244.19514Q499.91205 244.19514 500.67767 243.55452Q501.45892 242.9139 501.74017 241.64827ZM503.97455 241.5389Q503.97455 239.52327 505.09955 238.5389Q506.02142 237.74202 507.3808 237.74202Q508.86517 237.74202 509.8183 238.7264Q510.77142 239.69514 510.77142 241.42952Q510.77142 242.83577 510.34955 243.64827Q509.92767 244.44514 509.11517 244.89827Q508.3183 245.33577 507.3808 245.33577Q505.84955 245.33577 504.91205 244.3514Q503.97455 243.36702 503.97455 241.5389ZM505.24017 241.5389Q505.24017 242.92952 505.84955 243.63264Q506.45892 244.32014 507.3808 244.32014Q508.28705 244.32014 508.89642 243.61702Q509.5058 242.9139 509.5058 241.49202Q509.5058 240.14827 508.89642 239.46077Q508.28705 238.75764 507.3808 238.75764Q506.45892 238.75764 505.84955 239.44514Q505.24017 240.13264 505.24017 241.5389ZM512.4277 245.1639L512.4277 237.89827L513.53705 237.89827L513.53705 238.92952Q513.8652 238.38264 514.4277 238.07014Q515.0058 237.74202 515.72455 237.74202Q516.53705 237.74202 517.0527 238.08577Q517.5683 238.4139 517.78705 239.00764Q518.6464 237.74202 520.0214 237.74202Q521.09955 237.74202 521.6777 238.33577Q522.2714 238.92952 522.2714 240.17952L522.2714 245.1639L521.03705 245.1639L521.03705 240.58577Q521.03705 239.8514 520.91205 239.52327Q520.8027 239.19514 520.4902 239.00764Q520.1777 238.80452 519.7558 238.80452Q518.9902 238.80452 518.47455 239.32014Q517.97455 239.82014 517.97455 240.94514L517.97455 245.1639L516.7402 245.1639L516.7402 240.44514Q516.7402 239.63264 516.4433 239.2264Q516.1464 238.80452 515.4589 238.80452Q514.9433 238.80452 514.4902 239.08577Q514.0527 239.3514 513.84955 239.88264Q513.66205 240.39827 513.66205 241.39827L513.66205 245.1639L512.4277 245.1639ZM524.4277 245.1639L524.4277 237.89827L525.53705 237.89827L525.53705 238.92952Q525.8652 238.38264 526.4277 238.07014Q527.0058 237.74202 527.72455 237.74202Q528.53705 237.74202 529.0527 238.08577Q529.5683 238.4139 529.78705 239.00764Q530.6464 237.74202 532.0214 237.74202Q533.09955 237.74202 533.6777 238.33577Q534.2714 238.92952 534.2714 240.17952L534.2714 245.1639L533.03705 245.1639L533.03705 240.58577Q533.03705 239.8514 532.91205 239.52327Q532.8027 239.19514 532.4902 239.00764Q532.1777 238.80452 531.7558 238.80452Q530.9902 238.80452 530.47455 239.32014Q529.97455 239.82014 529.97455 240.94514L529.97455 245.1639L528.7402 245.1639L528.7402 240.44514Q528.7402 239.63264 528.4433 239.2264Q528.1464 238.80452 527.4589 238.80452Q526.9433 238.80452 526.4902 239.08577Q526.0527 239.3514 525.84955 239.88264Q525.66205 240.39827 525.66205 241.39827L525.66205 245.1639L524.4277 245.1639ZM541.1933 245.1639L541.1933 244.1014Q540.3339 245.33577 538.8808 245.33577Q538.2402 245.33577 537.6777 245.08577Q537.1308 244.83577 536.84955 244.46077Q536.5839 244.08577 536.47455 243.55452Q536.3964 243.19514 536.3964 242.39827L536.3964 237.89827L537.6308 237.89827L537.6308 241.92952Q537.6308 242.89827 537.7089 243.2264Q537.8183 243.71077 538.1933 243.99202Q538.5683 244.27327 539.1308 244.27327Q539.6777 244.27327 540.16205 243.99202Q540.6464 243.69514 540.84955 243.21077Q541.0527 242.7264 541.0527 241.7889L541.0527 237.89827L542.28705 237.89827L542.28705 245.1639L541.1933 245.1639ZM544.4277 245.1639L544.4277 237.89827L545.53705 237.89827L545.53705 238.92952Q546.3339 237.74202 547.84955 237.74202Q548.5058 237.74202 549.0527 237.9764Q549.59955 238.21077 549.8652 238.6014Q550.1464 238.9764 550.2558 239.50764Q550.3339 239.8514 550.3339 240.69514L550.3339 245.1639L549.09955 245.1639L549.09955 240.74202Q549.09955 239.99202 548.9589 239.63264Q548.8183 239.25764 548.4433 239.0389Q548.0839 238.80452 547.5839 238.80452Q546.8027 238.80452 546.22455 239.30452Q545.66205 239.80452 545.66205 241.19514L545.66205 245.1639L544.4277 245.1639ZM552.4433 236.55452L552.4433 235.14827L553.66205 235.14827L553.66205 236.55452L552.4433 236.55452ZM552.4433 245.1639L552.4433 237.89827L553.66205 237.89827L553.66205 245.1639L552.4433 245.1639ZM558.1152 244.07014L558.28705 245.14827Q557.7714 245.25764 557.3652 245.25764Q556.6933 245.25764 556.3183 245.05452Q555.9589 244.83577 555.8027 244.49202Q555.66205 244.14827 555.66205 243.0389L555.66205 238.86702L554.7558 238.86702L554.7558 237.89827L555.66205 237.89827L555.66205 236.1014L556.8808 235.36702L556.8808 237.89827L558.1152 237.89827L558.1152 238.86702L556.8808 238.86702L556.8808 243.1014Q556.8808 243.63264 556.9433 243.7889Q557.0058 243.92952 557.1464 244.02327Q557.3027 244.11702 557.5683 244.11702Q557.78705 244.11702 558.1152 244.07014ZM559.3808 247.96077L559.2402 246.80452Q559.6464 246.9139 559.9433 246.9139Q560.34955 246.9139 560.59955 246.77327Q560.84955 246.64827 561.0058 246.39827Q561.1152 246.21077 561.3808 245.4764Q561.41205 245.38264 561.4902 245.17952L558.72455 237.89827L560.0527 237.89827L561.5683 242.1014Q561.8652 242.9139 562.09955 243.7889Q562.3027 242.94514 562.59955 242.13264L564.1464 237.89827L565.3808 237.89827L562.6152 245.2889Q562.1777 246.4764 561.9277 246.92952Q561.59955 247.5389 561.1777 247.82014Q560.7558 248.11702 560.16205 248.11702Q559.8183 248.11702 559.3808 247.96077Z" fill-rule="nonzero"/><path fill="#ff6d01" d="M485.5058 266.1639C485.5058 269.4776 482.81952 272.1639 479.5058 272.1639C476.1921 272.1639 473.5058 269.4776 473.5058 266.1639C473.5058 262.8502 476.1921 260.1639 479.5058 260.1639C482.81952 260.1639 485.5058 262.8502 485.5058 266.1639Z" fill-rule="nonzero"/><path fill="#ffffff" d="M494.55267 271.1639L494.55267 261.1483L496.53705 261.1483L498.91205 268.24203Q499.24017 269.2264 499.39642 269.7264Q499.5683 269.17953 499.92767 268.11703L502.3183 261.1483L504.11517 261.1483L504.11517 271.1639L502.83392 271.1639L502.83392 262.7733L499.91205 271.1639L498.72455 271.1639L495.8183 262.63266L495.8183 271.1639L494.55267 271.1639ZM511.16205 270.2733Q510.49017 270.8514 509.84955 271.1014Q509.22455 271.3358 508.49017 271.3358Q507.30267 271.3358 506.64642 270.75766Q506.0058 270.1639 506.0058 269.24203Q506.0058 268.7108 506.24017 268.2733Q506.49017 267.8358 506.8808 267.57016Q507.28705 267.30453 507.77142 267.1639Q508.1308 267.07016 508.86517 266.9764Q510.36517 266.80453 511.0683 266.55453Q511.0683 266.30453 511.0683 266.24203Q511.0683 265.4764 510.72455 265.17953Q510.2558 264.75766 509.3183 264.75766Q508.45892 264.75766 508.03705 265.07016Q507.6308 265.36703 507.42767 266.13266L506.22455 265.9764Q506.3808 265.19516 506.7558 264.7264Q507.14642 264.25766 507.84955 264.00766Q508.5683 263.74203 509.5058 263.74203Q510.42767 263.74203 511.0058 263.9608Q511.58392 264.17953 511.84955 264.50766Q512.1308 264.8358 512.2402 265.3514Q512.3027 265.6639 512.3027 266.4764L512.3027 268.11703Q512.3027 269.8358 512.3808 270.2889Q512.4589 270.74203 512.6933 271.1639L511.41205 271.1639Q511.22455 270.7733 511.16205 270.2733ZM511.0683 267.5233Q510.39642 267.7889 509.05267 267.99203Q508.30267 268.1014 507.97455 268.24203Q507.66205 268.36703 507.49017 268.63266Q507.3183 268.8983 507.3183 269.2108Q507.3183 269.7108 507.6933 270.0389Q508.0683 270.36703 508.78705 270.36703Q509.5058 270.36703 510.05267 270.05453Q510.59955 269.74203 510.86517 269.19516Q511.0683 268.7889 511.0683 267.9764L511.0683 267.5233ZM514.41205 271.1639L514.41205 263.8983L515.5214 263.8983L515.5214 265.00766Q515.9433 264.2264 516.3027 263.99203Q516.66205 263.74203 517.09955 263.74203Q517.72455 263.74203 518.3652 264.13266L517.9433 265.2733Q517.4902 265.00766 517.03705 265.00766Q516.6308 265.00766 516.3027 265.25766Q515.9902 265.49203 515.84955 265.92953Q515.6464 266.5858 515.6464 267.36703L515.6464 271.1639L514.41205 271.1639ZM519.4433 271.1639L519.4433 261.1483L520.66205 261.1483L520.66205 266.8514L523.5839 263.8983L525.1777 263.8983L522.3964 266.6014L525.4589 271.1639L523.9277 271.1639L521.53705 267.44516L520.66205 268.2889L520.66205 271.1639L519.4433 271.1639ZM531.3964 268.82016L532.6777 268.9764Q532.3652 270.1014 531.5527 270.7264Q530.7402 271.3358 529.47455 271.3358Q527.8808 271.3358 526.9433 270.3514Q526.0214 269.36703 526.0214 267.6014Q526.0214 265.75766 526.9589 264.75766Q527.91205 263.74203 529.41205 263.74203Q530.8652 263.74203 531.78705 264.74203Q532.7089 265.7264 532.7089 267.5233Q532.7089 267.63266 532.7089 267.8514L527.28705 267.8514Q527.3652 269.0389 527.9589 269.67953Q528.5683 270.32016 529.4902 270.32016Q530.16205 270.32016 530.6308 269.9608Q531.1152 269.6014 531.3964 268.82016ZM527.3652 266.8358L531.41205 266.8358Q531.3339 265.9139 530.9433 265.4608Q530.3652 264.75766 529.4277 264.75766Q528.5683 264.75766 527.9902 265.32016Q527.4277 265.88266 527.3652 266.8358ZM537.1152 270.07016L537.28705 271.1483Q536.7714 271.25766 536.3652 271.25766Q535.6933 271.25766 535.3183 271.05453Q534.9589 270.8358 534.8027 270.49203Q534.66205 270.1483 534.66205 269.0389L534.66205 264.86703L533.7558 264.86703L533.7558 263.8983L534.66205 263.8983L534.66205 262.1014L535.8808 261.36703L535.8808 263.8983L537.1152 263.8983L537.1152 264.86703L535.8808 264.86703L535.8808 269.1014Q535.8808 269.63266 535.9433 269.7889Q536.0058 269.92953 536.1464 270.0233Q536.3027 270.11703 536.5683 270.11703Q536.78705 270.11703 537.1152 270.07016ZM538.4433 262.55453L538.4433 261.1483L539.66205 261.1483L539.66205 262.55453L538.4433 262.55453ZM538.4433 271.1639L538.4433 263.8983L539.66205 263.8983L539.66205 271.1639L538.4433 271.1639ZM541.4277 271.1639L541.4277 263.8983L542.53705 263.8983L542.53705 264.92953Q543.3339 263.74203 544.84955 263.74203Q545.5058 263.74203 546.0527 263.9764Q546.59955 264.2108 546.8652 264.6014Q547.1464 264.9764 547.2558 265.50766Q547.3339 265.8514 547.3339 266.69516L547.3339 271.1639L546.09955 271.1639L546.09955 266.74203Q546.09955 265.99203 545.9589 265.63266Q545.8183 265.25766 545.4433 265.0389Q545.0839 264.80453 544.5839 264.80453Q543.8027 264.80453 543.22455 265.30453Q542.66205 265.80453 542.66205 267.19516L542.66205 271.1639L541.4277 271.1639ZM549.2089 271.7733L550.3964 271.94516Q550.47455 272.49203 550.8183 272.75766Q551.2714 273.0858 552.0683 273.0858Q552.9277 273.0858 553.3808 272.74203Q553.84955 272.4139 554.0214 271.7889Q554.1152 271.4139 554.09955 270.2108Q553.3027 271.1639 552.09955 271.1639Q550.59955 271.1639 549.7714 270.0858Q548.9589 269.00766 548.9589 267.49203Q548.9589 266.4608 549.3339 265.5858Q549.7089 264.69516 550.41205 264.2264Q551.1308 263.74203 552.09955 263.74203Q553.3808 263.74203 554.22455 264.7733L554.22455 263.8983L555.34955 263.8983L555.34955 270.17953Q555.34955 271.88266 555.0058 272.5858Q554.66205 273.2889 553.91205 273.69516Q553.16205 274.11703 552.0683 274.11703Q550.7714 274.11703 549.97455 273.5233Q549.1777 272.94516 549.2089 271.7733ZM550.22455 267.3983Q550.22455 268.8358 550.78705 269.49203Q551.34955 270.1483 552.2089 270.1483Q553.0527 270.1483 553.6308 269.49203Q554.2089 268.8358 554.2089 267.44516Q554.2089 266.11703 553.6152 265.44516Q553.0214 264.75766 552.1933 264.75766Q551.3652 264.75766 550.78705 265.42953Q550.22455 266.0858 550.22455 267.3983Z" fill-rule="nonzero"/><path fill="#46bdc6" d="M485.5058 292.1639C485.5058 295.4776 482.81952 298.1639 479.5058 298.1639C476.1921 298.1639 473.5058 295.4776 473.5058 292.1639C473.5058 288.8502 476.1921 286.1639 479.5058 286.1639C482.81952 286.1639 485.5058 288.8502 485.5058 292.1639Z" fill-rule="nonzero"/><path fill="#ffffff" d="M493.49017 297.1639L497.33392 287.1483L498.7558 287.1483L502.86517 297.1639L501.34955 297.1639L500.17767 294.13266L495.99017 294.13266L494.89642 297.1639L493.49017 297.1639ZM496.3808 293.05453L499.77142 293.05453L498.72455 290.2733Q498.2558 289.00766 498.02142 288.19516Q497.83392 289.1639 497.47455 290.1014L496.3808 293.05453ZM508.14642 297.1639L508.14642 296.24203Q507.4433 297.3358 506.11517 297.3358Q505.24017 297.3358 504.5058 296.8514Q503.78705 296.36703 503.3808 295.50766Q502.99017 294.6483 502.99017 293.5389Q502.99017 292.4608 503.34955 291.57016Q503.70892 290.67953 504.42767 290.2108Q505.16205 289.74203 506.05267 289.74203Q506.70892 289.74203 507.22455 290.0233Q507.74017 290.2889 508.05267 290.74203L508.05267 287.1483L509.28705 287.1483L509.28705 297.1639L508.14642 297.1639ZM504.2558 293.5389Q504.2558 294.92953 504.83392 295.63266Q505.42767 296.32016 506.22455 296.32016Q507.03705 296.32016 507.59955 295.6639Q508.16205 294.99203 508.16205 293.6483Q508.16205 292.1483 507.58392 291.4608Q507.0058 290.75766 506.17767 290.75766Q505.34955 290.75766 504.80267 291.42953Q504.2558 292.1014 504.2558 293.5389ZM513.4433 297.1639L510.67767 289.8983L511.99017 289.8983L513.53705 294.25766Q513.78705 294.9608 514.0058 295.7108Q514.1777 295.13266 514.4589 294.3358L516.0839 289.8983L517.34955 289.8983L514.59955 297.1639L513.4433 297.1639ZM518.4433 288.55453L518.4433 287.1483L519.66205 287.1483L519.66205 288.55453L518.4433 288.55453ZM518.4433 297.1639L518.4433 289.8983L519.66205 289.8983L519.66205 297.1639L518.4433 297.1639ZM520.9433 294.99203L522.1464 294.80453Q522.2558 295.5389 522.72455 295.92953Q523.1933 296.32016 524.03705 296.32016Q524.8808 296.32016 525.28705 295.9764Q525.7089 295.63266 525.7089 295.1639Q525.7089 294.74203 525.3339 294.50766Q525.0839 294.3358 524.0839 294.0858Q522.72455 293.74203 522.1933 293.49203Q521.6777 293.24203 521.41205 292.80453Q521.1464 292.36703 521.1464 291.8358Q521.1464 291.3514 521.3652 290.94516Q521.5839 290.5233 521.97455 290.24203Q522.2558 290.0389 522.7402 289.8983Q523.2402 289.74203 523.8183 289.74203Q524.66205 289.74203 525.3027 289.99203Q525.9589 290.2264 526.2714 290.6483Q526.5839 291.07016 526.6933 291.7733L525.4902 291.94516Q525.41205 291.38266 525.0058 291.07016Q524.6152 290.75766 523.8964 290.75766Q523.0527 290.75766 522.6933 291.0389Q522.3339 291.30453 522.3339 291.69516Q522.3339 291.92953 522.47455 292.11703Q522.6308 292.32016 522.9589 292.44516Q523.1308 292.50766 524.03705 292.75766Q525.34955 293.11703 525.8652 293.3358Q526.3808 293.55453 526.66205 293.9764Q526.9589 294.3983 526.9589 295.0233Q526.9589 295.6483 526.59955 296.19516Q526.2558 296.7264 525.5683 297.0389Q524.8964 297.3358 524.03705 297.3358Q522.6308 297.3358 521.8808 296.74203Q521.1464 296.1483 520.9433 294.99203ZM527.97455 293.5389Q527.97455 291.5233 529.09955 290.5389Q530.0214 289.74203 531.3808 289.74203Q532.8652 289.74203 533.8183 290.7264Q534.7714 291.69516 534.7714 293.42953Q534.7714 294.8358 534.34955 295.6483Q533.9277 296.44516 533.1152 296.8983Q532.3183 297.3358 531.3808 297.3358Q529.84955 297.3358 528.91205 296.3514Q527.97455 295.36703 527.97455 293.5389ZM529.2402 293.5389Q529.2402 294.92953 529.84955 295.63266Q530.4589 296.32016 531.3808 296.32016Q532.28705 296.32016 532.8964 295.61703Q533.5058 294.9139 533.5058 293.49203Q533.5058 292.1483 532.8964 291.4608Q532.28705 290.75766 531.3808 290.75766Q530.4589 290.75766 529.84955 291.44516Q529.2402 292.13266 529.2402 293.5389ZM536.41205 297.1639L536.41205 289.8983L537.5214 289.8983L537.5214 291.00766Q537.9433 290.2264 538.3027 289.99203Q538.66205 289.74203 539.09955 289.74203Q539.72455 289.74203 540.3652 290.13266L539.9433 291.2733Q539.4902 291.00766 539.03705 291.00766Q538.6308 291.00766 538.3027 291.25766Q537.9902 291.49203 537.84955 291.92953Q537.6464 292.5858 537.6464 293.36703L537.6464 297.1639L536.41205 297.1639ZM540.9433 294.99203L542.1464 294.80453Q542.2558 295.5389 542.72455 295.92953Q543.1933 296.32016 544.03705 296.32016Q544.8808 296.32016 545.28705 295.9764Q545.7089 295.63266 545.7089 295.1639Q545.7089 294.74203 545.3339 294.50766Q545.0839 294.3358 544.0839 294.0858Q542.72455 293.74203 542.1933 293.49203Q541.6777 293.24203 541.41205 292.80453Q541.1464 292.36703 541.1464 291.8358Q541.1464 291.3514 541.3652 290.94516Q541.5839 290.5233 541.97455 290.24203Q542.2558 290.0389 542.7402 289.8983Q543.2402 289.74203 543.8183 289.74203Q544.66205 289.74203 545.3027 289.99203Q545.9589 290.2264 546.2714 290.6483Q546.5839 291.07016 546.6933 291.7733L545.4902 291.94516Q545.41205 291.38266 545.0058 291.07016Q544.6152 290.75766 543.8964 290.75766Q543.0527 290.75766 542.6933 291.0389Q542.3339 291.30453 542.3339 291.69516Q542.3339 291.92953 542.47455 292.11703Q542.6308 292.32016 542.9589 292.44516Q543.1308 292.50766 544.03705 292.75766Q545.34955 293.11703 545.8652 293.3358Q546.3808 293.55453 546.66205 293.9764Q546.9589 294.3983 546.9589 295.0233Q546.9589 295.6483 546.59955 296.19516Q546.2558 296.7264 545.5683 297.0389Q544.8964 297.3358 544.03705 297.3358Q542.6308 297.3358 541.8808 296.74203Q541.1464 296.1483 540.9433 294.99203Z" fill-rule="nonzero"/><path fill="#7baaf7" d="M485.5058 318.1639C485.5058 321.4776 482.81952 324.1639 479.5058 324.1639C476.1921 324.1639 473.5058 321.4776 473.5058 318.1639C473.5058 314.8502 476.1921 312.1639 479.5058 312.1639C482.81952 312.1639 485.5058 314.8502 485.5058 318.1639Z" fill-rule="nonzero"/><path fill="#ffffff" d="M494.1308 319.94516L495.3808 319.8358Q495.47455 320.5858 495.80267 321.07016Q496.1308 321.55453 496.80267 321.8514Q497.49017 322.1483 498.34955 322.1483Q499.09955 322.1483 499.67767 321.92953Q500.27142 321.69516 500.55267 321.30453Q500.83392 320.9139 500.83392 320.44516Q500.83392 319.9764 500.55267 319.63266Q500.28705 319.2733 499.66205 319.0233Q499.2558 318.86703 497.86517 318.5389Q496.49017 318.2108 495.9433 317.9139Q495.22455 317.5389 494.86517 316.99203Q494.52142 316.42953 494.52142 315.7264Q494.52142 314.9764 494.9433 314.32016Q495.3808 313.6483 496.20892 313.32016Q497.03705 312.9764 498.05267 312.9764Q499.16205 312.9764 500.0058 313.3358Q500.86517 313.69516 501.3183 314.3983Q501.77142 315.0858 501.8183 315.9608L500.53705 316.05453Q500.4433 315.11703 499.84955 314.63266Q499.2558 314.13266 498.09955 314.13266Q496.89642 314.13266 496.34955 314.5858Q495.80267 315.0233 495.80267 315.6483Q495.80267 316.17953 496.1933 316.5389Q496.5683 316.88266 498.17767 317.25766Q499.80267 317.61703 500.39642 317.88266Q501.27142 318.2889 501.6933 318.9139Q502.11517 319.5233 502.11517 320.3358Q502.11517 321.13266 501.64642 321.8514Q501.1933 322.55453 500.33392 322.94516Q499.47455 323.3358 498.41205 323.3358Q497.05267 323.3358 496.1308 322.94516Q495.20892 322.5389 494.67767 321.74203Q494.16205 320.94516 494.1308 319.94516ZM508.39642 320.82016L509.67767 320.9764Q509.36517 322.1014 508.55267 322.7264Q507.74017 323.3358 506.47455 323.3358Q504.8808 323.3358 503.9433 322.3514Q503.02142 321.36703 503.02142 319.6014Q503.02142 317.75766 503.95892 316.75766Q504.91205 315.74203 506.41205 315.74203Q507.86517 315.74203 508.78705 316.74203Q509.70892 317.7264 509.70892 319.5233Q509.70892 319.63266 509.70892 319.8514L504.28705 319.8514Q504.36517 321.0389 504.95892 321.67953Q505.5683 322.32016 506.49017 322.32016Q507.16205 322.32016 507.6308 321.9608Q508.11517 321.6014 508.39642 320.82016ZM504.36517 318.8358L508.41205 318.8358Q508.33392 317.9139 507.9433 317.4608Q507.36517 316.75766 506.42767 316.75766Q505.5683 316.75766 504.99017 317.32016Q504.42767 317.88266 504.36517 318.8358ZM516.3964 320.82016L517.6777 320.9764Q517.3652 322.1014 516.5527 322.7264Q515.7402 323.3358 514.47455 323.3358Q512.8808 323.3358 511.9433 322.3514Q511.02142 321.36703 511.02142 319.6014Q511.02142 317.75766 511.95892 316.75766Q512.91205 315.74203 514.41205 315.74203Q515.8652 315.74203 516.78705 316.74203Q517.7089 317.7264 517.7089 319.5233Q517.7089 319.63266 517.7089 319.8514L512.28705 319.8514Q512.3652 321.0389 512.9589 321.67953Q513.5683 322.32016 514.4902 322.32016Q515.16205 322.32016 515.6308 321.9608Q516.1152 321.6014 516.3964 320.82016ZM512.3652 318.8358L516.41205 318.8358Q516.3339 317.9139 515.9433 317.4608Q515.3652 316.75766 514.4277 316.75766Q513.5683 316.75766 512.9902 317.32016Q512.4277 317.88266 512.3652 318.8358ZM524.1464 323.1639L524.1464 322.24203Q523.4433 323.3358 522.1152 323.3358Q521.2402 323.3358 520.5058 322.8514Q519.78705 322.36703 519.3808 321.50766Q518.9902 320.6483 518.9902 319.5389Q518.9902 318.4608 519.34955 317.57016Q519.7089 316.67953 520.4277 316.2108Q521.16205 315.74203 522.0527 315.74203Q522.7089 315.74203 523.22455 316.0233Q523.7402 316.2889 524.0527 316.74203L524.0527 313.1483L525.28705 313.1483L525.28705 323.1639L524.1464 323.1639ZM520.2558 319.5389Q520.2558 320.92953 520.8339 321.63266Q521.4277 322.32016 522.22455 322.32016Q523.03705 322.32016 523.59955 321.6639Q524.16205 320.99203 524.16205 319.6483Q524.16205 318.1483 523.5839 317.4608Q523.0058 316.75766 522.1777 316.75766Q521.34955 316.75766 520.8027 317.42953Q520.2558 318.1014 520.2558 319.5389Z" fill-rule="nonzero"/><path fill="#f07b72" d="M485.5058 344.1639C485.5058 347.4776 482.81952 350.1639 479.5058 350.1639C476.1921 350.1639 473.5058 347.4776 473.5058 344.1639C473.5058 340.8502 476.1921 338.1639 479.5058 338.1639C482.81952 338.1639 485.5058 340.8502 485.5058 344.1639Z" fill-rule="nonzero"/><path fill="#ffffff" d="M497.1308 349.1639L497.1308 340.32016L493.83392 340.32016L493.83392 339.1483L501.77142 339.1483L501.77142 340.32016L498.45892 340.32016L498.45892 349.1639L497.1308 349.1639ZM503.41205 349.1639L503.41205 341.8983L504.52142 341.8983L504.52142 343.00766Q504.9433 342.2264 505.30267 341.99203Q505.66205 341.74203 506.09955 341.74203Q506.72455 341.74203 507.36517 342.13266L506.9433 343.2733Q506.49017 343.00766 506.03705 343.00766Q505.6308 343.00766 505.30267 343.25766Q504.99017 343.49203 504.84955 343.92953Q504.64642 344.5858 504.64642 345.36703L504.64642 349.1639L503.41205 349.1639ZM513.3964 346.82016L514.6777 346.9764Q514.3652 348.1014 513.5527 348.7264Q512.7402 349.3358 511.47455 349.3358Q509.8808 349.3358 508.9433 348.3514Q508.02142 347.36703 508.02142 345.6014Q508.02142 343.75766 508.95892 342.75766Q509.91205 341.74203 511.41205 341.74203Q512.8652 341.74203 513.78705 342.74203Q514.7089 343.7264 514.7089 345.5233Q514.7089 345.63266 514.7089 345.8514L509.28705 345.8514Q509.36517 347.0389 509.95892 347.67953Q510.5683 348.32016 511.49017 348.32016Q512.16205 348.32016 512.6308 347.9608Q513.1152 347.6014 513.3964 346.82016ZM509.36517 344.8358L513.41205 344.8358Q513.3339 343.9139 512.9433 343.4608Q512.3652 342.75766 511.42767 342.75766Q510.5683 342.75766 509.99017 343.32016Q509.42767 343.88266 509.36517 344.8358ZM521.16205 348.2733Q520.4902 348.8514 519.84955 349.1014Q519.22455 349.3358 518.4902 349.3358Q517.3027 349.3358 516.6464 348.75766Q516.0058 348.1639 516.0058 347.24203Q516.0058 346.7108 516.2402 346.2733Q516.4902 345.8358 516.8808 345.57016Q517.28705 345.30453 517.7714 345.1639Q518.1308 345.07016 518.8652 344.9764Q520.3652 344.80453 521.0683 344.55453Q521.0683 344.30453 521.0683 344.24203Q521.0683 343.4764 520.72455 343.17953Q520.2558 342.75766 519.3183 342.75766Q518.4589 342.75766 518.03705 343.07016Q517.6308 343.36703 517.4277 344.13266L516.22455 343.9764Q516.3808 343.19516 516.7558 342.7264Q517.1464 342.25766 517.84955 342.00766Q518.5683 341.74203 519.5058 341.74203Q520.4277 341.74203 521.0058 341.9608Q521.5839 342.17953 521.84955 342.50766Q522.1308 342.8358 522.2402 343.3514Q522.3027 343.6639 522.3027 344.4764L522.3027 346.11703Q522.3027 347.8358 522.3808 348.2889Q522.4589 348.74203 522.6933 349.1639L521.41205 349.1639Q521.22455 348.7733 521.16205 348.2733ZM521.0683 345.5233Q520.3964 345.7889 519.0527 345.99203Q518.3027 346.1014 517.97455 346.24203Q517.66205 346.36703 517.4902 346.63266Q517.3183 346.8983 517.3183 347.2108Q517.3183 347.7108 517.6933 348.0389Q518.0683 348.36703 518.78705 348.36703Q519.5058 348.36703 520.0527 348.05453Q520.59955 347.74203 520.8652 347.19516Q521.0683 346.7889 521.0683 345.9764L521.0683 345.5233ZM523.9433 346.99203L525.1464 346.80453Q525.2558 347.5389 525.72455 347.92953Q526.1933 348.32016 527.03705 348.32016Q527.8808 348.32016 528.28705 347.9764Q528.7089 347.63266 528.7089 347.1639Q528.7089 346.74203 528.3339 346.50766Q528.0839 346.3358 527.0839 346.0858Q525.72455 345.74203 525.1933 345.49203Q524.6777 345.24203 524.41205 344.80453Q524.1464 344.36703 524.1464 343.8358Q524.1464 343.3514 524.3652 342.94516Q524.5839 342.5233 524.97455 342.24203Q525.2558 342.0389 525.7402 341.8983Q526.2402 341.74203 526.8183 341.74203Q527.66205 341.74203 528.3027 341.99203Q528.9589 342.2264 529.2714 342.6483Q529.5839 343.07016 529.6933 343.7733L528.4902 343.94516Q528.41205 343.38266 528.0058 343.07016Q527.6152 342.75766 526.8964 342.75766Q526.0527 342.75766 525.6933 343.0389Q525.3339 343.30453 525.3339 343.69516Q525.3339 343.92953 525.47455 344.11703Q525.6308 344.32016 525.9589 344.44516Q526.1308 344.50766 527.03705 344.75766Q528.34955 345.11703 528.8652 345.3358Q529.3808 345.55453 529.66205 345.9764Q529.9589 346.3983 529.9589 347.0233Q529.9589 347.6483 529.59955 348.19516Q529.2558 348.7264 528.5683 349.0389Q527.8964 349.3358 527.03705 349.3358Q525.6308 349.3358 524.8808 348.74203Q524.1464 348.1483 523.9433 346.99203ZM536.1933 349.1639L536.1933 348.1014Q535.3339 349.3358 533.8808 349.3358Q533.2402 349.3358 532.6777 349.0858Q532.1308 348.8358 531.84955 348.4608Q531.5839 348.0858 531.47455 347.55453Q531.3964 347.19516 531.3964 346.3983L531.3964 341.8983L532.6308 341.8983L532.6308 345.92953Q532.6308 346.8983 532.7089 347.2264Q532.8183 347.7108 533.1933 347.99203Q533.5683 348.2733 534.1308 348.2733Q534.6777 348.2733 535.16205 347.99203Q535.6464 347.69516 535.84955 347.2108Q536.0527 346.7264 536.0527 345.7889L536.0527 341.8983L537.28705 341.8983L537.28705 349.1639L536.1933 349.1639ZM539.41205 349.1639L539.41205 341.8983L540.5214 341.8983L540.5214 343.00766Q540.9433 342.2264 541.3027 341.99203Q541.66205 341.74203 542.09955 341.74203Q542.72455 341.74203 543.3652 342.13266L542.9433 343.2733Q542.4902 343.00766 542.03705 343.00766Q541.6308 343.00766 541.3027 343.25766Q540.9902 343.49203 540.84955 343.92953Q540.6464 344.5858 540.6464 345.36703L540.6464 349.1639L539.41205 349.1639ZM544.3808 351.9608L544.2402 350.80453Q544.6464 350.9139 544.9433 350.9139Q545.34955 350.9139 545.59955 350.7733Q545.84955 350.6483 546.0058 350.3983Q546.1152 350.2108 546.3808 349.4764Q546.41205 349.38266 546.4902 349.17953L543.72455 341.8983L545.0527 341.8983L546.5683 346.1014Q546.8652 346.9139 547.09955 347.7889Q547.3027 346.94516 547.59955 346.13266L549.1464 341.8983L550.3808 341.8983L547.6152 349.2889Q547.1777 350.4764 546.9277 350.92953Q546.59955 351.5389 546.1777 351.82016Q545.7558 352.11703 545.16205 352.11703Q544.8183 352.11703 544.3808 351.9608Z" fill-rule="nonzero"/><path fill="#ffffff" d="M295.09375 39.55L295.09375 28.096874L297.40625 28.096874L297.40625 39.55L295.09375 39.55ZM302.09375 39.55L297.98438 28.096874L300.5 28.096874L303.40625 36.565624L306.20312 28.096874L308.65625 28.096874L304.5625 39.55L302.09375 39.55ZM310.1875 39.55L310.1875 28.096874L312.4375 28.096874L317.125 35.7375L317.125 28.096874L319.28125 28.096874L319.28125 39.55L316.95312 39.55L312.34375 32.08125L312.34375 39.55L310.1875 39.55ZM327.79688 33.784374L325.79688 33.425Q326.14062 32.221874 326.95312 31.64375Q327.78125 31.065624 329.39062 31.065624Q330.85938 31.065624 331.57812 31.409374Q332.29688 31.753124 332.59375 32.3Q332.89062 32.83125 332.89062 34.253124L332.85938 36.815624Q332.85938 37.909374 332.96875 38.440624Q333.07812 38.95625 333.35938 39.55L331.1875 39.55Q331.10938 39.33125 330.98438 38.89375Q330.92188 38.70625 330.90625 38.64375Q330.34375 39.190624 329.70312 39.471874Q329.0625 39.7375 328.32812 39.7375Q327.04688 39.7375 326.3125 39.05Q325.57812 38.346874 325.57812 37.284374Q325.57812 36.58125 325.90625 36.034374Q326.25 35.471874 326.84375 35.190624Q327.45312 34.89375 328.59375 34.675Q330.14062 34.378124 330.73438 34.128124L330.73438 33.909374Q330.73438 33.284374 330.42188 33.01875Q330.10938 32.7375 329.23438 32.7375Q328.65625 32.7375 328.32812 32.971874Q328.0 33.20625 327.79688 33.784374ZM330.73438 35.565624Q330.3125 35.70625 329.39062 35.909374Q328.48438 36.096874 328.20312 36.284374Q327.76562 36.58125 327.76562 37.05Q327.76562 37.51875 328.10938 37.8625Q328.45312 38.190624 328.98438 38.190624Q329.57812 38.190624 330.125 37.8Q330.51562 37.503124 330.64062 37.065624Q330.73438 36.784374 330.73438 36.003124L330.73438 35.565624ZM335.15625 39.55L335.15625 28.096874L337.34375 28.096874L337.34375 39.55L335.15625 39.55ZM339.15625 39.55L339.15625 28.096874L341.34375 28.096874L341.34375 39.55L339.15625 39.55ZM342.64062 35.284374Q342.64062 34.190624 343.17188 33.175Q343.71875 32.14375 344.70312 31.6125Q345.70312 31.065624 346.92188 31.065624Q348.79688 31.065624 350.0 32.284374Q351.20312 33.503124 351.20312 35.378124Q351.20312 37.253124 349.98438 38.503124Q348.78125 39.7375 346.9375 39.7375Q345.79688 39.7375 344.75 39.221874Q343.71875 38.70625 343.17188 37.70625Q342.64062 36.70625 342.64062 35.284374ZM344.89062 35.39375Q344.89062 36.628124 345.46875 37.284374Q346.0625 37.940624 346.92188 37.940624Q347.78125 37.940624 348.35938 37.284374Q348.95312 36.628124 348.95312 35.378124Q348.95312 34.159374 348.35938 33.503124Q347.78125 32.846874 346.92188 32.846874Q346.0625 32.846874 345.46875 33.503124Q344.89062 34.159374 344.89062 35.39375ZM360.39062 33.70625L358.21875 34.096874Q358.10938 33.440624 357.71875 33.1125Q357.34375 32.784374 356.71875 32.784374Q355.90625 32.784374 355.40625 33.3625Q354.92188 33.925 354.92188 35.253124Q354.92188 36.721874 355.42188 37.33125Q355.92188 37.940624 356.75 37.940624Q357.375 37.940624 357.76562 37.596874Q358.17188 37.2375 358.34375 36.3625L360.5 36.7375Q360.15625 38.221874 359.20312 38.9875Q358.25 39.7375 356.65625 39.7375Q354.82812 39.7375 353.75 38.596874Q352.67188 37.440624 352.67188 35.409374Q352.67188 33.346874 353.75 32.20625Q354.84375 31.065624 356.6875 31.065624Q358.20312 31.065624 359.09375 31.721874Q360.0 32.3625 360.39062 33.70625ZM363.79688 33.784374L361.79688 33.425Q362.14062 32.221874 362.95312 31.64375Q363.78125 31.065624 365.39062 31.065624Q366.85938 31.065624 367.57812 31.409374Q368.29688 31.753124 368.59375 32.3Q368.89062 32.83125 368.89062 34.253124L368.85938 36.815624Q368.85938 37.909374 368.96875 38.440624Q369.07812 38.95625 369.35938 39.55L367.1875 39.55Q367.10938 39.33125 366.98438 38.89375Q366.92188 38.70625 366.90625 38.64375Q366.34375 39.190624 365.70312 39.471874Q365.0625 39.7375 364.32812 39.7375Q363.04688 39.7375 362.3125 39.05Q361.57812 38.346874 361.57812 37.284374Q361.57812 36.58125 361.90625 36.034374Q362.25 35.471874 362.84375 35.190624Q363.45312 34.89375 364.59375 34.675Q366.14062 34.378124 366.73438 34.128124L366.73438 33.909374Q366.73438 33.284374 366.42188 33.01875Q366.10938 32.7375 365.23438 32.7375Q364.65625 32.7375 364.32812 32.971874Q364.0 33.20625 363.79688 33.784374ZM366.73438 35.565624Q366.3125 35.70625 365.39062 35.909374Q364.48438 36.096874 364.20312 36.284374Q363.76562 36.58125 363.76562 37.05Q363.76562 37.51875 364.10938 37.8625Q364.45312 38.190624 364.98438 38.190624Q365.57812 38.190624 366.125 37.8Q366.51562 37.503124 366.64062 37.065624Q366.73438 36.784374 366.73438 36.003124L366.73438 35.565624ZM374.95312 31.253124L374.95312 33.003124L373.45312 33.003124L373.45312 36.346874Q373.45312 37.3625 373.5 37.534374Q373.54688 37.690624 373.6875 37.8Q373.84375 37.909374 374.0625 37.909374Q374.375 37.909374 374.95312 37.70625L375.14062 39.409374Q374.375 39.7375 373.40625 39.7375Q372.8125 39.7375 372.32812 39.534374Q371.85938 39.33125 371.625 39.01875Q371.40625 38.70625 371.32812 38.159374Q371.25 37.784374 371.25 36.6125L371.25 33.003124L370.25 33.003124L370.25 31.253124L371.25 31.253124L371.25 29.596874L373.45312 28.315624L373.45312 31.253124L374.95312 31.253124ZM376.15625 30.128124L376.15625 28.096874L378.34375 28.096874L378.34375 30.128124L376.15625 30.128124ZM376.15625 39.55L376.15625 31.253124L378.34375 31.253124L378.34375 39.55L376.15625 39.55ZM379.64062 35.284374Q379.64062 34.190624 380.17188 33.175Q380.71875 32.14375 381.70312 31.6125Q382.70312 31.065624 383.92188 31.065624Q385.79688 31.065624 387.0 32.284374Q388.20312 33.503124 388.20312 35.378124Q388.20312 37.253124 386.98438 38.503124Q385.78125 39.7375 383.9375 39.7375Q382.79688 39.7375 381.75 39.221874Q380.71875 38.70625 380.17188 37.70625Q379.64062 36.70625 379.64062 35.284374ZM381.89062 35.39375Q381.89062 36.628124 382.46875 37.284374Q383.0625 37.940624 383.92188 37.940624Q384.78125 37.940624 385.35938 37.284374Q385.95312 36.628124 385.95312 35.378124Q385.95312 34.159374 385.35938 33.503124Q384.78125 32.846874 383.92188 32.846874Q383.0625 32.846874 382.46875 33.503124Q381.89062 34.159374 381.89062 35.39375ZM397.70312 39.55L395.5 39.55L395.5 35.315624Q395.5 33.971874 395.35938 33.58125Q395.21875 33.175 394.90625 32.95625Q394.59375 32.7375 394.14062 32.7375Q393.57812 32.7375 393.125 33.05Q392.67188 33.3625 392.5 33.878124Q392.32812 34.39375 392.32812 35.784374L392.32812 39.55L390.14062 39.55L390.14062 31.253124L392.17188 31.253124L392.17188 32.471874Q393.26562 31.065624 394.90625 31.065624Q395.64062 31.065624 396.23438 31.33125Q396.84375 31.58125 397.14062 31.9875Q397.45312 32.39375 397.57812 32.909374Q397.70312 33.425 397.70312 34.39375L397.70312 39.55Z" fill-rule="nonzero"/></svg>