<svg version="1.1" viewBox="0.0 0.0 693.0 491.0" fill="none" stroke="none" stroke-linecap="square" stroke-miterlimit="10" width="693" height="491" xmlns:xlink="http://www.w3.org/1999/xlink" xmlns="http://www.w3.org/2000/svg"><path fill="#ffffff" fill-opacity="0.0" d="M0 0L693.0 0L693.0 491.0L0 491.0L0 0Z" fill-rule="nonzero"/><path fill="#4285f4" d="M242.85513 59.916668C330.9156 59.916668 408.96106 116.62 436.17322 200.37048L242.85513 263.18332Z" fill-rule="nonzero"/><path fill="#ea4335" d="M436.17322 200.37048C463.3854 284.12094 433.5747 375.8689 362.33228 427.62952L242.85513 263.18332Z" fill-rule="nonzero"/><path fill="#f07b72" d="M49.537052 200.37048C76.74923 116.62 154.79468 59.916668 242.85513 59.916668L242.85513 263.18332Z" fill-rule="nonzero"/><path fill="#7baaf7" d="M49.537052 325.9962C36.272278 285.17142 36.272278 241.19525 49.537052 200.37048L242.85513 263.18332Z" fill-rule="nonzero"/><path fill="#46bdc6" d="M58.93396 349.73007C55.307507 342.02347 52.169014 334.09653 49.537052 325.9962L242.85513 263.18332Z" fill-rule="nonzero"/><path fill="#ff6d01" d="M94.680115 402.32895C80.07879 386.7801 68.01579 369.02994 58.93396 349.73007L242.85513 263.18332Z" fill-rule="nonzero"/><path fill="#34a853" d="M123.37799 427.62952C113.03788 420.11697 103.42937 411.64597 94.680115 402.32895L242.85513 263.18332Z" fill-rule="nonzero"/><path fill="#fbbc04" d="M362.33228 427.62952C291.08987 479.39017 194.62039 479.39017 123.37799 427.62952L242.85513 263.18332Z" fill-rule="nonzero"/><path fill="#000000" d="M321.60696 140.7748L321.60696 141.9623L314.98196 141.9623Q314.96634 141.5248 315.1226 141.10292Q315.3882 140.43105 315.9351 139.7748Q316.4976 139.11855 317.54446 138.25917Q319.1851 136.91542 319.7476 136.13417Q320.3257 135.35292 320.3257 134.6498Q320.3257 133.91542 319.79446 133.41542Q319.27884 132.91542 318.4507 132.91542Q317.5601 132.91542 317.0132 133.44667Q316.48196 133.97792 316.48196 134.93105L315.21634 134.79042Q315.34134 133.38417 316.1851 132.6498Q317.04446 131.8998 318.46634 131.8998Q319.91946 131.8998 320.7476 132.69667Q321.59134 133.49355 321.59134 134.68105Q321.59134 135.29042 321.34134 135.86855Q321.10696 136.44667 320.52884 137.0873Q319.96634 137.72792 318.6382 138.85292Q317.52884 139.7748 317.21634 140.11855Q316.90384 140.44667 316.7007 140.7748L321.60696 140.7748ZM323.1382 137.0248Q323.1382 135.24355 323.4976 134.16542Q323.8726 133.07167 324.59134 132.49355Q325.3101 131.8998 326.40384 131.8998Q327.21634 131.8998 327.8257 132.22792Q328.4351 132.55605 328.8257 133.16542Q329.23196 133.7748 329.4507 134.6498Q329.66946 135.5248 329.66946 137.0248Q329.66946 138.79042 329.3101 139.86855Q328.9507 140.94667 328.23196 141.54042Q327.5132 142.13417 326.40384 142.13417Q324.96634 142.13417 324.1382 141.0873Q323.1382 139.8373 323.1382 137.0248ZM324.40384 137.0248Q324.40384 139.49355 324.98196 140.30605Q325.5601 141.11855 326.40384 141.11855Q327.2632 141.11855 327.84134 140.30605Q328.41946 139.47792 328.41946 137.0248Q328.41946 134.54042 327.84134 133.72792Q327.2632 132.91542 326.3882 132.91542Q325.54446 132.91542 325.04446 133.63417Q324.40384 134.55605 324.40384 137.0248ZM331.8257 141.9623L331.8257 140.55605L333.23196 140.55605L333.23196 141.9623L331.8257 141.9623ZM335.1382 137.0248Q335.1382 135.24355 335.4976 134.16542Q335.8726 133.07167 336.59134 132.49355Q337.3101 131.8998 338.40384 131.8998Q339.21634 131.8998 339.8257 132.22792Q340.4351 132.55605 340.8257 133.16542Q341.23196 133.7748 341.4507 134.6498Q341.66946 135.5248 341.66946 137.0248Q341.66946 138.79042 341.3101 139.86855Q340.9507 140.94667 340.23196 141.54042Q339.5132 142.13417 338.40384 142.13417Q336.96634 142.13417 336.1382 141.0873Q335.1382 139.8373 335.1382 137.0248ZM336.40384 137.0248Q336.40384 139.49355 336.98196 140.30605Q337.5601 141.11855 338.40384 141.11855Q339.2632 141.11855 339.84134 140.30605Q340.41946 139.47792 340.41946 137.0248Q340.41946 134.54042 339.84134 133.72792Q339.2632 132.91542 338.3882 132.91542Q337.54446 132.91542 337.04446 133.63417Q336.40384 134.55605 336.40384 137.0248ZM343.3726 134.35292Q343.3726 133.2748 343.90384 132.5248Q344.4507 131.7748 345.48196 131.7748Q346.41946 131.7748 347.02884 132.44667Q347.65384 133.11855 347.65384 134.41542Q347.65384 135.69667 347.02884 136.38417Q346.40384 137.07167 345.4976 137.07167Q344.59134 137.07167 343.98196 136.3998Q343.3726 135.7123 343.3726 134.35292ZM345.5132 132.61855Q345.0601 132.61855 344.7476 133.0248Q344.4507 133.41542 344.4507 134.4623Q344.4507 135.43105 344.7476 135.82167Q345.0601 136.2123 345.5132 136.2123Q345.98196 136.2123 346.27884 135.82167Q346.59134 135.43105 346.59134 134.36855Q346.59134 133.3998 346.27884 133.00917Q345.96634 132.61855 345.5132 132.61855ZM345.5132 142.3373L350.9976 131.7748L351.9976 131.7748L346.54446 142.3373L345.5132 142.3373ZM349.85696 139.60292Q349.85696 138.5248 350.3882 137.79042Q350.9351 137.04042 351.96634 137.04042Q352.90384 137.04042 353.52884 137.7123Q354.15384 138.38417 354.15384 139.68105Q354.15384 140.9623 353.52884 141.6498Q352.90384 142.3373 351.96634 142.3373Q351.0601 142.3373 350.4507 141.66542Q349.85696 140.97792 349.85696 139.60292ZM351.9976 137.88417Q351.52884 137.88417 351.23196 138.29042Q350.9351 138.68105 350.9351 139.72792Q350.9351 140.69667 351.23196 141.0873Q351.54446 141.47792 351.9976 141.47792Q352.46634 141.47792 352.7632 141.0873Q353.0757 140.69667 353.0757 139.63417Q353.0757 138.66542 352.7632 138.2748Q352.46634 137.88417 351.9976 137.88417Z" fill-rule="nonzero"/><path fill="#000000" d="M377.92825 315.09247L377.92825 316.27997L371.30325 316.27997Q371.28763 315.84247 371.44388 315.4206Q371.7095 314.74872 372.25638 314.09247Q372.81888 313.43622 373.86575 312.57684Q375.50638 311.2331 376.06888 310.45184Q376.647 309.6706 376.647 308.96747Q376.647 308.2331 376.11575 307.7331Q375.60013 307.2331 374.772 307.2331Q373.88138 307.2331 373.3345 307.76434Q372.80325 308.2956 372.80325 309.24872L371.53763 309.1081Q371.66263 307.70184 372.50638 306.96747Q373.36575 306.21747 374.78763 306.21747Q376.24075 306.21747 377.06888 307.01434Q377.91263 307.81122 377.91263 308.99872Q377.91263 309.6081 377.66263 310.18622Q377.42825 310.76434 376.85013 311.40497Q376.28763 312.0456 374.9595 313.1706Q373.85013 314.09247 373.53763 314.43622Q373.22513 314.76434 373.022 315.09247L377.92825 315.09247ZM379.4595 311.34247Q379.4595 309.56122 379.81888 308.4831Q380.19388 307.38934 380.91263 306.81122Q381.63138 306.21747 382.72513 306.21747Q383.53763 306.21747 384.147 306.5456Q384.75638 306.87372 385.147 307.4831Q385.55325 308.09247 385.772 308.96747Q385.99075 309.84247 385.99075 311.34247Q385.99075 313.1081 385.63138 314.18622Q385.272 315.26434 384.55325 315.8581Q383.8345 316.45184 382.72513 316.45184Q381.28763 316.45184 380.4595 315.40497Q379.4595 314.15497 379.4595 311.34247ZM380.72513 311.34247Q380.72513 313.81122 381.30325 314.62372Q381.88138 315.43622 382.72513 315.43622Q383.5845 315.43622 384.16263 314.62372Q384.74075 313.7956 384.74075 311.34247Q384.74075 308.8581 384.16263 308.0456Q383.5845 307.2331 382.7095 307.2331Q381.86575 307.2331 381.36575 307.95184Q380.72513 308.87372 380.72513 311.34247ZM388.147 316.27997L388.147 314.87372L389.55325 314.87372L389.55325 316.27997L388.147 316.27997ZM391.4595 311.34247Q391.4595 309.56122 391.81888 308.4831Q392.19388 307.38934 392.91263 306.81122Q393.63138 306.21747 394.72513 306.21747Q395.53763 306.21747 396.147 306.5456Q396.75638 306.87372 397.147 307.4831Q397.55325 308.09247 397.772 308.96747Q397.99075 309.84247 397.99075 311.34247Q397.99075 313.1081 397.63138 314.18622Q397.272 315.26434 396.55325 315.8581Q395.8345 316.45184 394.72513 316.45184Q393.28763 316.45184 392.4595 315.40497Q391.4595 314.15497 391.4595 311.34247ZM392.72513 311.34247Q392.72513 313.81122 393.30325 314.62372Q393.88138 315.43622 394.72513 315.43622Q395.5845 315.43622 396.16263 314.62372Q396.74075 313.7956 396.74075 311.34247Q396.74075 308.8581 396.16263 308.0456Q395.5845 307.2331 394.7095 307.2331Q393.86575 307.2331 393.36575 307.95184Q392.72513 308.87372 392.72513 311.34247ZM399.69388 308.6706Q399.69388 307.59247 400.22513 306.84247Q400.772 306.09247 401.80325 306.09247Q402.74075 306.09247 403.35013 306.76434Q403.97513 307.43622 403.97513 308.7331Q403.97513 310.01434 403.35013 310.70184Q402.72513 311.38934 401.81888 311.38934Q400.91263 311.38934 400.30325 310.71747Q399.69388 310.02997 399.69388 308.6706ZM401.8345 306.93622Q401.38138 306.93622 401.06888 307.34247Q400.772 307.7331 400.772 308.77997Q400.772 309.74872 401.06888 310.13934Q401.38138 310.52997 401.8345 310.52997Q402.30325 310.52997 402.60013 310.13934Q402.91263 309.74872 402.91263 308.68622Q402.91263 307.71747 402.60013 307.32684Q402.28763 306.93622 401.8345 306.93622ZM401.8345 316.65497L407.31888 306.09247L408.31888 306.09247L402.86575 316.65497L401.8345 316.65497ZM406.17825 313.9206Q406.17825 312.84247 406.7095 312.1081Q407.25638 311.3581 408.28763 311.3581Q409.22513 311.3581 409.85013 312.02997Q410.47513 312.70184 410.47513 313.99872Q410.47513 315.27997 409.85013 315.96747Q409.22513 316.65497 408.28763 316.65497Q407.38138 316.65497 406.772 315.9831Q406.17825 315.2956 406.17825 313.9206ZM408.31888 312.20184Q407.85013 312.20184 407.55325 312.6081Q407.25638 312.99872 407.25638 314.0456Q407.25638 315.01434 407.55325 315.40497Q407.86575 315.7956 408.31888 315.7956Q408.78763 315.7956 409.0845 315.40497Q409.397 315.01434 409.397 313.95184Q409.397 312.9831 409.0845 312.59247Q408.78763 312.20184 408.31888 312.20184Z" fill-rule="nonzero"/><path fill="#000000" d="M229.90201 437.89542L229.90201 439.08292L223.27701 439.08292Q223.26138 438.64542 223.41763 438.22354Q223.68326 437.55167 224.23013 436.89542Q224.79263 436.23917 225.83951 435.3798Q227.48013 434.03604 228.04263 433.2548Q228.62076 432.47354 228.62076 431.77042Q228.62076 431.03604 228.08951 430.53604Q227.57388 430.03604 226.74576 430.03604Q225.85513 430.03604 225.30826 430.5673Q224.77701 431.09854 224.77701 432.05167L223.51138 431.91104Q223.63638 430.5048 224.48013 429.77042Q225.33951 429.02042 226.76138 429.02042Q228.21451 429.02042 229.04263 429.8173Q229.88638 430.61417 229.88638 431.80167Q229.88638 432.41104 229.63638 432.98917Q229.40201 433.5673 228.82388 434.20792Q228.26138 434.84854 226.93326 435.97354Q225.82388 436.89542 225.51138 437.23917Q225.19888 437.5673 224.99576 437.89542L229.90201 437.89542ZM231.43326 434.14542Q231.43326 432.36417 231.79263 431.28604Q232.16763 430.1923 232.88638 429.61417Q233.60513 429.02042 234.69888 429.02042Q235.51138 429.02042 236.12076 429.34854Q236.73013 429.67667 237.12076 430.28604Q237.52701 430.89542 237.74576 431.77042Q237.96451 432.64542 237.96451 434.14542Q237.96451 435.91104 237.60513 436.98917Q237.24576 438.0673 236.52701 438.66104Q235.80826 439.2548 234.69888 439.2548Q233.26138 439.2548 232.43326 438.20792Q231.43326 436.95792 231.43326 434.14542ZM232.69888 434.14542Q232.69888 436.61417 233.27701 437.42667Q233.85513 438.23917 234.69888 438.23917Q235.55826 438.23917 236.13638 437.42667Q236.71451 436.59854 236.71451 434.14542Q236.71451 431.66104 236.13638 430.84854Q235.55826 430.03604 234.68326 430.03604Q233.83951 430.03604 233.33951 430.7548Q232.69888 431.67667 232.69888 434.14542ZM240.12076 439.08292L240.12076 437.67667L241.52701 437.67667L241.52701 439.08292L240.12076 439.08292ZM243.43326 434.14542Q243.43326 432.36417 243.79263 431.28604Q244.16763 430.1923 244.88638 429.61417Q245.60513 429.02042 246.69888 429.02042Q247.51138 429.02042 248.12076 429.34854Q248.73013 429.67667 249.12076 430.28604Q249.52701 430.89542 249.74576 431.77042Q249.96451 432.64542 249.96451 434.14542Q249.96451 435.91104 249.60513 436.98917Q249.24576 438.0673 248.52701 438.66104Q247.80826 439.2548 246.69888 439.2548Q245.26138 439.2548 244.43326 438.20792Q243.43326 436.95792 243.43326 434.14542ZM244.69888 434.14542Q244.69888 436.61417 245.27701 437.42667Q245.85513 438.23917 246.69888 438.23917Q247.55826 438.23917 248.13638 437.42667Q248.71451 436.59854 248.71451 434.14542Q248.71451 431.66104 248.13638 430.84854Q247.55826 430.03604 246.68326 430.03604Q245.83951 430.03604 245.33951 430.7548Q244.69888 431.67667 244.69888 434.14542ZM251.66763 431.47354Q251.66763 430.39542 252.19888 429.64542Q252.74576 428.89542 253.77701 428.89542Q254.71451 428.89542 255.32388 429.5673Q255.94888 430.23917 255.94888 431.53604Q255.94888 432.8173 255.32388 433.5048Q254.69888 434.1923 253.79263 434.1923Q252.88638 434.1923 252.27701 433.52042Q251.66763 432.83292 251.66763 431.47354ZM253.80826 429.73917Q253.35513 429.73917 253.04263 430.14542Q252.74576 430.53604 252.74576 431.58292Q252.74576 432.55167 253.04263 432.9423Q253.35513 433.33292 253.80826 433.33292Q254.27701 433.33292 254.57388 432.9423Q254.88638 432.55167 254.88638 431.48917Q254.88638 430.52042 254.57388 430.1298Q254.26138 429.73917 253.80826 429.73917ZM253.80826 439.45792L259.29263 428.89542L260.29263 428.89542L254.83951 439.45792L253.80826 439.45792ZM258.152 436.72354Q258.152 435.64542 258.68326 434.91104Q259.23013 434.16104 260.26138 434.16104Q261.19888 434.16104 261.82388 434.83292Q262.44888 435.5048 262.44888 436.80167Q262.44888 438.08292 261.82388 438.77042Q261.19888 439.45792 260.26138 439.45792Q259.35513 439.45792 258.74576 438.78604Q258.152 438.09854 258.152 436.72354ZM260.29263 435.0048Q259.82388 435.0048 259.527 435.41104Q259.23013 435.80167 259.23013 436.84854Q259.23013 437.8173 259.527 438.20792Q259.8395 438.59854 260.29263 438.59854Q260.76138 438.59854 261.05826 438.20792Q261.37076 437.8173 261.37076 436.7548Q261.37076 435.78604 261.05826 435.39542Q260.76138 435.0048 260.29263 435.0048Z" fill-rule="nonzero"/><path fill="#000000" d="M97.35222 353.96133L98.64909 353.85196Q98.78972 354.78946 99.30534 355.27383Q99.83659 355.74258 100.57097 355.74258Q101.46159 355.74258 102.07097 355.0707Q102.69597 354.39883 102.69597 353.30508Q102.69597 352.24258 102.10222 351.6332Q101.50847 351.02383 100.55534 351.02383Q99.96159 351.02383 99.47722 351.30508Q99.00847 351.5707 98.72722 351.99258L97.57097 351.85196L98.53972 346.6957L103.52409 346.6957L103.52409 347.8832L99.52409 347.8832L98.99284 350.5707Q99.89909 349.9457 100.88347 349.9457Q102.19597 349.9457 103.08659 350.85196Q103.99284 351.7582 103.99284 353.1957Q103.99284 354.55508 103.21159 355.53946Q102.24284 356.7582 100.57097 356.7582Q99.21159 356.7582 98.33659 355.99258Q97.47722 355.22696 97.35222 353.96133ZM106.03972 356.58633L106.03972 355.18008L107.44597 355.18008L107.44597 356.58633L106.03972 356.58633ZM109.35222 351.64883Q109.35222 349.86758 109.71159 348.78946Q110.08659 347.6957 110.80534 347.11758Q111.52409 346.52383 112.61784 346.52383Q113.43034 346.52383 114.03972 346.85196Q114.64909 347.18008 115.03972 347.78946Q115.44597 348.39883 115.66472 349.27383Q115.88347 350.14883 115.88347 351.64883Q115.88347 353.41446 115.52409 354.49258Q115.16472 355.5707 114.44597 356.16446Q113.72722 356.7582 112.61784 356.7582Q111.18034 356.7582 110.35222 355.71133Q109.35222 354.46133 109.35222 351.64883ZM110.61784 351.64883Q110.61784 354.11758 111.19597 354.93008Q111.77409 355.74258 112.61784 355.74258Q113.47722 355.74258 114.05534 354.93008Q114.63347 354.10196 114.63347 351.64883Q114.63347 349.16446 114.05534 348.35196Q113.47722 347.53946 112.60222 347.53946Q111.75847 347.53946 111.25847 348.2582Q110.61784 349.18008 110.61784 351.64883ZM117.58659 348.97696Q117.58659 347.89883 118.11784 347.14883Q118.66472 346.39883 119.69597 346.39883Q120.63347 346.39883 121.24284 347.0707Q121.86784 347.74258 121.86784 349.03946Q121.86784 350.3207 121.24284 351.0082Q120.61784 351.6957 119.71159 351.6957Q118.80534 351.6957 118.19597 351.02383Q117.58659 350.33633 117.58659 348.97696ZM119.72722 347.24258Q119.27409 347.24258 118.96159 347.64883Q118.66472 348.03946 118.66472 349.08633Q118.66472 350.05508 118.96159 350.4457Q119.27409 350.83633 119.72722 350.83633Q120.19597 350.83633 120.49284 350.4457Q120.80534 350.05508 120.80534 348.99258Q120.80534 348.02383 120.49284 347.6332Q120.18034 347.24258 119.72722 347.24258ZM119.72722 356.96133L125.21159 346.39883L126.21159 346.39883L120.75847 356.96133L119.72722 356.96133ZM124.07097 354.22696Q124.07097 353.14883 124.60222 352.41446Q125.14909 351.66446 126.18034 351.66446Q127.11784 351.66446 127.74284 352.33633Q128.36784 353.0082 128.36784 354.30508Q128.36784 355.58633 127.74284 356.27383Q127.11784 356.96133 126.18034 356.96133Q125.27409 356.96133 124.66472 356.28946Q124.07097 355.60196 124.07097 354.22696ZM126.21159 352.5082Q125.74284 352.5082 125.44597 352.91446Q125.14909 353.30508 125.14909 354.35196Q125.14909 355.3207 125.44597 355.71133Q125.75847 356.10196 126.21159 356.10196Q126.68034 356.10196 126.97722 355.71133Q127.28972 355.3207 127.28972 354.2582Q127.28972 353.28946 126.97722 352.89883Q126.68034 352.5082 126.21159 352.5082Z" fill-rule="nonzero"/><path fill="#000000" d="M67.117325 268.18332L65.88295 268.18332L65.88295 260.33957Q65.44545 260.76144 64.711075 261.19894Q63.99233 261.62082 63.42983 261.82394L63.42983 260.63644Q64.461075 260.15207 65.2267 259.46457Q66.00795 258.77707 66.32045 258.12082L67.117325 258.12082L67.117325 268.18332ZM70.4767 263.24582Q70.4767 261.46457 70.836075 260.38644Q71.211075 259.2927 71.929825 258.71457Q72.648575 258.12082 73.742325 258.12082Q74.554825 258.12082 75.1642 258.44894Q75.773575 258.77707 76.1642 259.38644Q76.57045 259.99582 76.7892 260.87082Q77.00795 261.74582 77.00795 263.24582Q77.00795 265.01144 76.648575 266.08957Q76.2892 267.1677 75.57045 267.76144Q74.8517 268.3552 73.742325 268.3552Q72.304825 268.3552 71.4767 267.30832Q70.4767 266.05832 70.4767 263.24582ZM71.742325 263.24582Q71.742325 265.71457 72.32045 266.52707Q72.898575 267.33957 73.742325 267.33957Q74.6017 267.33957 75.179825 266.52707Q75.75795 265.69894 75.75795 263.24582Q75.75795 260.76144 75.179825 259.94894Q74.6017 259.13644 73.7267 259.13644Q72.88295 259.13644 72.38295 259.8552Q71.742325 260.77707 71.742325 263.24582ZM79.1642 268.18332L79.1642 266.77707L80.57045 266.77707L80.57045 268.18332L79.1642 268.18332ZM82.4767 263.24582Q82.4767 261.46457 82.836075 260.38644Q83.211075 259.2927 83.929825 258.71457Q84.648575 258.12082 85.742325 258.12082Q86.554825 258.12082 87.1642 258.44894Q87.773575 258.77707 88.1642 259.38644Q88.57045 259.99582 88.7892 260.87082Q89.00795 261.74582 89.00795 263.24582Q89.00795 265.01144 88.648575 266.08957Q88.2892 267.1677 87.57045 267.76144Q86.8517 268.3552 85.742325 268.3552Q84.304825 268.3552 83.4767 267.30832Q82.4767 266.05832 82.4767 263.24582ZM83.742325 263.24582Q83.742325 265.71457 84.32045 266.52707Q84.898575 267.33957 85.742325 267.33957Q86.6017 267.33957 87.179825 266.52707Q87.75795 265.69894 87.75795 263.24582Q87.75795 260.76144 87.179825 259.94894Q86.6017 259.13644 85.7267 259.13644Q84.88295 259.13644 84.38295 259.8552Q83.742325 260.77707 83.742325 263.24582ZM90.711075 260.57394Q90.711075 259.49582 91.242325 258.74582Q91.7892 257.99582 92.82045 257.99582Q93.75795 257.99582 94.367325 258.6677Q94.992325 259.33957 94.992325 260.63644Q94.992325 261.9177 94.367325 262.6052Q93.742325 263.2927 92.836075 263.2927Q91.929825 263.2927 91.32045 262.62082Q90.711075 261.93332 90.711075 260.57394ZM92.8517 258.83957Q92.398575 258.83957 92.086075 259.24582Q91.7892 259.63644 91.7892 260.68332Q91.7892 261.65207 92.086075 262.0427Q92.398575 262.43332 92.8517 262.43332Q93.32045 262.43332 93.617325 262.0427Q93.929825 261.65207 93.929825 260.58957Q93.929825 259.62082 93.617325 259.2302Q93.304825 258.83957 92.8517 258.83957ZM92.8517 268.55832L98.336075 257.99582L99.336075 257.99582L93.88295 268.55832L92.8517 268.55832ZM97.19545 265.82394Q97.19545 264.74582 97.7267 264.01144Q98.273575 263.26144 99.304825 263.26144Q100.242325 263.26144 100.867325 263.93332Q101.492325 264.6052 101.492325 265.90207Q101.492325 267.18332 100.867325 267.87082Q100.242325 268.55832 99.304825 268.55832Q98.398575 268.55832 97.7892 267.88644Q97.19545 267.19894 97.19545 265.82394ZM99.336075 264.1052Q98.867325 264.1052 98.57045 264.51144Q98.273575 264.90207 98.273575 265.94894Q98.273575 266.9177 98.57045 267.30832Q98.88295 267.69894 99.336075 267.69894Q99.804825 267.69894 100.1017 267.30832Q100.4142 266.9177 100.4142 265.8552Q100.4142 264.88644 100.1017 264.49582Q99.804825 264.1052 99.336075 264.1052Z" fill-rule="nonzero"/><path fill="#000000" d="M138.19707 140.7748L138.19707 141.9623L131.57207 141.9623Q131.55644 141.5248 131.71269 141.10292Q131.97832 140.43105 132.52519 139.7748Q133.08769 139.11855 134.13457 138.25917Q135.77519 136.91542 136.33769 136.13417Q136.91582 135.35292 136.91582 134.6498Q136.91582 133.91542 136.38457 133.41542Q135.86894 132.91542 135.04082 132.91542Q134.15019 132.91542 133.60332 133.44667Q133.07207 133.97792 133.07207 134.93105L131.80644 134.79042Q131.93144 133.38417 132.77519 132.6498Q133.63457 131.8998 135.05644 131.8998Q136.50957 131.8998 137.33769 132.69667Q138.18144 133.49355 138.18144 134.68105Q138.18144 135.29042 137.93144 135.86855Q137.69707 136.44667 137.11894 137.0873Q136.55644 137.72792 135.22832 138.85292Q134.11894 139.7748 133.80644 140.11855Q133.49394 140.44667 133.29082 140.7748L138.19707 140.7748ZM139.72832 137.0248Q139.72832 135.24355 140.08769 134.16542Q140.46269 133.07167 141.18144 132.49355Q141.90019 131.8998 142.99394 131.8998Q143.80644 131.8998 144.41582 132.22792Q145.02519 132.55605 145.41582 133.16542Q145.82207 133.7748 146.04082 134.6498Q146.25957 135.5248 146.25957 137.0248Q146.25957 138.79042 145.90019 139.86855Q145.54082 140.94667 144.82207 141.54042Q144.10332 142.13417 142.99394 142.13417Q141.55644 142.13417 140.72832 141.0873Q139.72832 139.8373 139.72832 137.0248ZM140.99394 137.0248Q140.99394 139.49355 141.57207 140.30605Q142.15019 141.11855 142.99394 141.11855Q143.85332 141.11855 144.43144 140.30605Q145.00957 139.47792 145.00957 137.0248Q145.00957 134.54042 144.43144 133.72792Q143.85332 132.91542 142.97832 132.91542Q142.13457 132.91542 141.63457 133.63417Q140.99394 134.55605 140.99394 137.0248ZM148.41582 141.9623L148.41582 140.55605L149.82207 140.55605L149.82207 141.9623L148.41582 141.9623ZM151.72832 137.0248Q151.72832 135.24355 152.08769 134.16542Q152.46269 133.07167 153.18144 132.49355Q153.90019 131.8998 154.99394 131.8998Q155.80644 131.8998 156.41582 132.22792Q157.02519 132.55605 157.41582 133.16542Q157.82207 133.7748 158.04082 134.6498Q158.25957 135.5248 158.25957 137.0248Q158.25957 138.79042 157.90019 139.86855Q157.54082 140.94667 156.82207 141.54042Q156.10332 142.13417 154.99394 142.13417Q153.55644 142.13417 152.72832 141.0873Q151.72832 139.8373 151.72832 137.0248ZM152.99394 137.0248Q152.99394 139.49355 153.57207 140.30605Q154.15019 141.11855 154.99394 141.11855Q155.85332 141.11855 156.43144 140.30605Q157.00957 139.47792 157.00957 137.0248Q157.00957 134.54042 156.43144 133.72792Q155.85332 132.91542 154.97832 132.91542Q154.13457 132.91542 153.63457 133.63417Q152.99394 134.55605 152.99394 137.0248ZM159.96269 134.35292Q159.96269 133.2748 160.49394 132.5248Q161.04082 131.7748 162.07207 131.7748Q163.00957 131.7748 163.61894 132.44667Q164.24394 133.11855 164.24394 134.41542Q164.24394 135.69667 163.61894 136.38417Q162.99394 137.07167 162.08769 137.07167Q161.18144 137.07167 160.57207 136.3998Q159.96269 135.7123 159.96269 134.35292ZM162.10332 132.61855Q161.65019 132.61855 161.33769 133.0248Q161.04082 133.41542 161.04082 134.4623Q161.04082 135.43105 161.33769 135.82167Q161.65019 136.2123 162.10332 136.2123Q162.57207 136.2123 162.86894 135.82167Q163.18144 135.43105 163.18144 134.36855Q163.18144 133.3998 162.86894 133.00917Q162.55644 132.61855 162.10332 132.61855ZM162.10332 142.3373L167.58769 131.7748L168.58769 131.7748L163.13457 142.3373L162.10332 142.3373ZM166.44707 139.60292Q166.44707 138.5248 166.97832 137.79042Q167.52519 137.04042 168.55644 137.04042Q169.49394 137.04042 170.11894 137.7123Q170.74394 138.38417 170.74394 139.68105Q170.74394 140.9623 170.11894 141.6498Q169.49394 142.3373 168.55644 142.3373Q167.65019 142.3373 167.04082 141.66542Q166.44707 140.97792 166.44707 139.60292ZM168.58769 137.88417Q168.11894 137.88417 167.82207 138.29042Q167.52519 138.68105 167.52519 139.72792Q167.52519 140.69667 167.82207 141.0873Q168.13457 141.47792 168.58769 141.47792Q169.05644 141.47792 169.35332 141.0873Q169.66582 140.69667 169.66582 139.63417Q169.66582 138.66542 169.35332 138.2748Q169.05644 137.88417 168.58769 137.88417Z" fill-rule="nonzero"/><path fill="#4285f4" d="M485.5058 162.1639C485.5058 165.4776 482.81952 168.1639 479.5058 168.1639C476.1921 168.1639 473.5058 165.4776 473.5058 162.1639C473.5058 158.85019 476.1921 156.1639 479.5058 156.1639C482.81952 156.1639 485.5058 158.85019 485.5058 162.1639Z" fill-rule="nonzero"/><path fill="#ffffff" d="M494.53705 167.1639L494.53705 157.14827L498.28705 157.14827Q499.4433 157.14827 500.1308 157.46077Q500.83392 157.75764 501.22455 158.38264Q501.61517 159.00764 501.61517 159.71077Q501.61517 160.3514 501.2558 160.9139Q500.91205 161.4764 500.20892 161.83577Q501.11517 162.1014 501.59955 162.74202Q502.09955 163.38264 502.09955 164.25764Q502.09955 164.96077 501.80267 165.57014Q501.5058 166.17952 501.0683 166.50764Q500.6308 166.83577 499.95892 167.00764Q499.30267 167.1639 498.34955 167.1639L494.53705 167.1639ZM495.86517 161.3514L498.02142 161.3514Q498.91205 161.3514 499.28705 161.24202Q499.80267 161.08577 500.05267 160.74202Q500.30267 160.38264 500.30267 159.86702Q500.30267 159.36702 500.0683 158.99202Q499.83392 158.6014 499.3808 158.46077Q498.9433 158.32014 497.86517 158.32014L495.86517 158.32014L495.86517 161.3514ZM495.86517 165.9764L498.34955 165.9764Q498.99017 165.9764 499.2558 165.92952Q499.70892 165.8514 500.02142 165.6639Q500.33392 165.46077 500.52142 165.1014Q500.72455 164.74202 500.72455 164.25764Q500.72455 163.69514 500.42767 163.2889Q500.14642 162.86702 499.6308 162.71077Q499.1308 162.5389 498.17767 162.5389L495.86517 162.5389L495.86517 165.9764ZM502.9433 164.99202L504.14642 164.80452Q504.2558 165.5389 504.72455 165.92952Q505.1933 166.32014 506.03705 166.32014Q506.8808 166.32014 507.28705 165.9764Q507.70892 165.63264 507.70892 165.1639Q507.70892 164.74202 507.33392 164.50764Q507.08392 164.33577 506.08392 164.08577Q504.72455 163.74202 504.1933 163.49202Q503.67767 163.24202 503.41205 162.80452Q503.14642 162.36702 503.14642 161.83577Q503.14642 161.3514 503.36517 160.94514Q503.58392 160.52327 503.97455 160.24202Q504.2558 160.0389 504.74017 159.89827Q505.24017 159.74202 505.8183 159.74202Q506.66205 159.74202 507.30267 159.99202Q507.95892 160.2264 508.27142 160.64827Q508.58392 161.07014 508.6933 161.77327L507.49017 161.94514Q507.41205 161.38264 507.0058 161.07014Q506.61517 160.75764 505.89642 160.75764Q505.05267 160.75764 504.6933 161.0389Q504.33392 161.30452 504.33392 161.69514Q504.33392 161.92952 504.47455 162.11702Q504.6308 162.32014 504.95892 162.44514Q505.1308 162.50764 506.03705 162.75764Q507.34955 163.11702 507.86517 163.33577Q508.3808 163.55452 508.66205 163.9764Q508.95892 164.39827 508.95892 165.02327Q508.95892 165.64827 508.59955 166.19514Q508.2558 166.7264 507.5683 167.0389Q506.89642 167.33577 506.03705 167.33577Q504.6308 167.33577 503.8808 166.74202Q503.14642 166.14827 502.9433 164.99202ZM515.16205 164.50764L516.3808 164.6639Q516.1777 165.9139 515.34955 166.63264Q514.53705 167.33577 513.34955 167.33577Q511.86517 167.33577 510.95892 166.36702Q510.05267 165.38264 510.05267 163.55452Q510.05267 162.38264 510.4433 161.50764Q510.83392 160.61702 511.6308 160.17952Q512.4277 159.74202 513.3652 159.74202Q514.53705 159.74202 515.28705 160.33577Q516.0527 160.92952 516.2558 162.0389L515.0683 162.2264Q514.8964 161.49202 514.4589 161.13264Q514.0214 160.75764 513.41205 160.75764Q512.47455 160.75764 511.89642 161.42952Q511.3183 162.08577 511.3183 163.52327Q511.3183 164.99202 511.8808 165.6639Q512.4433 166.32014 513.3339 166.32014Q514.0683 166.32014 514.5527 165.88264Q515.03705 165.42952 515.16205 164.50764ZM521.3964 167.1639L521.3964 157.14827L522.6308 157.14827L522.6308 167.1639L521.3964 167.1639ZM529.16205 166.27327Q528.4902 166.8514 527.84955 167.1014Q527.22455 167.33577 526.4902 167.33577Q525.3027 167.33577 524.6464 166.75764Q524.0058 166.1639 524.0058 165.24202Q524.0058 164.71077 524.2402 164.27327Q524.4902 163.83577 524.8808 163.57014Q525.28705 163.30452 525.7714 163.1639Q526.1308 163.07014 526.8652 162.9764Q528.3652 162.80452 529.0683 162.55452Q529.0683 162.30452 529.0683 162.24202Q529.0683 161.4764 528.72455 161.17952Q528.2558 160.75764 527.3183 160.75764Q526.4589 160.75764 526.03705 161.07014Q525.6308 161.36702 525.4277 162.13264L524.22455 161.9764Q524.3808 161.19514 524.7558 160.7264Q525.1464 160.25764 525.84955 160.00764Q526.5683 159.74202 527.5058 159.74202Q528.4277 159.74202 529.0058 159.96077Q529.5839 160.17952 529.84955 160.50764Q530.1308 160.83577 530.2402 161.3514Q530.3027 161.6639 530.3027 162.4764L530.3027 164.11702Q530.3027 165.83577 530.3808 166.2889Q530.4589 166.74202 530.6933 167.1639L529.41205 167.1639Q529.22455 166.77327 529.16205 166.27327ZM529.0683 163.52327Q528.3964 163.7889 527.0527 163.99202Q526.3027 164.1014 525.97455 164.24202Q525.66205 164.36702 525.4902 164.63264Q525.3183 164.89827 525.3183 165.21077Q525.3183 165.71077 525.6933 166.0389Q526.0683 166.36702 526.78705 166.36702Q527.5058 166.36702 528.0527 166.05452Q528.59955 165.74202 528.8652 165.19514Q529.0683 164.7889 529.0683 163.9764L529.0683 163.52327ZM537.1933 167.1639L537.1933 166.1014Q536.3339 167.33577 534.8808 167.33577Q534.2402 167.33577 533.6777 167.08577Q533.1308 166.83577 532.84955 166.46077Q532.5839 166.08577 532.47455 165.55452Q532.3964 165.19514 532.3964 164.39827L532.3964 159.89827L533.6308 159.89827L533.6308 163.92952Q533.6308 164.89827 533.7089 165.2264Q533.8183 165.71077 534.1933 165.99202Q534.5683 166.27327 535.1308 166.27327Q535.6777 166.27327 536.16205 165.99202Q536.6464 165.69514 536.84955 165.21077Q537.0527 164.7264 537.0527 163.7889L537.0527 159.89827L538.28705 159.89827L538.28705 167.1639L537.1933 167.1639ZM540.4277 167.1639L540.4277 159.89827L541.53705 159.89827L541.53705 160.92952Q542.3339 159.74202 543.84955 159.74202Q544.5058 159.74202 545.0527 159.9764Q545.59955 160.21077 545.8652 160.6014Q546.1464 160.9764 546.2558 161.50764Q546.3339 161.8514 546.3339 162.69514L546.3339 167.1639L545.09955 167.1639L545.09955 162.74202Q545.09955 161.99202 544.9589 161.63264Q544.8183 161.25764 544.4433 161.0389Q544.0839 160.80452 543.5839 160.80452Q542.8027 160.80452 542.22455 161.30452Q541.66205 161.80452 541.66205 163.19514L541.66205 167.1639L540.4277 167.1639ZM553.16205 164.50764L554.3808 164.6639Q554.1777 165.9139 553.34955 166.63264Q552.53705 167.33577 551.34955 167.33577Q549.8652 167.33577 548.9589 166.36702Q548.0527 165.38264 548.0527 163.55452Q548.0527 162.38264 548.4433 161.50764Q548.8339 160.61702 549.6308 160.17952Q550.4277 159.74202 551.3652 159.74202Q552.53705 159.74202 553.28705 160.33577Q554.0527 160.92952 554.2558 162.0389L553.0683 162.2264Q552.8964 161.49202 552.4589 161.13264Q552.0214 160.75764 551.41205 160.75764Q550.47455 160.75764 549.8964 161.42952Q549.3183 162.08577 549.3183 163.52327Q549.3183 164.99202 549.8808 165.6639Q550.4433 166.32014 551.3339 166.32014Q552.0683 166.32014 552.5527 165.88264Q553.03705 165.42952 553.16205 164.50764ZM555.4277 167.1639L555.4277 157.14827L556.66205 157.14827L556.66205 160.74202Q557.5214 159.74202 558.8339 159.74202Q559.6464 159.74202 560.2402 160.07014Q560.8339 160.38264 561.0839 160.94514Q561.34955 161.49202 561.34955 162.57014L561.34955 167.1639L560.1152 167.1639L560.1152 162.57014Q560.1152 161.63264 559.7089 161.2264Q559.3183 160.80452 558.5839 160.80452Q558.03705 160.80452 557.5527 161.08577Q557.0683 161.36702 556.8652 161.8514Q556.66205 162.33577 556.66205 163.19514L556.66205 167.1639L555.4277 167.1639Z" fill-rule="nonzero"/><path fill="#ea4335" d="M485.5058 188.1639C485.5058 191.4776 482.81952 194.1639 479.5058 194.1639C476.1921 194.1639 473.5058 191.4776 473.5058 188.1639C473.5058 184.85019 476.1921 182.1639 479.5058 182.1639C482.81952 182.1639 485.5058 184.85019 485.5058 188.1639Z" fill-rule="nonzero"/><path fill="#ffffff" d="M494.61517 193.1639L494.61517 183.14827L501.86517 183.14827L501.86517 184.32014L495.9433 184.32014L495.9433 187.39827L501.49017 187.39827L501.49017 188.57014L495.9433 188.57014L495.9433 191.9764L502.09955 191.9764L502.09955 193.1639L494.61517 193.1639ZM506.11517 192.07014L506.28705 193.14827Q505.77142 193.25764 505.36517 193.25764Q504.6933 193.25764 504.3183 193.05452Q503.95892 192.83577 503.80267 192.49202Q503.66205 192.14827 503.66205 191.0389L503.66205 186.86702L502.7558 186.86702L502.7558 185.89827L503.66205 185.89827L503.66205 184.1014L504.8808 183.36702L504.8808 185.89827L506.11517 185.89827L506.11517 186.86702L504.8808 186.86702L504.8808 191.1014Q504.8808 191.63264 504.9433 191.7889Q505.0058 191.92952 505.14642 192.02327Q505.30267 192.11702 505.5683 192.11702Q505.78705 192.11702 506.11517 192.07014ZM507.42767 193.1639L507.42767 183.14827L508.66205 183.14827L508.66205 186.74202Q509.52142 185.74202 510.83392 185.74202Q511.64642 185.74202 512.2402 186.07014Q512.8339 186.38264 513.0839 186.94514Q513.34955 187.49202 513.34955 188.57014L513.34955 193.1639L512.1152 193.1639L512.1152 188.57014Q512.1152 187.63264 511.70892 187.2264Q511.3183 186.80452 510.58392 186.80452Q510.03705 186.80452 509.55267 187.08577Q509.0683 187.36702 508.86517 187.8514Q508.66205 188.33577 508.66205 189.19514L508.66205 193.1639L507.42767 193.1639ZM519.3964 193.1639L519.3964 183.14827L520.6308 183.14827L520.6308 193.1639L519.3964 193.1639ZM527.16205 192.27327Q526.4902 192.8514 525.84955 193.1014Q525.22455 193.33577 524.4902 193.33577Q523.3027 193.33577 522.6464 192.75764Q522.0058 192.1639 522.0058 191.24202Q522.0058 190.71077 522.2402 190.27327Q522.4902 189.83577 522.8808 189.57014Q523.28705 189.30452 523.7714 189.1639Q524.1308 189.07014 524.8652 188.9764Q526.3652 188.80452 527.0683 188.55452Q527.0683 188.30452 527.0683 188.24202Q527.0683 187.4764 526.72455 187.17952Q526.2558 186.75764 525.3183 186.75764Q524.4589 186.75764 524.03705 187.07014Q523.6308 187.36702 523.4277 188.13264L522.22455 187.9764Q522.3808 187.19514 522.7558 186.7264Q523.1464 186.25764 523.84955 186.00764Q524.5683 185.74202 525.5058 185.74202Q526.4277 185.74202 527.0058 185.96077Q527.5839 186.17952 527.84955 186.50764Q528.1308 186.83577 528.2402 187.3514Q528.3027 187.6639 528.3027 188.4764L528.3027 190.11702Q528.3027 191.83577 528.3808 192.2889Q528.4589 192.74202 528.6933 193.1639L527.41205 193.1639Q527.22455 192.77327 527.16205 192.27327ZM527.0683 189.52327Q526.3964 189.7889 525.0527 189.99202Q524.3027 190.1014 523.97455 190.24202Q523.66205 190.36702 523.4902 190.63264Q523.3183 190.89827 523.3183 191.21077Q523.3183 191.71077 523.6933 192.0389Q524.0683 192.36702 524.78705 192.36702Q525.5058 192.36702 526.0527 192.05452Q526.59955 191.74202 526.8652 191.19514Q527.0683 190.7889 527.0683 189.9764L527.0683 189.52327ZM535.1933 193.1639L535.1933 192.1014Q534.3339 193.33577 532.8808 193.33577Q532.2402 193.33577 531.6777 193.08577Q531.1308 192.83577 530.84955 192.46077Q530.5839 192.08577 530.47455 191.55452Q530.3964 191.19514 530.3964 190.39827L530.3964 185.89827L531.6308 185.89827L531.6308 189.92952Q531.6308 190.89827 531.7089 191.2264Q531.8183 191.71077 532.1933 191.99202Q532.5683 192.27327 533.1308 192.27327Q533.6777 192.27327 534.16205 191.99202Q534.6464 191.69514 534.84955 191.21077Q535.0527 190.7264 535.0527 189.7889L535.0527 185.89827L536.28705 185.89827L536.28705 193.1639L535.1933 193.1639ZM538.4277 193.1639L538.4277 185.89827L539.53705 185.89827L539.53705 186.92952Q540.3339 185.74202 541.84955 185.74202Q542.5058 185.74202 543.0527 185.9764Q543.59955 186.21077 543.8652 186.6014Q544.1464 186.9764 544.2558 187.50764Q544.3339 187.8514 544.3339 188.69514L544.3339 193.1639L543.09955 193.1639L543.09955 188.74202Q543.09955 187.99202 542.9589 187.63264Q542.8183 187.25764 542.4433 187.0389Q542.0839 186.80452 541.5839 186.80452Q540.8027 186.80452 540.22455 187.30452Q539.66205 187.80452 539.66205 189.19514L539.66205 193.1639L538.4277 193.1639ZM551.16205 190.50764L552.3808 190.6639Q552.1777 191.9139 551.34955 192.63264Q550.53705 193.33577 549.34955 193.33577Q547.8652 193.33577 546.9589 192.36702Q546.0527 191.38264 546.0527 189.55452Q546.0527 188.38264 546.4433 187.50764Q546.8339 186.61702 547.6308 186.17952Q548.4277 185.74202 549.3652 185.74202Q550.53705 185.74202 551.28705 186.33577Q552.0527 186.92952 552.2558 188.0389L551.0683 188.2264Q550.8964 187.49202 550.4589 187.13264Q550.0214 186.75764 549.41205 186.75764Q548.47455 186.75764 547.8964 187.42952Q547.3183 188.08577 547.3183 189.52327Q547.3183 190.99202 547.8808 191.6639Q548.4433 192.32014 549.3339 192.32014Q550.0683 192.32014 550.5527 191.88264Q551.03705 191.42952 551.16205 190.50764ZM553.4277 193.1639L553.4277 183.14827L554.66205 183.14827L554.66205 186.74202Q555.5214 185.74202 556.8339 185.74202Q557.6464 185.74202 558.2402 186.07014Q558.8339 186.38264 559.0839 186.94514Q559.34955 187.49202 559.34955 188.57014L559.34955 193.1639L558.1152 193.1639L558.1152 188.57014Q558.1152 187.63264 557.7089 187.2264Q557.3183 186.80452 556.5839 186.80452Q556.03705 186.80452 555.5527 187.08577Q555.0683 187.36702 554.8652 187.8514Q554.66205 188.33577 554.66205 189.19514L554.66205 193.1639L553.4277 193.1639Z" fill-rule="nonzero"/><path fill="#fbbc04" d="M485.5058 214.1639C485.5058 217.4776 482.81952 220.1639 479.5058 220.1639C476.1921 220.1639 473.5058 217.4776 473.5058 214.1639C473.5058 210.85019 476.1921 208.1639 479.5058 208.1639C482.81952 208.1639 485.5058 210.85019 485.5058 214.1639Z" fill-rule="nonzero"/><path fill="#ffffff" d="M501.74017 215.64827L503.0683 215.99202Q502.64642 217.61702 501.55267 218.4764Q500.47455 219.33577 498.91205 219.33577Q497.28705 219.33577 496.27142 218.67952Q495.2558 218.00764 494.72455 216.75764Q494.20892 215.50764 494.20892 214.07014Q494.20892 212.50764 494.80267 211.3514Q495.39642 210.17952 496.5058 209.58577Q497.61517 208.9764 498.92767 208.9764Q500.4433 208.9764 501.45892 209.74202Q502.49017 210.50764 502.89642 211.88264L501.58392 212.19514Q501.24017 211.1014 500.5683 210.6014Q499.91205 210.1014 498.91205 210.1014Q497.7558 210.1014 496.97455 210.6639Q496.1933 211.21077 495.8808 212.14827Q495.5683 213.08577 495.5683 214.07014Q495.5683 215.3514 495.9433 216.30452Q496.3183 217.25764 497.09955 217.7264Q497.8808 218.19514 498.80267 218.19514Q499.91205 218.19514 500.67767 217.55452Q501.45892 216.9139 501.74017 215.64827ZM503.97455 215.5389Q503.97455 213.52327 505.09955 212.5389Q506.02142 211.74202 507.3808 211.74202Q508.86517 211.74202 509.8183 212.7264Q510.77142 213.69514 510.77142 215.42952Q510.77142 216.83577 510.34955 217.64827Q509.92767 218.44514 509.11517 218.89827Q508.3183 219.33577 507.3808 219.33577Q505.84955 219.33577 504.91205 218.3514Q503.97455 217.36702 503.97455 215.5389ZM505.24017 215.5389Q505.24017 216.92952 505.84955 217.63264Q506.45892 218.32014 507.3808 218.32014Q508.28705 218.32014 508.89642 217.61702Q509.5058 216.9139 509.5058 215.49202Q509.5058 214.14827 508.89642 213.46077Q508.28705 212.75764 507.3808 212.75764Q506.45892 212.75764 505.84955 213.44514Q505.24017 214.13264 505.24017 215.5389ZM512.41205 219.1639L512.41205 211.89827L513.5214 211.89827L513.5214 213.00764Q513.9433 212.2264 514.3027 211.99202Q514.66205 211.74202 515.09955 211.74202Q515.72455 211.74202 516.3652 212.13264L515.9433 213.27327Q515.4902 213.00764 515.03705 213.00764Q514.6308 213.00764 514.3027 213.25764Q513.9902 213.49202 513.84955 213.92952Q513.6464 214.58577 513.6464 215.36702L513.6464 219.1639L512.41205 219.1639ZM522.3964 216.82014L523.6777 216.9764Q523.3652 218.1014 522.5527 218.7264Q521.7402 219.33577 520.47455 219.33577Q518.8808 219.33577 517.9433 218.3514Q517.0214 217.36702 517.0214 215.6014Q517.0214 213.75764 517.9589 212.75764Q518.91205 211.74202 520.41205 211.74202Q521.8652 211.74202 522.78705 212.74202Q523.7089 213.7264 523.7089 215.52327Q523.7089 215.63264 523.7089 215.8514L518.28705 215.8514Q518.3652 217.0389 518.9589 217.67952Q519.5683 218.32014 520.4902 218.32014Q521.16205 218.32014 521.6308 217.96077Q522.1152 217.6014 522.3964 216.82014ZM518.3652 214.83577L522.41205 214.83577Q522.3339 213.9139 521.9433 213.46077Q521.3652 212.75764 520.4277 212.75764Q519.5683 212.75764 518.9902 213.32014Q518.4277 213.88264 518.3652 214.83577ZM532.1308 219.1639L532.1308 210.32014L528.8339 210.32014L528.8339 209.14827L536.7714 209.14827L536.7714 210.32014L533.4589 210.32014L533.4589 219.1639L532.1308 219.1639ZM543.3964 216.82014L544.6777 216.9764Q544.3652 218.1014 543.5527 218.7264Q542.7402 219.33577 541.47455 219.33577Q539.8808 219.33577 538.9433 218.3514Q538.0214 217.36702 538.0214 215.6014Q538.0214 213.75764 538.9589 212.75764Q539.91205 211.74202 541.41205 211.74202Q542.8652 211.74202 543.78705 212.74202Q544.7089 213.7264 544.7089 215.52327Q544.7089 215.63264 544.7089 215.8514L539.28705 215.8514Q539.3652 217.0389 539.9589 217.67952Q540.5683 218.32014 541.4902 218.32014Q542.16205 218.32014 542.6308 217.96077Q543.1152 217.6014 543.3964 216.82014ZM539.3652 214.83577L543.41205 214.83577Q543.3339 213.9139 542.9433 213.46077Q542.3652 212.75764 541.4277 212.75764Q540.5683 212.75764 539.9902 213.32014Q539.4277 213.88264 539.3652 214.83577ZM551.16205 218.27327Q550.4902 218.8514 549.84955 219.1014Q549.22455 219.33577 548.4902 219.33577Q547.3027 219.33577 546.6464 218.75764Q546.0058 218.1639 546.0058 217.24202Q546.0058 216.71077 546.2402 216.27327Q546.4902 215.83577 546.8808 215.57014Q547.28705 215.30452 547.7714 215.1639Q548.1308 215.07014 548.8652 214.9764Q550.3652 214.80452 551.0683 214.55452Q551.0683 214.30452 551.0683 214.24202Q551.0683 213.4764 550.72455 213.17952Q550.2558 212.75764 549.3183 212.75764Q548.4589 212.75764 548.03705 213.07014Q547.6308 213.36702 547.4277 214.13264L546.22455 213.9764Q546.3808 213.19514 546.7558 212.7264Q547.1464 212.25764 547.84955 212.00764Q548.5683 211.74202 549.5058 211.74202Q550.4277 211.74202 551.0058 211.96077Q551.5839 212.17952 551.84955 212.50764Q552.1308 212.83577 552.2402 213.3514Q552.3027 213.6639 552.3027 214.4764L552.3027 216.11702Q552.3027 217.83577 552.3808 218.2889Q552.4589 218.74202 552.6933 219.1639L551.41205 219.1639Q551.22455 218.77327 551.16205 218.27327ZM551.0683 215.52327Q550.3964 215.7889 549.0527 215.99202Q548.3027 216.1014 547.97455 216.24202Q547.66205 216.36702 547.4902 216.63264Q547.3183 216.89827 547.3183 217.21077Q547.3183 217.71077 547.6933 218.0389Q548.0683 218.36702 548.78705 218.36702Q549.5058 218.36702 550.0527 218.05452Q550.59955 217.74202 550.8652 217.19514Q551.0683 216.7889 551.0683 215.9764L551.0683 215.52327ZM554.4277 219.1639L554.4277 211.89827L555.53705 211.89827L555.53705 212.92952Q555.8652 212.38264 556.4277 212.07014Q557.0058 211.74202 557.72455 211.74202Q558.53705 211.74202 559.0527 212.08577Q559.5683 212.4139 559.78705 213.00764Q560.6464 211.74202 562.0214 211.74202Q563.09955 211.74202 563.6777 212.33577Q564.2714 212.92952 564.2714 214.17952L564.2714 219.1639L563.03705 219.1639L563.03705 214.58577Q563.03705 213.8514 562.91205 213.52327Q562.8027 213.19514 562.4902 213.00764Q562.1777 212.80452 561.7558 212.80452Q560.9902 212.80452 560.47455 213.32014Q559.97455 213.82014 559.97455 214.94514L559.97455 219.1639L558.7402 219.1639L558.7402 214.44514Q558.7402 213.63264 558.4433 213.2264Q558.1464 212.80452 557.4589 212.80452Q556.9433 212.80452 556.4902 213.08577Q556.0527 213.3514 555.84955 213.88264Q555.66205 214.39827 555.66205 215.39827L555.66205 219.1639L554.4277 219.1639Z" fill-rule="nonzero"/><path fill="#34a853" d="M485.5058 240.1639C485.5058 243.4776 482.81952 246.1639 479.5058 246.1639C476.1921 246.1639 473.5058 243.4776 473.5058 240.1639C473.5058 236.85019 476.1921 234.1639 479.5058 234.1639C482.81952 234.1639 485.5058 236.85019 485.5058 240.1639Z" fill-rule="nonzero"/><path fill="#ffffff" d="M501.74017 241.64827L503.0683 241.99202Q502.64642 243.61702 501.55267 244.4764Q500.47455 245.33577 498.91205 245.33577Q497.28705 245.33577 496.27142 244.67952Q495.2558 244.00764 494.72455 242.75764Q494.20892 241.50764 494.20892 240.07014Q494.20892 238.50764 494.80267 237.3514Q495.39642 236.17952 496.5058 235.58577Q497.61517 234.9764 498.92767 234.9764Q500.4433 234.9764 501.45892 235.74202Q502.49017 236.50764 502.89642 237.88264L501.58392 238.19514Q501.24017 237.1014 500.5683 236.6014Q499.91205 236.1014 498.91205 236.1014Q497.7558 236.1014 496.97455 236.6639Q496.1933 237.21077 495.8808 238.14827Q495.5683 239.08577 495.5683 240.07014Q495.5683 241.3514 495.9433 242.30452Q496.3183 243.25764 497.09955 243.7264Q497.8808 244.19514 498.80267 244.19514Q499.91205 244.19514 500.67767 243.55452Q501.45892 242.9139 501.74017 241.64827ZM503.97455 241.5389Q503.97455 239.52327 505.09955 238.5389Q506.02142 237.74202 507.3808 237.74202Q508.86517 237.74202 509.8183 238.7264Q510.77142 239.69514 510.77142 241.42952Q510.77142 242.83577 510.34955 243.64827Q509.92767 244.44514 509.11517 244.89827Q508.3183 245.33577 507.3808 245.33577Q505.84955 245.33577 504.91205 244.3514Q503.97455 243.36702 503.97455 241.5389ZM505.24017 241.5389Q505.24017 242.92952 505.84955 243.63264Q506.45892 244.32014 507.3808 244.32014Q508.28705 244.32014 508.89642 243.61702Q509.5058 242.9139 509.5058 241.49202Q509.5058 240.14827 508.89642 239.46077Q508.28705 238.75764 507.3808 238.75764Q506.45892 238.75764 505.84955 239.44514Q505.24017 240.13264 505.24017 241.5389ZM512.4277 245.1639L512.4277 237.89827L513.53705 237.89827L513.53705 238.92952Q513.8652 238.38264 514.4277 238.07014Q515.0058 237.74202 515.72455 237.74202Q516.53705 237.74202 517.0527 238.08577Q517.5683 238.4139 517.78705 239.00764Q518.6464 237.74202 520.0214 237.74202Q521.09955 237.74202 521.6777 238.33577Q522.2714 238.92952 522.2714 240.17952L522.2714 245.1639L521.03705 245.1639L521.03705 240.58577Q521.03705 239.8514 520.91205 239.52327Q520.8027 239.19514 520.4902 239.00764Q520.1777 238.80452 519.7558 238.80452Q518.9902 238.80452 518.47455 239.32014Q517.97455 239.82014 517.97455 240.94514L517.97455 245.1639L516.7402 245.1639L516.7402 240.44514Q516.7402 239.63264 516.4433 239.2264Q516.1464 238.80452 515.4589 238.80452Q514.9433 238.80452 514.4902 239.08577Q514.0527 239.3514 513.84955 239.88264Q513.66205 240.39827 513.66205 241.39827L513.66205 245.1639L512.4277 245.1639ZM524.4277 245.1639L524.4277 237.89827L525.53705 237.89827L525.53705 238.92952Q525.8652 238.38264 526.4277 238.07014Q527.0058 237.74202 527.72455 237.74202Q528.53705 237.74202 529.0527 238.08577Q529.5683 238.4139 529.78705 239.00764Q530.6464 237.74202 532.0214 237.74202Q533.09955 237.74202 533.6777 238.33577Q534.2714 238.92952 534.2714 240.17952L534.2714 245.1639L533.03705 245.1639L533.03705 240.58577Q533.03705 239.8514 532.91205 239.52327Q532.8027 239.19514 532.4902 239.00764Q532.1777 238.80452 531.7558 238.80452Q530.9902 238.80452 530.47455 239.32014Q529.97455 239.82014 529.97455 240.94514L529.97455 245.1639L528.7402 245.1639L528.7402 240.44514Q528.7402 239.63264 528.4433 239.2264Q528.1464 238.80452 527.4589 238.80452Q526.9433 238.80452 526.4902 239.08577Q526.0527 239.3514 525.84955 239.88264Q525.66205 240.39827 525.66205 241.39827L525.66205 245.1639L524.4277 245.1639ZM541.1933 245.1639L541.1933 244.1014Q540.3339 245.33577 538.8808 245.33577Q538.2402 245.33577 537.6777 245.08577Q537.1308 244.83577 536.84955 244.46077Q536.5839 244.08577 536.47455 243.55452Q536.3964 243.19514 536.3964 242.39827L536.3964 237.89827L537.6308 237.89827L537.6308 241.92952Q537.6308 242.89827 537.7089 243.2264Q537.8183 243.71077 538.1933 243.99202Q538.5683 244.27327 539.1308 244.27327Q539.6777 244.27327 540.16205 243.99202Q540.6464 243.69514 540.84955 243.21077Q541.0527 242.7264 541.0527 241.7889L541.0527 237.89827L542.28705 237.89827L542.28705 245.1639L541.1933 245.1639ZM544.4277 245.1639L544.4277 237.89827L545.53705 237.89827L545.53705 238.92952Q546.3339 237.74202 547.84955 237.74202Q548.5058 237.74202 549.0527 237.9764Q549.59955 238.21077 549.8652 238.6014Q550.1464 238.9764 550.2558 239.50764Q550.3339 239.8514 550.3339 240.69514L550.3339 245.1639L549.09955 245.1639L549.09955 240.74202Q549.09955 239.99202 548.9589 239.63264Q548.8183 239.25764 548.4433 239.0389Q548.0839 238.80452 547.5839 238.80452Q546.8027 238.80452 546.22455 239.30452Q545.66205 239.80452 545.66205 241.19514L545.66205 245.1639L544.4277 245.1639ZM552.4433 236.55452L552.4433 235.14827L553.66205 235.14827L553.66205 236.55452L552.4433 236.55452ZM552.4433 245.1639L552.4433 237.89827L553.66205 237.89827L553.66205 245.1639L552.4433 245.1639ZM558.1152 244.07014L558.28705 245.14827Q557.7714 245.25764 557.3652 245.25764Q556.6933 245.25764 556.3183 245.05452Q555.9589 244.83577 555.8027 244.49202Q555.66205 244.14827 555.66205 243.0389L555.66205 238.86702L554.7558 238.86702L554.7558 237.89827L555.66205 237.89827L555.66205 236.1014L556.8808 235.36702L556.8808 237.89827L558.1152 237.89827L558.1152 238.86702L556.8808 238.86702L556.8808 243.1014Q556.8808 243.63264 556.9433 243.7889Q557.0058 243.92952 557.1464 244.02327Q557.3027 244.11702 557.5683 244.11702Q557.78705 244.11702 558.1152 244.07014ZM559.3808 247.96077L559.2402 246.80452Q559.6464 246.9139 559.9433 246.9139Q560.34955 246.9139 560.59955 246.77327Q560.84955 246.64827 561.0058 246.39827Q561.1152 246.21077 561.3808 245.4764Q561.41205 245.38264 561.4902 245.17952L558.72455 237.89827L560.0527 237.89827L561.5683 242.1014Q561.8652 242.9139 562.09955 243.7889Q562.3027 242.94514 562.59955 242.13264L564.1464 237.89827L565.3808 237.89827L562.6152 245.2889Q562.1777 246.4764 561.9277 246.92952Q561.59955 247.5389 561.1777 247.82014Q560.7558 248.11702 560.16205 248.11702Q559.8183 248.11702 559.3808 247.96077Z" fill-rule="nonzero"/><path fill="#ff6d01" d="M485.5058 266.1639C485.5058 269.4776 482.81952 272.1639 479.5058 272.1639C476.1921 272.1639 473.5058 269.4776 473.5058 266.1639C473.5058 262.8502 476.1921 260.1639 479.5058 260.1639C482.81952 260.1639 485.5058 262.8502 485.5058 266.1639Z" fill-rule="nonzero"/><path fill="#ffffff" d="M494.55267 271.1639L494.55267 261.1483L496.53705 261.1483L498.91205 268.24203Q499.24017 269.2264 499.39642 269.7264Q499.5683 269.17953 499.92767 268.11703L502.3183 261.1483L504.11517 261.1483L504.11517 271.1639L502.83392 271.1639L502.83392 262.7733L499.91205 271.1639L498.72455 271.1639L495.8183 262.63266L495.8183 271.1639L494.55267 271.1639ZM511.16205 270.2733Q510.49017 270.8514 509.84955 271.1014Q509.22455 271.3358 508.49017 271.3358Q507.30267 271.3358 506.64642 270.75766Q506.0058 270.1639 506.0058 269.24203Q506.0058 268.7108 506.24017 268.2733Q506.49017 267.8358 506.8808 267.57016Q507.28705 267.30453 507.77142 267.1639Q508.1308 267.07016 508.86517 266.9764Q510.36517 266.80453 511.0683 266.55453Q511.0683 266.30453 511.0683 266.24203Q511.0683 265.4764 510.72455 265.17953Q510.2558 264.75766 509.3183 264.75766Q508.45892 264.75766 508.03705 265.07016Q507.6308 265.36703 507.42767 266.13266L506.22455 265.9764Q506.3808 265.19516 506.7558 264.7264Q507.14642 264.25766 507.84955 264.00766Q508.5683 263.74203 509.5058 263.74203Q510.42767 263.74203 511.0058 263.9608Q511.58392 264.17953 511.84955 264.50766Q512.1308 264.8358 512.2402 265.3514Q512.3027 265.6639 512.3027 266.4764L512.3027 268.11703Q512.3027 269.8358 512.3808 270.2889Q512.4589 270.74203 512.6933 271.1639L511.41205 271.1639Q511.22455 270.7733 511.16205 270.2733ZM511.0683 267.5233Q510.39642 267.7889 509.05267 267.99203Q508.30267 268.1014 507.97455 268.24203Q507.66205 268.36703 507.49017 268.63266Q507.3183 268.8983 507.3183 269.2108Q507.3183 269.7108 507.6933 270.0389Q508.0683 270.36703 508.78705 270.36703Q509.5058 270.36703 510.05267 270.05453Q510.59955 269.74203 510.86517 269.19516Q511.0683 268.7889 511.0683 267.9764L511.0683 267.5233ZM514.41205 271.1639L514.41205 263.8983L515.5214 263.8983L515.5214 265.00766Q515.9433 264.2264 516.3027 263.99203Q516.66205 263.74203 517.09955 263.74203Q517.72455 263.74203 518.3652 264.13266L517.9433 265.2733Q517.4902 265.00766 517.03705 265.00766Q516.6308 265.00766 516.3027 265.25766Q515.9902 265.49203 515.84955 265.92953Q515.6464 266.5858 515.6464 267.36703L515.6464 271.1639L514.41205 271.1639ZM519.4433 271.1639L519.4433 261.1483L520.66205 261.1483L520.66205 266.8514L523.5839 263.8983L525.1777 263.8983L522.3964 266.6014L525.4589 271.1639L523.9277 271.1639L521.53705 267.44516L520.66205 268.2889L520.66205 271.1639L519.4433 271.1639ZM531.3964 268.82016L532.6777 268.9764Q532.3652 270.1014 531.5527 270.7264Q530.7402 271.3358 529.47455 271.3358Q527.8808 271.3358 526.9433 270.3514Q526.0214 269.36703 526.0214 267.6014Q526.0214 265.75766 526.9589 264.75766Q527.91205 263.74203 529.41205 263.74203Q530.8652 263.74203 531.78705 264.74203Q532.7089 265.7264 532.7089 267.5233Q532.7089 267.63266 532.7089 267.8514L527.28705 267.8514Q527.3652 269.0389 527.9589 269.67953Q528.5683 270.32016 529.4902 270.32016Q530.16205 270.32016 530.6308 269.9608Q531.1152 269.6014 531.3964 268.82016ZM527.3652 266.8358L531.41205 266.8358Q531.3339 265.9139 530.9433 265.4608Q530.3652 264.75766 529.4277 264.75766Q528.5683 264.75766 527.9902 265.32016Q527.4277 265.88266 527.3652 266.8358ZM537.1152 270.07016L537.28705 271.1483Q536.7714 271.25766 536.3652 271.25766Q535.6933 271.25766 535.3183 271.05453Q534.9589 270.8358 534.8027 270.49203Q534.66205 270.1483 534.66205 269.0389L534.66205 264.86703L533.7558 264.86703L533.7558 263.8983L534.66205 263.8983L534.66205 262.1014L535.8808 261.36703L535.8808 263.8983L537.1152 263.8983L537.1152 264.86703L535.8808 264.86703L535.8808 269.1014Q535.8808 269.63266 535.9433 269.7889Q536.0058 269.92953 536.1464 270.0233Q536.3027 270.11703 536.5683 270.11703Q536.78705 270.11703 537.1152 270.07016ZM538.4433 262.55453L538.4433 261.1483L539.66205 261.1483L539.66205 262.55453L538.4433 262.55453ZM538.4433 271.1639L538.4433 263.8983L539.66205 263.8983L539.66205 271.1639L538.4433 271.1639ZM541.4277 271.1639L541.4277 263.8983L542.53705 263.8983L542.53705 264.92953Q543.3339 263.74203 544.84955 263.74203Q545.5058 263.74203 546.0527 263.9764Q546.59955 264.2108 546.8652 264.6014Q547.1464 264.9764 547.2558 265.50766Q547.3339 265.8514 547.3339 266.69516L547.3339 271.1639L546.09955 271.1639L546.09955 266.74203Q546.09955 265.99203 545.9589 265.63266Q545.8183 265.25766 545.4433 265.0389Q545.0839 264.80453 544.5839 264.80453Q543.8027 264.80453 543.22455 265.30453Q542.66205 265.80453 542.66205 267.19516L542.66205 271.1639L541.4277 271.1639ZM549.2089 271.7733L550.3964 271.94516Q550.47455 272.49203 550.8183 272.75766Q551.2714 273.0858 552.0683 273.0858Q552.9277 273.0858 553.3808 272.74203Q553.84955 272.4139 554.0214 271.7889Q554.1152 271.4139 554.09955 270.2108Q553.3027 271.1639 552.09955 271.1639Q550.59955 271.1639 549.7714 270.0858Q548.9589 269.00766 548.9589 267.49203Q548.9589 266.4608 549.3339 265.5858Q549.7089 264.69516 550.41205 264.2264Q551.1308 263.74203 552.09955 263.74203Q553.3808 263.74203 554.22455 264.7733L554.22455 263.8983L555.34955 263.8983L555.34955 270.17953Q555.34955 271.88266 555.0058 272.5858Q554.66205 273.2889 553.91205 273.69516Q553.16205 274.11703 552.0683 274.11703Q550.7714 274.11703 549.97455 273.5233Q549.1777 272.94516 549.2089 271.7733ZM550.22455 267.3983Q550.22455 268.8358 550.78705 269.49203Q551.34955 270.1483 552.2089 270.1483Q553.0527 270.1483 553.6308 269.49203Q554.2089 268.8358 554.2089 267.44516Q554.2089 266.11703 553.6152 265.44516Q553.0214 264.75766 552.1933 264.75766Q551.3652 264.75766 550.78705 265.42953Q550.22455 266.0858 550.22455 267.3983Z" fill-rule="nonzero"/><path fill="#46bdc6" d="M485.5058 292.1639C485.5058 295.4776 482.81952 298.1639 479.5058 298.1639C476.1921 298.1639 473.5058 295.4776 473.5058 292.1639C473.5058 288.8502 476.1921 286.1639 479.5058 286.1639C482.81952 286.1639 485.5058 288.8502 485.5058 292.1639Z" fill-rule="nonzero"/><path fill="#ffffff" d="M493.49017 297.1639L497.33392 287.1483L498.7558 287.1483L502.86517 297.1639L501.34955 297.1639L500.17767 294.13266L495.99017 294.13266L494.89642 297.1639L493.49017 297.1639ZM496.3808 293.05453L499.77142 293.05453L498.72455 290.2733Q498.2558 289.00766 498.02142 288.19516Q497.83392 289.1639 497.47455 290.1014L496.3808 293.05453ZM508.14642 297.1639L508.14642 296.24203Q507.4433 297.3358 506.11517 297.3358Q505.24017 297.3358 504.5058 296.8514Q503.78705 296.36703 503.3808 295.50766Q502.99017 294.6483 502.99017 293.5389Q502.99017 292.4608 503.34955 291.57016Q503.70892 290.67953 504.42767 290.2108Q505.16205 289.74203 506.05267 289.74203Q506.70892 289.74203 507.22455 290.0233Q507.74017 290.2889 508.05267 290.74203L508.05267 287.1483L509.28705 287.1483L509.28705 297.1639L508.14642 297.1639ZM504.2558 293.5389Q504.2558 294.92953 504.83392 295.63266Q505.42767 296.32016 506.22455 296.32016Q507.03705 296.32016 507.59955 295.6639Q508.16205 294.99203 508.16205 293.6483Q508.16205 292.1483 507.58392 291.4608Q507.0058 290.75766 506.17767 290.75766Q505.34955 290.75766 504.80267 291.42953Q504.2558 292.1014 504.2558 293.5389ZM513.4433 297.1639L510.67767 289.8983L511.99017 289.8983L513.53705 294.25766Q513.78705 294.9608 514.0058 295.7108Q514.1777 295.13266 514.4589 294.3358L516.0839 289.8983L517.34955 289.8983L514.59955 297.1639L513.4433 297.1639ZM518.4433 288.55453L518.4433 287.1483L519.66205 287.1483L519.66205 288.55453L518.4433 288.55453ZM518.4433 297.1639L518.4433 289.8983L519.66205 289.8983L519.66205 297.1639L518.4433 297.1639ZM520.9433 294.99203L522.1464 294.80453Q522.2558 295.5389 522.72455 295.92953Q523.1933 296.32016 524.03705 296.32016Q524.8808 296.32016 525.28705 295.9764Q525.7089 295.63266 525.7089 295.1639Q525.7089 294.74203 525.3339 294.50766Q525.0839 294.3358 524.0839 294.0858Q522.72455 293.74203 522.1933 293.49203Q521.6777 293.24203 521.41205 292.80453Q521.1464 292.36703 521.1464 291.8358Q521.1464 291.3514 521.3652 290.94516Q521.5839 290.5233 521.97455 290.24203Q522.2558 290.0389 522.7402 289.8983Q523.2402 289.74203 523.8183 289.74203Q524.66205 289.74203 525.3027 289.99203Q525.9589 290.2264 526.2714 290.6483Q526.5839 291.07016 526.6933 291.7733L525.4902 291.94516Q525.41205 291.38266 525.0058 291.07016Q524.6152 290.75766 523.8964 290.75766Q523.0527 290.75766 522.6933 291.0389Q522.3339 291.30453 522.3339 291.69516Q522.3339 291.92953 522.47455 292.11703Q522.6308 292.32016 522.9589 292.44516Q523.1308 292.50766 524.03705 292.75766Q525.34955 293.11703 525.8652 293.3358Q526.3808 293.55453 526.66205 293.9764Q526.9589 294.3983 526.9589 295.0233Q526.9589 295.6483 526.59955 296.19516Q526.2558 296.7264 525.5683 297.0389Q524.8964 297.3358 524.03705 297.3358Q522.6308 297.3358 521.8808 296.74203Q521.1464 296.1483 520.9433 294.99203ZM527.97455 293.5389Q527.97455 291.5233 529.09955 290.5389Q530.0214 289.74203 531.3808 289.74203Q532.8652 289.74203 533.8183 290.7264Q534.7714 291.69516 534.7714 293.42953Q534.7714 294.8358 534.34955 295.6483Q533.9277 296.44516 533.1152 296.8983Q532.3183 297.3358 531.3808 297.3358Q529.84955 297.3358 528.91205 296.3514Q527.97455 295.36703 527.97455 293.5389ZM529.2402 293.5389Q529.2402 294.92953 529.84955 295.63266Q530.4589 296.32016 531.3808 296.32016Q532.28705 296.32016 532.8964 295.61703Q533.5058 294.9139 533.5058 293.49203Q533.5058 292.1483 532.8964 291.4608Q532.28705 290.75766 531.3808 290.75766Q530.4589 290.75766 529.84955 291.44516Q529.2402 292.13266 529.2402 293.5389ZM536.41205 297.1639L536.41205 289.8983L537.5214 289.8983L537.5214 291.00766Q537.9433 290.2264 538.3027 289.99203Q538.66205 289.74203 539.09955 289.74203Q539.72455 289.74203 540.3652 290.13266L539.9433 291.2733Q539.4902 291.00766 539.03705 291.00766Q538.6308 291.00766 538.3027 291.25766Q537.9902 291.49203 537.84955 291.92953Q537.6464 292.5858 537.6464 293.36703L537.6464 297.1639L536.41205 297.1639ZM540.9433 294.99203L542.1464 294.80453Q542.2558 295.5389 542.72455 295.92953Q543.1933 296.32016 544.03705 296.32016Q544.8808 296.32016 545.28705 295.9764Q545.7089 295.63266 545.7089 295.1639Q545.7089 294.74203 545.3339 294.50766Q545.0839 294.3358 544.0839 294.0858Q542.72455 293.74203 542.1933 293.49203Q541.6777 293.24203 541.41205 292.80453Q541.1464 292.36703 541.1464 291.8358Q541.1464 291.3514 541.3652 290.94516Q541.5839 290.5233 541.97455 290.24203Q542.2558 290.0389 542.7402 289.8983Q543.2402 289.74203 543.8183 289.74203Q544.66205 289.74203 545.3027 289.99203Q545.9589 290.2264 546.2714 290.6483Q546.5839 291.07016 546.6933 291.7733L545.4902 291.94516Q545.41205 291.38266 545.0058 291.07016Q544.6152 290.75766 543.8964 290.75766Q543.0527 290.75766 542.6933 291.0389Q542.3339 291.30453 542.3339 291.69516Q542.3339 291.92953 542.47455 292.11703Q542.6308 292.32016 542.9589 292.44516Q543.1308 292.50766 544.03705 292.75766Q545.34955 293.11703 545.8652 293.3358Q546.3808 293.55453 546.66205 293.9764Q546.9589 294.3983 546.9589 295.0233Q546.9589 295.6483 546.59955 296.19516Q546.2558 296.7264 545.5683 297.0389Q544.8964 297.3358 544.03705 297.3358Q542.6308 297.3358 541.8808 296.74203Q541.1464 296.1483 540.9433 294.99203Z" fill-rule="nonzero"/><path fill="#7baaf7" d="M485.5058 318.1639C485.5058 321.4776 482.81952 324.1639 479.5058 324.1639C476.1921 324.1639 473.5058 321.4776 473.5058 318.1639C473.5058 314.8502 476.1921 312.1639 479.5058 312.1639C482.81952 312.1639 485.5058 314.8502 485.5058 318.1639Z" fill-rule="nonzero"/><path fill="#ffffff" d="M494.1308 319.94516L495.3808 319.8358Q495.47455 320.5858 495.80267 321.07016Q496.1308 321.55453 496.80267 321.8514Q497.49017 322.1483 498.34955 322.1483Q499.09955 322.1483 499.67767 321.92953Q500.27142 321.69516 500.55267 321.30453Q500.83392 320.9139 500.83392 320.44516Q500.83392 319.9764 500.55267 319.63266Q500.28705 319.2733 499.66205 319.0233Q499.2558 318.86703 497.86517 318.5389Q496.49017 318.2108 495.9433 317.9139Q495.22455 317.5389 494.86517 316.99203Q494.52142 316.42953 494.52142 315.7264Q494.52142 314.9764 494.9433 314.32016Q495.3808 313.6483 496.20892 313.32016Q497.03705 312.9764 498.05267 312.9764Q499.16205 312.9764 500.0058 313.3358Q500.86517 313.69516 501.3183 314.3983Q501.77142 315.0858 501.8183 315.9608L500.53705 316.05453Q500.4433 315.11703 499.84955 314.63266Q499.2558 314.13266 498.09955 314.13266Q496.89642 314.13266 496.34955 314.5858Q495.80267 315.0233 495.80267 315.6483Q495.80267 316.17953 496.1933 316.5389Q496.5683 316.88266 498.17767 317.25766Q499.80267 317.61703 500.39642 317.88266Q501.27142 318.2889 501.6933 318.9139Q502.11517 319.5233 502.11517 320.3358Q502.11517 321.13266 501.64642 321.8514Q501.1933 322.55453 500.33392 322.94516Q499.47455 323.3358 498.41205 323.3358Q497.05267 323.3358 496.1308 322.94516Q495.20892 322.5389 494.67767 321.74203Q494.16205 320.94516 494.1308 319.94516ZM508.39642 320.82016L509.67767 320.9764Q509.36517 322.1014 508.55267 322.7264Q507.74017 323.3358 506.47455 323.3358Q504.8808 323.3358 503.9433 322.3514Q503.02142 321.36703 503.02142 319.6014Q503.02142 317.75766 503.95892 316.75766Q504.91205 315.74203 506.41205 315.74203Q507.86517 315.74203 508.78705 316.74203Q509.70892 317.7264 509.70892 319.5233Q509.70892 319.63266 509.70892 319.8514L504.28705 319.8514Q504.36517 321.0389 504.95892 321.67953Q505.5683 322.32016 506.49017 322.32016Q507.16205 322.32016 507.6308 321.9608Q508.11517 321.6014 508.39642 320.82016ZM504.36517 318.8358L508.41205 318.8358Q508.33392 317.9139 507.9433 317.4608Q507.36517 316.75766 506.42767 316.75766Q505.5683 316.75766 504.99017 317.32016Q504.42767 317.88266 504.36517 318.8358ZM516.3964 320.82016L517.6777 320.9764Q517.3652 322.1014 516.5527 322.7264Q515.7402 323.3358 514.47455 323.3358Q512.8808 323.3358 511.9433 322.3514Q511.02142 321.36703 511.02142 319.6014Q511.02142 317.75766 511.95892 316.75766Q512.91205 315.74203 514.41205 315.74203Q515.8652 315.74203 516.78705 316.74203Q517.7089 317.7264 517.7089 319.5233Q517.7089 319.63266 517.7089 319.8514L512.28705 319.8514Q512.3652 321.0389 512.9589 321.67953Q513.5683 322.32016 514.4902 322.32016Q515.16205 322.32016 515.6308 321.9608Q516.1152 321.6014 516.3964 320.82016ZM512.3652 318.8358L516.41205 318.8358Q516.3339 317.9139 515.9433 317.4608Q515.3652 316.75766 514.4277 316.75766Q513.5683 316.75766 512.9902 317.32016Q512.4277 317.88266 512.3652 318.8358ZM524.1464 323.1639L524.1464 322.24203Q523.4433 323.3358 522.1152 323.3358Q521.2402 323.3358 520.5058 322.8514Q519.78705 322.36703 519.3808 321.50766Q518.9902 320.6483 518.9902 319.5389Q518.9902 318.4608 519.34955 317.57016Q519.7089 316.67953 520.4277 316.2108Q521.16205 315.74203 522.0527 315.74203Q522.7089 315.74203 523.22455 316.0233Q523.7402 316.2889 524.0527 316.74203L524.0527 313.1483L525.28705 313.1483L525.28705 323.1639L524.1464 323.1639ZM520.2558 319.5389Q520.2558 320.92953 520.8339 321.63266Q521.4277 322.32016 522.22455 322.32016Q523.03705 322.32016 523.59955 321.6639Q524.16205 320.99203 524.16205 319.6483Q524.16205 318.1483 523.5839 317.4608Q523.0058 316.75766 522.1777 316.75766Q521.34955 316.75766 520.8027 317.42953Q520.2558 318.1014 520.2558 319.5389Z" fill-rule="nonzero"/><path fill="#f07b72" d="M485.5058 344.1639C485.5058 347.4776 482.81952 350.1639 479.5058 350.1639C476.1921 350.1639 473.5058 347.4776 473.5058 344.1639C473.5058 340.8502 476.1921 338.1639 479.5058 338.1639C482.81952 338.1639 485.5058 340.8502 485.5058 344.1639Z" fill-rule="nonzero"/><path fill="#ffffff" d="M497.1308 349.1639L497.1308 340.32016L493.83392 340.32016L493.83392 339.1483L501.77142 339.1483L501.77142 340.32016L498.45892 340.32016L498.45892 349.1639L497.1308 349.1639ZM503.41205 349.1639L503.41205 341.8983L504.52142 341.8983L504.52142 343.00766Q504.9433 342.2264 505.30267 341.99203Q505.66205 341.74203 506.09955 341.74203Q506.72455 341.74203 507.36517 342.13266L506.9433 343.2733Q506.49017 343.00766 506.03705 343.00766Q505.6308 343.00766 505.30267 343.25766Q504.99017 343.49203 504.84955 343.92953Q504.64642 344.5858 504.64642 345.36703L504.64642 349.1639L503.41205 349.1639ZM513.3964 346.82016L514.6777 346.9764Q514.3652 348.1014 513.5527 348.7264Q512.7402 349.3358 511.47455 349.3358Q509.8808 349.3358 508.9433 348.3514Q508.02142 347.36703 508.02142 345.6014Q508.02142 343.75766 508.95892 342.75766Q509.91205 341.74203 511.41205 341.74203Q512.8652 341.74203 513.78705 342.74203Q514.7089 343.7264 514.7089 345.5233Q514.7089 345.63266 514.7089 345.8514L509.28705 345.8514Q509.36517 347.0389 509.95892 347.67953Q510.5683 348.32016 511.49017 348.32016Q512.16205 348.32016 512.6308 347.9608Q513.1152 347.6014 513.3964 346.82016ZM509.36517 344.8358L513.41205 344.8358Q513.3339 343.9139 512.9433 343.4608Q512.3652 342.75766 511.42767 342.75766Q510.5683 342.75766 509.99017 343.32016Q509.42767 343.88266 509.36517 344.8358ZM521.16205 348.2733Q520.4902 348.8514 519.84955 349.1014Q519.22455 349.3358 518.4902 349.3358Q517.3027 349.3358 516.6464 348.75766Q516.0058 348.1639 516.0058 347.24203Q516.0058 346.7108 516.2402 346.2733Q516.4902 345.8358 516.8808 345.57016Q517.28705 345.30453 517.7714 345.1639Q518.1308 345.07016 518.8652 344.9764Q520.3652 344.80453 521.0683 344.55453Q521.0683 344.30453 521.0683 344.24203Q521.0683 343.4764 520.72455 343.17953Q520.2558 342.75766 519.3183 342.75766Q518.4589 342.75766 518.03705 343.07016Q517.6308 343.36703 517.4277 344.13266L516.22455 343.9764Q516.3808 343.19516 516.7558 342.7264Q517.1464 342.25766 517.84955 342.00766Q518.5683 341.74203 519.5058 341.74203Q520.4277 341.74203 521.0058 341.9608Q521.5839 342.17953 521.84955 342.50766Q522.1308 342.8358 522.2402 343.3514Q522.3027 343.6639 522.3027 344.4764L522.3027 346.11703Q522.3027 347.8358 522.3808 348.2889Q522.4589 348.74203 522.6933 349.1639L521.41205 349.1639Q521.22455 348.7733 521.16205 348.2733ZM521.0683 345.5233Q520.3964 345.7889 519.0527 345.99203Q518.3027 346.1014 517.97455 346.24203Q517.66205 346.36703 517.4902 346.63266Q517.3183 346.8983 517.3183 347.2108Q517.3183 347.7108 517.6933 348.0389Q518.0683 348.36703 518.78705 348.36703Q519.5058 348.36703 520.0527 348.05453Q520.59955 347.74203 520.8652 347.19516Q521.0683 346.7889 521.0683 345.9764L521.0683 345.5233ZM523.9433 346.99203L525.1464 346.80453Q525.2558 347.5389 525.72455 347.92953Q526.1933 348.32016 527.03705 348.32016Q527.8808 348.32016 528.28705 347.9764Q528.7089 347.63266 528.7089 347.1639Q528.7089 346.74203 528.3339 346.50766Q528.0839 346.3358 527.0839 346.0858Q525.72455 345.74203 525.1933 345.49203Q524.6777 345.24203 524.41205 344.80453Q524.1464 344.36703 524.1464 343.8358Q524.1464 343.3514 524.3652 342.94516Q524.5839 342.5233 524.97455 342.24203Q525.2558 342.0389 525.7402 341.8983Q526.2402 341.74203 526.8183 341.74203Q527.66205 341.74203 528.3027 341.99203Q528.9589 342.2264 529.2714 342.6483Q529.5839 343.07016 529.6933 343.7733L528.4902 343.94516Q528.41205 343.38266 528.0058 343.07016Q527.6152 342.75766 526.8964 342.75766Q526.0527 342.75766 525.6933 343.0389Q525.3339 343.30453 525.3339 343.69516Q525.3339 343.92953 525.47455 344.11703Q525.6308 344.32016 525.9589 344.44516Q526.1308 344.50766 527.03705 344.75766Q528.34955 345.11703 528.8652 345.3358Q529.3808 345.55453 529.66205 345.9764Q529.9589 346.3983 529.9589 347.0233Q529.9589 347.6483 529.59955 348.19516Q529.2558 348.7264 528.5683 349.0389Q527.8964 349.3358 527.03705 349.3358Q525.6308 349.3358 524.8808 348.74203Q524.1464 348.1483 523.9433 346.99203ZM536.1933 349.1639L536.1933 348.1014Q535.3339 349.3358 533.8808 349.3358Q533.2402 349.3358 532.6777 349.0858Q532.1308 348.8358 531.84955 348.4608Q531.5839 348.0858 531.47455 347.55453Q531.3964 347.19516 531.3964 346.3983L531.3964 341.8983L532.6308 341.8983L532.6308 345.92953Q532.6308 346.8983 532.7089 347.2264Q532.8183 347.7108 533.1933 347.99203Q533.5683 348.2733 534.1308 348.2733Q534.6777 348.2733 535.16205 347.99203Q535.6464 347.69516 535.84955 347.2108Q536.0527 346.7264 536.0527 345.7889L536.0527 341.8983L537.28705 341.8983L537.28705 349.1639L536.1933 349.1639ZM539.41205 349.1639L539.41205 341.8983L540.5214 341.8983L540.5214 343.00766Q540.9433 342.2264 541.3027 341.99203Q541.66205 341.74203 542.09955 341.74203Q542.72455 341.74203 543.3652 342.13266L542.9433 343.2733Q542.4902 343.00766 542.03705 343.00766Q541.6308 343.00766 541.3027 343.25766Q540.9902 343.49203 540.84955 343.92953Q540.6464 344.5858 540.6464 345.36703L540.6464 349.1639L539.41205 349.1639ZM544.3808 351.9608L544.2402 350.80453Q544.6464 350.9139 544.9433 350.9139Q545.34955 350.9139 545.59955 350.7733Q545.84955 350.6483 546.0058 350.3983Q546.1152 350.2108 546.3808 349.4764Q546.41205 349.38266 546.4902 349.17953L543.72455 341.8983L545.0527 341.8983L546.5683 346.1014Q546.8652 346.9139 547.09955 347.7889Q547.3027 346.94516 547.59955 346.13266L549.1464 341.8983L550.3808 341.8983L547.6152 349.2889Q547.1777 350.4764 546.9277 350.92953Q546.59955 351.5389 546.1777 351.82016Q545.7558 352.11703 545.16205 352.11703Q544.8183 352.11703 544.3808 351.9608Z" fill-rule="nonzero"/><path fill="#ffffff" d="M295.09375 39.55L295.09375 28.096874L297.40625 28.096874L297.40625 39.55L295.09375 39.55ZM302.09375 39.55L297.98438 28.096874L300.5 28.096874L303.40625 36.565624L306.20312 28.096874L308.65625 28.096874L304.5625 39.55L302.09375 39.55ZM310.1875 39.55L310.1875 28.096874L312.4375 28.096874L317.125 35.7375L317.125 28.096874L319.28125 28.096874L319.28125 39.55L316.95312 39.55L312.34375 32.08125L312.34375 39.55L310.1875 39.55ZM327.79688 33.784374L325.79688 33.425Q326.14062 32.221874 326.95312 31.64375Q327.78125 31.065624 329.39062 31.065624Q330.85938 31.065624 331.57812 31.409374Q332.29688 31.753124 332.59375 32.3Q332.89062 32.83125 332.89062 34.253124L332.85938 36.815624Q332.85938 37.909374 332.96875 38.440624Q333.07812 38.95625 333.35938 39.55L331.1875 39.55Q331.10938 39.33125 330.98438 38.89375Q330.92188 38.70625 330.90625 38.64375Q330.34375 39.190624 329.70312 39.471874Q329.0625 39.7375 328.32812 39.7375Q327.04688 39.7375 326.3125 39.05Q325.57812 38.346874 325.57812 37.284374Q325.57812 36.58125 325.90625 36.034374Q326.25 35.471874 326.84375 35.190624Q327.45312 34.89375 328.59375 34.675Q330.14062 34.378124 330.73438 34.128124L330.73438 33.909374Q330.73438 33.284374 330.42188 33.01875Q330.10938 32.7375 329.23438 32.7375Q328.65625 32.7375 328.32812 32.971874Q328.0 33.20625 327.79688 33.784374ZM330.73438 35.565624Q330.3125 35.70625 329.39062 35.909374Q328.48438 36.096874 328.20312 36.284374Q327.76562 36.58125 327.76562 37.05Q327.76562 37.51875 328.10938 37.8625Q328.45312 38.190624 328.98438 38.190624Q329.57812 38.190624 330.125 37.8Q330.51562 37.503124 330.64062 37.065624Q330.73438 36.784374 330.73438 36.003124L330.73438 35.565624ZM335.15625 39.55L335.15625 28.096874L337.34375 28.096874L337.34375 39.55L335.15625 39.55ZM339.15625 39.55L339.15625 28.096874L341.34375 28.096874L341.34375 39.55L339.15625 39.55ZM342.64062 35.284374Q342.64062 34.190624 343.17188 33.175Q343.71875 32.14375 344.70312 31.6125Q345.70312 31.065624 346.92188 31.065624Q348.79688 31.065624 350.0 32.284374Q351.20312 33.503124 351.20312 35.378124Q351.20312 37.253124 349.98438 38.503124Q348.78125 39.7375 346.9375 39.7375Q345.79688 39.7375 344.75 39.221874Q343.71875 38.70625 343.17188 37.70625Q342.64062 36.70625 342.64062 35.284374ZM344.89062 35.39375Q344.89062 36.628124 345.46875 37.284374Q346.0625 37.940624 346.92188 37.940624Q347.78125 37.940624 348.35938 37.284374Q348.95312 36.628124 348.95312 35.378124Q348.95312 34.159374 348.35938 33.503124Q347.78125 32.846874 346.92188 32.846874Q346.0625 32.846874 345.46875 33.503124Q344.89062 34.159374 344.89062 35.39375ZM360.39062 33.70625L358.21875 34.096874Q358.10938 33.440624 357.71875 33.1125Q357.34375 32.784374 356.71875 32.784374Q355.90625 32.784374 355.40625 33.3625Q354.92188 33.925 354.92188 35.253124Q354.92188 36.721874 355.42188 37.33125Q355.92188 37.940624 356.75 37.940624Q357.375 37.940624 357.76562 37.596874Q358.17188 37.2375 358.34375 36.3625L360.5 36.7375Q360.15625 38.221874 359.20312 38.9875Q358.25 39.7375 356.65625 39.7375Q354.82812 39.7375 353.75 38.596874Q352.67188 37.440624 352.67188 35.409374Q352.67188 33.346874 353.75 32.20625Q354.84375 31.065624 356.6875 31.065624Q358.20312 31.065624 359.09375 31.721874Q360.0 32.3625 360.39062 33.70625ZM363.79688 33.784374L361.79688 33.425Q362.14062 32.221874 362.95312 31.64375Q363.78125 31.065624 365.39062 31.065624Q366.85938 31.065624 367.57812 31.409374Q368.29688 31.753124 368.59375 32.3Q368.89062 32.83125 368.89062 34.253124L368.85938 36.815624Q368.85938 37.909374 368.96875 38.440624Q369.07812 38.95625 369.35938 39.55L367.1875 39.55Q367.10938 39.33125 366.98438 38.89375Q366.92188 38.70625 366.90625 38.64375Q366.34375 39.190624 365.70312 39.471874Q365.0625 39.7375 364.32812 39.7375Q363.04688 39.7375 362.3125 39.05Q361.57812 38.346874 361.57812 37.284374Q361.57812 36.58125 361.90625 36.034374Q362.25 35.471874 362.84375 35.190624Q363.45312 34.89375 364.59375 34.675Q366.14062 34.378124 366.73438 34.128124L366.73438 33.909374Q366.73438 33.284374 366.42188 33.01875Q366.10938 32.7375 365.23438 32.7375Q364.65625 32.7375 364.32812 32.971874Q364.0 33.20625 363.79688 33.784374ZM366.73438 35.565624Q366.3125 35.70625 365.39062 35.909374Q364.48438 36.096874 364.20312 36.284374Q363.76562 36.58125 363.76562 37.05Q363.76562 37.51875 364.10938 37.8625Q364.45312 38.190624 364.98438 38.190624Q365.57812 38.190624 366.125 37.8Q366.51562 37.503124 366.64062 37.065624Q366.73438 36.784374 366.73438 36.003124L366.73438 35.565624ZM374.95312 31.253124L374.95312 33.003124L373.45312 33.003124L373.45312 36.346874Q373.45312 37.3625 373.5 37.534374Q373.54688 37.690624 373.6875 37.8Q373.84375 37.909374 374.0625 37.909374Q374.375 37.909374 374.95312 37.70625L375.14062 39.409374Q374.375 39.7375 373.40625 39.7375Q372.8125 39.7375 372.32812 39.534374Q371.85938 39.33125 371.625 39.01875Q371.40625 38.70625 371.32812 38.159374Q371.25 37.784374 371.25 36.6125L371.25 33.003124L370.25 33.003124L370.25 31.253124L371.25 31.253124L371.25 29.596874L373.45312 28.315624L373.45312 31.253124L374.95312 31.253124ZM376.15625 30.128124L376.15625 28.096874L378.34375 28.096874L378.34375 30.128124L376.15625 30.128124ZM376.15625 39.55L376.15625 31.253124L378.34375 31.253124L378.34375 39.55L376.15625 39.55ZM379.64062 35.284374Q379.64062 34.190624 380.17188 33.175Q380.71875 32.14375 381.70312 31.6125Q382.70312 31.065624 383.92188 31.065624Q385.79688 31.065624 387.0 32.284374Q388.20312 33.503124 388.20312 35.378124Q388.20312 37.253124 386.98438 38.503124Q385.78125 39.7375 383.9375 39.7375Q382.79688 39.7375 381.75 39.221874Q380.71875 38.70625 380.17188 37.70625Q379.64062 36.70625 379.64062 35.284374ZM381.89062 35.39375Q381.89062 36.628124 382.46875 37.284374Q383.0625 37.940624 383.92188 37.940624Q384.78125 37.940624 385.35938 37.284374Q385.95312 36.628124 385.95312 35.378124Q385.95312 34.159374 385.35938 33.503124Q384.78125 32.846874 383.92188 32.846874Q383.0625 32.846874 382.46875 33.503124Q381.89062 34.159374 381.89062 35.39375ZM397.70312 39.55L395.5 39.55L395.5 35.315624Q395.5 33.971874 395.35938 33.58125Q395.21875 33.175 394.90625 32.95625Q394.59375 32.7375 394.14062 32.7375Q393.57812 32.7375 393.125 33.05Q392.67188 33.3625 392.5 33.878124Q392.32812 34.39375 392.32812 35.784374L392.32812 39.55L390.14062 39.55L390.14062 31.253124L392.17188 31.253124L392.17188 32.471874Q393.26562 31.065624 394.90625 31.065624Q395.64062 31.065624 396.23438 31.33125Q396.84375 31.58125 397.14062 31.9875Q397.45312 32.39375 397.57812 32.909374Q397.70312 33.425 397.70312 34.39375L397.70312 39.55Z" fill-rule="nonzero"/></svg>