<svg version="1.1" viewBox="0.0 0.0 693.0 491.0" fill="none" stroke="none" stroke-linecap="square" stroke-miterlimit="10" width="693" height="491" xmlns:xlink="http://www.w3.org/1999/xlink" xmlns="http://www.w3.org/2000/svg"><path fill="#ffffff" fill-opacity="0.0" d="M0 0L693.0 0L693.0 491.0L0 491.0L0 0Z" fill-rule="nonzero"/><path fill="#fbbc04" d="M242.85513 59.916668C330.9156 59.916668 408.96106 116.62 436.17322 200.37048L339.5142 231.7769C325.90808 189.90167 286.88538 161.55 242.85513 161.55Z" fill-rule="nonzero"/><path fill="#38761d" d="M436.17322 200.37048C463.3854 284.12094 433.5747 375.8689 362.33228 427.62952L302.59372 345.40643C338.2149 319.52612 353.12027 273.65213 339.5142 231.7769Z" fill-rule="nonzero"/><path fill="#9900ff" d="M217.37907 61.519485C225.82913 60.451996 234.33792 59.916668 242.85513 59.916668L242.85513 161.55C238.59653 161.55 234.34213 161.81766 230.11711 162.35141Z" fill-rule="nonzero"/><path fill="#ff0000" d="M156.3084 79.26215C175.60828 70.18032 196.21735 64.19283 217.37907 61.519485L230.11711 162.35141C219.53624 163.68808 209.2317 166.68182 199.58177 171.22275Z" fill-rule="nonzero"/><path fill="#4285f4" d="M78.40895 143.70618C98.533585 116.007 125.32887 93.84001 156.3084 79.26215L199.58177 171.22275C184.09201 178.51167 170.69437 189.59517 160.63205 203.44476Z" fill-rule="nonzero"/><path fill="#ffd966" d="M39.58847 263.18332C39.58847 220.25763 53.177856 178.4338 78.40895 143.70618L160.63205 203.44476C148.0165 220.80856 141.2218 241.72047 141.2218 263.18332Z" fill-rule="nonzero"/><path fill="#999999" d="M78.40895 382.6605C53.177856 347.93286 39.58847 306.10904 39.58847 263.18332L141.2218 263.18332C141.2218 284.64618 148.0165 305.5581 160.63205 322.9219Z" fill-rule="nonzero"/><path fill="#990000" d="M180.04228 456.50143C139.21751 443.23666 103.640045 417.3881 78.40895 382.6605L160.63205 322.9219C173.24759 340.2857 191.03633 353.21 211.44872 359.84238Z" fill-rule="nonzero"/><path fill="#e06666" d="M362.33228 427.62952C309.69223 465.87476 241.92438 476.60812 180.04228 456.50143L211.44872 359.84238C242.38976 369.89572 276.27368 364.52905 302.59372 345.40643Z" fill-rule="nonzero"/><path fill="#000000" d="M321.60696 140.7748L321.60696 141.9623L314.98196 141.9623Q314.96634 141.5248 315.1226 141.10292Q315.3882 140.43105 315.9351 139.7748Q316.4976 139.11855 317.54446 138.25917Q319.1851 136.91542 319.7476 136.13417Q320.3257 135.35292 320.3257 134.6498Q320.3257 133.91542 319.79446 133.41542Q319.27884 132.91542 318.4507 132.91542Q317.5601 132.91542 317.0132 133.44667Q316.48196 133.97792 316.48196 134.93105L315.21634 134.79042Q315.34134 133.38417 316.1851 132.6498Q317.04446 131.8998 318.46634 131.8998Q319.91946 131.8998 320.7476 132.69667Q321.59134 133.49355 321.59134 134.68105Q321.59134 135.29042 321.34134 135.86855Q321.10696 136.44667 320.52884 137.0873Q319.96634 137.72792 318.6382 138.85292Q317.52884 139.7748 317.21634 140.11855Q316.90384 140.44667 316.7007 140.7748L321.60696 140.7748ZM323.1382 137.0248Q323.1382 135.24355 323.4976 134.16542Q323.8726 133.07167 324.59134 132.49355Q325.3101 131.8998 326.40384 131.8998Q327.21634 131.8998 327.8257 132.22792Q328.4351 132.55605 328.8257 133.16542Q329.23196 133.7748 329.4507 134.6498Q329.66946 135.5248 329.66946 137.0248Q329.66946 138.79042 329.3101 139.86855Q328.9507 140.94667 328.23196 141.54042Q327.5132 142.13417 326.40384 142.13417Q324.96634 142.13417 324.1382 141.0873Q323.1382 139.8373 323.1382 137.0248ZM324.40384 137.0248Q324.40384 139.49355 324.98196 140.30605Q325.5601 141.11855 326.40384 141.11855Q327.2632 141.11855 327.84134 140.30605Q328.41946 139.47792 328.41946 137.0248Q328.41946 134.54042 327.84134 133.72792Q327.2632 132.91542 326.3882 132.91542Q325.54446 132.91542 325.04446 133.63417Q324.40384 134.55605 324.40384 137.0248ZM331.8257 141.9623L331.8257 140.55605L333.23196 140.55605L333.23196 141.9623L331.8257 141.9623ZM335.1382 137.0248Q335.1382 135.24355 335.4976 134.16542Q335.8726 133.07167 336.59134 132.49355Q337.3101 131.8998 338.40384 131.8998Q339.21634 131.8998 339.8257 132.22792Q340.4351 132.55605 340.8257 133.16542Q341.23196 133.7748 341.4507 134.6498Q341.66946 135.5248 341.66946 137.0248Q341.66946 138.79042 341.3101 139.86855Q340.9507 140.94667 340.23196 141.54042Q339.5132 142.13417 338.40384 142.13417Q336.96634 142.13417 336.1382 141.0873Q335.1382 139.8373 335.1382 137.0248ZM336.40384 137.0248Q336.40384 139.49355 336.98196 140.30605Q337.5601 141.11855 338.40384 141.11855Q339.2632 141.11855 339.84134 140.30605Q340.41946 139.47792 340.41946 137.0248Q340.41946 134.54042 339.84134 133.72792Q339.2632 132.91542 338.3882 132.91542Q337.54446 132.91542 337.04446 133.63417Q336.40384 134.55605 336.40384 137.0248ZM343.3726 134.35292Q343.3726 133.2748 343.90384 132.5248Q344.4507 131.7748 345.48196 131.7748Q346.41946 131.7748 347.02884 132.44667Q347.65384 133.11855 347.65384 134.41542Q347.65384 135.69667 347.02884 136.38417Q346.40384 137.07167 345.4976 137.07167Q344.59134 137.07167 343.98196 136.3998Q343.3726 135.7123 343.3726 134.35292ZM345.5132 132.61855Q345.0601 132.61855 344.7476 133.0248Q344.4507 133.41542 344.4507 134.4623Q344.4507 135.43105 344.7476 135.82167Q345.0601 136.2123 345.5132 136.2123Q345.98196 136.2123 346.27884 135.82167Q346.59134 135.43105 346.59134 134.36855Q346.59134 133.3998 346.27884 133.00917Q345.96634 132.61855 345.5132 132.61855ZM345.5132 142.3373L350.9976 131.7748L351.9976 131.7748L346.54446 142.3373L345.5132 142.3373ZM349.85696 139.60292Q349.85696 138.5248 350.3882 137.79042Q350.9351 137.04042 351.96634 137.04042Q352.90384 137.04042 353.52884 137.7123Q354.15384 138.38417 354.15384 139.68105Q354.15384 140.9623 353.52884 141.6498Q352.90384 142.3373 351.96634 142.3373Q351.0601 142.3373 350.4507 141.66542Q349.85696 140.97792 349.85696 139.60292ZM351.9976 137.88417Q351.52884 137.88417 351.23196 138.29042Q350.9351 138.68105 350.9351 139.72792Q350.9351 140.69667 351.23196 141.0873Q351.54446 141.47792 351.9976 141.47792Q352.46634 141.47792 352.7632 141.0873Q353.0757 140.69667 353.0757 139.63417Q353.0757 138.66542 352.7632 138.2748Q352.46634 137.88417 351.9976 137.88417Z" fill-rule="nonzero"/><path fill="#000000" d="M377.92825 315.09247L377.92825 316.27997L371.30325 316.27997Q371.28763 315.84247 371.44388 315.4206Q371.7095 314.74872 372.25638 314.09247Q372.81888 313.43622 373.86575 312.57684Q375.50638 311.2331 376.06888 310.45184Q376.647 309.6706 376.647 308.96747Q376.647 308.2331 376.11575 307.7331Q375.60013 307.2331 374.772 307.2331Q373.88138 307.2331 373.3345 307.76434Q372.80325 308.2956 372.80325 309.24872L371.53763 309.1081Q371.66263 307.70184 372.50638 306.96747Q373.36575 306.21747 374.78763 306.21747Q376.24075 306.21747 377.06888 307.01434Q377.91263 307.81122 377.91263 308.99872Q377.91263 309.6081 377.66263 310.18622Q377.42825 310.76434 376.85013 311.40497Q376.28763 312.0456 374.9595 313.1706Q373.85013 314.09247 373.53763 314.43622Q373.22513 314.76434 373.022 315.09247L377.92825 315.09247ZM379.4595 311.34247Q379.4595 309.56122 379.81888 308.4831Q380.19388 307.38934 380.91263 306.81122Q381.63138 306.21747 382.72513 306.21747Q383.53763 306.21747 384.147 306.5456Q384.75638 306.87372 385.147 307.4831Q385.55325 308.09247 385.772 308.96747Q385.99075 309.84247 385.99075 311.34247Q385.99075 313.1081 385.63138 314.18622Q385.272 315.26434 384.55325 315.8581Q383.8345 316.45184 382.72513 316.45184Q381.28763 316.45184 380.4595 315.40497Q379.4595 314.15497 379.4595 311.34247ZM380.72513 311.34247Q380.72513 313.81122 381.30325 314.62372Q381.88138 315.43622 382.72513 315.43622Q383.5845 315.43622 384.16263 314.62372Q384.74075 313.7956 384.74075 311.34247Q384.74075 308.8581 384.16263 308.0456Q383.5845 307.2331 382.7095 307.2331Q381.86575 307.2331 381.36575 307.95184Q380.72513 308.87372 380.72513 311.34247ZM388.147 316.27997L388.147 314.87372L389.55325 314.87372L389.55325 316.27997L388.147 316.27997ZM391.4595 311.34247Q391.4595 309.56122 391.81888 308.4831Q392.19388 307.38934 392.91263 306.81122Q393.63138 306.21747 394.72513 306.21747Q395.53763 306.21747 396.147 306.5456Q396.75638 306.87372 397.147 307.4831Q397.55325 308.09247 397.772 308.96747Q397.99075 309.84247 397.99075 311.34247Q397.99075 313.1081 397.63138 314.18622Q397.272 315.26434 396.55325 315.8581Q395.8345 316.45184 394.72513 316.45184Q393.28763 316.45184 392.4595 315.40497Q391.4595 314.15497 391.4595 311.34247ZM392.72513 311.34247Q392.72513 313.81122 393.30325 314.62372Q393.88138 315.43622 394.72513 315.43622Q395.5845 315.43622 396.16263 314.62372Q396.74075 313.7956 396.74075 311.34247Q396.74075 308.8581 396.16263 308.0456Q395.5845 307.2331 394.7095 307.2331Q393.86575 307.2331 393.36575 307.95184Q392.72513 308.87372 392.72513 311.34247ZM399.69388 308.6706Q399.69388 307.59247 400.22513 306.84247Q400.772 306.09247 401.80325 306.09247Q402.74075 306.09247 403.35013 306.76434Q403.97513 307.43622 403.97513 308.7331Q403.97513 310.01434 403.35013 310.70184Q402.72513 311.38934 401.81888 311.38934Q400.91263 311.38934 400.30325 310.71747Q399.69388 310.02997 399.69388 308.6706ZM401.8345 306.93622Q401.38138 306.93622 401.06888 307.34247Q400.772 307.7331 400.772 308.77997Q400.772 309.74872 401.06888 310.13934Q401.38138 310.52997 401.8345 310.52997Q402.30325 310.52997 402.60013 310.13934Q402.91263 309.74872 402.91263 308.68622Q402.91263 307.71747 402.60013 307.32684Q402.28763 306.93622 401.8345 306.93622ZM401.8345 316.65497L407.31888 306.09247L408.31888 306.09247L402.86575 316.65497L401.8345 316.65497ZM406.17825 313.9206Q406.17825 312.84247 406.7095 312.1081Q407.25638 311.3581 408.28763 311.3581Q409.22513 311.3581 409.85013 312.02997Q410.47513 312.70184 410.47513 313.99872Q410.47513 315.27997 409.85013 315.96747Q409.22513 316.65497 408.28763 316.65497Q407.38138 316.65497 406.772 315.9831Q406.17825 315.2956 406.17825 313.9206ZM408.31888 312.20184Q407.85013 312.20184 407.55325 312.6081Q407.25638 312.99872 407.25638 314.0456Q407.25638 315.01434 407.55325 315.40497Q407.86575 315.7956 408.31888 315.7956Q408.78763 315.7956 409.0845 315.40497Q409.397 315.01434 409.397 313.95184Q409.397 312.9831 409.0845 312.59247Q408.78763 312.20184 408.31888 312.20184Z" fill-rule="nonzero"/><path fill="#000000" d="M254.02232 432.01532L252.78795 432.01532L252.78795 424.17157Q252.35045 424.59344 251.61607 425.03094Q250.89732 425.45282 250.33482 425.65594L250.33482 424.46844Q251.36607 423.98407 252.1317 423.29657Q252.91295 422.60907 253.22545 421.95282L254.02232 421.95282L254.02232 432.01532ZM257.3817 429.39032L258.6786 429.28094Q258.8192 430.21844 259.33484 430.70282Q259.8661 431.17157 260.60046 431.17157Q261.4911 431.17157 262.10046 430.4997Q262.72546 429.82782 262.72546 428.73407Q262.72546 427.67157 262.1317 427.0622Q261.53796 426.45282 260.58484 426.45282Q259.9911 426.45282 259.5067 426.73407Q259.03796 426.9997 258.7567 427.42157L257.60046 427.28094L258.5692 422.1247L263.5536 422.1247L263.5536 423.3122L259.5536 423.3122L259.02234 425.9997Q259.9286 425.3747 260.91296 425.3747Q262.22546 425.3747 263.1161 426.28094Q264.02234 427.1872 264.02234 428.6247Q264.02234 429.98407 263.2411 430.96844Q262.27234 432.1872 260.60046 432.1872Q259.2411 432.1872 258.3661 431.42157Q257.5067 430.65594 257.3817 429.39032ZM266.0692 432.01532L266.0692 430.60907L267.47546 430.60907L267.47546 432.01532L266.0692 432.01532ZM269.3817 427.07782Q269.3817 425.29657 269.7411 424.21844Q270.1161 423.1247 270.83484 422.54657Q271.5536 421.95282 272.64734 421.95282Q273.45984 421.95282 274.0692 422.28094Q274.6786 422.60907 275.0692 423.21844Q275.47546 423.82782 275.6942 424.70282Q275.91296 425.57782 275.91296 427.07782Q275.91296 428.84344 275.5536 429.92157Q275.1942 430.9997 274.47546 431.59344Q273.7567 432.1872 272.64734 432.1872Q271.20984 432.1872 270.3817 431.14032Q269.3817 429.89032 269.3817 427.07782ZM270.64734 427.07782Q270.64734 429.54657 271.22546 430.35907Q271.8036 431.17157 272.64734 431.17157Q273.5067 431.17157 274.08484 430.35907Q274.66296 429.53094 274.66296 427.07782Q274.66296 424.59344 274.08484 423.78094Q273.5067 422.96844 272.6317 422.96844Q271.78796 422.96844 271.28796 423.6872Q270.64734 424.60907 270.64734 427.07782ZM277.6161 424.40594Q277.6161 423.32782 278.14734 422.57782Q278.6942 421.82782 279.72546 421.82782Q280.66296 421.82782 281.27234 422.4997Q281.89734 423.17157 281.89734 424.46844Q281.89734 425.7497 281.27234 426.4372Q280.64734 427.1247 279.7411 427.1247Q278.83484 427.1247 278.22546 426.45282Q277.6161 425.76532 277.6161 424.40594ZM279.7567 422.67157Q279.3036 422.67157 278.9911 423.07782Q278.6942 423.46844 278.6942 424.51532Q278.6942 425.48407 278.9911 425.8747Q279.3036 426.26532 279.7567 426.26532Q280.22546 426.26532 280.52234 425.8747Q280.83484 425.48407 280.83484 424.42157Q280.83484 423.45282 280.52234 423.0622Q280.20984 422.67157 279.7567 422.67157ZM279.7567 432.39032L285.2411 421.82782L286.2411 421.82782L280.78796 432.39032L279.7567 432.39032ZM284.10046 429.65594Q284.10046 428.57782 284.6317 427.84344Q285.1786 427.09344 286.20984 427.09344Q287.14734 427.09344 287.77234 427.76532Q288.39734 428.4372 288.39734 429.73407Q288.39734 431.01532 287.77234 431.70282Q287.14734 432.39032 286.20984 432.39032Q285.3036 432.39032 284.6942 431.71844Q284.10046 431.03094 284.10046 429.65594ZM286.2411 427.9372Q285.77234 427.9372 285.47546 428.34344Q285.1786 428.73407 285.1786 429.78094Q285.1786 430.7497 285.47546 431.14032Q285.78796 431.53094 286.2411 431.53094Q286.70984 431.53094 287.0067 431.14032Q287.3192 430.7497 287.3192 429.6872Q287.3192 428.71844 287.0067 428.32782Q286.70984 427.9372 286.2411 427.9372Z" fill-rule="nonzero"/><path fill="#000000" d="M136.36894 394.40436L135.13457 394.40436L135.13457 386.5606Q134.69707 386.98248 133.96269 387.41998Q133.24394 387.84186 132.68144 388.04498L132.68144 386.85748Q133.71269 386.3731 134.47832 385.6856Q135.25957 384.9981 135.57207 384.34186L136.36894 384.34186L136.36894 394.40436ZM139.72832 389.46686Q139.72832 387.6856 140.08769 386.60748Q140.46269 385.51373 141.18144 384.9356Q141.90019 384.34186 142.99394 384.34186Q143.80644 384.34186 144.41582 384.66998Q145.02519 384.9981 145.41582 385.60748Q145.82207 386.21686 146.04082 387.09186Q146.25957 387.96686 146.25957 389.46686Q146.25957 391.23248 145.90019 392.3106Q145.54082 393.38873 144.82207 393.98248Q144.10332 394.57623 142.99394 394.57623Q141.55644 394.57623 140.72832 393.52936Q139.72832 392.27936 139.72832 389.46686ZM140.99394 389.46686Q140.99394 391.9356 141.57207 392.7481Q142.15019 393.5606 142.99394 393.5606Q143.85332 393.5606 144.43144 392.7481Q145.00957 391.91998 145.00957 389.46686Q145.00957 386.98248 144.43144 386.16998Q143.85332 385.35748 142.97832 385.35748Q142.13457 385.35748 141.63457 386.07623Q140.99394 386.9981 140.99394 389.46686ZM148.41582 394.40436L148.41582 392.9981L149.82207 392.9981L149.82207 394.40436L148.41582 394.40436ZM151.72832 389.46686Q151.72832 387.6856 152.08769 386.60748Q152.46269 385.51373 153.18144 384.9356Q153.90019 384.34186 154.99394 384.34186Q155.80644 384.34186 156.41582 384.66998Q157.02519 384.9981 157.41582 385.60748Q157.82207 386.21686 158.04082 387.09186Q158.25957 387.96686 158.25957 389.46686Q158.25957 391.23248 157.90019 392.3106Q157.54082 393.38873 156.82207 393.98248Q156.10332 394.57623 154.99394 394.57623Q153.55644 394.57623 152.72832 393.52936Q151.72832 392.27936 151.72832 389.46686ZM152.99394 389.46686Q152.99394 391.9356 153.57207 392.7481Q154.15019 393.5606 154.99394 393.5606Q155.85332 393.5606 156.43144 392.7481Q157.00957 391.91998 157.00957 389.46686Q157.00957 386.98248 156.43144 386.16998Q155.85332 385.35748 154.97832 385.35748Q154.13457 385.35748 153.63457 386.07623Q152.99394 386.9981 152.99394 389.46686ZM159.96269 386.79498Q159.96269 385.71686 160.49394 384.96686Q161.04082 384.21686 162.07207 384.21686Q163.00957 384.21686 163.61894 384.88873Q164.24394 385.5606 164.24394 386.85748Q164.24394 388.13873 163.61894 388.82623Q162.99394 389.51373 162.08769 389.51373Q161.18144 389.51373 160.57207 388.84186Q159.96269 388.15436 159.96269 386.79498ZM162.10332 385.0606Q161.65019 385.0606 161.33769 385.46686Q161.04082 385.85748 161.04082 386.90436Q161.04082 387.8731 161.33769 388.26373Q161.65019 388.65436 162.10332 388.65436Q162.57207 388.65436 162.86894 388.26373Q163.18144 387.8731 163.18144 386.8106Q163.18144 385.84186 162.86894 385.45123Q162.55644 385.0606 162.10332 385.0606ZM162.10332 394.77936L167.58769 384.21686L168.58769 384.21686L163.13457 394.77936L162.10332 394.77936ZM166.44707 392.04498Q166.44707 390.96686 166.97832 390.23248Q167.52519 389.48248 168.55644 389.48248Q169.49394 389.48248 170.11894 390.15436Q170.74394 390.82623 170.74394 392.1231Q170.74394 393.40436 170.11894 394.09186Q169.49394 394.77936 168.55644 394.77936Q167.65019 394.77936 167.04082 394.10748Q166.44707 393.41998 166.44707 392.04498ZM168.58769 390.32623Q168.11894 390.32623 167.82207 390.73248Q167.52519 391.1231 167.52519 392.16998Q167.52519 393.13873 167.82207 393.52936Q168.13457 393.91998 168.58769 393.91998Q169.05644 393.91998 169.35332 393.52936Q169.66582 393.13873 169.66582 392.07623Q169.66582 391.10748 169.35332 390.71686Q169.05644 390.32623 168.58769 390.32623Z" fill-rule="nonzero"/><path fill="#000000" d="M80.04765 316.27997L78.81328 316.27997L78.81328 308.43622Q78.37578 308.8581 77.6414 309.2956Q76.92265 309.71747 76.36015 309.9206L76.36015 308.7331Q77.3914 308.24872 78.15703 307.56122Q78.93828 306.87372 79.25078 306.21747L80.04765 306.21747L80.04765 316.27997ZM83.40703 311.34247Q83.40703 309.56122 83.7664 308.4831Q84.1414 307.38934 84.86015 306.81122Q85.5789 306.21747 86.67265 306.21747Q87.48515 306.21747 88.09453 306.5456Q88.7039 306.87372 89.09453 307.4831Q89.50078 308.09247 89.71953 308.96747Q89.93828 309.84247 89.93828 311.34247Q89.93828 313.1081 89.5789 314.18622Q89.21953 315.26434 88.50078 315.8581Q87.78203 316.45184 86.67265 316.45184Q85.23515 316.45184 84.40703 315.40497Q83.40703 314.15497 83.40703 311.34247ZM84.67265 311.34247Q84.67265 313.81122 85.25078 314.62372Q85.8289 315.43622 86.67265 315.43622Q87.53203 315.43622 88.11015 314.62372Q88.68828 313.7956 88.68828 311.34247Q88.68828 308.8581 88.11015 308.0456Q87.53203 307.2331 86.65703 307.2331Q85.81328 307.2331 85.31328 307.95184Q84.67265 308.87372 84.67265 311.34247ZM92.09453 316.27997L92.09453 314.87372L93.50078 314.87372L93.50078 316.27997L92.09453 316.27997ZM95.40703 311.34247Q95.40703 309.56122 95.7664 308.4831Q96.1414 307.38934 96.86015 306.81122Q97.5789 306.21747 98.67265 306.21747Q99.48515 306.21747 100.09453 306.5456Q100.7039 306.87372 101.09453 307.4831Q101.50078 308.09247 101.71953 308.96747Q101.93828 309.84247 101.93828 311.34247Q101.93828 313.1081 101.5789 314.18622Q101.21953 315.26434 100.50078 315.8581Q99.78203 316.45184 98.67265 316.45184Q97.23515 316.45184 96.40703 315.40497Q95.40703 314.15497 95.40703 311.34247ZM96.67265 311.34247Q96.67265 313.81122 97.25078 314.62372Q97.8289 315.43622 98.67265 315.43622Q99.53203 315.43622 100.11015 314.62372Q100.68828 313.7956 100.68828 311.34247Q100.68828 308.8581 100.11015 308.0456Q99.53203 307.2331 98.65703 307.2331Q97.81328 307.2331 97.31328 307.95184Q96.67265 308.87372 96.67265 311.34247ZM103.6414 308.6706Q103.6414 307.59247 104.17265 306.84247Q104.71953 306.09247 105.75078 306.09247Q106.68828 306.09247 107.29765 306.76434Q107.92265 307.43622 107.92265 308.7331Q107.92265 310.01434 107.29765 310.70184Q106.67265 311.38934 105.7664 311.38934Q104.86015 311.38934 104.25078 310.71747Q103.6414 310.02997 103.6414 308.6706ZM105.78203 306.93622Q105.3289 306.93622 105.0164 307.34247Q104.71953 307.7331 104.71953 308.77997Q104.71953 309.74872 105.0164 310.13934Q105.3289 310.52997 105.78203 310.52997Q106.25078 310.52997 106.54765 310.13934Q106.86015 309.74872 106.86015 308.68622Q106.86015 307.71747 106.54765 307.32684Q106.23515 306.93622 105.78203 306.93622ZM105.78203 316.65497L111.2664 306.09247L112.2664 306.09247L106.81328 316.65497L105.78203 316.65497ZM110.12578 313.9206Q110.12578 312.84247 110.65703 312.1081Q111.2039 311.3581 112.23515 311.3581Q113.17265 311.3581 113.79765 312.02997Q114.42265 312.70184 114.42265 313.99872Q114.42265 315.27997 113.79765 315.96747Q113.17265 316.65497 112.23515 316.65497Q111.3289 316.65497 110.71953 315.9831Q110.12578 315.2956 110.12578 313.9206ZM112.2664 312.20184Q111.79765 312.20184 111.50078 312.6081Q111.2039 312.99872 111.2039 314.0456Q111.2039 315.01434 111.50078 315.40497Q111.81328 315.7956 112.2664 315.7956Q112.73515 315.7956 113.03203 315.40497Q113.34453 315.01434 113.34453 313.95184Q113.34453 312.9831 113.03203 312.59247Q112.73515 312.20184 112.2664 312.20184Z" fill-rule="nonzero"/><path fill="#000000" d="M80.04765 220.0867L78.81328 220.0867L78.81328 212.24295Q78.37578 212.66483 77.6414 213.10233Q76.92265 213.5242 76.36015 213.72733L76.36015 212.53983Q77.3914 212.05545 78.15703 211.36795Q78.93828 210.68045 79.25078 210.0242L80.04765 210.0242L80.04765 220.0867ZM83.40703 215.1492Q83.40703 213.36795 83.7664 212.28983Q84.1414 211.19608 84.86015 210.61795Q85.5789 210.0242 86.67265 210.0242Q87.48515 210.0242 88.09453 210.35233Q88.7039 210.68045 89.09453 211.28983Q89.50078 211.8992 89.71953 212.7742Q89.93828 213.6492 89.93828 215.1492Q89.93828 216.91483 89.5789 217.99295Q89.21953 219.07108 88.50078 219.66483Q87.78203 220.25858 86.67265 220.25858Q85.23515 220.25858 84.40703 219.2117Q83.40703 217.9617 83.40703 215.1492ZM84.67265 215.1492Q84.67265 217.61795 85.25078 218.43045Q85.8289 219.24295 86.67265 219.24295Q87.53203 219.24295 88.11015 218.43045Q88.68828 217.60233 88.68828 215.1492Q88.68828 212.66483 88.11015 211.85233Q87.53203 211.03983 86.65703 211.03983Q85.81328 211.03983 85.31328 211.75858Q84.67265 212.68045 84.67265 215.1492ZM92.09453 220.0867L92.09453 218.68045L93.50078 218.68045L93.50078 220.0867L92.09453 220.0867ZM95.40703 215.1492Q95.40703 213.36795 95.7664 212.28983Q96.1414 211.19608 96.86015 210.61795Q97.5789 210.0242 98.67265 210.0242Q99.48515 210.0242 100.09453 210.35233Q100.7039 210.68045 101.09453 211.28983Q101.50078 211.8992 101.71953 212.7742Q101.93828 213.6492 101.93828 215.1492Q101.93828 216.91483 101.5789 217.99295Q101.21953 219.07108 100.50078 219.66483Q99.78203 220.25858 98.67265 220.25858Q97.23515 220.25858 96.40703 219.2117Q95.40703 217.9617 95.40703 215.1492ZM96.67265 215.1492Q96.67265 217.61795 97.25078 218.43045Q97.8289 219.24295 98.67265 219.24295Q99.53203 219.24295 100.11015 218.43045Q100.68828 217.60233 100.68828 215.1492Q100.68828 212.66483 100.11015 211.85233Q99.53203 211.03983 98.65703 211.03983Q97.81328 211.03983 97.31328 211.75858Q96.67265 212.68045 96.67265 215.1492ZM103.6414 212.47733Q103.6414 211.3992 104.17265 210.6492Q104.71953 209.8992 105.75078 209.8992Q106.68828 209.8992 107.29765 210.57108Q107.92265 211.24295 107.92265 212.53983Q107.92265 213.82108 107.29765 214.50858Q106.67265 215.19608 105.7664 215.19608Q104.86015 215.19608 104.25078 214.5242Q103.6414 213.8367 103.6414 212.47733ZM105.78203 210.74295Q105.3289 210.74295 105.0164 211.1492Q104.71953 211.53983 104.71953 212.5867Q104.71953 213.55545 105.0164 213.94608Q105.3289 214.3367 105.78203 214.3367Q106.25078 214.3367 106.54765 213.94608Q106.86015 213.55545 106.86015 212.49295Q106.86015 211.5242 106.54765 211.13358Q106.23515 210.74295 105.78203 210.74295ZM105.78203 220.4617L111.2664 209.8992L112.2664 209.8992L106.81328 220.4617L105.78203 220.4617ZM110.12578 217.72733Q110.12578 216.6492 110.65703 215.91483Q111.2039 215.16483 112.23515 215.16483Q113.17265 215.16483 113.79765 215.8367Q114.42265 216.50858 114.42265 217.80545Q114.42265 219.0867 113.79765 219.7742Q113.17265 220.4617 112.23515 220.4617Q111.3289 220.4617 110.71953 219.78983Q110.12578 219.10233 110.12578 217.72733ZM112.2664 216.00858Q111.79765 216.00858 111.50078 216.41483Q111.2039 216.80545 111.2039 217.85233Q111.2039 218.82108 111.50078 219.2117Q111.81328 219.60233 112.2664 219.60233Q112.73515 219.60233 113.03203 219.2117Q113.34453 218.82108 113.34453 217.75858Q113.34453 216.78983 113.03203 216.3992Q112.73515 216.00858 112.2664 216.00858Z" fill-rule="nonzero"/><path fill="#000000" d="M128.58398 140.97221Q127.81837 140.69096 127.44337 140.17534Q127.08399 139.65971 127.08399 138.92534Q127.08399 137.83159 127.86524 137.09721Q128.66211 136.34721 129.95898 136.34721Q131.27148 136.34721 132.06836 137.11284Q132.88086 137.87846 132.88086 138.97221Q132.88086 139.65971 132.50586 140.17534Q132.14648 140.69096 131.39648 140.97221Q132.31836 141.26909 132.80273 141.94096Q133.28711 142.61284 133.28711 143.55034Q133.28711 144.83159 132.38086 145.70659Q131.47461 146.58159 129.99023 146.58159Q128.50586 146.58159 127.58399 145.70659Q126.67774 144.81596 126.67774 143.50346Q126.67774 142.53471 127.17774 141.87846Q127.67774 141.20659 128.58398 140.97221ZM128.34961 138.89409Q128.34961 139.59721 128.80273 140.05034Q129.25586 140.50346 129.99023 140.50346Q130.70898 140.50346 131.16211 140.06596Q131.61523 139.61284 131.61523 138.95659Q131.61523 138.28471 131.14648 137.83159Q130.67773 137.36284 129.97461 137.36284Q129.27148 137.36284 128.80273 137.81596Q128.34961 138.25346 128.34961 138.89409ZM127.94337 143.51909Q127.94337 144.05034 128.19336 144.55034Q128.44336 145.03471 128.92773 145.30034Q129.42773 145.56596 130.00586 145.56596Q130.88086 145.56596 131.44336 145.00346Q132.02148 144.44096 132.02148 143.56596Q132.02148 142.67534 131.42773 142.09721Q130.84961 141.50346 129.95898 141.50346Q129.08398 141.50346 128.50586 142.08159Q127.94337 142.65971 127.94337 143.51909ZM135.38086 146.40971L135.38086 145.00346L136.78711 145.00346L136.78711 146.40971L135.38086 146.40971ZM138.69336 141.47221Q138.69336 139.69096 139.05273 138.61284Q139.42773 137.51909 140.14648 136.94096Q140.86523 136.34721 141.95898 136.34721Q142.77148 136.34721 143.38086 136.67534Q143.99023 137.00346 144.38086 137.61284Q144.78711 138.22221 145.00586 139.09721Q145.22461 139.97221 145.22461 141.47221Q145.22461 143.23784 144.86523 144.31596Q144.50586 145.39409 143.78711 145.98784Q143.06836 146.58159 141.95898 146.58159Q140.52148 146.58159 139.69336 145.53471Q138.69336 144.28471 138.69336 141.47221ZM139.95898 141.47221Q139.95898 143.94096 140.53711 144.75346Q141.11523 145.56596 141.95898 145.56596Q142.81836 145.56596 143.39648 144.75346Q143.97461 143.92534 143.97461 141.47221Q143.97461 138.98784 143.39648 138.17534Q142.81836 137.36284 141.94336 137.36284Q141.09961 137.36284 140.59961 138.08159Q139.95898 139.00346 139.95898 141.47221ZM146.92773 138.80034Q146.92773 137.72221 147.45898 136.97221Q148.00586 136.22221 149.03711 136.22221Q149.97461 136.22221 150.58398 136.89409Q151.20898 137.56596 151.20898 138.86284Q151.20898 140.14409 150.58398 140.83159Q149.95898 141.51909 149.05273 141.51909Q148.14648 141.51909 147.53711 140.84721Q146.92773 140.15971 146.92773 138.80034ZM149.06836 137.06596Q148.61523 137.06596 148.30273 137.47221Q148.00586 137.86284 148.00586 138.90971Q148.00586 139.87846 148.30273 140.26909Q148.61523 140.65971 149.06836 140.65971Q149.53711 140.65971 149.83398 140.26909Q150.14648 139.87846 150.14648 138.81596Q150.14648 137.84721 149.83398 137.45659Q149.52148 137.06596 149.06836 137.06596ZM149.06836 146.78471L154.55273 136.22221L155.55273 136.22221L150.09961 146.78471L149.06836 146.78471ZM153.41211 144.05034Q153.41211 142.97221 153.94336 142.23784Q154.49023 141.48784 155.52148 141.48784Q156.45898 141.48784 157.08398 142.15971Q157.70898 142.83159 157.70898 144.12846Q157.70898 145.40971 157.08398 146.09721Q156.45898 146.78471 155.52148 146.78471Q154.61523 146.78471 154.00586 146.11284Q153.41211 145.42534 153.41211 144.05034ZM155.55273 142.33159Q155.08398 142.33159 154.78711 142.73784Q154.49023 143.12846 154.49023 144.17534Q154.49023 145.14409 154.78711 145.53471Q155.09961 145.92534 155.55273 145.92534Q156.02148 145.92534 156.31836 145.53471Q156.63086 145.14409 156.63086 144.08159Q156.63086 143.11284 156.31836 142.72221Q156.02148 142.33159 155.55273 142.33159Z" fill-rule="nonzero"/><path fill="#000000" d="M181.6421 107.944145L182.93898 107.83477Q183.0796 108.77227 183.59523 109.256645Q184.12648 109.725395 184.86086 109.725395Q185.75148 109.725395 186.36086 109.05352Q186.98586 108.381645 186.98586 107.287895Q186.98586 106.225395 186.3921 105.61602Q185.79836 105.006645 184.84523 105.006645Q184.25148 105.006645 183.7671 105.287895Q183.29836 105.55352 183.0171 105.975395L181.86086 105.83477L182.8296 100.67852L187.81398 100.67852L187.81398 101.86602L183.81398 101.86602L183.28273 104.55352Q184.18898 103.92852 185.17336 103.92852Q186.48586 103.92852 187.37648 104.83477Q188.28273 105.74102 188.28273 107.17852Q188.28273 108.537895 187.50148 109.52227Q186.53273 110.74102 184.86086 110.74102Q183.50148 110.74102 182.62648 109.975395Q181.7671 109.20977 181.6421 107.944145ZM190.3296 110.569145L190.3296 109.162895L191.73586 109.162895L191.73586 110.569145L190.3296 110.569145ZM193.6421 105.631645Q193.6421 103.850395 194.00148 102.77227Q194.37648 101.67852 195.09523 101.100395Q195.81398 100.506645 196.90773 100.506645Q197.72023 100.506645 198.3296 100.83477Q198.93898 101.162895 199.3296 101.77227Q199.73586 102.381645 199.9546 103.256645Q200.17336 104.131645 200.17336 105.631645Q200.17336 107.39727 199.81398 108.475395Q199.4546 109.55352 198.73586 110.14727Q198.0171 110.74102 196.90773 110.74102Q195.47023 110.74102 194.6421 109.694145Q193.6421 108.444145 193.6421 105.631645ZM194.90773 105.631645Q194.90773 108.100395 195.48586 108.912895Q196.06398 109.725395 196.90773 109.725395Q197.7671 109.725395 198.34523 108.912895Q198.92336 108.08477 198.92336 105.631645Q198.92336 103.14727 198.34523 102.33477Q197.7671 101.52227 196.8921 101.52227Q196.04836 101.52227 195.54836 102.24102Q194.90773 103.162895 194.90773 105.631645ZM201.87648 102.95977Q201.87648 101.881645 202.40773 101.131645Q202.9546 100.381645 203.98586 100.381645Q204.92336 100.381645 205.53273 101.05352Q206.15773 101.725395 206.15773 103.02227Q206.15773 104.30352 205.53273 104.99102Q204.90773 105.67852 204.00148 105.67852Q203.09523 105.67852 202.48586 105.006645Q201.87648 104.319145 201.87648 102.95977ZM204.0171 101.225395Q203.56398 101.225395 203.25148 101.631645Q202.9546 102.02227 202.9546 103.069145Q202.9546 104.037895 203.25148 104.42852Q203.56398 104.819145 204.0171 104.819145Q204.48586 104.819145 204.78273 104.42852Q205.09523 104.037895 205.09523 102.975395Q205.09523 102.006645 204.78273 101.61602Q204.47023 101.225395 204.0171 101.225395ZM204.0171 110.944145L209.50148 100.381645L210.50148 100.381645L205.04836 110.944145L204.0171 110.944145ZM208.36086 108.20977Q208.36086 107.131645 208.8921 106.39727Q209.43898 105.64727 210.47023 105.64727Q211.40773 105.64727 212.03273 106.319145Q212.65773 106.99102 212.65773 108.287895Q212.65773 109.569145 212.03273 110.256645Q211.40773 110.944145 210.47023 110.944145Q209.56398 110.944145 208.9546 110.27227Q208.36086 109.58477 208.36086 108.20977ZM210.50148 106.49102Q210.03273 106.49102 209.73586 106.89727Q209.43898 107.287895 209.43898 108.33477Q209.43898 109.30352 209.73586 109.694145Q210.04836 110.08477 210.50148 110.08477Q210.97023 110.08477 211.2671 109.694145Q211.5796 109.30352 211.5796 108.24102Q211.5796 107.27227 211.2671 106.881645Q210.97023 106.49102 210.50148 106.49102Z" fill-rule="nonzero"/><path fill="#fbbc04" d="M485.5058 162.1639C485.5058 165.4776 482.81952 168.1639 479.5058 168.1639C476.1921 168.1639 473.5058 165.4776 473.5058 162.1639C473.5058 158.85019 476.1921 156.1639 479.5058 156.1639C482.81952 156.1639 485.5058 158.85019 485.5058 162.1639Z" fill-rule="nonzero"/><path fill="#000000" d="M494.8183 167.1639L494.8183 157.14827L496.1308 157.14827L496.1308 167.1639L494.8183 167.1639ZM497.58392 167.1639L497.58392 157.14827L501.03705 157.14827Q502.20892 157.14827 502.8183 157.2889Q503.67767 157.4764 504.28705 158.00764Q505.08392 158.67952 505.47455 159.7264Q505.86517 160.75764 505.86517 162.1014Q505.86517 163.24202 505.59955 164.13264Q505.33392 165.00764 504.91205 165.58577Q504.5058 166.1639 504.0058 166.49202Q503.5058 166.82014 502.80267 166.99202Q502.11517 167.1639 501.20892 167.1639L497.58392 167.1639ZM498.91205 165.9764L501.05267 165.9764Q502.03705 165.9764 502.59955 165.80452Q503.17767 165.61702 503.5058 165.27327Q503.97455 164.80452 504.24017 164.00764Q504.5058 163.21077 504.5058 162.07014Q504.5058 160.50764 503.99017 159.6639Q503.47455 158.82014 502.74017 158.52327Q502.1933 158.32014 501.02142 158.32014L498.91205 158.32014L498.91205 165.9764ZM507.17767 162.2889Q507.17767 159.7889 508.52142 158.38264Q509.86517 156.96077 511.97455 156.96077Q513.3652 156.96077 514.47455 157.63264Q515.59955 158.2889 516.1777 159.4764Q516.7714 160.6639 516.7714 162.1639Q516.7714 163.69514 516.1464 164.89827Q515.53705 166.1014 514.41205 166.7264Q513.28705 167.33577 511.97455 167.33577Q510.55267 167.33577 509.4433 166.64827Q508.33392 165.96077 507.7558 164.7889Q507.17767 163.6014 507.17767 162.2889ZM508.55267 162.30452Q508.55267 164.11702 509.52142 165.1639Q510.5058 166.19514 511.97455 166.19514Q513.4589 166.19514 514.4277 165.14827Q515.3964 164.1014 515.3964 162.1639Q515.3964 160.92952 514.97455 160.02327Q514.5683 159.11702 513.7714 158.61702Q512.97455 158.1014 511.99017 158.1014Q510.58392 158.1014 509.5683 159.07014Q508.55267 160.0389 508.55267 162.30452Z" fill-rule="nonzero"/><path fill="#38761d" d="M485.5058 188.1639C485.5058 191.4776 482.81952 194.1639 479.5058 194.1639C476.1921 194.1639 473.5058 191.4776 473.5058 188.1639C473.5058 184.85019 476.1921 182.1639 479.5058 182.1639C482.81952 182.1639 485.5058 184.85019 485.5058 188.1639Z" fill-rule="nonzero"/><path fill="#000000" d="M501.74017 189.64827L503.0683 189.99202Q502.64642 191.61702 501.55267 192.4764Q500.47455 193.33577 498.91205 193.33577Q497.28705 193.33577 496.27142 192.67952Q495.2558 192.00764 494.72455 190.75764Q494.20892 189.50764 494.20892 188.07014Q494.20892 186.50764 494.80267 185.3514Q495.39642 184.17952 496.5058 183.58577Q497.61517 182.9764 498.92767 182.9764Q500.4433 182.9764 501.45892 183.74202Q502.49017 184.50764 502.89642 185.88264L501.58392 186.19514Q501.24017 185.1014 500.5683 184.6014Q499.91205 184.1014 498.91205 184.1014Q497.7558 184.1014 496.97455 184.6639Q496.1933 185.21077 495.8808 186.14827Q495.5683 187.08577 495.5683 188.07014Q495.5683 189.3514 495.9433 190.30452Q496.3183 191.25764 497.09955 191.7264Q497.8808 192.19514 498.80267 192.19514Q499.91205 192.19514 500.67767 191.55452Q501.45892 190.9139 501.74017 189.64827ZM503.97455 189.5389Q503.97455 187.52327 505.09955 186.5389Q506.02142 185.74202 507.3808 185.74202Q508.86517 185.74202 509.8183 186.7264Q510.77142 187.69514 510.77142 189.42952Q510.77142 190.83577 510.34955 191.64827Q509.92767 192.44514 509.11517 192.89827Q508.3183 193.33577 507.3808 193.33577Q505.84955 193.33577 504.91205 192.3514Q503.97455 191.36702 503.97455 189.5389ZM505.24017 189.5389Q505.24017 190.92952 505.84955 191.63264Q506.45892 192.32014 507.3808 192.32014Q508.28705 192.32014 508.89642 191.61702Q509.5058 190.9139 509.5058 189.49202Q509.5058 188.14827 508.89642 187.46077Q508.28705 186.75764 507.3808 186.75764Q506.45892 186.75764 505.84955 187.44514Q505.24017 188.13264 505.24017 189.5389ZM512.41205 193.1639L512.41205 185.89827L513.5214 185.89827L513.5214 187.00764Q513.9433 186.2264 514.3027 185.99202Q514.66205 185.74202 515.09955 185.74202Q515.72455 185.74202 516.3652 186.13264L515.9433 187.27327Q515.4902 187.00764 515.03705 187.00764Q514.6308 187.00764 514.3027 187.25764Q513.9902 187.49202 513.84955 187.92952Q513.6464 188.58577 513.6464 189.36702L513.6464 193.1639L512.41205 193.1639ZM522.3964 190.82014L523.6777 190.9764Q523.3652 192.1014 522.5527 192.7264Q521.7402 193.33577 520.47455 193.33577Q518.8808 193.33577 517.9433 192.3514Q517.0214 191.36702 517.0214 189.6014Q517.0214 187.75764 517.9589 186.75764Q518.91205 185.74202 520.41205 185.74202Q521.8652 185.74202 522.78705 186.74202Q523.7089 187.7264 523.7089 189.52327Q523.7089 189.63264 523.7089 189.8514L518.28705 189.8514Q518.3652 191.0389 518.9589 191.67952Q519.5683 192.32014 520.4902 192.32014Q521.16205 192.32014 521.6308 191.96077Q522.1152 191.6014 522.3964 190.82014ZM518.3652 188.83577L522.41205 188.83577Q522.3339 187.9139 521.9433 187.46077Q521.3652 186.75764 520.4277 186.75764Q519.5683 186.75764 518.9902 187.32014Q518.4277 187.88264 518.3652 188.83577ZM532.1308 193.1639L532.1308 184.32014L528.8339 184.32014L528.8339 183.14827L536.7714 183.14827L536.7714 184.32014L533.4589 184.32014L533.4589 193.1639L532.1308 193.1639ZM543.3964 190.82014L544.6777 190.9764Q544.3652 192.1014 543.5527 192.7264Q542.7402 193.33577 541.47455 193.33577Q539.8808 193.33577 538.9433 192.3514Q538.0214 191.36702 538.0214 189.6014Q538.0214 187.75764 538.9589 186.75764Q539.91205 185.74202 541.41205 185.74202Q542.8652 185.74202 543.78705 186.74202Q544.7089 187.7264 544.7089 189.52327Q544.7089 189.63264 544.7089 189.8514L539.28705 189.8514Q539.3652 191.0389 539.9589 191.67952Q540.5683 192.32014 541.4902 192.32014Q542.16205 192.32014 542.6308 191.96077Q543.1152 191.6014 543.3964 190.82014ZM539.3652 188.83577L543.41205 188.83577Q543.3339 187.9139 542.9433 187.46077Q542.3652 186.75764 541.4277 186.75764Q540.5683 186.75764 539.9902 187.32014Q539.4277 187.88264 539.3652 188.83577ZM551.16205 192.27327Q550.4902 192.8514 549.84955 193.1014Q549.22455 193.33577 548.4902 193.33577Q547.3027 193.33577 546.6464 192.75764Q546.0058 192.1639 546.0058 191.24202Q546.0058 190.71077 546.2402 190.27327Q546.4902 189.83577 546.8808 189.57014Q547.28705 189.30452 547.7714 189.1639Q548.1308 189.07014 548.8652 188.9764Q550.3652 188.80452 551.0683 188.55452Q551.0683 188.30452 551.0683 188.24202Q551.0683 187.4764 550.72455 187.17952Q550.2558 186.75764 549.3183 186.75764Q548.4589 186.75764 548.03705 187.07014Q547.6308 187.36702 547.4277 188.13264L546.22455 187.9764Q546.3808 187.19514 546.7558 186.7264Q547.1464 186.25764 547.84955 186.00764Q548.5683 185.74202 549.5058 185.74202Q550.4277 185.74202 551.0058 185.96077Q551.5839 186.17952 551.84955 186.50764Q552.1308 186.83577 552.2402 187.3514Q552.3027 187.6639 552.3027 188.4764L552.3027 190.11702Q552.3027 191.83577 552.3808 192.2889Q552.4589 192.74202 552.6933 193.1639L551.41205 193.1639Q551.22455 192.77327 551.16205 192.27327ZM551.0683 189.52327Q550.3964 189.7889 549.0527 189.99202Q548.3027 190.1014 547.97455 190.24202Q547.66205 190.36702 547.4902 190.63264Q547.3183 190.89827 547.3183 191.21077Q547.3183 191.71077 547.6933 192.0389Q548.0683 192.36702 548.78705 192.36702Q549.5058 192.36702 550.0527 192.05452Q550.59955 191.74202 550.8652 191.19514Q551.0683 190.7889 551.0683 189.9764L551.0683 189.52327ZM554.4277 193.1639L554.4277 185.89827L555.53705 185.89827L555.53705 186.92952Q555.8652 186.38264 556.4277 186.07014Q557.0058 185.74202 557.72455 185.74202Q558.53705 185.74202 559.0527 186.08577Q559.5683 186.4139 559.78705 187.00764Q560.6464 185.74202 562.0214 185.74202Q563.09955 185.74202 563.6777 186.33577Q564.2714 186.92952 564.2714 188.17952L564.2714 193.1639L563.03705 193.1639L563.03705 188.58577Q563.03705 187.8514 562.91205 187.52327Q562.8027 187.19514 562.4902 187.00764Q562.1777 186.80452 561.7558 186.80452Q560.9902 186.80452 560.47455 187.32014Q559.97455 187.82014 559.97455 188.94514L559.97455 193.1639L558.7402 193.1639L558.7402 188.44514Q558.7402 187.63264 558.4433 187.2264Q558.1464 186.80452 557.4589 186.80452Q556.9433 186.80452 556.4902 187.08577Q556.0527 187.3514 555.84955 187.88264Q555.66205 188.39827 555.66205 189.39827L555.66205 193.1639L554.4277 193.1639Z" fill-rule="nonzero"/><path fill="#e06666" d="M485.5058 214.1639C485.5058 217.4776 482.81952 220.1639 479.5058 220.1639C476.1921 220.1639 473.5058 217.4776 473.5058 214.1639C473.5058 210.85019 476.1921 208.1639 479.5058 208.1639C482.81952 208.1639 485.5058 210.85019 485.5058 214.1639Z" fill-rule="nonzero"/><path fill="#000000" d="M497.1308 219.1639L497.1308 210.32014L493.83392 210.32014L493.83392 209.14827L501.77142 209.14827L501.77142 210.32014L498.45892 210.32014L498.45892 219.1639L497.1308 219.1639ZM503.41205 219.1639L503.41205 211.89827L504.52142 211.89827L504.52142 213.00764Q504.9433 212.2264 505.30267 211.99202Q505.66205 211.74202 506.09955 211.74202Q506.72455 211.74202 507.36517 212.13264L506.9433 213.27327Q506.49017 213.00764 506.03705 213.00764Q505.6308 213.00764 505.30267 213.25764Q504.99017 213.49202 504.84955 213.92952Q504.64642 214.58577 504.64642 215.36702L504.64642 219.1639L503.41205 219.1639ZM513.3964 216.82014L514.6777 216.9764Q514.3652 218.1014 513.5527 218.7264Q512.7402 219.33577 511.47455 219.33577Q509.8808 219.33577 508.9433 218.3514Q508.02142 217.36702 508.02142 215.6014Q508.02142 213.75764 508.95892 212.75764Q509.91205 211.74202 511.41205 211.74202Q512.8652 211.74202 513.78705 212.74202Q514.7089 213.7264 514.7089 215.52327Q514.7089 215.63264 514.7089 215.8514L509.28705 215.8514Q509.36517 217.0389 509.95892 217.67952Q510.5683 218.32014 511.49017 218.32014Q512.16205 218.32014 512.6308 217.96077Q513.1152 217.6014 513.3964 216.82014ZM509.36517 214.83577L513.41205 214.83577Q513.3339 213.9139 512.9433 213.46077Q512.3652 212.75764 511.42767 212.75764Q510.5683 212.75764 509.99017 213.32014Q509.42767 213.88264 509.36517 214.83577ZM521.16205 218.27327Q520.4902 218.8514 519.84955 219.1014Q519.22455 219.33577 518.4902 219.33577Q517.3027 219.33577 516.6464 218.75764Q516.0058 218.1639 516.0058 217.24202Q516.0058 216.71077 516.2402 216.27327Q516.4902 215.83577 516.8808 215.57014Q517.28705 215.30452 517.7714 215.1639Q518.1308 215.07014 518.8652 214.9764Q520.3652 214.80452 521.0683 214.55452Q521.0683 214.30452 521.0683 214.24202Q521.0683 213.4764 520.72455 213.17952Q520.2558 212.75764 519.3183 212.75764Q518.4589 212.75764 518.03705 213.07014Q517.6308 213.36702 517.4277 214.13264L516.22455 213.9764Q516.3808 213.19514 516.7558 212.7264Q517.1464 212.25764 517.84955 212.00764Q518.5683 211.74202 519.5058 211.74202Q520.4277 211.74202 521.0058 211.96077Q521.5839 212.17952 521.84955 212.50764Q522.1308 212.83577 522.2402 213.3514Q522.3027 213.6639 522.3027 214.4764L522.3027 216.11702Q522.3027 217.83577 522.3808 218.2889Q522.4589 218.74202 522.6933 219.1639L521.41205 219.1639Q521.22455 218.77327 521.16205 218.27327ZM521.0683 215.52327Q520.3964 215.7889 519.0527 215.99202Q518.3027 216.1014 517.97455 216.24202Q517.66205 216.36702 517.4902 216.63264Q517.3183 216.89827 517.3183 217.21077Q517.3183 217.71077 517.6933 218.0389Q518.0683 218.36702 518.78705 218.36702Q519.5058 218.36702 520.0527 218.05452Q520.59955 217.74202 520.8652 217.19514Q521.0683 216.7889 521.0683 215.9764L521.0683 215.52327ZM523.9433 216.99202L525.1464 216.80452Q525.2558 217.5389 525.72455 217.92952Q526.1933 218.32014 527.03705 218.32014Q527.8808 218.32014 528.28705 217.9764Q528.7089 217.63264 528.7089 217.1639Q528.7089 216.74202 528.3339 216.50764Q528.0839 216.33577 527.0839 216.08577Q525.72455 215.74202 525.1933 215.49202Q524.6777 215.24202 524.41205 214.80452Q524.1464 214.36702 524.1464 213.83577Q524.1464 213.3514 524.3652 212.94514Q524.5839 212.52327 524.97455 212.24202Q525.2558 212.0389 525.7402 211.89827Q526.2402 211.74202 526.8183 211.74202Q527.66205 211.74202 528.3027 211.99202Q528.9589 212.2264 529.2714 212.64827Q529.5839 213.07014 529.6933 213.77327L528.4902 213.94514Q528.41205 213.38264 528.0058 213.07014Q527.6152 212.75764 526.8964 212.75764Q526.0527 212.75764 525.6933 213.0389Q525.3339 213.30452 525.3339 213.69514Q525.3339 213.92952 525.47455 214.11702Q525.6308 214.32014 525.9589 214.44514Q526.1308 214.50764 527.03705 214.75764Q528.34955 215.11702 528.8652 215.33577Q529.3808 215.55452 529.66205 215.9764Q529.9589 216.39827 529.9589 217.02327Q529.9589 217.64827 529.59955 218.19514Q529.2558 218.7264 528.5683 219.0389Q527.8964 219.33577 527.03705 219.33577Q525.6308 219.33577 524.8808 218.74202Q524.1464 218.14827 523.9433 216.99202ZM536.1933 219.1639L536.1933 218.1014Q535.3339 219.33577 533.8808 219.33577Q533.2402 219.33577 532.6777 219.08577Q532.1308 218.83577 531.84955 218.46077Q531.5839 218.08577 531.47455 217.55452Q531.3964 217.19514 531.3964 216.39827L531.3964 211.89827L532.6308 211.89827L532.6308 215.92952Q532.6308 216.89827 532.7089 217.2264Q532.8183 217.71077 533.1933 217.99202Q533.5683 218.27327 534.1308 218.27327Q534.6777 218.27327 535.16205 217.99202Q535.6464 217.69514 535.84955 217.21077Q536.0527 216.7264 536.0527 215.7889L536.0527 211.89827L537.28705 211.89827L537.28705 219.1639L536.1933 219.1639ZM539.41205 219.1639L539.41205 211.89827L540.5214 211.89827L540.5214 213.00764Q540.9433 212.2264 541.3027 211.99202Q541.66205 211.74202 542.09955 211.74202Q542.72455 211.74202 543.3652 212.13264L542.9433 213.27327Q542.4902 213.00764 542.03705 213.00764Q541.6308 213.00764 541.3027 213.25764Q540.9902 213.49202 540.84955 213.92952Q540.6464 214.58577 540.6464 215.36702L540.6464 219.1639L539.41205 219.1639ZM544.3808 221.96077L544.2402 220.80452Q544.6464 220.9139 544.9433 220.9139Q545.34955 220.9139 545.59955 220.77327Q545.84955 220.64827 546.0058 220.39827Q546.1152 220.21077 546.3808 219.4764Q546.41205 219.38264 546.4902 219.17952L543.72455 211.89827L545.0527 211.89827L546.5683 216.1014Q546.8652 216.9139 547.09955 217.7889Q547.3027 216.94514 547.59955 216.13264L549.1464 211.89827L550.3808 211.89827L547.6152 219.2889Q547.1777 220.4764 546.9277 220.92952Q546.59955 221.5389 546.1777 221.82014Q545.7558 222.11702 545.16205 222.11702Q544.8183 222.11702 544.3808 221.96077Z" fill-rule="nonzero"/><path fill="#990000" d="M485.5058 240.1639C485.5058 243.4776 482.81952 246.1639 479.5058 246.1639C476.1921 246.1639 473.5058 243.4776 473.5058 240.1639C473.5058 236.85019 476.1921 234.1639 479.5058 234.1639C482.81952 234.1639 485.5058 236.85019 485.5058 240.1639Z" fill-rule="nonzero"/><path fill="#000000" d="M494.1308 241.94514L495.3808 241.83577Q495.47455 242.58577 495.80267 243.07014Q496.1308 243.55452 496.80267 243.8514Q497.49017 244.14827 498.34955 244.14827Q499.09955 244.14827 499.67767 243.92952Q500.27142 243.69514 500.55267 243.30452Q500.83392 242.9139 500.83392 242.44514Q500.83392 241.9764 500.55267 241.63264Q500.28705 241.27327 499.66205 241.02327Q499.2558 240.86702 497.86517 240.5389Q496.49017 240.21077 495.9433 239.9139Q495.22455 239.5389 494.86517 238.99202Q494.52142 238.42952 494.52142 237.7264Q494.52142 236.9764 494.9433 236.32014Q495.3808 235.64827 496.20892 235.32014Q497.03705 234.9764 498.05267 234.9764Q499.16205 234.9764 500.0058 235.33577Q500.86517 235.69514 501.3183 236.39827Q501.77142 237.08577 501.8183 237.96077L500.53705 238.05452Q500.4433 237.11702 499.84955 236.63264Q499.2558 236.13264 498.09955 236.13264Q496.89642 236.13264 496.34955 236.58577Q495.80267 237.02327 495.80267 237.64827Q495.80267 238.17952 496.1933 238.5389Q496.5683 238.88264 498.17767 239.25764Q499.80267 239.61702 500.39642 239.88264Q501.27142 240.2889 501.6933 240.9139Q502.11517 241.52327 502.11517 242.33577Q502.11517 243.13264 501.64642 243.8514Q501.1933 244.55452 500.33392 244.94514Q499.47455 245.33577 498.41205 245.33577Q497.05267 245.33577 496.1308 244.94514Q495.20892 244.5389 494.67767 243.74202Q494.16205 242.94514 494.1308 241.94514ZM508.39642 242.82014L509.67767 242.9764Q509.36517 244.1014 508.55267 244.7264Q507.74017 245.33577 506.47455 245.33577Q504.8808 245.33577 503.9433 244.3514Q503.02142 243.36702 503.02142 241.6014Q503.02142 239.75764 503.95892 238.75764Q504.91205 237.74202 506.41205 237.74202Q507.86517 237.74202 508.78705 238.74202Q509.70892 239.7264 509.70892 241.52327Q509.70892 241.63264 509.70892 241.8514L504.28705 241.8514Q504.36517 243.0389 504.95892 243.67952Q505.5683 244.32014 506.49017 244.32014Q507.16205 244.32014 507.6308 243.96077Q508.11517 243.6014 508.39642 242.82014ZM504.36517 240.83577L508.41205 240.83577Q508.33392 239.9139 507.9433 239.46077Q507.36517 238.75764 506.42767 238.75764Q505.5683 238.75764 504.99017 239.32014Q504.42767 239.88264 504.36517 240.83577ZM516.3964 242.82014L517.6777 242.9764Q517.3652 244.1014 516.5527 244.7264Q515.7402 245.33577 514.47455 245.33577Q512.8808 245.33577 511.9433 244.3514Q511.02142 243.36702 511.02142 241.6014Q511.02142 239.75764 511.95892 238.75764Q512.91205 237.74202 514.41205 237.74202Q515.8652 237.74202 516.78705 238.74202Q517.7089 239.7264 517.7089 241.52327Q517.7089 241.63264 517.7089 241.8514L512.28705 241.8514Q512.3652 243.0389 512.9589 243.67952Q513.5683 244.32014 514.4902 244.32014Q515.16205 244.32014 515.6308 243.96077Q516.1152 243.6014 516.3964 242.82014ZM512.3652 240.83577L516.41205 240.83577Q516.3339 239.9139 515.9433 239.46077Q515.3652 238.75764 514.4277 238.75764Q513.5683 238.75764 512.9902 239.32014Q512.4277 239.88264 512.3652 240.83577ZM524.1464 245.1639L524.1464 244.24202Q523.4433 245.33577 522.1152 245.33577Q521.2402 245.33577 520.5058 244.8514Q519.78705 244.36702 519.3808 243.50764Q518.9902 242.64827 518.9902 241.5389Q518.9902 240.46077 519.34955 239.57014Q519.7089 238.67952 520.4277 238.21077Q521.16205 237.74202 522.0527 237.74202Q522.7089 237.74202 523.22455 238.02327Q523.7402 238.2889 524.0527 238.74202L524.0527 235.14827L525.28705 235.14827L525.28705 245.1639L524.1464 245.1639ZM520.2558 241.5389Q520.2558 242.92952 520.8339 243.63264Q521.4277 244.32014 522.22455 244.32014Q523.03705 244.32014 523.59955 243.6639Q524.16205 242.99202 524.16205 241.64827Q524.16205 240.14827 523.5839 239.46077Q523.0058 238.75764 522.1777 238.75764Q521.34955 238.75764 520.8027 239.42952Q520.2558 240.1014 520.2558 241.5389Z" fill-rule="nonzero"/><path fill="#999999" d="M485.5058 266.1639C485.5058 269.4776 482.81952 272.1639 479.5058 272.1639C476.1921 272.1639 473.5058 269.4776 473.5058 266.1639C473.5058 262.8502 476.1921 260.1639 479.5058 260.1639C482.81952 260.1639 485.5058 262.8502 485.5058 266.1639Z" fill-rule="nonzero"/><path fill="#000000" d="M493.49017 271.1639L497.33392 261.1483L498.7558 261.1483L502.86517 271.1639L501.34955 271.1639L500.17767 268.13266L495.99017 268.13266L494.89642 271.1639L493.49017 271.1639ZM496.3808 267.05453L499.77142 267.05453L498.72455 264.2733Q498.2558 263.00766 498.02142 262.19516Q497.83392 263.1639 497.47455 264.1014L496.3808 267.05453ZM503.55267 271.1639L503.55267 261.1483L505.53705 261.1483L507.91205 268.24203Q508.24017 269.2264 508.39642 269.7264Q508.5683 269.17953 508.92767 268.11703L511.3183 261.1483L513.1152 261.1483L513.1152 271.1639L511.83392 271.1639L511.83392 262.7733L508.91205 271.1639L507.72455 271.1639L504.8183 262.63266L504.8183 271.1639L503.55267 271.1639ZM514.5527 271.1639L514.5527 261.1483L516.53705 261.1483L518.91205 268.24203Q519.2402 269.2264 519.3964 269.7264Q519.5683 269.17953 519.9277 268.11703L522.3183 261.1483L524.1152 261.1483L524.1152 271.1639L522.8339 271.1639L522.8339 262.7733L519.91205 271.1639L518.72455 271.1639L515.8183 262.63266L515.8183 271.1639L514.5527 271.1639ZM529.3964 271.1639L529.3964 261.1483L530.6308 261.1483L530.6308 271.1639L529.3964 271.1639ZM532.4433 262.55453L532.4433 261.1483L533.66205 261.1483L533.66205 262.55453L532.4433 262.55453ZM532.4433 271.1639L532.4433 263.8983L533.66205 263.8983L533.66205 271.1639L532.4433 271.1639ZM540.0527 273.94516L540.0527 270.3983Q539.7714 270.7889 539.2558 271.07016Q538.7402 271.3358 538.16205 271.3358Q536.8652 271.3358 535.9277 270.30453Q535.0058 269.25766 535.0058 267.4608Q535.0058 266.36703 535.3808 265.50766Q535.7558 264.63266 536.47455 264.19516Q537.1933 263.74203 538.0683 263.74203Q539.41205 263.74203 540.1777 264.86703L540.1777 263.8983L541.28705 263.8983L541.28705 273.94516L540.0527 273.94516ZM536.2558 267.50766Q536.2558 268.9139 536.84955 269.61703Q537.4433 270.32016 538.2558 270.32016Q539.0527 270.32016 539.6152 269.6483Q540.1777 268.9764 540.1777 267.61703Q540.1777 266.17953 539.5839 265.44516Q538.9902 264.7108 538.1777 264.7108Q537.3808 264.7108 536.8183 265.3983Q536.2558 266.07016 536.2558 267.50766ZM548.1933 271.1639L548.1933 270.1014Q547.3339 271.3358 545.8808 271.3358Q545.2402 271.3358 544.6777 271.0858Q544.1308 270.8358 543.84955 270.4608Q543.5839 270.0858 543.47455 269.55453Q543.3964 269.19516 543.3964 268.3983L543.3964 263.8983L544.6308 263.8983L544.6308 267.92953Q544.6308 268.8983 544.7089 269.2264Q544.8183 269.7108 545.1933 269.99203Q545.5683 270.2733 546.1308 270.2733Q546.6777 270.2733 547.16205 269.99203Q547.6464 269.69516 547.84955 269.2108Q548.0527 268.7264 548.0527 267.7889L548.0527 263.8983L549.28705 263.8983L549.28705 271.1639L548.1933 271.1639ZM551.4433 262.55453L551.4433 261.1483L552.66205 261.1483L552.66205 262.55453L551.4433 262.55453ZM551.4433 271.1639L551.4433 263.8983L552.66205 263.8983L552.66205 271.1639L551.4433 271.1639ZM559.1464 271.1639L559.1464 270.24203Q558.4433 271.3358 557.1152 271.3358Q556.2402 271.3358 555.5058 270.8514Q554.78705 270.36703 554.3808 269.50766Q553.9902 268.6483 553.9902 267.5389Q553.9902 266.4608 554.34955 265.57016Q554.7089 264.67953 555.4277 264.2108Q556.16205 263.74203 557.0527 263.74203Q557.7089 263.74203 558.22455 264.0233Q558.7402 264.2889 559.0527 264.74203L559.0527 261.1483L560.28705 261.1483L560.28705 271.1639L559.1464 271.1639ZM555.2558 267.5389Q555.2558 268.92953 555.8339 269.63266Q556.4277 270.32016 557.22455 270.32016Q558.03705 270.32016 558.59955 269.6639Q559.16205 268.99203 559.16205 267.6483Q559.16205 266.1483 558.5839 265.4608Q558.0058 264.75766 557.1777 264.75766Q556.34955 264.75766 555.8027 265.42953Q555.2558 266.1014 555.2558 267.5389ZM562.4433 262.55453L562.4433 261.1483L563.66205 261.1483L563.66205 262.55453L562.4433 262.55453ZM562.4433 271.1639L562.4433 263.8983L563.66205 263.8983L563.66205 271.1639L562.4433 271.1639ZM568.1152 270.07016L568.28705 271.1483Q567.7714 271.25766 567.3652 271.25766Q566.6933 271.25766 566.3183 271.05453Q565.9589 270.8358 565.8027 270.49203Q565.66205 270.1483 565.66205 269.0389L565.66205 264.86703L564.7558 264.86703L564.7558 263.8983L565.66205 263.8983L565.66205 262.1014L566.8808 261.36703L566.8808 263.8983L568.1152 263.8983L568.1152 264.86703L566.8808 264.86703L566.8808 269.1014Q566.8808 269.63266 566.9433 269.7889Q567.0058 269.92953 567.1464 270.0233Q567.3027 270.11703 567.5683 270.11703Q567.78705 270.11703 568.1152 270.07016ZM569.3808 273.9608L569.2402 272.80453Q569.6464 272.9139 569.9433 272.9139Q570.34955 272.9139 570.59955 272.7733Q570.84955 272.6483 571.0058 272.3983Q571.1152 272.2108 571.3808 271.4764Q571.41205 271.38266 571.4902 271.17953L568.72455 263.8983L570.0527 263.8983L571.5683 268.1014Q571.8652 268.9139 572.09955 269.7889Q572.3027 268.94516 572.59955 268.13266L574.1464 263.8983L575.3808 263.8983L572.6152 271.2889Q572.1777 272.4764 571.9277 272.92953Q571.59955 273.5389 571.1777 273.82016Q570.7558 274.11703 570.16205 274.11703Q569.8183 274.11703 569.3808 273.9608Z" fill-rule="nonzero"/><path fill="#ffd966" d="M485.5058 292.1639C485.5058 295.4776 482.81952 298.1639 479.5058 298.1639C476.1921 298.1639 473.5058 295.4776 473.5058 292.1639C473.5058 288.8502 476.1921 286.1639 479.5058 286.1639C482.81952 286.1639 485.5058 288.8502 485.5058 292.1639Z" fill-rule="nonzero"/><path fill="#000000" d="M494.53705 297.1639L494.53705 287.1483L495.86517 287.1483L495.86517 295.9764L500.78705 295.9764L500.78705 297.1639L494.53705 297.1639ZM502.4433 288.55453L502.4433 287.1483L503.66205 287.1483L503.66205 288.55453L502.4433 288.55453ZM502.4433 297.1639L502.4433 289.8983L503.66205 289.8983L503.66205 297.1639L502.4433 297.1639ZM510.05267 299.94516L510.05267 296.3983Q509.77142 296.7889 509.2558 297.07016Q508.74017 297.3358 508.16205 297.3358Q506.86517 297.3358 505.92767 296.30453Q505.0058 295.25766 505.0058 293.4608Q505.0058 292.36703 505.3808 291.50766Q505.7558 290.63266 506.47455 290.19516Q507.1933 289.74203 508.0683 289.74203Q509.41205 289.74203 510.17767 290.86703L510.17767 289.8983L511.28705 289.8983L511.28705 299.94516L510.05267 299.94516ZM506.2558 293.50766Q506.2558 294.9139 506.84955 295.61703Q507.4433 296.32016 508.2558 296.32016Q509.05267 296.32016 509.61517 295.6483Q510.17767 294.9764 510.17767 293.61703Q510.17767 292.17953 509.58392 291.44516Q508.99017 290.7108 508.17767 290.7108Q507.3808 290.7108 506.8183 291.3983Q506.2558 292.07016 506.2558 293.50766ZM518.1933 297.1639L518.1933 296.1014Q517.3339 297.3358 515.8808 297.3358Q515.2402 297.3358 514.6777 297.0858Q514.1308 296.8358 513.84955 296.4608Q513.5839 296.0858 513.47455 295.55453Q513.3964 295.19516 513.3964 294.3983L513.3964 289.8983L514.6308 289.8983L514.6308 293.92953Q514.6308 294.8983 514.7089 295.2264Q514.8183 295.7108 515.1933 295.99203Q515.5683 296.2733 516.1308 296.2733Q516.6777 296.2733 517.16205 295.99203Q517.6464 295.69516 517.84955 295.2108Q518.0527 294.7264 518.0527 293.7889L518.0527 289.8983L519.28705 289.8983L519.28705 297.1639L518.1933 297.1639ZM521.4433 288.55453L521.4433 287.1483L522.66205 287.1483L522.66205 288.55453L521.4433 288.55453ZM521.4433 297.1639L521.4433 289.8983L522.66205 289.8983L522.66205 297.1639L521.4433 297.1639ZM529.1464 297.1639L529.1464 296.24203Q528.4433 297.3358 527.1152 297.3358Q526.2402 297.3358 525.5058 296.8514Q524.78705 296.36703 524.3808 295.50766Q523.9902 294.6483 523.9902 293.5389Q523.9902 292.4608 524.34955 291.57016Q524.7089 290.67953 525.4277 290.2108Q526.16205 289.74203 527.0527 289.74203Q527.7089 289.74203 528.22455 290.0233Q528.7402 290.2889 529.0527 290.74203L529.0527 287.1483L530.28705 287.1483L530.28705 297.1639L529.1464 297.1639ZM525.2558 293.5389Q525.2558 294.92953 525.8339 295.63266Q526.4277 296.32016 527.22455 296.32016Q528.03705 296.32016 528.59955 295.6639Q529.16205 294.99203 529.16205 293.6483Q529.16205 292.1483 528.5839 291.4608Q528.0058 290.75766 527.1777 290.75766Q526.34955 290.75766 525.8027 291.42953Q525.2558 292.1014 525.2558 293.5389ZM532.4433 288.55453L532.4433 287.1483L533.66205 287.1483L533.66205 288.55453L532.4433 288.55453ZM532.4433 297.1639L532.4433 289.8983L533.66205 289.8983L533.66205 297.1639L532.4433 297.1639ZM538.1152 296.07016L538.28705 297.1483Q537.7714 297.25766 537.3652 297.25766Q536.6933 297.25766 536.3183 297.05453Q535.9589 296.8358 535.8027 296.49203Q535.66205 296.1483 535.66205 295.0389L535.66205 290.86703L534.7558 290.86703L534.7558 289.8983L535.66205 289.8983L535.66205 288.1014L536.8808 287.36703L536.8808 289.8983L538.1152 289.8983L538.1152 290.86703L536.8808 290.86703L536.8808 295.1014Q536.8808 295.63266 536.9433 295.7889Q537.0058 295.92953 537.1464 296.0233Q537.3027 296.11703 537.5683 296.11703Q537.78705 296.11703 538.1152 296.07016ZM539.3808 299.9608L539.2402 298.80453Q539.6464 298.9139 539.9433 298.9139Q540.34955 298.9139 540.59955 298.7733Q540.84955 298.6483 541.0058 298.3983Q541.1152 298.2108 541.3808 297.4764Q541.41205 297.38266 541.4902 297.17953L538.72455 289.8983L540.0527 289.8983L541.5683 294.1014Q541.8652 294.9139 542.09955 295.7889Q542.3027 294.94516 542.59955 294.13266L544.1464 289.8983L545.3808 289.8983L542.6152 297.2889Q542.1777 298.4764 541.9277 298.92953Q541.59955 299.5389 541.1777 299.82016Q540.7558 300.11703 540.16205 300.11703Q539.8183 300.11703 539.3808 299.9608ZM550.4277 297.1639L550.4277 289.8983L551.53705 289.8983L551.53705 290.92953Q551.8652 290.38266 552.4277 290.07016Q553.0058 289.74203 553.72455 289.74203Q554.53705 289.74203 555.0527 290.0858Q555.5683 290.4139 555.78705 291.00766Q556.6464 289.74203 558.0214 289.74203Q559.09955 289.74203 559.6777 290.3358Q560.2714 290.92953 560.2714 292.17953L560.2714 297.1639L559.03705 297.1639L559.03705 292.5858Q559.03705 291.8514 558.91205 291.5233Q558.8027 291.19516 558.4902 291.00766Q558.1777 290.80453 557.7558 290.80453Q556.9902 290.80453 556.47455 291.32016Q555.97455 291.82016 555.97455 292.94516L555.97455 297.1639L554.7402 297.1639L554.7402 292.44516Q554.7402 291.63266 554.4433 291.2264Q554.1464 290.80453 553.4589 290.80453Q552.9433 290.80453 552.4902 291.0858Q552.0527 291.3514 551.84955 291.88266Q551.66205 292.3983 551.66205 293.3983L551.66205 297.1639L550.4277 297.1639ZM561.4433 288.55453L561.4433 287.1483L562.66205 287.1483L562.66205 288.55453L561.4433 288.55453ZM561.4433 297.1639L561.4433 289.8983L562.66205 289.8983L562.66205 297.1639L561.4433 297.1639ZM564.4277 297.1639L564.4277 289.8983L565.53705 289.8983L565.53705 290.92953Q566.3339 289.74203 567.84955 289.74203Q568.5058 289.74203 569.0527 289.9764Q569.59955 290.2108 569.8652 290.6014Q570.1464 290.9764 570.2558 291.50766Q570.3339 291.8514 570.3339 292.69516L570.3339 297.1639L569.09955 297.1639L569.09955 292.74203Q569.09955 291.99203 568.9589 291.63266Q568.8183 291.25766 568.4433 291.0389Q568.0839 290.80453 567.5839 290.80453Q566.8027 290.80453 566.22455 291.30453Q565.66205 291.80453 565.66205 293.19516L565.66205 297.1639L564.4277 297.1639ZM572.4433 288.55453L572.4433 287.1483L573.66205 287.1483L573.66205 288.55453L572.4433 288.55453ZM572.4433 297.1639L572.4433 289.8983L573.66205 289.8983L573.66205 297.1639L572.4433 297.1639ZM575.4277 297.1639L575.4277 289.8983L576.53705 289.8983L576.53705 290.92953Q577.3339 289.74203 578.84955 289.74203Q579.5058 289.74203 580.0527 289.9764Q580.59955 290.2108 580.8652 290.6014Q581.1464 290.9764 581.2558 291.50766Q581.3339 291.8514 581.3339 292.69516L581.3339 297.1639L580.09955 297.1639L580.09955 292.74203Q580.09955 291.99203 579.9589 291.63266Q579.8183 291.25766 579.4433 291.0389Q579.0839 290.80453 578.5839 290.80453Q577.8027 290.80453 577.22455 291.30453Q576.66205 291.80453 576.66205 293.19516L576.66205 297.1639L575.4277 297.1639ZM583.2089 297.7733L584.3964 297.94516Q584.47455 298.49203 584.8183 298.75766Q585.2714 299.0858 586.0683 299.0858Q586.9277 299.0858 587.3808 298.74203Q587.84955 298.4139 588.0214 297.7889Q588.1152 297.4139 588.09955 296.2108Q587.3027 297.1639 586.09955 297.1639Q584.59955 297.1639 583.7714 296.0858Q582.9589 295.00766 582.9589 293.49203Q582.9589 292.4608 583.3339 291.5858Q583.7089 290.69516 584.41205 290.2264Q585.1308 289.74203 586.09955 289.74203Q587.3808 289.74203 588.22455 290.7733L588.22455 289.8983L589.34955 289.8983L589.34955 296.17953Q589.34955 297.88266 589.0058 298.5858Q588.66205 299.2889 587.91205 299.69516Q587.16205 300.11703 586.0683 300.11703Q584.7714 300.11703 583.97455 299.5233Q583.1777 298.94516 583.2089 297.7733ZM584.22455 293.3983Q584.22455 294.8358 584.78705 295.49203Q585.34955 296.1483 586.2089 296.1483Q587.0527 296.1483 587.6308 295.49203Q588.2089 294.8358 588.2089 293.44516Q588.2089 292.11703 587.6152 291.44516Q587.0214 290.75766 586.1933 290.75766Q585.3652 290.75766 584.78705 291.42953Q584.22455 292.0858 584.22455 293.3983Z" fill-rule="nonzero"/><path fill="#4285f4" d="M485.5058 318.1639C485.5058 321.4776 482.81952 324.1639 479.5058 324.1639C476.1921 324.1639 473.5058 321.4776 473.5058 318.1639C473.5058 314.8502 476.1921 312.1639 479.5058 312.1639C482.81952 312.1639 485.5058 314.8502 485.5058 318.1639Z" fill-rule="nonzero"/><path fill="#000000" d="M494.55267 323.1639L494.55267 313.1483L496.53705 313.1483L498.91205 320.24203Q499.24017 321.2264 499.39642 321.7264Q499.5683 321.17953 499.92767 320.11703L502.3183 313.1483L504.11517 313.1483L504.11517 323.1639L502.83392 323.1639L502.83392 314.7733L499.91205 323.1639L498.72455 323.1639L495.8183 314.63266L495.8183 323.1639L494.55267 323.1639ZM510.16205 322.2733Q509.49017 322.8514 508.84955 323.1014Q508.22455 323.3358 507.49017 323.3358Q506.30267 323.3358 505.64642 322.75766Q505.0058 322.1639 505.0058 321.24203Q505.0058 320.7108 505.24017 320.2733Q505.49017 319.8358 505.8808 319.57016Q506.28705 319.30453 506.77142 319.1639Q507.1308 319.07016 507.86517 318.9764Q509.36517 318.80453 510.0683 318.55453Q510.0683 318.30453 510.0683 318.24203Q510.0683 317.4764 509.72455 317.17953Q509.2558 316.75766 508.3183 316.75766Q507.45892 316.75766 507.03705 317.07016Q506.6308 317.36703 506.42767 318.13266L505.22455 317.9764Q505.3808 317.19516 505.7558 316.7264Q506.14642 316.25766 506.84955 316.00766Q507.5683 315.74203 508.5058 315.74203Q509.42767 315.74203 510.0058 315.9608Q510.58392 316.17953 510.84955 316.50766Q511.1308 316.8358 511.24017 317.3514Q511.30267 317.6639 511.30267 318.4764L511.30267 320.11703Q511.30267 321.8358 511.3808 322.2889Q511.45892 322.74203 511.6933 323.1639L510.41205 323.1639Q510.22455 322.7733 510.16205 322.2733ZM510.0683 319.5233Q509.39642 319.7889 508.05267 319.99203Q507.30267 320.1014 506.97455 320.24203Q506.66205 320.36703 506.49017 320.63266Q506.3183 320.8983 506.3183 321.2108Q506.3183 321.7108 506.6933 322.0389Q507.0683 322.36703 507.78705 322.36703Q508.5058 322.36703 509.05267 322.05453Q509.59955 321.74203 509.86517 321.19516Q510.0683 320.7889 510.0683 319.9764L510.0683 319.5233ZM513.41205 323.1639L513.41205 315.8983L514.5214 315.8983L514.5214 317.00766Q514.9433 316.2264 515.3027 315.99203Q515.66205 315.74203 516.09955 315.74203Q516.72455 315.74203 517.3652 316.13266L516.9433 317.2733Q516.4902 317.00766 516.03705 317.00766Q515.6308 317.00766 515.3027 317.25766Q514.9902 317.49203 514.84955 317.92953Q514.6464 318.5858 514.6464 319.36703L514.6464 323.1639L513.41205 323.1639ZM518.4433 323.1639L518.4433 313.1483L519.66205 313.1483L519.66205 318.8514L522.5839 315.8983L524.1777 315.8983L521.3964 318.6014L524.4589 323.1639L522.9277 323.1639L520.53705 319.44516L519.66205 320.2889L519.66205 323.1639L518.4433 323.1639ZM530.3964 320.82016L531.6777 320.9764Q531.3652 322.1014 530.5527 322.7264Q529.7402 323.3358 528.47455 323.3358Q526.8808 323.3358 525.9433 322.3514Q525.0214 321.36703 525.0214 319.6014Q525.0214 317.75766 525.9589 316.75766Q526.91205 315.74203 528.41205 315.74203Q529.8652 315.74203 530.78705 316.74203Q531.7089 317.7264 531.7089 319.5233Q531.7089 319.63266 531.7089 319.8514L526.28705 319.8514Q526.3652 321.0389 526.9589 321.67953Q527.5683 322.32016 528.4902 322.32016Q529.16205 322.32016 529.6308 321.9608Q530.1152 321.6014 530.3964 320.82016ZM526.3652 318.8358L530.41205 318.8358Q530.3339 317.9139 529.9433 317.4608Q529.3652 316.75766 528.4277 316.75766Q527.5683 316.75766 526.9902 317.32016Q526.4277 317.88266 526.3652 318.8358ZM536.1152 322.07016L536.28705 323.1483Q535.7714 323.25766 535.3652 323.25766Q534.6933 323.25766 534.3183 323.05453Q533.9589 322.8358 533.8027 322.49203Q533.66205 322.1483 533.66205 321.0389L533.66205 316.86703L532.7558 316.86703L532.7558 315.8983L533.66205 315.8983L533.66205 314.1014L534.8808 313.36703L534.8808 315.8983L536.1152 315.8983L536.1152 316.86703L534.8808 316.86703L534.8808 321.1014Q534.8808 321.63266 534.9433 321.7889Q535.0058 321.92953 535.1464 322.0233Q535.3027 322.11703 535.5683 322.11703Q535.78705 322.11703 536.1152 322.07016ZM537.4433 314.55453L537.4433 313.1483L538.66205 313.1483L538.66205 314.55453L537.4433 314.55453ZM537.4433 323.1639L537.4433 315.8983L538.66205 315.8983L538.66205 323.1639L537.4433 323.1639ZM540.4277 323.1639L540.4277 315.8983L541.53705 315.8983L541.53705 316.92953Q542.3339 315.74203 543.84955 315.74203Q544.5058 315.74203 545.0527 315.9764Q545.59955 316.2108 545.8652 316.6014Q546.1464 316.9764 546.2558 317.50766Q546.3339 317.8514 546.3339 318.69516L546.3339 323.1639L545.09955 323.1639L545.09955 318.74203Q545.09955 317.99203 544.9589 317.63266Q544.8183 317.25766 544.4433 317.0389Q544.0839 316.80453 543.5839 316.80453Q542.8027 316.80453 542.22455 317.30453Q541.66205 317.80453 541.66205 319.19516L541.66205 323.1639L540.4277 323.1639ZM548.2089 323.7733L549.3964 323.94516Q549.47455 324.49203 549.8183 324.75766Q550.2714 325.0858 551.0683 325.0858Q551.9277 325.0858 552.3808 324.74203Q552.84955 324.4139 553.0214 323.7889Q553.1152 323.4139 553.09955 322.2108Q552.3027 323.1639 551.09955 323.1639Q549.59955 323.1639 548.7714 322.0858Q547.9589 321.00766 547.9589 319.49203Q547.9589 318.4608 548.3339 317.5858Q548.7089 316.69516 549.41205 316.2264Q550.1308 315.74203 551.09955 315.74203Q552.3808 315.74203 553.22455 316.7733L553.22455 315.8983L554.34955 315.8983L554.34955 322.17953Q554.34955 323.88266 554.0058 324.5858Q553.66205 325.2889 552.91205 325.69516Q552.16205 326.11703 551.0683 326.11703Q549.7714 326.11703 548.97455 325.5233Q548.1777 324.94516 548.2089 323.7733ZM549.22455 319.3983Q549.22455 320.8358 549.78705 321.49203Q550.34955 322.1483 551.2089 322.1483Q552.0527 322.1483 552.6308 321.49203Q553.2089 320.8358 553.2089 319.44516Q553.2089 318.11703 552.6152 317.44516Q552.0214 316.75766 551.1933 316.75766Q550.3652 316.75766 549.78705 317.42953Q549.22455 318.0858 549.22455 319.3983Z" fill-rule="nonzero"/><path fill="#ff0000" d="M485.5058 344.1639C485.5058 347.4776 482.81952 350.1639 479.5058 350.1639C476.1921 350.1639 473.5058 347.4776 473.5058 344.1639C473.5058 340.8502 476.1921 338.1639 479.5058 338.1639C482.81952 338.1639 485.5058 340.8502 485.5058 344.1639Z" fill-rule="nonzero"/><path fill="#000000" d="M494.61517 349.1639L494.61517 339.1483L501.86517 339.1483L501.86517 340.32016L495.9433 340.32016L495.9433 343.3983L501.49017 343.3983L501.49017 344.57016L495.9433 344.57016L495.9433 347.9764L502.09955 347.9764L502.09955 349.1639L494.61517 349.1639ZM506.11517 348.07016L506.28705 349.1483Q505.77142 349.25766 505.36517 349.25766Q504.6933 349.25766 504.3183 349.05453Q503.95892 348.8358 503.80267 348.49203Q503.66205 348.1483 503.66205 347.0389L503.66205 342.86703L502.7558 342.86703L502.7558 341.8983L503.66205 341.8983L503.66205 340.1014L504.8808 339.36703L504.8808 341.8983L506.11517 341.8983L506.11517 342.86703L504.8808 342.86703L504.8808 347.1014Q504.8808 347.63266 504.9433 347.7889Q505.0058 347.92953 505.14642 348.0233Q505.30267 348.11703 505.5683 348.11703Q505.78705 348.11703 506.11517 348.07016ZM507.42767 349.1639L507.42767 339.1483L508.66205 339.1483L508.66205 342.74203Q509.52142 341.74203 510.83392 341.74203Q511.64642 341.74203 512.2402 342.07016Q512.8339 342.38266 513.0839 342.94516Q513.34955 343.49203 513.34955 344.57016L513.34955 349.1639L512.1152 349.1639L512.1152 344.57016Q512.1152 343.63266 511.70892 343.2264Q511.3183 342.80453 510.58392 342.80453Q510.03705 342.80453 509.55267 343.0858Q509.0683 343.36703 508.86517 343.8514Q508.66205 344.3358 508.66205 345.19516L508.66205 349.1639L507.42767 349.1639ZM520.3964 346.82016L521.6777 346.9764Q521.3652 348.1014 520.5527 348.7264Q519.7402 349.3358 518.47455 349.3358Q516.8808 349.3358 515.9433 348.3514Q515.0214 347.36703 515.0214 345.6014Q515.0214 343.75766 515.9589 342.75766Q516.91205 341.74203 518.41205 341.74203Q519.8652 341.74203 520.78705 342.74203Q521.7089 343.7264 521.7089 345.5233Q521.7089 345.63266 521.7089 345.8514L516.28705 345.8514Q516.3652 347.0389 516.9589 347.67953Q517.5683 348.32016 518.4902 348.32016Q519.16205 348.32016 519.6308 347.9608Q520.1152 347.6014 520.3964 346.82016ZM516.3652 344.8358L520.41205 344.8358Q520.3339 343.9139 519.9433 343.4608Q519.3652 342.75766 518.4277 342.75766Q517.5683 342.75766 516.9902 343.32016Q516.4277 343.88266 516.3652 344.8358ZM523.41205 349.1639L523.41205 341.8983L524.5214 341.8983L524.5214 343.00766Q524.9433 342.2264 525.3027 341.99203Q525.66205 341.74203 526.09955 341.74203Q526.72455 341.74203 527.3652 342.13266L526.9433 343.2733Q526.4902 343.00766 526.03705 343.00766Q525.6308 343.00766 525.3027 343.25766Q524.9902 343.49203 524.84955 343.92953Q524.6464 344.5858 524.6464 345.36703L524.6464 349.1639L523.41205 349.1639ZM533.3964 346.82016L534.6777 346.9764Q534.3652 348.1014 533.5527 348.7264Q532.7402 349.3358 531.47455 349.3358Q529.8808 349.3358 528.9433 348.3514Q528.0214 347.36703 528.0214 345.6014Q528.0214 343.75766 528.9589 342.75766Q529.91205 341.74203 531.41205 341.74203Q532.8652 341.74203 533.78705 342.74203Q534.7089 343.7264 534.7089 345.5233Q534.7089 345.63266 534.7089 345.8514L529.28705 345.8514Q529.3652 347.0389 529.9589 347.67953Q530.5683 348.32016 531.4902 348.32016Q532.16205 348.32016 532.6308 347.9608Q533.1152 347.6014 533.3964 346.82016ZM529.3652 344.8358L533.41205 344.8358Q533.3339 343.9139 532.9433 343.4608Q532.3652 342.75766 531.4277 342.75766Q530.5683 342.75766 529.9902 343.32016Q529.4277 343.88266 529.3652 344.8358ZM541.1933 349.1639L541.1933 348.1014Q540.3339 349.3358 538.8808 349.3358Q538.2402 349.3358 537.6777 349.0858Q537.1308 348.8358 536.84955 348.4608Q536.5839 348.0858 536.47455 347.55453Q536.3964 347.19516 536.3964 346.3983L536.3964 341.8983L537.6308 341.8983L537.6308 345.92953Q537.6308 346.8983 537.7089 347.2264Q537.8183 347.7108 538.1933 347.99203Q538.5683 348.2733 539.1308 348.2733Q539.6777 348.2733 540.16205 347.99203Q540.6464 347.69516 540.84955 347.2108Q541.0527 346.7264 541.0527 345.7889L541.0527 341.8983L542.28705 341.8983L542.28705 349.1639L541.1933 349.1639ZM544.4277 349.1639L544.4277 341.8983L545.53705 341.8983L545.53705 342.92953Q545.8652 342.38266 546.4277 342.07016Q547.0058 341.74203 547.72455 341.74203Q548.53705 341.74203 549.0527 342.0858Q549.5683 342.4139 549.78705 343.00766Q550.6464 341.74203 552.0214 341.74203Q553.09955 341.74203 553.6777 342.3358Q554.2714 342.92953 554.2714 344.17953L554.2714 349.1639L553.03705 349.1639L553.03705 344.5858Q553.03705 343.8514 552.91205 343.5233Q552.8027 343.19516 552.4902 343.00766Q552.1777 342.80453 551.7558 342.80453Q550.9902 342.80453 550.47455 343.32016Q549.97455 343.82016 549.97455 344.94516L549.97455 349.1639L548.7402 349.1639L548.7402 344.44516Q548.7402 343.63266 548.4433 343.2264Q548.1464 342.80453 547.4589 342.80453Q546.9433 342.80453 546.4902 343.0858Q546.0527 343.3514 545.84955 343.88266Q545.66205 344.3983 545.66205 345.3983L545.66205 349.1639L544.4277 349.1639ZM559.3964 349.1639L559.3964 339.1483L560.6308 339.1483L560.6308 349.1639L559.3964 349.1639ZM567.16205 348.2733Q566.4902 348.8514 565.84955 349.1014Q565.22455 349.3358 564.4902 349.3358Q563.3027 349.3358 562.6464 348.75766Q562.0058 348.1639 562.0058 347.24203Q562.0058 346.7108 562.2402 346.2733Q562.4902 345.8358 562.8808 345.57016Q563.28705 345.30453 563.7714 345.1639Q564.1308 345.07016 564.8652 344.9764Q566.3652 344.80453 567.0683 344.55453Q567.0683 344.30453 567.0683 344.24203Q567.0683 343.4764 566.72455 343.17953Q566.2558 342.75766 565.3183 342.75766Q564.4589 342.75766 564.03705 343.07016Q563.6308 343.36703 563.4277 344.13266L562.22455 343.9764Q562.3808 343.19516 562.7558 342.7264Q563.1464 342.25766 563.84955 342.00766Q564.5683 341.74203 565.5058 341.74203Q566.4277 341.74203 567.0058 341.9608Q567.5839 342.17953 567.84955 342.50766Q568.1308 342.8358 568.2402 343.3514Q568.3027 343.6639 568.3027 344.4764L568.3027 346.11703Q568.3027 347.8358 568.3808 348.2889Q568.4589 348.74203 568.6933 349.1639L567.41205 349.1639Q567.22455 348.7733 567.16205 348.2733ZM567.0683 345.5233Q566.3964 345.7889 565.0527 345.99203Q564.3027 346.1014 563.97455 346.24203Q563.66205 346.36703 563.4902 346.63266Q563.3183 346.8983 563.3183 347.2108Q563.3183 347.7108 563.6933 348.0389Q564.0683 348.36703 564.78705 348.36703Q565.5058 348.36703 566.0527 348.05453Q566.59955 347.74203 566.8652 347.19516Q567.0683 346.7889 567.0683 345.9764L567.0683 345.5233ZM575.1933 349.1639L575.1933 348.1014Q574.3339 349.3358 572.8808 349.3358Q572.2402 349.3358 571.6777 349.0858Q571.1308 348.8358 570.84955 348.4608Q570.5839 348.0858 570.47455 347.55453Q570.3964 347.19516 570.3964 346.3983L570.3964 341.8983L571.6308 341.8983L571.6308 345.92953Q571.6308 346.8983 571.7089 347.2264Q571.8183 347.7108 572.1933 347.99203Q572.5683 348.2733 573.1308 348.2733Q573.6777 348.2733 574.16205 347.99203Q574.6464 347.69516 574.84955 347.2108Q575.0527 346.7264 575.0527 345.7889L575.0527 341.8983L576.28705 341.8983L576.28705 349.1639L575.1933 349.1639ZM578.4277 349.1639L578.4277 341.8983L579.53705 341.8983L579.53705 342.92953Q580.3339 341.74203 581.84955 341.74203Q582.5058 341.74203 583.0527 341.9764Q583.59955 342.2108 583.8652 342.6014Q584.1464 342.9764 584.2558 343.50766Q584.3339 343.8514 584.3339 344.69516L584.3339 349.1639L583.09955 349.1639L583.09955 344.74203Q583.09955 343.99203 582.9589 343.63266Q582.8183 343.25766 582.4433 343.0389Q582.0839 342.80453 581.5839 342.80453Q580.8027 342.80453 580.22455 343.30453Q579.66205 343.80453 579.66205 345.19516L579.66205 349.1639L578.4277 349.1639ZM591.16205 346.50766L592.3808 346.6639Q592.1777 347.9139 591.34955 348.63266Q590.53705 349.3358 589.34955 349.3358Q587.8652 349.3358 586.9589 348.36703Q586.0527 347.38266 586.0527 345.55453Q586.0527 344.38266 586.4433 343.50766Q586.8339 342.61703 587.6308 342.17953Q588.4277 341.74203 589.3652 341.74203Q590.53705 341.74203 591.28705 342.3358Q592.0527 342.92953 592.2558 344.0389L591.0683 344.2264Q590.8964 343.49203 590.4589 343.13266Q590.0214 342.75766 589.41205 342.75766Q588.47455 342.75766 587.8964 343.42953Q587.3183 344.0858 587.3183 345.5233Q587.3183 346.99203 587.8808 347.6639Q588.4433 348.32016 589.3339 348.32016Q590.0683 348.32016 590.5527 347.88266Q591.03705 347.42953 591.16205 346.50766ZM593.4277 349.1639L593.4277 339.1483L594.66205 339.1483L594.66205 342.74203Q595.5214 341.74203 596.8339 341.74203Q597.6464 341.74203 598.2402 342.07016Q598.8339 342.38266 599.0839 342.94516Q599.34955 343.49203 599.34955 344.57016L599.34955 349.1639L598.1152 349.1639L598.1152 344.57016Q598.1152 343.63266 597.7089 343.2264Q597.3183 342.80453 596.5839 342.80453Q596.03705 342.80453 595.5527 343.0858Q595.0683 343.36703 594.8652 343.8514Q594.66205 344.3358 594.66205 345.19516L594.66205 349.1639L593.4277 349.1639Z" fill-rule="nonzero"/><path fill="#9900ff" d="M485.5058 370.1639C485.5058 373.4776 482.81952 376.1639 479.5058 376.1639C476.1921 376.1639 473.5058 373.4776 473.5058 370.1639C473.5058 366.8502 476.1921 364.1639 479.5058 364.1639C482.81952 364.1639 485.5058 366.8502 485.5058 370.1639Z" fill-rule="nonzero"/><path fill="#000000" d="M493.49017 375.1639L497.33392 365.1483L498.7558 365.1483L502.86517 375.1639L501.34955 375.1639L500.17767 372.13266L495.99017 372.13266L494.89642 375.1639L493.49017 375.1639ZM496.3808 371.05453L499.77142 371.05453L498.72455 368.2733Q498.2558 367.00766 498.02142 366.19516Q497.83392 367.1639 497.47455 368.1014L496.3808 371.05453ZM508.14642 375.1639L508.14642 374.24203Q507.4433 375.3358 506.11517 375.3358Q505.24017 375.3358 504.5058 374.8514Q503.78705 374.36703 503.3808 373.50766Q502.99017 372.6483 502.99017 371.5389Q502.99017 370.4608 503.34955 369.57016Q503.70892 368.67953 504.42767 368.2108Q505.16205 367.74203 506.05267 367.74203Q506.70892 367.74203 507.22455 368.0233Q507.74017 368.2889 508.05267 368.74203L508.05267 365.1483L509.28705 365.1483L509.28705 375.1639L508.14642 375.1639ZM504.2558 371.5389Q504.2558 372.92953 504.83392 373.63266Q505.42767 374.32016 506.22455 374.32016Q507.03705 374.32016 507.59955 373.6639Q508.16205 372.99203 508.16205 371.6483Q508.16205 370.1483 507.58392 369.4608Q507.0058 368.75766 506.17767 368.75766Q505.34955 368.75766 504.80267 369.42953Q504.2558 370.1014 504.2558 371.5389ZM513.4433 375.1639L510.67767 367.8983L511.99017 367.8983L513.53705 372.25766Q513.78705 372.9608 514.0058 373.7108Q514.1777 373.13266 514.4589 372.3358L516.0839 367.8983L517.34955 367.8983L514.59955 375.1639L513.4433 375.1639ZM518.4433 366.55453L518.4433 365.1483L519.66205 365.1483L519.66205 366.55453L518.4433 366.55453ZM518.4433 375.1639L518.4433 367.8983L519.66205 367.8983L519.66205 375.1639L518.4433 375.1639ZM520.9433 372.99203L522.1464 372.80453Q522.2558 373.5389 522.72455 373.92953Q523.1933 374.32016 524.03705 374.32016Q524.8808 374.32016 525.28705 373.9764Q525.7089 373.63266 525.7089 373.1639Q525.7089 372.74203 525.3339 372.50766Q525.0839 372.3358 524.0839 372.0858Q522.72455 371.74203 522.1933 371.49203Q521.6777 371.24203 521.41205 370.80453Q521.1464 370.36703 521.1464 369.8358Q521.1464 369.3514 521.3652 368.94516Q521.5839 368.5233 521.97455 368.24203Q522.2558 368.0389 522.7402 367.8983Q523.2402 367.74203 523.8183 367.74203Q524.66205 367.74203 525.3027 367.99203Q525.9589 368.2264 526.2714 368.6483Q526.5839 369.07016 526.6933 369.7733L525.4902 369.94516Q525.41205 369.38266 525.0058 369.07016Q524.6152 368.75766 523.8964 368.75766Q523.0527 368.75766 522.6933 369.0389Q522.3339 369.30453 522.3339 369.69516Q522.3339 369.92953 522.47455 370.11703Q522.6308 370.32016 522.9589 370.44516Q523.1308 370.50766 524.03705 370.75766Q525.34955 371.11703 525.8652 371.3358Q526.3808 371.55453 526.66205 371.9764Q526.9589 372.3983 526.9589 373.0233Q526.9589 373.6483 526.59955 374.19516Q526.2558 374.7264 525.5683 375.0389Q524.8964 375.3358 524.03705 375.3358Q522.6308 375.3358 521.8808 374.74203Q521.1464 374.1483 520.9433 372.99203ZM527.97455 371.5389Q527.97455 369.5233 529.09955 368.5389Q530.0214 367.74203 531.3808 367.74203Q532.8652 367.74203 533.8183 368.7264Q534.7714 369.69516 534.7714 371.42953Q534.7714 372.8358 534.34955 373.6483Q533.9277 374.44516 533.1152 374.8983Q532.3183 375.3358 531.3808 375.3358Q529.84955 375.3358 528.91205 374.3514Q527.97455 373.36703 527.97455 371.5389ZM529.2402 371.5389Q529.2402 372.92953 529.84955 373.63266Q530.4589 374.32016 531.3808 374.32016Q532.28705 374.32016 532.8964 373.61703Q533.5058 372.9139 533.5058 371.49203Q533.5058 370.1483 532.8964 369.4608Q532.28705 368.75766 531.3808 368.75766Q530.4589 368.75766 529.84955 369.44516Q529.2402 370.13266 529.2402 371.5389ZM536.41205 375.1639L536.41205 367.8983L537.5214 367.8983L537.5214 369.00766Q537.9433 368.2264 538.3027 367.99203Q538.66205 367.74203 539.09955 367.74203Q539.72455 367.74203 540.3652 368.13266L539.9433 369.2733Q539.4902 369.00766 539.03705 369.00766Q538.6308 369.00766 538.3027 369.25766Q537.9902 369.49203 537.84955 369.92953Q537.6464 370.5858 537.6464 371.36703L537.6464 375.1639L536.41205 375.1639ZM540.9433 372.99203L542.1464 372.80453Q542.2558 373.5389 542.72455 373.92953Q543.1933 374.32016 544.03705 374.32016Q544.8808 374.32016 545.28705 373.9764Q545.7089 373.63266 545.7089 373.1639Q545.7089 372.74203 545.3339 372.50766Q545.0839 372.3358 544.0839 372.0858Q542.72455 371.74203 542.1933 371.49203Q541.6777 371.24203 541.41205 370.80453Q541.1464 370.36703 541.1464 369.8358Q541.1464 369.3514 541.3652 368.94516Q541.5839 368.5233 541.97455 368.24203Q542.2558 368.0389 542.7402 367.8983Q543.2402 367.74203 543.8183 367.74203Q544.66205 367.74203 545.3027 367.99203Q545.9589 368.2264 546.2714 368.6483Q546.5839 369.07016 546.6933 369.7733L545.4902 369.94516Q545.41205 369.38266 545.0058 369.07016Q544.6152 368.75766 543.8964 368.75766Q543.0527 368.75766 542.6933 369.0389Q542.3339 369.30453 542.3339 369.69516Q542.3339 369.92953 542.47455 370.11703Q542.6308 370.32016 542.9589 370.44516Q543.1308 370.50766 544.03705 370.75766Q545.34955 371.11703 545.8652 371.3358Q546.3808 371.55453 546.66205 371.9764Q546.9589 372.3983 546.9589 373.0233Q546.9589 373.6483 546.59955 374.19516Q546.2558 374.7264 545.5683 375.0389Q544.8964 375.3358 544.03705 375.3358Q542.6308 375.3358 541.8808 374.74203Q541.1464 374.1483 540.9433 372.99203Z" fill-rule="nonzero"/><path fill="#000000" d="M297.09375 43.55L297.09375 32.096874L299.40625 32.096874L299.40625 43.55L297.09375 43.55ZM304.09375 43.55L299.98438 32.096874L302.5 32.096874L305.40625 40.565624L308.20312 32.096874L310.65625 32.096874L306.5625 43.55L304.09375 43.55ZM312.1875 43.55L312.1875 32.096874L314.4375 32.096874L319.125 39.7375L319.125 32.096874L321.28125 32.096874L321.28125 43.55L318.95312 43.55L314.34375 36.08125L314.34375 43.55L312.1875 43.55ZM329.79688 37.784374L327.79688 37.425Q328.14062 36.221874 328.95312 35.64375Q329.78125 35.065624 331.39062 35.065624Q332.85938 35.065624 333.57812 35.409374Q334.29688 35.753124 334.59375 36.3Q334.89062 36.83125 334.89062 38.253124L334.85938 40.815624Q334.85938 41.909374 334.96875 42.440624Q335.07812 42.95625 335.35938 43.55L333.1875 43.55Q333.10938 43.33125 332.98438 42.89375Q332.92188 42.70625 332.90625 42.64375Q332.34375 43.190624 331.70312 43.471874Q331.0625 43.7375 330.32812 43.7375Q329.04688 43.7375 328.3125 43.05Q327.57812 42.346874 327.57812 41.284374Q327.57812 40.58125 327.90625 40.034374Q328.25 39.471874 328.84375 39.190624Q329.45312 38.89375 330.59375 38.675Q332.14062 38.378124 332.73438 38.128124L332.73438 37.909374Q332.73438 37.284374 332.42188 37.01875Q332.10938 36.7375 331.23438 36.7375Q330.65625 36.7375 330.32812 36.971874Q330.0 37.20625 329.79688 37.784374ZM332.73438 39.565624Q332.3125 39.70625 331.39062 39.909374Q330.48438 40.096874 330.20312 40.284374Q329.76562 40.58125 329.76562 41.05Q329.76562 41.51875 330.10938 41.8625Q330.45312 42.190624 330.98438 42.190624Q331.57812 42.190624 332.125 41.8Q332.51562 41.503124 332.64062 41.065624Q332.73438 40.784374 332.73438 40.003124L332.73438 39.565624ZM337.15625 43.55L337.15625 32.096874L339.34375 32.096874L339.34375 43.55L337.15625 43.55ZM341.15625 43.55L341.15625 32.096874L343.34375 32.096874L343.34375 43.55L341.15625 43.55ZM344.64062 39.284374Q344.64062 38.190624 345.17188 37.175Q345.71875 36.14375 346.70312 35.6125Q347.70312 35.065624 348.92188 35.065624Q350.79688 35.065624 352.0 36.284374Q353.20312 37.503124 353.20312 39.378124Q353.20312 41.253124 351.98438 42.503124Q350.78125 43.7375 348.9375 43.7375Q347.79688 43.7375 346.75 43.221874Q345.71875 42.70625 345.17188 41.70625Q344.64062 40.70625 344.64062 39.284374ZM346.89062 39.39375Q346.89062 40.628124 347.46875 41.284374Q348.0625 41.940624 348.92188 41.940624Q349.78125 41.940624 350.35938 41.284374Q350.95312 40.628124 350.95312 39.378124Q350.95312 38.159374 350.35938 37.503124Q349.78125 36.846874 348.92188 36.846874Q348.0625 36.846874 347.46875 37.503124Q346.89062 38.159374 346.89062 39.39375ZM362.39062 37.70625L360.21875 38.096874Q360.10938 37.440624 359.71875 37.1125Q359.34375 36.784374 358.71875 36.784374Q357.90625 36.784374 357.40625 37.3625Q356.92188 37.925 356.92188 39.253124Q356.92188 40.721874 357.42188 41.33125Q357.92188 41.940624 358.75 41.940624Q359.375 41.940624 359.76562 41.596874Q360.17188 41.2375 360.34375 40.3625L362.5 40.7375Q362.15625 42.221874 361.20312 42.9875Q360.25 43.7375 358.65625 43.7375Q356.82812 43.7375 355.75 42.596874Q354.67188 41.440624 354.67188 39.409374Q354.67188 37.346874 355.75 36.20625Q356.84375 35.065624 358.6875 35.065624Q360.20312 35.065624 361.09375 35.721874Q362.0 36.3625 362.39062 37.70625ZM365.79688 37.784374L363.79688 37.425Q364.14062 36.221874 364.95312 35.64375Q365.78125 35.065624 367.39062 35.065624Q368.85938 35.065624 369.57812 35.409374Q370.29688 35.753124 370.59375 36.3Q370.89062 36.83125 370.89062 38.253124L370.85938 40.815624Q370.85938 41.909374 370.96875 42.440624Q371.07812 42.95625 371.35938 43.55L369.1875 43.55Q369.10938 43.33125 368.98438 42.89375Q368.92188 42.70625 368.90625 42.64375Q368.34375 43.190624 367.70312 43.471874Q367.0625 43.7375 366.32812 43.7375Q365.04688 43.7375 364.3125 43.05Q363.57812 42.346874 363.57812 41.284374Q363.57812 40.58125 363.90625 40.034374Q364.25 39.471874 364.84375 39.190624Q365.45312 38.89375 366.59375 38.675Q368.14062 38.378124 368.73438 38.128124L368.73438 37.909374Q368.73438 37.284374 368.42188 37.01875Q368.10938 36.7375 367.23438 36.7375Q366.65625 36.7375 366.32812 36.971874Q366.0 37.20625 365.79688 37.784374ZM368.73438 39.565624Q368.3125 39.70625 367.39062 39.909374Q366.48438 40.096874 366.20312 40.284374Q365.76562 40.58125 365.76562 41.05Q365.76562 41.51875 366.10938 41.8625Q366.45312 42.190624 366.98438 42.190624Q367.57812 42.190624 368.125 41.8Q368.51562 41.503124 368.64062 41.065624Q368.73438 40.784374 368.73438 40.003124L368.73438 39.565624ZM376.95312 35.253124L376.95312 37.003124L375.45312 37.003124L375.45312 40.346874Q375.45312 41.3625 375.5 41.534374Q375.54688 41.690624 375.6875 41.8Q375.84375 41.909374 376.0625 41.909374Q376.375 41.909374 376.95312 41.70625L377.14062 43.409374Q376.375 43.7375 375.40625 43.7375Q374.8125 43.7375 374.32812 43.534374Q373.85938 43.33125 373.625 43.01875Q373.40625 42.70625 373.32812 42.159374Q373.25 41.784374 373.25 40.6125L373.25 37.003124L372.25 37.003124L372.25 35.253124L373.25 35.253124L373.25 33.596874L375.45312 32.315624L375.45312 35.253124L376.95312 35.253124ZM378.15625 34.128124L378.15625 32.096874L380.34375 32.096874L380.34375 34.128124L378.15625 34.128124ZM378.15625 43.55L378.15625 35.253124L380.34375 35.253124L380.34375 43.55L378.15625 43.55ZM381.64062 39.284374Q381.64062 38.190624 382.17188 37.175Q382.71875 36.14375 383.70312 35.6125Q384.70312 35.065624 385.92188 35.065624Q387.79688 35.065624 389.0 36.284374Q390.20312 37.503124 390.20312 39.378124Q390.20312 41.253124 388.98438 42.503124Q387.78125 43.7375 385.9375 43.7375Q384.79688 43.7375 383.75 43.221874Q382.71875 42.70625 382.17188 41.70625Q381.64062 40.70625 381.64062 39.284374ZM383.89062 39.39375Q383.89062 40.628124 384.46875 41.284374Q385.0625 41.940624 385.92188 41.940624Q386.78125 41.940624 387.35938 41.284374Q387.95312 40.628124 387.95312 39.378124Q387.95312 38.159374 387.35938 37.503124Q386.78125 36.846874 385.92188 36.846874Q385.0625 36.846874 384.46875 37.503124Q383.89062 38.159374 383.89062 39.39375ZM399.70312 43.55L397.5 43.55L397.5 39.315624Q397.5 37.971874 397.35938 37.58125Q397.21875 37.175 396.90625 36.95625Q396.59375 36.7375 396.14062 36.7375Q395.57812 36.7375 395.125 37.05Q394.67188 37.3625 394.5 37.878124Q394.32812 38.39375 394.32812 39.784374L394.32812 43.55L392.14062 43.55L392.14062 35.253124L394.17188 35.253124L394.17188 36.471874Q395.26562 35.065624 396.90625 35.065624Q397.64062 35.065624 398.23438 35.33125Q398.84375 35.58125 399.14062 35.9875Q399.45312 36.39375 399.57812 36.909374Q399.70312 37.425 399.70312 38.39375L399.70312 43.55Z" fill-rule="nonzero"/></svg>