<svg version="1.1" viewBox="0.0 0.0 693.0 491.0" fill="none" stroke="none" stroke-linecap="square" stroke-miterlimit="10" width="693" height="491" xmlns:xlink="http://www.w3.org/1999/xlink" xmlns="http://www.w3.org/2000/svg"><path fill="#ffffff" fill-opacity="0.0" d="M0 0L693.0 0L693.0 491.0L0 491.0L0 0Z" fill-rule="nonzero"/><path fill="#fbbc04" d="M242.85513 59.916668C330.9156 59.916668 408.96106 116.62 436.17322 200.37048L242.85513 263.18332Z" fill-rule="nonzero"/><path fill="#38761d" d="M436.17322 200.37048C442.76453 220.65643 446.1218 241.85342 446.1218 263.18332L242.85513 263.18332Z" fill-rule="nonzero"/><path fill="#e06666" d="M446.1218 263.18332C446.1218 328.25 414.97235 389.38428 362.33228 427.62952L242.85513 263.18332Z" fill-rule="nonzero"/><path fill="#9900ff" d="M49.537052 200.37048C76.74923 116.62 154.79468 59.916668 242.85513 59.916668L242.85513 263.18332Z" fill-rule="nonzero"/><path fill="#ff0000" d="M49.537052 325.9962C36.272278 285.17142 36.272278 241.19525 49.537052 200.37048L242.85513 263.18332Z" fill-rule="nonzero"/><path fill="#4285f4" d="M58.93396 349.73007C55.307507 342.02347 52.169014 334.09653 49.537052 325.9962L242.85513 263.18332Z" fill-rule="nonzero"/><path fill="#ffd966" d="M94.680115 402.32895C80.07879 386.7801 68.01579 369.02994 58.93396 349.73007L242.85513 263.18332Z" fill-rule="nonzero"/><path fill="#999999" d="M123.37799 427.62952C113.03788 420.11697 103.42937 411.64597 94.680115 402.32895L242.85513 263.18332Z" fill-rule="nonzero"/><path fill="#990000" d="M362.33228 427.62952C291.08987 479.39017 194.62039 479.39017 123.37799 427.62952L242.85513 263.18332Z" fill-rule="nonzero"/><path fill="#000000" d="M321.60696 140.7748L321.60696 141.9623L314.98196 141.9623Q314.96634 141.5248 315.1226 141.10292Q315.3882 140.43105 315.9351 139.7748Q316.4976 139.11855 317.54446 138.25917Q319.1851 136.91542 319.7476 136.13417Q320.3257 135.35292 320.3257 134.6498Q320.3257 133.91542 319.79446 133.41542Q319.27884 132.91542 318.4507 132.91542Q317.5601 132.91542 317.0132 133.44667Q316.48196 133.97792 316.48196 134.93105L315.21634 134.79042Q315.34134 133.38417 316.1851 132.6498Q317.04446 131.8998 318.46634 131.8998Q319.91946 131.8998 320.7476 132.69667Q321.59134 133.49355 321.59134 134.68105Q321.59134 135.29042 321.34134 135.86855Q321.10696 136.44667 320.52884 137.0873Q319.96634 137.72792 318.6382 138.85292Q317.52884 139.7748 317.21634 140.11855Q316.90384 140.44667 316.7007 140.7748L321.60696 140.7748ZM323.1382 137.0248Q323.1382 135.24355 323.4976 134.16542Q323.8726 133.07167 324.59134 132.49355Q325.3101 131.8998 326.40384 131.8998Q327.21634 131.8998 327.8257 132.22792Q328.4351 132.55605 328.8257 133.16542Q329.23196 133.7748 329.4507 134.6498Q329.66946 135.5248 329.66946 137.0248Q329.66946 138.79042 329.3101 139.86855Q328.9507 140.94667 328.23196 141.54042Q327.5132 142.13417 326.40384 142.13417Q324.96634 142.13417 324.1382 141.0873Q323.1382 139.8373 323.1382 137.0248ZM324.40384 137.0248Q324.40384 139.49355 324.98196 140.30605Q325.5601 141.11855 326.40384 141.11855Q327.2632 141.11855 327.84134 140.30605Q328.41946 139.47792 328.41946 137.0248Q328.41946 134.54042 327.84134 133.72792Q327.2632 132.91542 326.3882 132.91542Q325.54446 132.91542 325.04446 133.63417Q324.40384 134.55605 324.40384 137.0248ZM331.8257 141.9623L331.8257 140.55605L333.23196 140.55605L333.23196 141.9623L331.8257 141.9623ZM335.1382 137.0248Q335.1382 135.24355 335.4976 134.16542Q335.8726 133.07167 336.59134 132.49355Q337.3101 131.8998 338.40384 131.8998Q339.21634 131.8998 339.8257 132.22792Q340.4351 132.55605 340.8257 133.16542Q341.23196 133.7748 341.4507 134.6498Q341.66946 135.5248 341.66946 137.0248Q341.66946 138.79042 341.3101 139.86855Q340.9507 140.94667 340.23196 141.54042Q339.5132 142.13417 338.40384 142.13417Q336.96634 142.13417 336.1382 141.0873Q335.1382 139.8373 335.1382 137.0248ZM336.40384 137.0248Q336.40384 139.49355 336.98196 140.30605Q337.5601 141.11855 338.40384 141.11855Q339.2632 141.11855 339.84134 140.30605Q340.41946 139.47792 340.41946 137.0248Q340.41946 134.54042 339.84134 133.72792Q339.2632 132.91542 338.3882 132.91542Q337.54446 132.91542 337.04446 133.63417Q336.40384 134.55605 336.40384 137.0248ZM343.3726 134.35292Q343.3726 133.2748 343.90384 132.5248Q344.4507 131.7748 345.48196 131.7748Q346.41946 131.7748 347.02884 132.44667Q347.65384 133.11855 347.65384 134.41542Q347.65384 135.69667 347.02884 136.38417Q346.40384 137.07167 345.4976 137.07167Q344.59134 137.07167 343.98196 136.3998Q343.3726 135.7123 343.3726 134.35292ZM345.5132 132.61855Q345.0601 132.61855 344.7476 133.0248Q344.4507 133.41542 344.4507 134.4623Q344.4507 135.43105 344.7476 135.82167Q345.0601 136.2123 345.5132 136.2123Q345.98196 136.2123 346.27884 135.82167Q346.59134 135.43105 346.59134 134.36855Q346.59134 133.3998 346.27884 133.00917Q345.96634 132.61855 345.5132 132.61855ZM345.5132 142.3373L350.9976 131.7748L351.9976 131.7748L346.54446 142.3373L345.5132 142.3373ZM349.85696 139.60292Q349.85696 138.5248 350.3882 137.79042Q350.9351 137.04042 351.96634 137.04042Q352.90384 137.04042 353.52884 137.7123Q354.15384 138.38417 354.15384 139.68105Q354.15384 140.9623 353.52884 141.6498Q352.90384 142.3373 351.96634 142.3373Q351.0601 142.3373 350.4507 141.66542Q349.85696 140.97792 349.85696 139.60292ZM351.9976 137.88417Q351.52884 137.88417 351.23196 138.29042Q350.9351 138.68105 350.9351 139.72792Q350.9351 140.69667 351.23196 141.0873Q351.54446 141.47792 351.9976 141.47792Q352.46634 141.47792 352.7632 141.0873Q353.0757 140.69667 353.0757 139.63417Q353.0757 138.66542 352.7632 138.2748Q352.46634 137.88417 351.9976 137.88417Z" fill-rule="nonzero"/><path fill="#000000" d="M387.17166 240.25826L388.46854 240.14888Q388.60916 241.08638 389.1248 241.57076Q389.65604 242.0395 390.3904 242.0395Q391.28104 242.0395 391.8904 241.36763Q392.5154 240.69576 392.5154 239.602Q392.5154 238.5395 391.92166 237.93013Q391.3279 237.32076 390.3748 237.32076Q389.78104 237.32076 389.29666 237.602Q388.8279 237.86763 388.54666 238.2895L387.3904 238.14888L388.35916 232.99263L393.34354 232.99263L393.34354 234.18013L389.34354 234.18013L388.8123 236.86763Q389.71854 236.24263 390.7029 236.24263Q392.0154 236.24263 392.90604 237.14888Q393.8123 238.05513 393.8123 239.49263Q393.8123 240.852 393.03104 241.83638Q392.0623 243.05513 390.3904 243.05513Q389.03104 243.05513 388.15604 242.2895Q387.29666 241.52388 387.17166 240.25826ZM395.85916 242.88326L395.85916 241.477L397.2654 241.477L397.2654 242.88326L395.85916 242.88326ZM399.17166 237.94576Q399.17166 236.1645 399.53104 235.08638Q399.90604 233.99263 400.6248 233.4145Q401.34354 232.82076 402.4373 232.82076Q403.2498 232.82076 403.85916 233.14888Q404.46854 233.477 404.85916 234.08638Q405.2654 234.69576 405.48416 235.57076Q405.7029 236.44576 405.7029 237.94576Q405.7029 239.71138 405.34354 240.7895Q404.98416 241.86763 404.2654 242.46138Q403.54666 243.05513 402.4373 243.05513Q400.9998 243.05513 400.17166 242.00826Q399.17166 240.75826 399.17166 237.94576ZM400.4373 237.94576Q400.4373 240.4145 401.0154 241.227Q401.59354 242.0395 402.4373 242.0395Q403.29666 242.0395 403.8748 241.227Q404.4529 240.39888 404.4529 237.94576Q404.4529 235.46138 403.8748 234.64888Q403.29666 233.83638 402.42166 233.83638Q401.5779 233.83638 401.0779 234.55513Q400.4373 235.477 400.4373 237.94576ZM407.40604 235.27388Q407.40604 234.19576 407.9373 233.44576Q408.48416 232.69576 409.5154 232.69576Q410.4529 232.69576 411.0623 233.36763Q411.6873 234.0395 411.6873 235.33638Q411.6873 236.61763 411.0623 237.30513Q410.4373 237.99263 409.53104 237.99263Q408.6248 237.99263 408.0154 237.32076Q407.40604 236.63326 407.40604 235.27388ZM409.54666 233.5395Q409.09354 233.5395 408.78104 233.94576Q408.48416 234.33638 408.48416 235.38326Q408.48416 236.352 408.78104 236.74263Q409.09354 237.13326 409.54666 237.13326Q410.0154 237.13326 410.3123 236.74263Q410.6248 236.352 410.6248 235.2895Q410.6248 234.32076 410.3123 233.93013Q409.9998 233.5395 409.54666 233.5395ZM409.54666 243.25826L415.03104 232.69576L416.03104 232.69576L410.5779 243.25826L409.54666 243.25826ZM413.8904 240.52388Q413.8904 239.44576 414.42166 238.71138Q414.96854 237.96138 415.9998 237.96138Q416.9373 237.96138 417.5623 238.63326Q418.1873 239.30513 418.1873 240.602Q418.1873 241.88326 417.5623 242.57076Q416.9373 243.25826 415.9998 243.25826Q415.09354 243.25826 414.48416 242.58638Q413.8904 241.89888 413.8904 240.52388ZM416.03104 238.80513Q415.5623 238.80513 415.2654 239.21138Q414.96854 239.602 414.96854 240.64888Q414.96854 241.61763 415.2654 242.00826Q415.5779 242.39888 416.03104 242.39888Q416.4998 242.39888 416.79666 242.00826Q417.10916 241.61763 417.10916 240.55513Q417.10916 239.58638 416.79666 239.19576Q416.4998 238.80513 416.03104 238.80513Z" fill-rule="nonzero"/><path fill="#000000" d="M365.60706 338.25998L364.37268 338.25998L364.37268 330.41623Q363.93518 330.8381 363.2008 331.2756Q362.48206 331.69748 361.91956 331.9006L361.91956 330.7131Q362.9508 330.22873 363.71643 329.54123Q364.49768 328.85373 364.81018 328.19748L365.60706 328.19748L365.60706 338.25998ZM368.96643 335.63498L370.2633 335.5256Q370.40393 336.4631 370.91956 336.94748Q371.4508 337.41623 372.18518 337.41623Q373.0758 337.41623 373.68518 336.74435Q374.31018 336.07248 374.31018 334.97873Q374.31018 333.91623 373.71643 333.30685Q373.12268 332.69748 372.16956 332.69748Q371.5758 332.69748 371.09143 332.97873Q370.62268 333.24435 370.34143 333.66623L369.18518 333.5256L370.15393 328.36935L375.1383 328.36935L375.1383 329.55685L371.1383 329.55685L370.60706 332.24435Q371.5133 331.61935 372.49768 331.61935Q373.81018 331.61935 374.7008 332.5256Q375.60706 333.43185 375.60706 334.86935Q375.60706 336.22873 374.8258 337.2131Q373.85706 338.43185 372.18518 338.43185Q370.8258 338.43185 369.9508 337.66623Q369.09143 336.9006 368.96643 335.63498ZM377.65393 338.25998L377.65393 336.85373L379.06018 336.85373L379.06018 338.25998L377.65393 338.25998ZM380.96643 333.32248Q380.96643 331.54123 381.3258 330.4631Q381.7008 329.36935 382.41956 328.79123Q383.1383 328.19748 384.23206 328.19748Q385.04456 328.19748 385.65393 328.5256Q386.2633 328.85373 386.65393 329.4631Q387.06018 330.07248 387.27893 330.94748Q387.49768 331.82248 387.49768 333.32248Q387.49768 335.0881 387.1383 336.16623Q386.77893 337.24435 386.06018 337.8381Q385.34143 338.43185 384.23206 338.43185Q382.79456 338.43185 381.96643 337.38498Q380.96643 336.13498 380.96643 333.32248ZM382.23206 333.32248Q382.23206 335.79123 382.81018 336.60373Q383.3883 337.41623 384.23206 337.41623Q385.09143 337.41623 385.66956 336.60373Q386.24768 335.7756 386.24768 333.32248Q386.24768 330.8381 385.66956 330.0256Q385.09143 329.2131 384.21643 329.2131Q383.37268 329.2131 382.87268 329.93185Q382.23206 330.85373 382.23206 333.32248ZM389.2008 330.6506Q389.2008 329.57248 389.73206 328.82248Q390.27893 328.07248 391.31018 328.07248Q392.24768 328.07248 392.85706 328.74435Q393.48206 329.41623 393.48206 330.7131Q393.48206 331.99435 392.85706 332.68185Q392.23206 333.36935 391.3258 333.36935Q390.41956 333.36935 389.81018 332.69748Q389.2008 332.00998 389.2008 330.6506ZM391.34143 328.91623Q390.8883 328.91623 390.5758 329.32248Q390.27893 329.7131 390.27893 330.75998Q390.27893 331.72873 390.5758 332.11935Q390.8883 332.50998 391.34143 332.50998Q391.81018 332.50998 392.10706 332.11935Q392.41956 331.72873 392.41956 330.66623Q392.41956 329.69748 392.10706 329.30685Q391.79456 328.91623 391.34143 328.91623ZM391.34143 338.63498L396.8258 328.07248L397.8258 328.07248L392.37268 338.63498L391.34143 338.63498ZM395.68518 335.9006Q395.68518 334.82248 396.21643 334.0881Q396.7633 333.3381 397.79456 333.3381Q398.73206 333.3381 399.35706 334.00998Q399.98206 334.68185 399.98206 335.97873Q399.98206 337.25998 399.35706 337.94748Q398.73206 338.63498 397.79456 338.63498Q396.8883 338.63498 396.27893 337.9631Q395.68518 337.2756 395.68518 335.9006ZM397.8258 334.18185Q397.35706 334.18185 397.06018 334.5881Q396.7633 334.97873 396.7633 336.0256Q396.7633 336.99435 397.06018 337.38498Q397.37268 337.7756 397.8258 337.7756Q398.29456 337.7756 398.59143 337.38498Q398.90393 336.99435 398.90393 335.93185Q398.90393 334.9631 398.59143 334.57248Q398.29456 334.18185 397.8258 334.18185Z" fill-rule="nonzero"/><path fill="#000000" d="M229.90201 437.89542L229.90201 439.08292L223.27701 439.08292Q223.26138 438.64542 223.41763 438.22354Q223.68326 437.55167 224.23013 436.89542Q224.79263 436.23917 225.83951 435.3798Q227.48013 434.03604 228.04263 433.2548Q228.62076 432.47354 228.62076 431.77042Q228.62076 431.03604 228.08951 430.53604Q227.57388 430.03604 226.74576 430.03604Q225.85513 430.03604 225.30826 430.5673Q224.77701 431.09854 224.77701 432.05167L223.51138 431.91104Q223.63638 430.5048 224.48013 429.77042Q225.33951 429.02042 226.76138 429.02042Q228.21451 429.02042 229.04263 429.8173Q229.88638 430.61417 229.88638 431.80167Q229.88638 432.41104 229.63638 432.98917Q229.40201 433.5673 228.82388 434.20792Q228.26138 434.84854 226.93326 435.97354Q225.82388 436.89542 225.51138 437.23917Q225.19888 437.5673 224.99576 437.89542L229.90201 437.89542ZM231.43326 434.14542Q231.43326 432.36417 231.79263 431.28604Q232.16763 430.1923 232.88638 429.61417Q233.60513 429.02042 234.69888 429.02042Q235.51138 429.02042 236.12076 429.34854Q236.73013 429.67667 237.12076 430.28604Q237.52701 430.89542 237.74576 431.77042Q237.96451 432.64542 237.96451 434.14542Q237.96451 435.91104 237.60513 436.98917Q237.24576 438.0673 236.52701 438.66104Q235.80826 439.2548 234.69888 439.2548Q233.26138 439.2548 232.43326 438.20792Q231.43326 436.95792 231.43326 434.14542ZM232.69888 434.14542Q232.69888 436.61417 233.27701 437.42667Q233.85513 438.23917 234.69888 438.23917Q235.55826 438.23917 236.13638 437.42667Q236.71451 436.59854 236.71451 434.14542Q236.71451 431.66104 236.13638 430.84854Q235.55826 430.03604 234.68326 430.03604Q233.83951 430.03604 233.33951 430.7548Q232.69888 431.67667 232.69888 434.14542ZM240.12076 439.08292L240.12076 437.67667L241.52701 437.67667L241.52701 439.08292L240.12076 439.08292ZM243.43326 434.14542Q243.43326 432.36417 243.79263 431.28604Q244.16763 430.1923 244.88638 429.61417Q245.60513 429.02042 246.69888 429.02042Q247.51138 429.02042 248.12076 429.34854Q248.73013 429.67667 249.12076 430.28604Q249.52701 430.89542 249.74576 431.77042Q249.96451 432.64542 249.96451 434.14542Q249.96451 435.91104 249.60513 436.98917Q249.24576 438.0673 248.52701 438.66104Q247.80826 439.2548 246.69888 439.2548Q245.26138 439.2548 244.43326 438.20792Q243.43326 436.95792 243.43326 434.14542ZM244.69888 434.14542Q244.69888 436.61417 245.27701 437.42667Q245.85513 438.23917 246.69888 438.23917Q247.55826 438.23917 248.13638 437.42667Q248.71451 436.59854 248.71451 434.14542Q248.71451 431.66104 248.13638 430.84854Q247.55826 430.03604 246.68326 430.03604Q245.83951 430.03604 245.33951 430.7548Q244.69888 431.67667 244.69888 434.14542ZM251.66763 431.47354Q251.66763 430.39542 252.19888 429.64542Q252.74576 428.89542 253.77701 428.89542Q254.71451 428.89542 255.32388 429.5673Q255.94888 430.23917 255.94888 431.53604Q255.94888 432.8173 255.32388 433.5048Q254.69888 434.1923 253.79263 434.1923Q252.88638 434.1923 252.27701 433.52042Q251.66763 432.83292 251.66763 431.47354ZM253.80826 429.73917Q253.35513 429.73917 253.04263 430.14542Q252.74576 430.53604 252.74576 431.58292Q252.74576 432.55167 253.04263 432.9423Q253.35513 433.33292 253.80826 433.33292Q254.27701 433.33292 254.57388 432.9423Q254.88638 432.55167 254.88638 431.48917Q254.88638 430.52042 254.57388 430.1298Q254.26138 429.73917 253.80826 429.73917ZM253.80826 439.45792L259.29263 428.89542L260.29263 428.89542L254.83951 439.45792L253.80826 439.45792ZM258.152 436.72354Q258.152 435.64542 258.68326 434.91104Q259.23013 434.16104 260.26138 434.16104Q261.19888 434.16104 261.82388 434.83292Q262.44888 435.5048 262.44888 436.80167Q262.44888 438.08292 261.82388 438.77042Q261.19888 439.45792 260.26138 439.45792Q259.35513 439.45792 258.74576 438.78604Q258.152 438.09854 258.152 436.72354ZM260.29263 435.0048Q259.82388 435.0048 259.527 435.41104Q259.23013 435.80167 259.23013 436.84854Q259.23013 437.8173 259.527 438.20792Q259.8395 438.59854 260.29263 438.59854Q260.76138 438.59854 261.05826 438.20792Q261.37076 437.8173 261.37076 436.7548Q261.37076 435.78604 261.05826 435.39542Q260.76138 435.0048 260.29263 435.0048Z" fill-rule="nonzero"/><path fill="#000000" d="M97.35222 353.96133L98.64909 353.85196Q98.78972 354.78946 99.30534 355.27383Q99.83659 355.74258 100.57097 355.74258Q101.46159 355.74258 102.07097 355.0707Q102.69597 354.39883 102.69597 353.30508Q102.69597 352.24258 102.10222 351.6332Q101.50847 351.02383 100.55534 351.02383Q99.96159 351.02383 99.47722 351.30508Q99.00847 351.5707 98.72722 351.99258L97.57097 351.85196L98.53972 346.6957L103.52409 346.6957L103.52409 347.8832L99.52409 347.8832L98.99284 350.5707Q99.89909 349.9457 100.88347 349.9457Q102.19597 349.9457 103.08659 350.85196Q103.99284 351.7582 103.99284 353.1957Q103.99284 354.55508 103.21159 355.53946Q102.24284 356.7582 100.57097 356.7582Q99.21159 356.7582 98.33659 355.99258Q97.47722 355.22696 97.35222 353.96133ZM106.03972 356.58633L106.03972 355.18008L107.44597 355.18008L107.44597 356.58633L106.03972 356.58633ZM109.35222 351.64883Q109.35222 349.86758 109.71159 348.78946Q110.08659 347.6957 110.80534 347.11758Q111.52409 346.52383 112.61784 346.52383Q113.43034 346.52383 114.03972 346.85196Q114.64909 347.18008 115.03972 347.78946Q115.44597 348.39883 115.66472 349.27383Q115.88347 350.14883 115.88347 351.64883Q115.88347 353.41446 115.52409 354.49258Q115.16472 355.5707 114.44597 356.16446Q113.72722 356.7582 112.61784 356.7582Q111.18034 356.7582 110.35222 355.71133Q109.35222 354.46133 109.35222 351.64883ZM110.61784 351.64883Q110.61784 354.11758 111.19597 354.93008Q111.77409 355.74258 112.61784 355.74258Q113.47722 355.74258 114.05534 354.93008Q114.63347 354.10196 114.63347 351.64883Q114.63347 349.16446 114.05534 348.35196Q113.47722 347.53946 112.60222 347.53946Q111.75847 347.53946 111.25847 348.2582Q110.61784 349.18008 110.61784 351.64883ZM117.58659 348.97696Q117.58659 347.89883 118.11784 347.14883Q118.66472 346.39883 119.69597 346.39883Q120.63347 346.39883 121.24284 347.0707Q121.86784 347.74258 121.86784 349.03946Q121.86784 350.3207 121.24284 351.0082Q120.61784 351.6957 119.71159 351.6957Q118.80534 351.6957 118.19597 351.02383Q117.58659 350.33633 117.58659 348.97696ZM119.72722 347.24258Q119.27409 347.24258 118.96159 347.64883Q118.66472 348.03946 118.66472 349.08633Q118.66472 350.05508 118.96159 350.4457Q119.27409 350.83633 119.72722 350.83633Q120.19597 350.83633 120.49284 350.4457Q120.80534 350.05508 120.80534 348.99258Q120.80534 348.02383 120.49284 347.6332Q120.18034 347.24258 119.72722 347.24258ZM119.72722 356.96133L125.21159 346.39883L126.21159 346.39883L120.75847 356.96133L119.72722 356.96133ZM124.07097 354.22696Q124.07097 353.14883 124.60222 352.41446Q125.14909 351.66446 126.18034 351.66446Q127.11784 351.66446 127.74284 352.33633Q128.36784 353.0082 128.36784 354.30508Q128.36784 355.58633 127.74284 356.27383Q127.11784 356.96133 126.18034 356.96133Q125.27409 356.96133 124.66472 356.28946Q124.07097 355.60196 124.07097 354.22696ZM126.21159 352.5082Q125.74284 352.5082 125.44597 352.91446Q125.14909 353.30508 125.14909 354.35196Q125.14909 355.3207 125.44597 355.71133Q125.75847 356.10196 126.21159 356.10196Q126.68034 356.10196 126.97722 355.71133Q127.28972 355.3207 127.28972 354.2582Q127.28972 353.28946 126.97722 352.89883Q126.68034 352.5082 126.21159 352.5082Z" fill-rule="nonzero"/><path fill="#000000" d="M67.117325 268.18332L65.88295 268.18332L65.88295 260.33957Q65.44545 260.76144 64.711075 261.19894Q63.99233 261.62082 63.42983 261.82394L63.42983 260.63644Q64.461075 260.15207 65.2267 259.46457Q66.00795 258.77707 66.32045 258.12082L67.117325 258.12082L67.117325 268.18332ZM70.4767 263.24582Q70.4767 261.46457 70.836075 260.38644Q71.211075 259.2927 71.929825 258.71457Q72.648575 258.12082 73.742325 258.12082Q74.554825 258.12082 75.1642 258.44894Q75.773575 258.77707 76.1642 259.38644Q76.57045 259.99582 76.7892 260.87082Q77.00795 261.74582 77.00795 263.24582Q77.00795 265.01144 76.648575 266.08957Q76.2892 267.1677 75.57045 267.76144Q74.8517 268.3552 73.742325 268.3552Q72.304825 268.3552 71.4767 267.30832Q70.4767 266.05832 70.4767 263.24582ZM71.742325 263.24582Q71.742325 265.71457 72.32045 266.52707Q72.898575 267.33957 73.742325 267.33957Q74.6017 267.33957 75.179825 266.52707Q75.75795 265.69894 75.75795 263.24582Q75.75795 260.76144 75.179825 259.94894Q74.6017 259.13644 73.7267 259.13644Q72.88295 259.13644 72.38295 259.8552Q71.742325 260.77707 71.742325 263.24582ZM79.1642 268.18332L79.1642 266.77707L80.57045 266.77707L80.57045 268.18332L79.1642 268.18332ZM82.4767 263.24582Q82.4767 261.46457 82.836075 260.38644Q83.211075 259.2927 83.929825 258.71457Q84.648575 258.12082 85.742325 258.12082Q86.554825 258.12082 87.1642 258.44894Q87.773575 258.77707 88.1642 259.38644Q88.57045 259.99582 88.7892 260.87082Q89.00795 261.74582 89.00795 263.24582Q89.00795 265.01144 88.648575 266.08957Q88.2892 267.1677 87.57045 267.76144Q86.8517 268.3552 85.742325 268.3552Q84.304825 268.3552 83.4767 267.30832Q82.4767 266.05832 82.4767 263.24582ZM83.742325 263.24582Q83.742325 265.71457 84.32045 266.52707Q84.898575 267.33957 85.742325 267.33957Q86.6017 267.33957 87.179825 266.52707Q87.75795 265.69894 87.75795 263.24582Q87.75795 260.76144 87.179825 259.94894Q86.6017 259.13644 85.7267 259.13644Q84.88295 259.13644 84.38295 259.8552Q83.742325 260.77707 83.742325 263.24582ZM90.711075 260.57394Q90.711075 259.49582 91.242325 258.74582Q91.7892 257.99582 92.82045 257.99582Q93.75795 257.99582 94.367325 258.6677Q94.992325 259.33957 94.992325 260.63644Q94.992325 261.9177 94.367325 262.6052Q93.742325 263.2927 92.836075 263.2927Q91.929825 263.2927 91.32045 262.62082Q90.711075 261.93332 90.711075 260.57394ZM92.8517 258.83957Q92.398575 258.83957 92.086075 259.24582Q91.7892 259.63644 91.7892 260.68332Q91.7892 261.65207 92.086075 262.0427Q92.398575 262.43332 92.8517 262.43332Q93.32045 262.43332 93.617325 262.0427Q93.929825 261.65207 93.929825 260.58957Q93.929825 259.62082 93.617325 259.2302Q93.304825 258.83957 92.8517 258.83957ZM92.8517 268.55832L98.336075 257.99582L99.336075 257.99582L93.88295 268.55832L92.8517 268.55832ZM97.19545 265.82394Q97.19545 264.74582 97.7267 264.01144Q98.273575 263.26144 99.304825 263.26144Q100.242325 263.26144 100.867325 263.93332Q101.492325 264.6052 101.492325 265.90207Q101.492325 267.18332 100.867325 267.87082Q100.242325 268.55832 99.304825 268.55832Q98.398575 268.55832 97.7892 267.88644Q97.19545 267.19894 97.19545 265.82394ZM99.336075 264.1052Q98.867325 264.1052 98.57045 264.51144Q98.273575 264.90207 98.273575 265.94894Q98.273575 266.9177 98.57045 267.30832Q98.88295 267.69894 99.336075 267.69894Q99.804825 267.69894 100.1017 267.30832Q100.4142 266.9177 100.4142 265.8552Q100.4142 264.88644 100.1017 264.49582Q99.804825 264.1052 99.336075 264.1052Z" fill-rule="nonzero"/><path fill="#000000" d="M138.19707 140.7748L138.19707 141.9623L131.57207 141.9623Q131.55644 141.5248 131.71269 141.10292Q131.97832 140.43105 132.52519 139.7748Q133.08769 139.11855 134.13457 138.25917Q135.77519 136.91542 136.33769 136.13417Q136.91582 135.35292 136.91582 134.6498Q136.91582 133.91542 136.38457 133.41542Q135.86894 132.91542 135.04082 132.91542Q134.15019 132.91542 133.60332 133.44667Q133.07207 133.97792 133.07207 134.93105L131.80644 134.79042Q131.93144 133.38417 132.77519 132.6498Q133.63457 131.8998 135.05644 131.8998Q136.50957 131.8998 137.33769 132.69667Q138.18144 133.49355 138.18144 134.68105Q138.18144 135.29042 137.93144 135.86855Q137.69707 136.44667 137.11894 137.0873Q136.55644 137.72792 135.22832 138.85292Q134.11894 139.7748 133.80644 140.11855Q133.49394 140.44667 133.29082 140.7748L138.19707 140.7748ZM139.72832 137.0248Q139.72832 135.24355 140.08769 134.16542Q140.46269 133.07167 141.18144 132.49355Q141.90019 131.8998 142.99394 131.8998Q143.80644 131.8998 144.41582 132.22792Q145.02519 132.55605 145.41582 133.16542Q145.82207 133.7748 146.04082 134.6498Q146.25957 135.5248 146.25957 137.0248Q146.25957 138.79042 145.90019 139.86855Q145.54082 140.94667 144.82207 141.54042Q144.10332 142.13417 142.99394 142.13417Q141.55644 142.13417 140.72832 141.0873Q139.72832 139.8373 139.72832 137.0248ZM140.99394 137.0248Q140.99394 139.49355 141.57207 140.30605Q142.15019 141.11855 142.99394 141.11855Q143.85332 141.11855 144.43144 140.30605Q145.00957 139.47792 145.00957 137.0248Q145.00957 134.54042 144.43144 133.72792Q143.85332 132.91542 142.97832 132.91542Q142.13457 132.91542 141.63457 133.63417Q140.99394 134.55605 140.99394 137.0248ZM148.41582 141.9623L148.41582 140.55605L149.82207 140.55605L149.82207 141.9623L148.41582 141.9623ZM151.72832 137.0248Q151.72832 135.24355 152.08769 134.16542Q152.46269 133.07167 153.18144 132.49355Q153.90019 131.8998 154.99394 131.8998Q155.80644 131.8998 156.41582 132.22792Q157.02519 132.55605 157.41582 133.16542Q157.82207 133.7748 158.04082 134.6498Q158.25957 135.5248 158.25957 137.0248Q158.25957 138.79042 157.90019 139.86855Q157.54082 140.94667 156.82207 141.54042Q156.10332 142.13417 154.99394 142.13417Q153.55644 142.13417 152.72832 141.0873Q151.72832 139.8373 151.72832 137.0248ZM152.99394 137.0248Q152.99394 139.49355 153.57207 140.30605Q154.15019 141.11855 154.99394 141.11855Q155.85332 141.11855 156.43144 140.30605Q157.00957 139.47792 157.00957 137.0248Q157.00957 134.54042 156.43144 133.72792Q155.85332 132.91542 154.97832 132.91542Q154.13457 132.91542 153.63457 133.63417Q152.99394 134.55605 152.99394 137.0248ZM159.96269 134.35292Q159.96269 133.2748 160.49394 132.5248Q161.04082 131.7748 162.07207 131.7748Q163.00957 131.7748 163.61894 132.44667Q164.24394 133.11855 164.24394 134.41542Q164.24394 135.69667 163.61894 136.38417Q162.99394 137.07167 162.08769 137.07167Q161.18144 137.07167 160.57207 136.3998Q159.96269 135.7123 159.96269 134.35292ZM162.10332 132.61855Q161.65019 132.61855 161.33769 133.0248Q161.04082 133.41542 161.04082 134.4623Q161.04082 135.43105 161.33769 135.82167Q161.65019 136.2123 162.10332 136.2123Q162.57207 136.2123 162.86894 135.82167Q163.18144 135.43105 163.18144 134.36855Q163.18144 133.3998 162.86894 133.00917Q162.55644 132.61855 162.10332 132.61855ZM162.10332 142.3373L167.58769 131.7748L168.58769 131.7748L163.13457 142.3373L162.10332 142.3373ZM166.44707 139.60292Q166.44707 138.5248 166.97832 137.79042Q167.52519 137.04042 168.55644 137.04042Q169.49394 137.04042 170.11894 137.7123Q170.74394 138.38417 170.74394 139.68105Q170.74394 140.9623 170.11894 141.6498Q169.49394 142.3373 168.55644 142.3373Q167.65019 142.3373 167.04082 141.66542Q166.44707 140.97792 166.44707 139.60292ZM168.58769 137.88417Q168.11894 137.88417 167.82207 138.29042Q167.52519 138.68105 167.52519 139.72792Q167.52519 140.69667 167.82207 141.0873Q168.13457 141.47792 168.58769 141.47792Q169.05644 141.47792 169.35332 141.0873Q169.66582 140.69667 169.66582 139.63417Q169.66582 138.66542 169.35332 138.2748Q169.05644 137.88417 168.58769 137.88417Z" fill-rule="nonzero"/><path fill="#fbbc04" d="M485.5058 162.1639C485.5058 165.4776 482.81952 168.1639 479.5058 168.1639C476.1921 168.1639 473.5058 165.4776 473.5058 162.1639C473.5058 158.85019 476.1921 156.1639 479.5058 156.1639C482.81952 156.1639 485.5058 158.85019 485.5058 162.1639Z" fill-rule="nonzero"/><path fill="#ffffff" d="M494.53705 167.1639L494.53705 157.14827L498.28705 157.14827Q499.4433 157.14827 500.1308 157.46077Q500.83392 157.75764 501.22455 158.38264Q501.61517 159.00764 501.61517 159.71077Q501.61517 160.3514 501.2558 160.9139Q500.91205 161.4764 500.20892 161.83577Q501.11517 162.1014 501.59955 162.74202Q502.09955 163.38264 502.09955 164.25764Q502.09955 164.96077 501.80267 165.57014Q501.5058 166.17952 501.0683 166.50764Q500.6308 166.83577 499.95892 167.00764Q499.30267 167.1639 498.34955 167.1639L494.53705 167.1639ZM495.86517 161.3514L498.02142 161.3514Q498.91205 161.3514 499.28705 161.24202Q499.80267 161.08577 500.05267 160.74202Q500.30267 160.38264 500.30267 159.86702Q500.30267 159.36702 500.0683 158.99202Q499.83392 158.6014 499.3808 158.46077Q498.9433 158.32014 497.86517 158.32014L495.86517 158.32014L495.86517 161.3514ZM495.86517 165.9764L498.34955 165.9764Q498.99017 165.9764 499.2558 165.92952Q499.70892 165.8514 500.02142 165.6639Q500.33392 165.46077 500.52142 165.1014Q500.72455 164.74202 500.72455 164.25764Q500.72455 163.69514 500.42767 163.2889Q500.14642 162.86702 499.6308 162.71077Q499.1308 162.5389 498.17767 162.5389L495.86517 162.5389L495.86517 165.9764ZM502.9433 164.99202L504.14642 164.80452Q504.2558 165.5389 504.72455 165.92952Q505.1933 166.32014 506.03705 166.32014Q506.8808 166.32014 507.28705 165.9764Q507.70892 165.63264 507.70892 165.1639Q507.70892 164.74202 507.33392 164.50764Q507.08392 164.33577 506.08392 164.08577Q504.72455 163.74202 504.1933 163.49202Q503.67767 163.24202 503.41205 162.80452Q503.14642 162.36702 503.14642 161.83577Q503.14642 161.3514 503.36517 160.94514Q503.58392 160.52327 503.97455 160.24202Q504.2558 160.0389 504.74017 159.89827Q505.24017 159.74202 505.8183 159.74202Q506.66205 159.74202 507.30267 159.99202Q507.95892 160.2264 508.27142 160.64827Q508.58392 161.07014 508.6933 161.77327L507.49017 161.94514Q507.41205 161.38264 507.0058 161.07014Q506.61517 160.75764 505.89642 160.75764Q505.05267 160.75764 504.6933 161.0389Q504.33392 161.30452 504.33392 161.69514Q504.33392 161.92952 504.47455 162.11702Q504.6308 162.32014 504.95892 162.44514Q505.1308 162.50764 506.03705 162.75764Q507.34955 163.11702 507.86517 163.33577Q508.3808 163.55452 508.66205 163.9764Q508.95892 164.39827 508.95892 165.02327Q508.95892 165.64827 508.59955 166.19514Q508.2558 166.7264 507.5683 167.0389Q506.89642 167.33577 506.03705 167.33577Q504.6308 167.33577 503.8808 166.74202Q503.14642 166.14827 502.9433 164.99202ZM515.16205 164.50764L516.3808 164.6639Q516.1777 165.9139 515.34955 166.63264Q514.53705 167.33577 513.34955 167.33577Q511.86517 167.33577 510.95892 166.36702Q510.05267 165.38264 510.05267 163.55452Q510.05267 162.38264 510.4433 161.50764Q510.83392 160.61702 511.6308 160.17952Q512.4277 159.74202 513.3652 159.74202Q514.53705 159.74202 515.28705 160.33577Q516.0527 160.92952 516.2558 162.0389L515.0683 162.2264Q514.8964 161.49202 514.4589 161.13264Q514.0214 160.75764 513.41205 160.75764Q512.47455 160.75764 511.89642 161.42952Q511.3183 162.08577 511.3183 163.52327Q511.3183 164.99202 511.8808 165.6639Q512.4433 166.32014 513.3339 166.32014Q514.0683 166.32014 514.5527 165.88264Q515.03705 165.42952 515.16205 164.50764ZM521.3964 167.1639L521.3964 157.14827L522.6308 157.14827L522.6308 167.1639L521.3964 167.1639ZM529.16205 166.27327Q528.4902 166.8514 527.84955 167.1014Q527.22455 167.33577 526.4902 167.33577Q525.3027 167.33577 524.6464 166.75764Q524.0058 166.1639 524.0058 165.24202Q524.0058 164.71077 524.2402 164.27327Q524.4902 163.83577 524.8808 163.57014Q525.28705 163.30452 525.7714 163.1639Q526.1308 163.07014 526.8652 162.9764Q528.3652 162.80452 529.0683 162.55452Q529.0683 162.30452 529.0683 162.24202Q529.0683 161.4764 528.72455 161.17952Q528.2558 160.75764 527.3183 160.75764Q526.4589 160.75764 526.03705 161.07014Q525.6308 161.36702 525.4277 162.13264L524.22455 161.9764Q524.3808 161.19514 524.7558 160.7264Q525.1464 160.25764 525.84955 160.00764Q526.5683 159.74202 527.5058 159.74202Q528.4277 159.74202 529.0058 159.96077Q529.5839 160.17952 529.84955 160.50764Q530.1308 160.83577 530.2402 161.3514Q530.3027 161.6639 530.3027 162.4764L530.3027 164.11702Q530.3027 165.83577 530.3808 166.2889Q530.4589 166.74202 530.6933 167.1639L529.41205 167.1639Q529.22455 166.77327 529.16205 166.27327ZM529.0683 163.52327Q528.3964 163.7889 527.0527 163.99202Q526.3027 164.1014 525.97455 164.24202Q525.66205 164.36702 525.4902 164.63264Q525.3183 164.89827 525.3183 165.21077Q525.3183 165.71077 525.6933 166.0389Q526.0683 166.36702 526.78705 166.36702Q527.5058 166.36702 528.0527 166.05452Q528.59955 165.74202 528.8652 165.19514Q529.0683 164.7889 529.0683 163.9764L529.0683 163.52327ZM537.1933 167.1639L537.1933 166.1014Q536.3339 167.33577 534.8808 167.33577Q534.2402 167.33577 533.6777 167.08577Q533.1308 166.83577 532.84955 166.46077Q532.5839 166.08577 532.47455 165.55452Q532.3964 165.19514 532.3964 164.39827L532.3964 159.89827L533.6308 159.89827L533.6308 163.92952Q533.6308 164.89827 533.7089 165.2264Q533.8183 165.71077 534.1933 165.99202Q534.5683 166.27327 535.1308 166.27327Q535.6777 166.27327 536.16205 165.99202Q536.6464 165.69514 536.84955 165.21077Q537.0527 164.7264 537.0527 163.7889L537.0527 159.89827L538.28705 159.89827L538.28705 167.1639L537.1933 167.1639ZM540.4277 167.1639L540.4277 159.89827L541.53705 159.89827L541.53705 160.92952Q542.3339 159.74202 543.84955 159.74202Q544.5058 159.74202 545.0527 159.9764Q545.59955 160.21077 545.8652 160.6014Q546.1464 160.9764 546.2558 161.50764Q546.3339 161.8514 546.3339 162.69514L546.3339 167.1639L545.09955 167.1639L545.09955 162.74202Q545.09955 161.99202 544.9589 161.63264Q544.8183 161.25764 544.4433 161.0389Q544.0839 160.80452 543.5839 160.80452Q542.8027 160.80452 542.22455 161.30452Q541.66205 161.80452 541.66205 163.19514L541.66205 167.1639L540.4277 167.1639ZM553.16205 164.50764L554.3808 164.6639Q554.1777 165.9139 553.34955 166.63264Q552.53705 167.33577 551.34955 167.33577Q549.8652 167.33577 548.9589 166.36702Q548.0527 165.38264 548.0527 163.55452Q548.0527 162.38264 548.4433 161.50764Q548.8339 160.61702 549.6308 160.17952Q550.4277 159.74202 551.3652 159.74202Q552.53705 159.74202 553.28705 160.33577Q554.0527 160.92952 554.2558 162.0389L553.0683 162.2264Q552.8964 161.49202 552.4589 161.13264Q552.0214 160.75764 551.41205 160.75764Q550.47455 160.75764 549.8964 161.42952Q549.3183 162.08577 549.3183 163.52327Q549.3183 164.99202 549.8808 165.6639Q550.4433 166.32014 551.3339 166.32014Q552.0683 166.32014 552.5527 165.88264Q553.03705 165.42952 553.16205 164.50764ZM555.4277 167.1639L555.4277 157.14827L556.66205 157.14827L556.66205 160.74202Q557.5214 159.74202 558.8339 159.74202Q559.6464 159.74202 560.2402 160.07014Q560.8339 160.38264 561.0839 160.94514Q561.34955 161.49202 561.34955 162.57014L561.34955 167.1639L560.1152 167.1639L560.1152 162.57014Q560.1152 161.63264 559.7089 161.2264Q559.3183 160.80452 558.5839 160.80452Q558.03705 160.80452 557.5527 161.08577Q557.0683 161.36702 556.8652 161.8514Q556.66205 162.33577 556.66205 163.19514L556.66205 167.1639L555.4277 167.1639Z" fill-rule="nonzero"/><path fill="#38761d" d="M485.5058 188.1639C485.5058 191.4776 482.81952 194.1639 479.5058 194.1639C476.1921 194.1639 473.5058 191.4776 473.5058 188.1639C473.5058 184.85019 476.1921 182.1639 479.5058 182.1639C482.81952 182.1639 485.5058 184.85019 485.5058 188.1639Z" fill-rule="nonzero"/><path fill="#ffffff" d="M493.49017 193.1639L497.33392 183.14827L498.7558 183.14827L502.86517 193.1639L501.34955 193.1639L500.17767 190.13264L495.99017 190.13264L494.89642 193.1639L493.49017 193.1639ZM496.3808 189.05452L499.77142 189.05452L498.72455 186.27327Q498.2558 185.00764 498.02142 184.19514Q497.83392 185.1639 497.47455 186.1014L496.3808 189.05452ZM503.55267 193.1639L503.55267 183.14827L505.53705 183.14827L507.91205 190.24202Q508.24017 191.2264 508.39642 191.7264Q508.5683 191.17952 508.92767 190.11702L511.3183 183.14827L513.1152 183.14827L513.1152 193.1639L511.83392 193.1639L511.83392 184.77327L508.91205 193.1639L507.72455 193.1639L504.8183 184.63264L504.8183 193.1639L503.55267 193.1639ZM515.5527 193.1639L515.5527 183.14827L517.53705 183.14827L519.91205 190.24202Q520.2402 191.2264 520.3964 191.7264Q520.5683 191.17952 520.9277 190.11702L523.3183 183.14827L525.1152 183.14827L525.1152 193.1639L523.8339 193.1639L523.8339 184.77327L520.91205 193.1639L519.72455 193.1639L516.8183 184.63264L516.8183 193.1639L515.5527 193.1639ZM531.3964 193.1639L531.3964 183.14827L532.6308 183.14827L532.6308 193.1639L531.3964 193.1639ZM534.4433 184.55452L534.4433 183.14827L535.66205 183.14827L535.66205 184.55452L534.4433 184.55452ZM534.4433 193.1639L534.4433 185.89827L535.66205 185.89827L535.66205 193.1639L534.4433 193.1639ZM542.0527 195.94514L542.0527 192.39827Q541.7714 192.7889 541.2558 193.07014Q540.7402 193.33577 540.16205 193.33577Q538.8652 193.33577 537.9277 192.30452Q537.0058 191.25764 537.0058 189.46077Q537.0058 188.36702 537.3808 187.50764Q537.7558 186.63264 538.47455 186.19514Q539.1933 185.74202 540.0683 185.74202Q541.41205 185.74202 542.1777 186.86702L542.1777 185.89827L543.28705 185.89827L543.28705 195.94514L542.0527 195.94514ZM538.2558 189.50764Q538.2558 190.9139 538.84955 191.61702Q539.4433 192.32014 540.2558 192.32014Q541.0527 192.32014 541.6152 191.64827Q542.1777 190.9764 542.1777 189.61702Q542.1777 188.17952 541.5839 187.44514Q540.9902 186.71077 540.1777 186.71077Q539.3808 186.71077 538.8183 187.39827Q538.2558 188.07014 538.2558 189.50764ZM550.1933 193.1639L550.1933 192.1014Q549.3339 193.33577 547.8808 193.33577Q547.2402 193.33577 546.6777 193.08577Q546.1308 192.83577 545.84955 192.46077Q545.5839 192.08577 545.47455 191.55452Q545.3964 191.19514 545.3964 190.39827L545.3964 185.89827L546.6308 185.89827L546.6308 189.92952Q546.6308 190.89827 546.7089 191.2264Q546.8183 191.71077 547.1933 191.99202Q547.5683 192.27327 548.1308 192.27327Q548.6777 192.27327 549.16205 191.99202Q549.6464 191.69514 549.84955 191.21077Q550.0527 190.7264 550.0527 189.7889L550.0527 185.89827L551.28705 185.89827L551.28705 193.1639L550.1933 193.1639ZM553.4433 184.55452L553.4433 183.14827L554.66205 183.14827L554.66205 184.55452L553.4433 184.55452ZM553.4433 193.1639L553.4433 185.89827L554.66205 185.89827L554.66205 193.1639L553.4433 193.1639ZM561.1464 193.1639L561.1464 192.24202Q560.4433 193.33577 559.1152 193.33577Q558.2402 193.33577 557.5058 192.8514Q556.78705 192.36702 556.3808 191.50764Q555.9902 190.64827 555.9902 189.5389Q555.9902 188.46077 556.34955 187.57014Q556.7089 186.67952 557.4277 186.21077Q558.16205 185.74202 559.0527 185.74202Q559.7089 185.74202 560.22455 186.02327Q560.7402 186.2889 561.0527 186.74202L561.0527 183.14827L562.28705 183.14827L562.28705 193.1639L561.1464 193.1639ZM557.2558 189.5389Q557.2558 190.92952 557.8339 191.63264Q558.4277 192.32014 559.22455 192.32014Q560.03705 192.32014 560.59955 191.6639Q561.16205 190.99202 561.16205 189.64827Q561.16205 188.14827 560.5839 187.46077Q560.0058 186.75764 559.1777 186.75764Q558.34955 186.75764 557.8027 187.42952Q557.2558 188.1014 557.2558 189.5389ZM564.4433 184.55452L564.4433 183.14827L565.66205 183.14827L565.66205 184.55452L564.4433 184.55452ZM564.4433 193.1639L564.4433 185.89827L565.66205 185.89827L565.66205 193.1639L564.4433 193.1639ZM570.1152 192.07014L570.28705 193.14827Q569.7714 193.25764 569.3652 193.25764Q568.6933 193.25764 568.3183 193.05452Q567.9589 192.83577 567.8027 192.49202Q567.66205 192.14827 567.66205 191.0389L567.66205 186.86702L566.7558 186.86702L566.7558 185.89827L567.66205 185.89827L567.66205 184.1014L568.8808 183.36702L568.8808 185.89827L570.1152 185.89827L570.1152 186.86702L568.8808 186.86702L568.8808 191.1014Q568.8808 191.63264 568.9433 191.7889Q569.0058 191.92952 569.1464 192.02327Q569.3027 192.11702 569.5683 192.11702Q569.78705 192.11702 570.1152 192.07014ZM571.3808 195.96077L571.2402 194.80452Q571.6464 194.9139 571.9433 194.9139Q572.34955 194.9139 572.59955 194.77327Q572.84955 194.64827 573.0058 194.39827Q573.1152 194.21077 573.3808 193.4764Q573.41205 193.38264 573.4902 193.17952L570.72455 185.89827L572.0527 185.89827L573.5683 190.1014Q573.8652 190.9139 574.09955 191.7889Q574.3027 190.94514 574.59955 190.13264L576.1464 185.89827L577.3808 185.89827L574.6152 193.2889Q574.1777 194.4764 573.9277 194.92952Q573.59955 195.5389 573.1777 195.82014Q572.7558 196.11702 572.16205 196.11702Q571.8183 196.11702 571.3808 195.96077Z" fill-rule="nonzero"/><path fill="#e06666" d="M485.5058 214.1639C485.5058 217.4776 482.81952 220.1639 479.5058 220.1639C476.1921 220.1639 473.5058 217.4776 473.5058 214.1639C473.5058 210.85019 476.1921 208.1639 479.5058 208.1639C482.81952 208.1639 485.5058 210.85019 485.5058 214.1639Z" fill-rule="nonzero"/><path fill="#ffffff" d="M494.53705 219.1639L494.53705 209.14827L495.86517 209.14827L495.86517 217.9764L500.78705 217.9764L500.78705 219.1639L494.53705 219.1639ZM502.4433 210.55452L502.4433 209.14827L503.66205 209.14827L503.66205 210.55452L502.4433 210.55452ZM502.4433 219.1639L502.4433 211.89827L503.66205 211.89827L503.66205 219.1639L502.4433 219.1639ZM510.05267 221.94514L510.05267 218.39827Q509.77142 218.7889 509.2558 219.07014Q508.74017 219.33577 508.16205 219.33577Q506.86517 219.33577 505.92767 218.30452Q505.0058 217.25764 505.0058 215.46077Q505.0058 214.36702 505.3808 213.50764Q505.7558 212.63264 506.47455 212.19514Q507.1933 211.74202 508.0683 211.74202Q509.41205 211.74202 510.17767 212.86702L510.17767 211.89827L511.28705 211.89827L511.28705 221.94514L510.05267 221.94514ZM506.2558 215.50764Q506.2558 216.9139 506.84955 217.61702Q507.4433 218.32014 508.2558 218.32014Q509.05267 218.32014 509.61517 217.64827Q510.17767 216.9764 510.17767 215.61702Q510.17767 214.17952 509.58392 213.44514Q508.99017 212.71077 508.17767 212.71077Q507.3808 212.71077 506.8183 213.39827Q506.2558 214.07014 506.2558 215.50764ZM518.1933 219.1639L518.1933 218.1014Q517.3339 219.33577 515.8808 219.33577Q515.2402 219.33577 514.6777 219.08577Q514.1308 218.83577 513.84955 218.46077Q513.5839 218.08577 513.47455 217.55452Q513.3964 217.19514 513.3964 216.39827L513.3964 211.89827L514.6308 211.89827L514.6308 215.92952Q514.6308 216.89827 514.7089 217.2264Q514.8183 217.71077 515.1933 217.99202Q515.5683 218.27327 516.1308 218.27327Q516.6777 218.27327 517.16205 217.99202Q517.6464 217.69514 517.84955 217.21077Q518.0527 216.7264 518.0527 215.7889L518.0527 211.89827L519.28705 211.89827L519.28705 219.1639L518.1933 219.1639ZM521.4433 210.55452L521.4433 209.14827L522.66205 209.14827L522.66205 210.55452L521.4433 210.55452ZM521.4433 219.1639L521.4433 211.89827L522.66205 211.89827L522.66205 219.1639L521.4433 219.1639ZM529.1464 219.1639L529.1464 218.24202Q528.4433 219.33577 527.1152 219.33577Q526.2402 219.33577 525.5058 218.8514Q524.78705 218.36702 524.3808 217.50764Q523.9902 216.64827 523.9902 215.5389Q523.9902 214.46077 524.34955 213.57014Q524.7089 212.67952 525.4277 212.21077Q526.16205 211.74202 527.0527 211.74202Q527.7089 211.74202 528.22455 212.02327Q528.7402 212.2889 529.0527 212.74202L529.0527 209.14827L530.28705 209.14827L530.28705 219.1639L529.1464 219.1639ZM525.2558 215.5389Q525.2558 216.92952 525.8339 217.63264Q526.4277 218.32014 527.22455 218.32014Q528.03705 218.32014 528.59955 217.6639Q529.16205 216.99202 529.16205 215.64827Q529.16205 214.14827 528.5839 213.46077Q528.0058 212.75764 527.1777 212.75764Q526.34955 212.75764 525.8027 213.42952Q525.2558 214.1014 525.2558 215.5389ZM532.4433 210.55452L532.4433 209.14827L533.66205 209.14827L533.66205 210.55452L532.4433 210.55452ZM532.4433 219.1639L532.4433 211.89827L533.66205 211.89827L533.66205 219.1639L532.4433 219.1639ZM538.1152 218.07014L538.28705 219.14827Q537.7714 219.25764 537.3652 219.25764Q536.6933 219.25764 536.3183 219.05452Q535.9589 218.83577 535.8027 218.49202Q535.66205 218.14827 535.66205 217.0389L535.66205 212.86702L534.7558 212.86702L534.7558 211.89827L535.66205 211.89827L535.66205 210.1014L536.8808 209.36702L536.8808 211.89827L538.1152 211.89827L538.1152 212.86702L536.8808 212.86702L536.8808 217.1014Q536.8808 217.63264 536.9433 217.7889Q537.0058 217.92952 537.1464 218.02327Q537.3027 218.11702 537.5683 218.11702Q537.78705 218.11702 538.1152 218.07014ZM539.3808 221.96077L539.2402 220.80452Q539.6464 220.9139 539.9433 220.9139Q540.34955 220.9139 540.59955 220.77327Q540.84955 220.64827 541.0058 220.39827Q541.1152 220.21077 541.3808 219.4764Q541.41205 219.38264 541.4902 219.17952L538.72455 211.89827L540.0527 211.89827L541.5683 216.1014Q541.8652 216.9139 542.09955 217.7889Q542.3027 216.94514 542.59955 216.13264L544.1464 211.89827L545.3808 211.89827L542.6152 219.2889Q542.1777 220.4764 541.9277 220.92952Q541.59955 221.5389 541.1777 221.82014Q540.7558 222.11702 540.16205 222.11702Q539.8183 222.11702 539.3808 221.96077ZM550.4277 219.1639L550.4277 211.89827L551.53705 211.89827L551.53705 212.92952Q551.8652 212.38264 552.4277 212.07014Q553.0058 211.74202 553.72455 211.74202Q554.53705 211.74202 555.0527 212.08577Q555.5683 212.4139 555.78705 213.00764Q556.6464 211.74202 558.0214 211.74202Q559.09955 211.74202 559.6777 212.33577Q560.2714 212.92952 560.2714 214.17952L560.2714 219.1639L559.03705 219.1639L559.03705 214.58577Q559.03705 213.8514 558.91205 213.52327Q558.8027 213.19514 558.4902 213.00764Q558.1777 212.80452 557.7558 212.80452Q556.9902 212.80452 556.47455 213.32014Q555.97455 213.82014 555.97455 214.94514L555.97455 219.1639L554.7402 219.1639L554.7402 214.44514Q554.7402 213.63264 554.4433 213.2264Q554.1464 212.80452 553.4589 212.80452Q552.9433 212.80452 552.4902 213.08577Q552.0527 213.3514 551.84955 213.88264Q551.66205 214.39827 551.66205 215.39827L551.66205 219.1639L550.4277 219.1639ZM562.4433 210.55452L562.4433 209.14827L563.66205 209.14827L563.66205 210.55452L562.4433 210.55452ZM562.4433 219.1639L562.4433 211.89827L563.66205 211.89827L563.66205 219.1639L562.4433 219.1639ZM565.4277 219.1639L565.4277 211.89827L566.53705 211.89827L566.53705 212.92952Q567.3339 211.74202 568.84955 211.74202Q569.5058 211.74202 570.0527 211.9764Q570.59955 212.21077 570.8652 212.6014Q571.1464 212.9764 571.2558 213.50764Q571.3339 213.8514 571.3339 214.69514L571.3339 219.1639L570.09955 219.1639L570.09955 214.74202Q570.09955 213.99202 569.9589 213.63264Q569.8183 213.25764 569.4433 213.0389Q569.0839 212.80452 568.5839 212.80452Q567.8027 212.80452 567.22455 213.30452Q566.66205 213.80452 566.66205 215.19514L566.66205 219.1639L565.4277 219.1639ZM573.4433 210.55452L573.4433 209.14827L574.66205 209.14827L574.66205 210.55452L573.4433 210.55452ZM573.4433 219.1639L573.4433 211.89827L574.66205 211.89827L574.66205 219.1639L573.4433 219.1639ZM576.4277 219.1639L576.4277 211.89827L577.53705 211.89827L577.53705 212.92952Q578.3339 211.74202 579.84955 211.74202Q580.5058 211.74202 581.0527 211.9764Q581.59955 212.21077 581.8652 212.6014Q582.1464 212.9764 582.2558 213.50764Q582.3339 213.8514 582.3339 214.69514L582.3339 219.1639L581.09955 219.1639L581.09955 214.74202Q581.09955 213.99202 580.9589 213.63264Q580.8183 213.25764 580.4433 213.0389Q580.0839 212.80452 579.5839 212.80452Q578.8027 212.80452 578.22455 213.30452Q577.66205 213.80452 577.66205 215.19514L577.66205 219.1639L576.4277 219.1639ZM584.2089 219.77327L585.3964 219.94514Q585.47455 220.49202 585.8183 220.75764Q586.2714 221.08577 587.0683 221.08577Q587.9277 221.08577 588.3808 220.74202Q588.84955 220.4139 589.0214 219.7889Q589.1152 219.4139 589.09955 218.21077Q588.3027 219.1639 587.09955 219.1639Q585.59955 219.1639 584.7714 218.08577Q583.9589 217.00764 583.9589 215.49202Q583.9589 214.46077 584.3339 213.58577Q584.7089 212.69514 585.41205 212.2264Q586.1308 211.74202 587.09955 211.74202Q588.3808 211.74202 589.22455 212.77327L589.22455 211.89827L590.34955 211.89827L590.34955 218.17952Q590.34955 219.88264 590.0058 220.58577Q589.66205 221.2889 588.91205 221.69514Q588.16205 222.11702 587.0683 222.11702Q585.7714 222.11702 584.97455 221.52327Q584.1777 220.94514 584.2089 219.77327ZM585.22455 215.39827Q585.22455 216.83577 585.78705 217.49202Q586.34955 218.14827 587.2089 218.14827Q588.0527 218.14827 588.6308 217.49202Q589.2089 216.83577 589.2089 215.44514Q589.2089 214.11702 588.6152 213.44514Q588.0214 212.75764 587.1933 212.75764Q586.3652 212.75764 585.78705 213.42952Q585.22455 214.08577 585.22455 215.39827Z" fill-rule="nonzero"/><path fill="#990000" d="M485.5058 240.1639C485.5058 243.4776 482.81952 246.1639 479.5058 246.1639C476.1921 246.1639 473.5058 243.4776 473.5058 240.1639C473.5058 236.85019 476.1921 234.1639 479.5058 234.1639C482.81952 234.1639 485.5058 236.85019 485.5058 240.1639Z" fill-rule="nonzero"/><path fill="#ffffff" d="M501.74017 241.64827L503.0683 241.99202Q502.64642 243.61702 501.55267 244.4764Q500.47455 245.33577 498.91205 245.33577Q497.28705 245.33577 496.27142 244.67952Q495.2558 244.00764 494.72455 242.75764Q494.20892 241.50764 494.20892 240.07014Q494.20892 238.50764 494.80267 237.3514Q495.39642 236.17952 496.5058 235.58577Q497.61517 234.9764 498.92767 234.9764Q500.4433 234.9764 501.45892 235.74202Q502.49017 236.50764 502.89642 237.88264L501.58392 238.19514Q501.24017 237.1014 500.5683 236.6014Q499.91205 236.1014 498.91205 236.1014Q497.7558 236.1014 496.97455 236.6639Q496.1933 237.21077 495.8808 238.14827Q495.5683 239.08577 495.5683 240.07014Q495.5683 241.3514 495.9433 242.30452Q496.3183 243.25764 497.09955 243.7264Q497.8808 244.19514 498.80267 244.19514Q499.91205 244.19514 500.67767 243.55452Q501.45892 242.9139 501.74017 241.64827ZM503.97455 241.5389Q503.97455 239.52327 505.09955 238.5389Q506.02142 237.74202 507.3808 237.74202Q508.86517 237.74202 509.8183 238.7264Q510.77142 239.69514 510.77142 241.42952Q510.77142 242.83577 510.34955 243.64827Q509.92767 244.44514 509.11517 244.89827Q508.3183 245.33577 507.3808 245.33577Q505.84955 245.33577 504.91205 244.3514Q503.97455 243.36702 503.97455 241.5389ZM505.24017 241.5389Q505.24017 242.92952 505.84955 243.63264Q506.45892 244.32014 507.3808 244.32014Q508.28705 244.32014 508.89642 243.61702Q509.5058 242.9139 509.5058 241.49202Q509.5058 240.14827 508.89642 239.46077Q508.28705 238.75764 507.3808 238.75764Q506.45892 238.75764 505.84955 239.44514Q505.24017 240.13264 505.24017 241.5389ZM512.41205 245.1639L512.41205 237.89827L513.5214 237.89827L513.5214 239.00764Q513.9433 238.2264 514.3027 237.99202Q514.66205 237.74202 515.09955 237.74202Q515.72455 237.74202 516.3652 238.13264L515.9433 239.27327Q515.4902 239.00764 515.03705 239.00764Q514.6308 239.00764 514.3027 239.25764Q513.9902 239.49202 513.84955 239.92952Q513.6464 240.58577 513.6464 241.36702L513.6464 245.1639L512.41205 245.1639ZM522.3964 242.82014L523.6777 242.9764Q523.3652 244.1014 522.5527 244.7264Q521.7402 245.33577 520.47455 245.33577Q518.8808 245.33577 517.9433 244.3514Q517.0214 243.36702 517.0214 241.6014Q517.0214 239.75764 517.9589 238.75764Q518.91205 237.74202 520.41205 237.74202Q521.8652 237.74202 522.78705 238.74202Q523.7089 239.7264 523.7089 241.52327Q523.7089 241.63264 523.7089 241.8514L518.28705 241.8514Q518.3652 243.0389 518.9589 243.67952Q519.5683 244.32014 520.4902 244.32014Q521.16205 244.32014 521.6308 243.96077Q522.1152 243.6014 522.3964 242.82014ZM518.3652 240.83577L522.41205 240.83577Q522.3339 239.9139 521.9433 239.46077Q521.3652 238.75764 520.4277 238.75764Q519.5683 238.75764 518.9902 239.32014Q518.4277 239.88264 518.3652 240.83577ZM532.1308 245.1639L532.1308 236.32014L528.8339 236.32014L528.8339 235.14827L536.7714 235.14827L536.7714 236.32014L533.4589 236.32014L533.4589 245.1639L532.1308 245.1639ZM543.3964 242.82014L544.6777 242.9764Q544.3652 244.1014 543.5527 244.7264Q542.7402 245.33577 541.47455 245.33577Q539.8808 245.33577 538.9433 244.3514Q538.0214 243.36702 538.0214 241.6014Q538.0214 239.75764 538.9589 238.75764Q539.91205 237.74202 541.41205 237.74202Q542.8652 237.74202 543.78705 238.74202Q544.7089 239.7264 544.7089 241.52327Q544.7089 241.63264 544.7089 241.8514L539.28705 241.8514Q539.3652 243.0389 539.9589 243.67952Q540.5683 244.32014 541.4902 244.32014Q542.16205 244.32014 542.6308 243.96077Q543.1152 243.6014 543.3964 242.82014ZM539.3652 240.83577L543.41205 240.83577Q543.3339 239.9139 542.9433 239.46077Q542.3652 238.75764 541.4277 238.75764Q540.5683 238.75764 539.9902 239.32014Q539.4277 239.88264 539.3652 240.83577ZM551.16205 244.27327Q550.4902 244.8514 549.84955 245.1014Q549.22455 245.33577 548.4902 245.33577Q547.3027 245.33577 546.6464 244.75764Q546.0058 244.1639 546.0058 243.24202Q546.0058 242.71077 546.2402 242.27327Q546.4902 241.83577 546.8808 241.57014Q547.28705 241.30452 547.7714 241.1639Q548.1308 241.07014 548.8652 240.9764Q550.3652 240.80452 551.0683 240.55452Q551.0683 240.30452 551.0683 240.24202Q551.0683 239.4764 550.72455 239.17952Q550.2558 238.75764 549.3183 238.75764Q548.4589 238.75764 548.03705 239.07014Q547.6308 239.36702 547.4277 240.13264L546.22455 239.9764Q546.3808 239.19514 546.7558 238.7264Q547.1464 238.25764 547.84955 238.00764Q548.5683 237.74202 549.5058 237.74202Q550.4277 237.74202 551.0058 237.96077Q551.5839 238.17952 551.84955 238.50764Q552.1308 238.83577 552.2402 239.3514Q552.3027 239.6639 552.3027 240.4764L552.3027 242.11702Q552.3027 243.83577 552.3808 244.2889Q552.4589 244.74202 552.6933 245.1639L551.41205 245.1639Q551.22455 244.77327 551.16205 244.27327ZM551.0683 241.52327Q550.3964 241.7889 549.0527 241.99202Q548.3027 242.1014 547.97455 242.24202Q547.66205 242.36702 547.4902 242.63264Q547.3183 242.89827 547.3183 243.21077Q547.3183 243.71077 547.6933 244.0389Q548.0683 244.36702 548.78705 244.36702Q549.5058 244.36702 550.0527 244.05452Q550.59955 243.74202 550.8652 243.19514Q551.0683 242.7889 551.0683 241.9764L551.0683 241.52327ZM554.4277 245.1639L554.4277 237.89827L555.53705 237.89827L555.53705 238.92952Q555.8652 238.38264 556.4277 238.07014Q557.0058 237.74202 557.72455 237.74202Q558.53705 237.74202 559.0527 238.08577Q559.5683 238.4139 559.78705 239.00764Q560.6464 237.74202 562.0214 237.74202Q563.09955 237.74202 563.6777 238.33577Q564.2714 238.92952 564.2714 240.17952L564.2714 245.1639L563.03705 245.1639L563.03705 240.58577Q563.03705 239.8514 562.91205 239.52327Q562.8027 239.19514 562.4902 239.00764Q562.1777 238.80452 561.7558 238.80452Q560.9902 238.80452 560.47455 239.32014Q559.97455 239.82014 559.97455 240.94514L559.97455 245.1639L558.7402 245.1639L558.7402 240.44514Q558.7402 239.63264 558.4433 239.2264Q558.1464 238.80452 557.4589 238.80452Q556.9433 238.80452 556.4902 239.08577Q556.0527 239.3514 555.84955 239.88264Q555.66205 240.39827 555.66205 241.39827L555.66205 245.1639L554.4277 245.1639Z" fill-rule="nonzero"/><path fill="#999999" d="M485.5058 266.1639C485.5058 269.4776 482.81952 272.1639 479.5058 272.1639C476.1921 272.1639 473.5058 269.4776 473.5058 266.1639C473.5058 262.8502 476.1921 260.1639 479.5058 260.1639C482.81952 260.1639 485.5058 262.8502 485.5058 266.1639Z" fill-rule="nonzero"/><path fill="#ffffff" d="M501.74017 267.6483L503.0683 267.99203Q502.64642 269.61703 501.55267 270.4764Q500.47455 271.3358 498.91205 271.3358Q497.28705 271.3358 496.27142 270.67953Q495.2558 270.00766 494.72455 268.75766Q494.20892 267.50766 494.20892 266.07016Q494.20892 264.50766 494.80267 263.3514Q495.39642 262.17953 496.5058 261.5858Q497.61517 260.9764 498.92767 260.9764Q500.4433 260.9764 501.45892 261.74203Q502.49017 262.50766 502.89642 263.88266L501.58392 264.19516Q501.24017 263.1014 500.5683 262.6014Q499.91205 262.1014 498.91205 262.1014Q497.7558 262.1014 496.97455 262.6639Q496.1933 263.2108 495.8808 264.1483Q495.5683 265.0858 495.5683 266.07016Q495.5683 267.3514 495.9433 268.30453Q496.3183 269.25766 497.09955 269.7264Q497.8808 270.19516 498.80267 270.19516Q499.91205 270.19516 500.67767 269.55453Q501.45892 268.9139 501.74017 267.6483ZM503.97455 267.5389Q503.97455 265.5233 505.09955 264.5389Q506.02142 263.74203 507.3808 263.74203Q508.86517 263.74203 509.8183 264.7264Q510.77142 265.69516 510.77142 267.42953Q510.77142 268.8358 510.34955 269.6483Q509.92767 270.44516 509.11517 270.8983Q508.3183 271.3358 507.3808 271.3358Q505.84955 271.3358 504.91205 270.3514Q503.97455 269.36703 503.97455 267.5389ZM505.24017 267.5389Q505.24017 268.92953 505.84955 269.63266Q506.45892 270.32016 507.3808 270.32016Q508.28705 270.32016 508.89642 269.61703Q509.5058 268.9139 509.5058 267.49203Q509.5058 266.1483 508.89642 265.4608Q508.28705 264.75766 507.3808 264.75766Q506.45892 264.75766 505.84955 265.44516Q505.24017 266.13266 505.24017 267.5389ZM512.4277 271.1639L512.4277 263.8983L513.53705 263.8983L513.53705 264.92953Q513.8652 264.38266 514.4277 264.07016Q515.0058 263.74203 515.72455 263.74203Q516.53705 263.74203 517.0527 264.0858Q517.5683 264.4139 517.78705 265.00766Q518.6464 263.74203 520.0214 263.74203Q521.09955 263.74203 521.6777 264.3358Q522.2714 264.92953 522.2714 266.17953L522.2714 271.1639L521.03705 271.1639L521.03705 266.5858Q521.03705 265.8514 520.91205 265.5233Q520.8027 265.19516 520.4902 265.00766Q520.1777 264.80453 519.7558 264.80453Q518.9902 264.80453 518.47455 265.32016Q517.97455 265.82016 517.97455 266.94516L517.97455 271.1639L516.7402 271.1639L516.7402 266.44516Q516.7402 265.63266 516.4433 265.2264Q516.1464 264.80453 515.4589 264.80453Q514.9433 264.80453 514.4902 265.0858Q514.0527 265.3514 513.84955 265.88266Q513.66205 266.3983 513.66205 267.3983L513.66205 271.1639L512.4277 271.1639ZM524.4277 271.1639L524.4277 263.8983L525.53705 263.8983L525.53705 264.92953Q525.8652 264.38266 526.4277 264.07016Q527.0058 263.74203 527.72455 263.74203Q528.53705 263.74203 529.0527 264.0858Q529.5683 264.4139 529.78705 265.00766Q530.6464 263.74203 532.0214 263.74203Q533.09955 263.74203 533.6777 264.3358Q534.2714 264.92953 534.2714 266.17953L534.2714 271.1639L533.03705 271.1639L533.03705 266.5858Q533.03705 265.8514 532.91205 265.5233Q532.8027 265.19516 532.4902 265.00766Q532.1777 264.80453 531.7558 264.80453Q530.9902 264.80453 530.47455 265.32016Q529.97455 265.82016 529.97455 266.94516L529.97455 271.1639L528.7402 271.1639L528.7402 266.44516Q528.7402 265.63266 528.4433 265.2264Q528.1464 264.80453 527.4589 264.80453Q526.9433 264.80453 526.4902 265.0858Q526.0527 265.3514 525.84955 265.88266Q525.66205 266.3983 525.66205 267.3983L525.66205 271.1639L524.4277 271.1639ZM541.1933 271.1639L541.1933 270.1014Q540.3339 271.3358 538.8808 271.3358Q538.2402 271.3358 537.6777 271.0858Q537.1308 270.8358 536.84955 270.4608Q536.5839 270.0858 536.47455 269.55453Q536.3964 269.19516 536.3964 268.3983L536.3964 263.8983L537.6308 263.8983L537.6308 267.92953Q537.6308 268.8983 537.7089 269.2264Q537.8183 269.7108 538.1933 269.99203Q538.5683 270.2733 539.1308 270.2733Q539.6777 270.2733 540.16205 269.99203Q540.6464 269.69516 540.84955 269.2108Q541.0527 268.7264 541.0527 267.7889L541.0527 263.8983L542.28705 263.8983L542.28705 271.1639L541.1933 271.1639ZM544.4277 271.1639L544.4277 263.8983L545.53705 263.8983L545.53705 264.92953Q546.3339 263.74203 547.84955 263.74203Q548.5058 263.74203 549.0527 263.9764Q549.59955 264.2108 549.8652 264.6014Q550.1464 264.9764 550.2558 265.50766Q550.3339 265.8514 550.3339 266.69516L550.3339 271.1639L549.09955 271.1639L549.09955 266.74203Q549.09955 265.99203 548.9589 265.63266Q548.8183 265.25766 548.4433 265.0389Q548.0839 264.80453 547.5839 264.80453Q546.8027 264.80453 546.22455 265.30453Q545.66205 265.80453 545.66205 267.19516L545.66205 271.1639L544.4277 271.1639ZM552.4433 262.55453L552.4433 261.1483L553.66205 261.1483L553.66205 262.55453L552.4433 262.55453ZM552.4433 271.1639L552.4433 263.8983L553.66205 263.8983L553.66205 271.1639L552.4433 271.1639ZM558.1152 270.07016L558.28705 271.1483Q557.7714 271.25766 557.3652 271.25766Q556.6933 271.25766 556.3183 271.05453Q555.9589 270.8358 555.8027 270.49203Q555.66205 270.1483 555.66205 269.0389L555.66205 264.86703L554.7558 264.86703L554.7558 263.8983L555.66205 263.8983L555.66205 262.1014L556.8808 261.36703L556.8808 263.8983L558.1152 263.8983L558.1152 264.86703L556.8808 264.86703L556.8808 269.1014Q556.8808 269.63266 556.9433 269.7889Q557.0058 269.92953 557.1464 270.0233Q557.3027 270.11703 557.5683 270.11703Q557.78705 270.11703 558.1152 270.07016ZM559.3808 273.9608L559.2402 272.80453Q559.6464 272.9139 559.9433 272.9139Q560.34955 272.9139 560.59955 272.7733Q560.84955 272.6483 561.0058 272.3983Q561.1152 272.2108 561.3808 271.4764Q561.41205 271.38266 561.4902 271.17953L558.72455 263.8983L560.0527 263.8983L561.5683 268.1014Q561.8652 268.9139 562.09955 269.7889Q562.3027 268.94516 562.59955 268.13266L564.1464 263.8983L565.3808 263.8983L562.6152 271.2889Q562.1777 272.4764 561.9277 272.92953Q561.59955 273.5389 561.1777 273.82016Q560.7558 274.11703 560.16205 274.11703Q559.8183 274.11703 559.3808 273.9608Z" fill-rule="nonzero"/><path fill="#ffd966" d="M485.5058 292.1639C485.5058 295.4776 482.81952 298.1639 479.5058 298.1639C476.1921 298.1639 473.5058 295.4776 473.5058 292.1639C473.5058 288.8502 476.1921 286.1639 479.5058 286.1639C482.81952 286.1639 485.5058 288.8502 485.5058 292.1639Z" fill-rule="nonzero"/><path fill="#ffffff" d="M494.55267 297.1639L494.55267 287.1483L496.53705 287.1483L498.91205 294.24203Q499.24017 295.2264 499.39642 295.7264Q499.5683 295.17953 499.92767 294.11703L502.3183 287.1483L504.11517 287.1483L504.11517 297.1639L502.83392 297.1639L502.83392 288.7733L499.91205 297.1639L498.72455 297.1639L495.8183 288.63266L495.8183 297.1639L494.55267 297.1639ZM511.16205 296.2733Q510.49017 296.8514 509.84955 297.1014Q509.22455 297.3358 508.49017 297.3358Q507.30267 297.3358 506.64642 296.75766Q506.0058 296.1639 506.0058 295.24203Q506.0058 294.7108 506.24017 294.2733Q506.49017 293.8358 506.8808 293.57016Q507.28705 293.30453 507.77142 293.1639Q508.1308 293.07016 508.86517 292.9764Q510.36517 292.80453 511.0683 292.55453Q511.0683 292.30453 511.0683 292.24203Q511.0683 291.4764 510.72455 291.17953Q510.2558 290.75766 509.3183 290.75766Q508.45892 290.75766 508.03705 291.07016Q507.6308 291.36703 507.42767 292.13266L506.22455 291.9764Q506.3808 291.19516 506.7558 290.7264Q507.14642 290.25766 507.84955 290.00766Q508.5683 289.74203 509.5058 289.74203Q510.42767 289.74203 511.0058 289.9608Q511.58392 290.17953 511.84955 290.50766Q512.1308 290.8358 512.2402 291.3514Q512.3027 291.6639 512.3027 292.4764L512.3027 294.11703Q512.3027 295.8358 512.3808 296.2889Q512.4589 296.74203 512.6933 297.1639L511.41205 297.1639Q511.22455 296.7733 511.16205 296.2733ZM511.0683 293.5233Q510.39642 293.7889 509.05267 293.99203Q508.30267 294.1014 507.97455 294.24203Q507.66205 294.36703 507.49017 294.63266Q507.3183 294.8983 507.3183 295.2108Q507.3183 295.7108 507.6933 296.0389Q508.0683 296.36703 508.78705 296.36703Q509.5058 296.36703 510.05267 296.05453Q510.59955 295.74203 510.86517 295.19516Q511.0683 294.7889 511.0683 293.9764L511.0683 293.5233ZM514.41205 297.1639L514.41205 289.8983L515.5214 289.8983L515.5214 291.00766Q515.9433 290.2264 516.3027 289.99203Q516.66205 289.74203 517.09955 289.74203Q517.72455 289.74203 518.3652 290.13266L517.9433 291.2733Q517.4902 291.00766 517.03705 291.00766Q516.6308 291.00766 516.3027 291.25766Q515.9902 291.49203 515.84955 291.92953Q515.6464 292.5858 515.6464 293.36703L515.6464 297.1639L514.41205 297.1639ZM519.4433 297.1639L519.4433 287.1483L520.66205 287.1483L520.66205 292.8514L523.5839 289.8983L525.1777 289.8983L522.3964 292.6014L525.4589 297.1639L523.9277 297.1639L521.53705 293.44516L520.66205 294.2889L520.66205 297.1639L519.4433 297.1639ZM531.3964 294.82016L532.6777 294.9764Q532.3652 296.1014 531.5527 296.7264Q530.7402 297.3358 529.47455 297.3358Q527.8808 297.3358 526.9433 296.3514Q526.0214 295.36703 526.0214 293.6014Q526.0214 291.75766 526.9589 290.75766Q527.91205 289.74203 529.41205 289.74203Q530.8652 289.74203 531.78705 290.74203Q532.7089 291.7264 532.7089 293.5233Q532.7089 293.63266 532.7089 293.8514L527.28705 293.8514Q527.3652 295.0389 527.9589 295.67953Q528.5683 296.32016 529.4902 296.32016Q530.16205 296.32016 530.6308 295.9608Q531.1152 295.6014 531.3964 294.82016ZM527.3652 292.8358L531.41205 292.8358Q531.3339 291.9139 530.9433 291.4608Q530.3652 290.75766 529.4277 290.75766Q528.5683 290.75766 527.9902 291.32016Q527.4277 291.88266 527.3652 292.8358ZM537.1152 296.07016L537.28705 297.1483Q536.7714 297.25766 536.3652 297.25766Q535.6933 297.25766 535.3183 297.05453Q534.9589 296.8358 534.8027 296.49203Q534.66205 296.1483 534.66205 295.0389L534.66205 290.86703L533.7558 290.86703L533.7558 289.8983L534.66205 289.8983L534.66205 288.1014L535.8808 287.36703L535.8808 289.8983L537.1152 289.8983L537.1152 290.86703L535.8808 290.86703L535.8808 295.1014Q535.8808 295.63266 535.9433 295.7889Q536.0058 295.92953 536.1464 296.0233Q536.3027 296.11703 536.5683 296.11703Q536.78705 296.11703 537.1152 296.07016ZM538.4433 288.55453L538.4433 287.1483L539.66205 287.1483L539.66205 288.55453L538.4433 288.55453ZM538.4433 297.1639L538.4433 289.8983L539.66205 289.8983L539.66205 297.1639L538.4433 297.1639ZM541.4277 297.1639L541.4277 289.8983L542.53705 289.8983L542.53705 290.92953Q543.3339 289.74203 544.84955 289.74203Q545.5058 289.74203 546.0527 289.9764Q546.59955 290.2108 546.8652 290.6014Q547.1464 290.9764 547.2558 291.50766Q547.3339 291.8514 547.3339 292.69516L547.3339 297.1639L546.09955 297.1639L546.09955 292.74203Q546.09955 291.99203 545.9589 291.63266Q545.8183 291.25766 545.4433 291.0389Q545.0839 290.80453 544.5839 290.80453Q543.8027 290.80453 543.22455 291.30453Q542.66205 291.80453 542.66205 293.19516L542.66205 297.1639L541.4277 297.1639ZM549.2089 297.7733L550.3964 297.94516Q550.47455 298.49203 550.8183 298.75766Q551.2714 299.0858 552.0683 299.0858Q552.9277 299.0858 553.3808 298.74203Q553.84955 298.4139 554.0214 297.7889Q554.1152 297.4139 554.09955 296.2108Q553.3027 297.1639 552.09955 297.1639Q550.59955 297.1639 549.7714 296.0858Q548.9589 295.00766 548.9589 293.49203Q548.9589 292.4608 549.3339 291.5858Q549.7089 290.69516 550.41205 290.2264Q551.1308 289.74203 552.09955 289.74203Q553.3808 289.74203 554.22455 290.7733L554.22455 289.8983L555.34955 289.8983L555.34955 296.17953Q555.34955 297.88266 555.0058 298.5858Q554.66205 299.2889 553.91205 299.69516Q553.16205 300.11703 552.0683 300.11703Q550.7714 300.11703 549.97455 299.5233Q549.1777 298.94516 549.2089 297.7733ZM550.22455 293.3983Q550.22455 294.8358 550.78705 295.49203Q551.34955 296.1483 552.2089 296.1483Q553.0527 296.1483 553.6308 295.49203Q554.2089 294.8358 554.2089 293.44516Q554.2089 292.11703 553.6152 291.44516Q553.0214 290.75766 552.1933 290.75766Q551.3652 290.75766 550.78705 291.42953Q550.22455 292.0858 550.22455 293.3983Z" fill-rule="nonzero"/><path fill="#4285f4" d="M485.5058 318.1639C485.5058 321.4776 482.81952 324.1639 479.5058 324.1639C476.1921 324.1639 473.5058 321.4776 473.5058 318.1639C473.5058 314.8502 476.1921 312.1639 479.5058 312.1639C482.81952 312.1639 485.5058 314.8502 485.5058 318.1639Z" fill-rule="nonzero"/><path fill="#ffffff" d="M493.49017 323.1639L497.33392 313.1483L498.7558 313.1483L502.86517 323.1639L501.34955 323.1639L500.17767 320.13266L495.99017 320.13266L494.89642 323.1639L493.49017 323.1639ZM496.3808 319.05453L499.77142 319.05453L498.72455 316.2733Q498.2558 315.00766 498.02142 314.19516Q497.83392 315.1639 497.47455 316.1014L496.3808 319.05453ZM508.14642 323.1639L508.14642 322.24203Q507.4433 323.3358 506.11517 323.3358Q505.24017 323.3358 504.5058 322.8514Q503.78705 322.36703 503.3808 321.50766Q502.99017 320.6483 502.99017 319.5389Q502.99017 318.4608 503.34955 317.57016Q503.70892 316.67953 504.42767 316.2108Q505.16205 315.74203 506.05267 315.74203Q506.70892 315.74203 507.22455 316.0233Q507.74017 316.2889 508.05267 316.74203L508.05267 313.1483L509.28705 313.1483L509.28705 323.1639L508.14642 323.1639ZM504.2558 319.5389Q504.2558 320.92953 504.83392 321.63266Q505.42767 322.32016 506.22455 322.32016Q507.03705 322.32016 507.59955 321.6639Q508.16205 320.99203 508.16205 319.6483Q508.16205 318.1483 507.58392 317.4608Q507.0058 316.75766 506.17767 316.75766Q505.34955 316.75766 504.80267 317.42953Q504.2558 318.1014 504.2558 319.5389ZM513.4433 323.1639L510.67767 315.8983L511.99017 315.8983L513.53705 320.25766Q513.78705 320.9608 514.0058 321.7108Q514.1777 321.13266 514.4589 320.3358L516.0839 315.8983L517.34955 315.8983L514.59955 323.1639L513.4433 323.1639ZM518.4433 314.55453L518.4433 313.1483L519.66205 313.1483L519.66205 314.55453L518.4433 314.55453ZM518.4433 323.1639L518.4433 315.8983L519.66205 315.8983L519.66205 323.1639L518.4433 323.1639ZM520.9433 320.99203L522.1464 320.80453Q522.2558 321.5389 522.72455 321.92953Q523.1933 322.32016 524.03705 322.32016Q524.8808 322.32016 525.28705 321.9764Q525.7089 321.63266 525.7089 321.1639Q525.7089 320.74203 525.3339 320.50766Q525.0839 320.3358 524.0839 320.0858Q522.72455 319.74203 522.1933 319.49203Q521.6777 319.24203 521.41205 318.80453Q521.1464 318.36703 521.1464 317.8358Q521.1464 317.3514 521.3652 316.94516Q521.5839 316.5233 521.97455 316.24203Q522.2558 316.0389 522.7402 315.8983Q523.2402 315.74203 523.8183 315.74203Q524.66205 315.74203 525.3027 315.99203Q525.9589 316.2264 526.2714 316.6483Q526.5839 317.07016 526.6933 317.7733L525.4902 317.94516Q525.41205 317.38266 525.0058 317.07016Q524.6152 316.75766 523.8964 316.75766Q523.0527 316.75766 522.6933 317.0389Q522.3339 317.30453 522.3339 317.69516Q522.3339 317.92953 522.47455 318.11703Q522.6308 318.32016 522.9589 318.44516Q523.1308 318.50766 524.03705 318.75766Q525.34955 319.11703 525.8652 319.3358Q526.3808 319.55453 526.66205 319.9764Q526.9589 320.3983 526.9589 321.0233Q526.9589 321.6483 526.59955 322.19516Q526.2558 322.7264 525.5683 323.0389Q524.8964 323.3358 524.03705 323.3358Q522.6308 323.3358 521.8808 322.74203Q521.1464 322.1483 520.9433 320.99203ZM527.97455 319.5389Q527.97455 317.5233 529.09955 316.5389Q530.0214 315.74203 531.3808 315.74203Q532.8652 315.74203 533.8183 316.7264Q534.7714 317.69516 534.7714 319.42953Q534.7714 320.8358 534.34955 321.6483Q533.9277 322.44516 533.1152 322.8983Q532.3183 323.3358 531.3808 323.3358Q529.84955 323.3358 528.91205 322.3514Q527.97455 321.36703 527.97455 319.5389ZM529.2402 319.5389Q529.2402 320.92953 529.84955 321.63266Q530.4589 322.32016 531.3808 322.32016Q532.28705 322.32016 532.8964 321.61703Q533.5058 320.9139 533.5058 319.49203Q533.5058 318.1483 532.8964 317.4608Q532.28705 316.75766 531.3808 316.75766Q530.4589 316.75766 529.84955 317.44516Q529.2402 318.13266 529.2402 319.5389ZM536.41205 323.1639L536.41205 315.8983L537.5214 315.8983L537.5214 317.00766Q537.9433 316.2264 538.3027 315.99203Q538.66205 315.74203 539.09955 315.74203Q539.72455 315.74203 540.3652 316.13266L539.9433 317.2733Q539.4902 317.00766 539.03705 317.00766Q538.6308 317.00766 538.3027 317.25766Q537.9902 317.49203 537.84955 317.92953Q537.6464 318.5858 537.6464 319.36703L537.6464 323.1639L536.41205 323.1639ZM540.9433 320.99203L542.1464 320.80453Q542.2558 321.5389 542.72455 321.92953Q543.1933 322.32016 544.03705 322.32016Q544.8808 322.32016 545.28705 321.9764Q545.7089 321.63266 545.7089 321.1639Q545.7089 320.74203 545.3339 320.50766Q545.0839 320.3358 544.0839 320.0858Q542.72455 319.74203 542.1933 319.49203Q541.6777 319.24203 541.41205 318.80453Q541.1464 318.36703 541.1464 317.8358Q541.1464 317.3514 541.3652 316.94516Q541.5839 316.5233 541.97455 316.24203Q542.2558 316.0389 542.7402 315.8983Q543.2402 315.74203 543.8183 315.74203Q544.66205 315.74203 545.3027 315.99203Q545.9589 316.2264 546.2714 316.6483Q546.5839 317.07016 546.6933 317.7733L545.4902 317.94516Q545.41205 317.38266 545.0058 317.07016Q544.6152 316.75766 543.8964 316.75766Q543.0527 316.75766 542.6933 317.0389Q542.3339 317.30453 542.3339 317.69516Q542.3339 317.92953 542.47455 318.11703Q542.6308 318.32016 542.9589 318.44516Q543.1308 318.50766 544.03705 318.75766Q545.34955 319.11703 545.8652 319.3358Q546.3808 319.55453 546.66205 319.9764Q546.9589 320.3983 546.9589 321.0233Q546.9589 321.6483 546.59955 322.19516Q546.2558 322.7264 545.5683 323.0389Q544.8964 323.3358 544.03705 323.3358Q542.6308 323.3358 541.8808 322.74203Q541.1464 322.1483 540.9433 320.99203Z" fill-rule="nonzero"/><path fill="#ff0000" d="M485.5058 344.1639C485.5058 347.4776 482.81952 350.1639 479.5058 350.1639C476.1921 350.1639 473.5058 347.4776 473.5058 344.1639C473.5058 340.8502 476.1921 338.1639 479.5058 338.1639C482.81952 338.1639 485.5058 340.8502 485.5058 344.1639Z" fill-rule="nonzero"/><path fill="#ffffff" d="M494.1308 345.94516L495.3808 345.8358Q495.47455 346.5858 495.80267 347.07016Q496.1308 347.55453 496.80267 347.8514Q497.49017 348.1483 498.34955 348.1483Q499.09955 348.1483 499.67767 347.92953Q500.27142 347.69516 500.55267 347.30453Q500.83392 346.9139 500.83392 346.44516Q500.83392 345.9764 500.55267 345.63266Q500.28705 345.2733 499.66205 345.0233Q499.2558 344.86703 497.86517 344.5389Q496.49017 344.2108 495.9433 343.9139Q495.22455 343.5389 494.86517 342.99203Q494.52142 342.42953 494.52142 341.7264Q494.52142 340.9764 494.9433 340.32016Q495.3808 339.6483 496.20892 339.32016Q497.03705 338.9764 498.05267 338.9764Q499.16205 338.9764 500.0058 339.3358Q500.86517 339.69516 501.3183 340.3983Q501.77142 341.0858 501.8183 341.9608L500.53705 342.05453Q500.4433 341.11703 499.84955 340.63266Q499.2558 340.13266 498.09955 340.13266Q496.89642 340.13266 496.34955 340.5858Q495.80267 341.0233 495.80267 341.6483Q495.80267 342.17953 496.1933 342.5389Q496.5683 342.88266 498.17767 343.25766Q499.80267 343.61703 500.39642 343.88266Q501.27142 344.2889 501.6933 344.9139Q502.11517 345.5233 502.11517 346.3358Q502.11517 347.13266 501.64642 347.8514Q501.1933 348.55453 500.33392 348.94516Q499.47455 349.3358 498.41205 349.3358Q497.05267 349.3358 496.1308 348.94516Q495.20892 348.5389 494.67767 347.74203Q494.16205 346.94516 494.1308 345.94516ZM508.39642 346.82016L509.67767 346.9764Q509.36517 348.1014 508.55267 348.7264Q507.74017 349.3358 506.47455 349.3358Q504.8808 349.3358 503.9433 348.3514Q503.02142 347.36703 503.02142 345.6014Q503.02142 343.75766 503.95892 342.75766Q504.91205 341.74203 506.41205 341.74203Q507.86517 341.74203 508.78705 342.74203Q509.70892 343.7264 509.70892 345.5233Q509.70892 345.63266 509.70892 345.8514L504.28705 345.8514Q504.36517 347.0389 504.95892 347.67953Q505.5683 348.32016 506.49017 348.32016Q507.16205 348.32016 507.6308 347.9608Q508.11517 347.6014 508.39642 346.82016ZM504.36517 344.8358L508.41205 344.8358Q508.33392 343.9139 507.9433 343.4608Q507.36517 342.75766 506.42767 342.75766Q505.5683 342.75766 504.99017 343.32016Q504.42767 343.88266 504.36517 344.8358ZM516.3964 346.82016L517.6777 346.9764Q517.3652 348.1014 516.5527 348.7264Q515.7402 349.3358 514.47455 349.3358Q512.8808 349.3358 511.9433 348.3514Q511.02142 347.36703 511.02142 345.6014Q511.02142 343.75766 511.95892 342.75766Q512.91205 341.74203 514.41205 341.74203Q515.8652 341.74203 516.78705 342.74203Q517.7089 343.7264 517.7089 345.5233Q517.7089 345.63266 517.7089 345.8514L512.28705 345.8514Q512.3652 347.0389 512.9589 347.67953Q513.5683 348.32016 514.4902 348.32016Q515.16205 348.32016 515.6308 347.9608Q516.1152 347.6014 516.3964 346.82016ZM512.3652 344.8358L516.41205 344.8358Q516.3339 343.9139 515.9433 343.4608Q515.3652 342.75766 514.4277 342.75766Q513.5683 342.75766 512.9902 343.32016Q512.4277 343.88266 512.3652 344.8358ZM524.1464 349.1639L524.1464 348.24203Q523.4433 349.3358 522.1152 349.3358Q521.2402 349.3358 520.5058 348.8514Q519.78705 348.36703 519.3808 347.50766Q518.9902 346.6483 518.9902 345.5389Q518.9902 344.4608 519.34955 343.57016Q519.7089 342.67953 520.4277 342.2108Q521.16205 341.74203 522.0527 341.74203Q522.7089 341.74203 523.22455 342.0233Q523.7402 342.2889 524.0527 342.74203L524.0527 339.1483L525.28705 339.1483L525.28705 349.1639L524.1464 349.1639ZM520.2558 345.5389Q520.2558 346.92953 520.8339 347.63266Q521.4277 348.32016 522.22455 348.32016Q523.03705 348.32016 523.59955 347.6639Q524.16205 346.99203 524.16205 345.6483Q524.16205 344.1483 523.5839 343.4608Q523.0058 342.75766 522.1777 342.75766Q521.34955 342.75766 520.8027 343.42953Q520.2558 344.1014 520.2558 345.5389Z" fill-rule="nonzero"/><path fill="#9900ff" d="M485.5058 370.1639C485.5058 373.4776 482.81952 376.1639 479.5058 376.1639C476.1921 376.1639 473.5058 373.4776 473.5058 370.1639C473.5058 366.8502 476.1921 364.1639 479.5058 364.1639C482.81952 364.1639 485.5058 366.8502 485.5058 370.1639Z" fill-rule="nonzero"/><path fill="#ffffff" d="M497.1308 375.1639L497.1308 366.32016L493.83392 366.32016L493.83392 365.1483L501.77142 365.1483L501.77142 366.32016L498.45892 366.32016L498.45892 375.1639L497.1308 375.1639ZM503.41205 375.1639L503.41205 367.8983L504.52142 367.8983L504.52142 369.00766Q504.9433 368.2264 505.30267 367.99203Q505.66205 367.74203 506.09955 367.74203Q506.72455 367.74203 507.36517 368.13266L506.9433 369.2733Q506.49017 369.00766 506.03705 369.00766Q505.6308 369.00766 505.30267 369.25766Q504.99017 369.49203 504.84955 369.92953Q504.64642 370.5858 504.64642 371.36703L504.64642 375.1639L503.41205 375.1639ZM513.3964 372.82016L514.6777 372.9764Q514.3652 374.1014 513.5527 374.7264Q512.7402 375.3358 511.47455 375.3358Q509.8808 375.3358 508.9433 374.3514Q508.02142 373.36703 508.02142 371.6014Q508.02142 369.75766 508.95892 368.75766Q509.91205 367.74203 511.41205 367.74203Q512.8652 367.74203 513.78705 368.74203Q514.7089 369.7264 514.7089 371.5233Q514.7089 371.63266 514.7089 371.8514L509.28705 371.8514Q509.36517 373.0389 509.95892 373.67953Q510.5683 374.32016 511.49017 374.32016Q512.16205 374.32016 512.6308 373.9608Q513.1152 373.6014 513.3964 372.82016ZM509.36517 370.8358L513.41205 370.8358Q513.3339 369.9139 512.9433 369.4608Q512.3652 368.75766 511.42767 368.75766Q510.5683 368.75766 509.99017 369.32016Q509.42767 369.88266 509.36517 370.8358ZM521.16205 374.2733Q520.4902 374.8514 519.84955 375.1014Q519.22455 375.3358 518.4902 375.3358Q517.3027 375.3358 516.6464 374.75766Q516.0058 374.1639 516.0058 373.24203Q516.0058 372.7108 516.2402 372.2733Q516.4902 371.8358 516.8808 371.57016Q517.28705 371.30453 517.7714 371.1639Q518.1308 371.07016 518.8652 370.9764Q520.3652 370.80453 521.0683 370.55453Q521.0683 370.30453 521.0683 370.24203Q521.0683 369.4764 520.72455 369.17953Q520.2558 368.75766 519.3183 368.75766Q518.4589 368.75766 518.03705 369.07016Q517.6308 369.36703 517.4277 370.13266L516.22455 369.9764Q516.3808 369.19516 516.7558 368.7264Q517.1464 368.25766 517.84955 368.00766Q518.5683 367.74203 519.5058 367.74203Q520.4277 367.74203 521.0058 367.9608Q521.5839 368.17953 521.84955 368.50766Q522.1308 368.8358 522.2402 369.3514Q522.3027 369.6639 522.3027 370.4764L522.3027 372.11703Q522.3027 373.8358 522.3808 374.2889Q522.4589 374.74203 522.6933 375.1639L521.41205 375.1639Q521.22455 374.7733 521.16205 374.2733ZM521.0683 371.5233Q520.3964 371.7889 519.0527 371.99203Q518.3027 372.1014 517.97455 372.24203Q517.66205 372.36703 517.4902 372.63266Q517.3183 372.8983 517.3183 373.2108Q517.3183 373.7108 517.6933 374.0389Q518.0683 374.36703 518.78705 374.36703Q519.5058 374.36703 520.0527 374.05453Q520.59955 373.74203 520.8652 373.19516Q521.0683 372.7889 521.0683 371.9764L521.0683 371.5233ZM523.9433 372.99203L525.1464 372.80453Q525.2558 373.5389 525.72455 373.92953Q526.1933 374.32016 527.03705 374.32016Q527.8808 374.32016 528.28705 373.9764Q528.7089 373.63266 528.7089 373.1639Q528.7089 372.74203 528.3339 372.50766Q528.0839 372.3358 527.0839 372.0858Q525.72455 371.74203 525.1933 371.49203Q524.6777 371.24203 524.41205 370.80453Q524.1464 370.36703 524.1464 369.8358Q524.1464 369.3514 524.3652 368.94516Q524.5839 368.5233 524.97455 368.24203Q525.2558 368.0389 525.7402 367.8983Q526.2402 367.74203 526.8183 367.74203Q527.66205 367.74203 528.3027 367.99203Q528.9589 368.2264 529.2714 368.6483Q529.5839 369.07016 529.6933 369.7733L528.4902 369.94516Q528.41205 369.38266 528.0058 369.07016Q527.6152 368.75766 526.8964 368.75766Q526.0527 368.75766 525.6933 369.0389Q525.3339 369.30453 525.3339 369.69516Q525.3339 369.92953 525.47455 370.11703Q525.6308 370.32016 525.9589 370.44516Q526.1308 370.50766 527.03705 370.75766Q528.34955 371.11703 528.8652 371.3358Q529.3808 371.55453 529.66205 371.9764Q529.9589 372.3983 529.9589 373.0233Q529.9589 373.6483 529.59955 374.19516Q529.2558 374.7264 528.5683 375.0389Q527.8964 375.3358 527.03705 375.3358Q525.6308 375.3358 524.8808 374.74203Q524.1464 374.1483 523.9433 372.99203ZM536.1933 375.1639L536.1933 374.1014Q535.3339 375.3358 533.8808 375.3358Q533.2402 375.3358 532.6777 375.0858Q532.1308 374.8358 531.84955 374.4608Q531.5839 374.0858 531.47455 373.55453Q531.3964 373.19516 531.3964 372.3983L531.3964 367.8983L532.6308 367.8983L532.6308 371.92953Q532.6308 372.8983 532.7089 373.2264Q532.8183 373.7108 533.1933 373.99203Q533.5683 374.2733 534.1308 374.2733Q534.6777 374.2733 535.16205 373.99203Q535.6464 373.69516 535.84955 373.2108Q536.0527 372.7264 536.0527 371.7889L536.0527 367.8983L537.28705 367.8983L537.28705 375.1639L536.1933 375.1639ZM539.41205 375.1639L539.41205 367.8983L540.5214 367.8983L540.5214 369.00766Q540.9433 368.2264 541.3027 367.99203Q541.66205 367.74203 542.09955 367.74203Q542.72455 367.74203 543.3652 368.13266L542.9433 369.2733Q542.4902 369.00766 542.03705 369.00766Q541.6308 369.00766 541.3027 369.25766Q540.9902 369.49203 540.84955 369.92953Q540.6464 370.5858 540.6464 371.36703L540.6464 375.1639L539.41205 375.1639ZM544.3808 377.9608L544.2402 376.80453Q544.6464 376.9139 544.9433 376.9139Q545.34955 376.9139 545.59955 376.7733Q545.84955 376.6483 546.0058 376.3983Q546.1152 376.2108 546.3808 375.4764Q546.41205 375.38266 546.4902 375.17953L543.72455 367.8983L545.0527 367.8983L546.5683 372.1014Q546.8652 372.9139 547.09955 373.7889Q547.3027 372.94516 547.59955 372.13266L549.1464 367.8983L550.3808 367.8983L547.6152 375.2889Q547.1777 376.4764 546.9277 376.92953Q546.59955 377.5389 546.1777 377.82016Q545.7558 378.11703 545.16205 378.11703Q544.8183 378.11703 544.3808 377.9608Z" fill-rule="nonzero"/><path fill="#ffffff" d="M297.09375 43.55L297.09375 32.096874L299.40625 32.096874L299.40625 43.55L297.09375 43.55ZM304.09375 43.55L299.98438 32.096874L302.5 32.096874L305.40625 40.565624L308.20312 32.096874L310.65625 32.096874L306.5625 43.55L304.09375 43.55ZM312.1875 43.55L312.1875 32.096874L314.4375 32.096874L319.125 39.7375L319.125 32.096874L321.28125 32.096874L321.28125 43.55L318.95312 43.55L314.34375 36.08125L314.34375 43.55L312.1875 43.55ZM329.79688 37.784374L327.79688 37.425Q328.14062 36.221874 328.95312 35.64375Q329.78125 35.065624 331.39062 35.065624Q332.85938 35.065624 333.57812 35.409374Q334.29688 35.753124 334.59375 36.3Q334.89062 36.83125 334.89062 38.253124L334.85938 40.815624Q334.85938 41.909374 334.96875 42.440624Q335.07812 42.95625 335.35938 43.55L333.1875 43.55Q333.10938 43.33125 332.98438 42.89375Q332.92188 42.70625 332.90625 42.64375Q332.34375 43.190624 331.70312 43.471874Q331.0625 43.7375 330.32812 43.7375Q329.04688 43.7375 328.3125 43.05Q327.57812 42.346874 327.57812 41.284374Q327.57812 40.58125 327.90625 40.034374Q328.25 39.471874 328.84375 39.190624Q329.45312 38.89375 330.59375 38.675Q332.14062 38.378124 332.73438 38.128124L332.73438 37.909374Q332.73438 37.284374 332.42188 37.01875Q332.10938 36.7375 331.23438 36.7375Q330.65625 36.7375 330.32812 36.971874Q330.0 37.20625 329.79688 37.784374ZM332.73438 39.565624Q332.3125 39.70625 331.39062 39.909374Q330.48438 40.096874 330.20312 40.284374Q329.76562 40.58125 329.76562 41.05Q329.76562 41.51875 330.10938 41.8625Q330.45312 42.190624 330.98438 42.190624Q331.57812 42.190624 332.125 41.8Q332.51562 41.503124 332.64062 41.065624Q332.73438 40.784374 332.73438 40.003124L332.73438 39.565624ZM337.15625 43.55L337.15625 32.096874L339.34375 32.096874L339.34375 43.55L337.15625 43.55ZM341.15625 43.55L341.15625 32.096874L343.34375 32.096874L343.34375 43.55L341.15625 43.55ZM344.64062 39.284374Q344.64062 38.190624 345.17188 37.175Q345.71875 36.14375 346.70312 35.6125Q347.70312 35.065624 348.92188 35.065624Q350.79688 35.065624 352.0 36.284374Q353.20312 37.503124 353.20312 39.378124Q353.20312 41.253124 351.98438 42.503124Q350.78125 43.7375 348.9375 43.7375Q347.79688 43.7375 346.75 43.221874Q345.71875 42.70625 345.17188 41.70625Q344.64062 40.70625 344.64062 39.284374ZM346.89062 39.39375Q346.89062 40.628124 347.46875 41.284374Q348.0625 41.940624 348.92188 41.940624Q349.78125 41.940624 350.35938 41.284374Q350.95312 40.628124 350.95312 39.378124Q350.95312 38.159374 350.35938 37.503124Q349.78125 36.846874 348.92188 36.846874Q348.0625 36.846874 347.46875 37.503124Q346.89062 38.159374 346.89062 39.39375ZM362.39062 37.70625L360.21875 38.096874Q360.10938 37.440624 359.71875 37.1125Q359.34375 36.784374 358.71875 36.784374Q357.90625 36.784374 357.40625 37.3625Q356.92188 37.925 356.92188 39.253124Q356.92188 40.721874 357.42188 41.33125Q357.92188 41.940624 358.75 41.940624Q359.375 41.940624 359.76562 41.596874Q360.17188 41.2375 360.34375 40.3625L362.5 40.7375Q362.15625 42.221874 361.20312 42.9875Q360.25 43.7375 358.65625 43.7375Q356.82812 43.7375 355.75 42.596874Q354.67188 41.440624 354.67188 39.409374Q354.67188 37.346874 355.75 36.20625Q356.84375 35.065624 358.6875 35.065624Q360.20312 35.065624 361.09375 35.721874Q362.0 36.3625 362.39062 37.70625ZM365.79688 37.784374L363.79688 37.425Q364.14062 36.221874 364.95312 35.64375Q365.78125 35.065624 367.39062 35.065624Q368.85938 35.065624 369.57812 35.409374Q370.29688 35.753124 370.59375 36.3Q370.89062 36.83125 370.89062 38.253124L370.85938 40.815624Q370.85938 41.909374 370.96875 42.440624Q371.07812 42.95625 371.35938 43.55L369.1875 43.55Q369.10938 43.33125 368.98438 42.89375Q368.92188 42.70625 368.90625 42.64375Q368.34375 43.190624 367.70312 43.471874Q367.0625 43.7375 366.32812 43.7375Q365.04688 43.7375 364.3125 43.05Q363.57812 42.346874 363.57812 41.284374Q363.57812 40.58125 363.90625 40.034374Q364.25 39.471874 364.84375 39.190624Q365.45312 38.89375 366.59375 38.675Q368.14062 38.378124 368.73438 38.128124L368.73438 37.909374Q368.73438 37.284374 368.42188 37.01875Q368.10938 36.7375 367.23438 36.7375Q366.65625 36.7375 366.32812 36.971874Q366.0 37.20625 365.79688 37.784374ZM368.73438 39.565624Q368.3125 39.70625 367.39062 39.909374Q366.48438 40.096874 366.20312 40.284374Q365.76562 40.58125 365.76562 41.05Q365.76562 41.51875 366.10938 41.8625Q366.45312 42.190624 366.98438 42.190624Q367.57812 42.190624 368.125 41.8Q368.51562 41.503124 368.64062 41.065624Q368.73438 40.784374 368.73438 40.003124L368.73438 39.565624ZM376.95312 35.253124L376.95312 37.003124L375.45312 37.003124L375.45312 40.346874Q375.45312 41.3625 375.5 41.534374Q375.54688 41.690624 375.6875 41.8Q375.84375 41.909374 376.0625 41.909374Q376.375 41.909374 376.95312 41.70625L377.14062 43.409374Q376.375 43.7375 375.40625 43.7375Q374.8125 43.7375 374.32812 43.534374Q373.85938 43.33125 373.625 43.01875Q373.40625 42.70625 373.32812 42.159374Q373.25 41.784374 373.25 40.6125L373.25 37.003124L372.25 37.003124L372.25 35.253124L373.25 35.253124L373.25 33.596874L375.45312 32.315624L375.45312 35.253124L376.95312 35.253124ZM378.15625 34.128124L378.15625 32.096874L380.34375 32.096874L380.34375 34.128124L378.15625 34.128124ZM378.15625 43.55L378.15625 35.253124L380.34375 35.253124L380.34375 43.55L378.15625 43.55ZM381.64062 39.284374Q381.64062 38.190624 382.17188 37.175Q382.71875 36.14375 383.70312 35.6125Q384.70312 35.065624 385.92188 35.065624Q387.79688 35.065624 389.0 36.284374Q390.20312 37.503124 390.20312 39.378124Q390.20312 41.253124 388.98438 42.503124Q387.78125 43.7375 385.9375 43.7375Q384.79688 43.7375 383.75 43.221874Q382.71875 42.70625 382.17188 41.70625Q381.64062 40.70625 381.64062 39.284374ZM383.89062 39.39375Q383.89062 40.628124 384.46875 41.284374Q385.0625 41.940624 385.92188 41.940624Q386.78125 41.940624 387.35938 41.284374Q387.95312 40.628124 387.95312 39.378124Q387.95312 38.159374 387.35938 37.503124Q386.78125 36.846874 385.92188 36.846874Q385.0625 36.846874 384.46875 37.503124Q383.89062 38.159374 383.89062 39.39375ZM399.70312 43.55L397.5 43.55L397.5 39.315624Q397.5 37.971874 397.35938 37.58125Q397.21875 37.175 396.90625 36.95625Q396.59375 36.7375 396.14062 36.7375Q395.57812 36.7375 395.125 37.05Q394.67188 37.3625 394.5 37.878124Q394.32812 38.39375 394.32812 39.784374L394.32812 43.55L392.14062 43.55L392.14062 35.253124L394.17188 35.253124L394.17188 36.471874Q395.26562 35.065624 396.90625 35.065624Q397.64062 35.065624 398.23438 35.33125Q398.84375 35.58125 399.14062 35.9875Q399.45312 36.39375 399.57812 36.909374Q399.70312 37.425 399.70312 38.39375L399.70312 43.55Z" fill-rule="nonzero"/></svg>