<svg version="1.1" viewBox="0.0 0.0 693.0 491.0" fill="none" stroke="none" stroke-linecap="square" stroke-miterlimit="10" width="693" height="491" xmlns:xlink="http://www.w3.org/1999/xlink" xmlns="http://www.w3.org/2000/svg"><path fill="#ffffff" fill-opacity="0.0" d="M0 0L693.0 0L693.0 491.0L0 491.0L0 0Z" fill-rule="nonzero"/><path fill="#fbbc04" d="M242.85513 59.916668C330.9156 59.916668 408.96106 116.62 436.17322 200.37048L242.85513 263.18332Z" fill-rule="nonzero"/><path fill="#38761d" d="M436.17322 200.37048C449.438 241.19525 449.438 285.17142 436.17322 325.9962L242.85513 263.18332Z" fill-rule="nonzero"/><path fill="#e06666" d="M436.17322 325.9962C416.06653 387.87827 367.55008 436.3947 305.668 456.50143L242.85513 263.18332Z" fill-rule="nonzero"/><path fill="#9900ff" d="M78.40895 143.70618C116.65418 91.06614 177.78847 59.916668 242.85513 59.916668L242.85513 263.18332Z" fill-rule="nonzero"/><path fill="#ff0000" d="M39.58847 263.18332C39.58847 220.25763 53.177856 178.4338 78.40895 143.70618L242.85513 263.18332Z" fill-rule="nonzero"/><path fill="#4285f4" d="M41.19129 288.6594C40.123802 280.20935 39.58847 271.70056 39.58847 263.18332L242.85513 263.18332Z" fill-rule="nonzero"/><path fill="#ffd966" d="M58.93396 349.73007C49.852127 330.43018 43.86464 309.8211 41.19129 288.6594L242.85513 263.18332Z" fill-rule="nonzero"/><path fill="#999999" d="M78.40895 382.6605C70.896416 372.32037 64.37588 361.29474 58.93396 349.73007L242.85513 263.18332Z" fill-rule="nonzero"/><path fill="#990000" d="M305.668 456.50143C221.91753 483.7136 130.16959 453.9029 78.40895 382.6605L242.85513 263.18332Z" fill-rule="nonzero"/><path fill="#000000" d="M321.60696 140.7748L321.60696 141.9623L314.98196 141.9623Q314.96634 141.5248 315.1226 141.10292Q315.3882 140.43105 315.9351 139.7748Q316.4976 139.11855 317.54446 138.25917Q319.1851 136.91542 319.7476 136.13417Q320.3257 135.35292 320.3257 134.6498Q320.3257 133.91542 319.79446 133.41542Q319.27884 132.91542 318.4507 132.91542Q317.5601 132.91542 317.0132 133.44667Q316.48196 133.97792 316.48196 134.93105L315.21634 134.79042Q315.34134 133.38417 316.1851 132.6498Q317.04446 131.8998 318.46634 131.8998Q319.91946 131.8998 320.7476 132.69667Q321.59134 133.49355 321.59134 134.68105Q321.59134 135.29042 321.34134 135.86855Q321.10696 136.44667 320.52884 137.0873Q319.96634 137.72792 318.6382 138.85292Q317.52884 139.7748 317.21634 140.11855Q316.90384 140.44667 316.7007 140.7748L321.60696 140.7748ZM323.1382 137.0248Q323.1382 135.24355 323.4976 134.16542Q323.8726 133.07167 324.59134 132.49355Q325.3101 131.8998 326.40384 131.8998Q327.21634 131.8998 327.8257 132.22792Q328.4351 132.55605 328.8257 133.16542Q329.23196 133.7748 329.4507 134.6498Q329.66946 135.5248 329.66946 137.0248Q329.66946 138.79042 329.3101 139.86855Q328.9507 140.94667 328.23196 141.54042Q327.5132 142.13417 326.40384 142.13417Q324.96634 142.13417 324.1382 141.0873Q323.1382 139.8373 323.1382 137.0248ZM324.40384 137.0248Q324.40384 139.49355 324.98196 140.30605Q325.5601 141.11855 326.40384 141.11855Q327.2632 141.11855 327.84134 140.30605Q328.41946 139.47792 328.41946 137.0248Q328.41946 134.54042 327.84134 133.72792Q327.2632 132.91542 326.3882 132.91542Q325.54446 132.91542 325.04446 133.63417Q324.40384 134.55605 324.40384 137.0248ZM331.8257 141.9623L331.8257 140.55605L333.23196 140.55605L333.23196 141.9623L331.8257 141.9623ZM335.1382 137.0248Q335.1382 135.24355 335.4976 134.16542Q335.8726 133.07167 336.59134 132.49355Q337.3101 131.8998 338.40384 131.8998Q339.21634 131.8998 339.8257 132.22792Q340.4351 132.55605 340.8257 133.16542Q341.23196 133.7748 341.4507 134.6498Q341.66946 135.5248 341.66946 137.0248Q341.66946 138.79042 341.3101 139.86855Q340.9507 140.94667 340.23196 141.54042Q339.5132 142.13417 338.40384 142.13417Q336.96634 142.13417 336.1382 141.0873Q335.1382 139.8373 335.1382 137.0248ZM336.40384 137.0248Q336.40384 139.49355 336.98196 140.30605Q337.5601 141.11855 338.40384 141.11855Q339.2632 141.11855 339.84134 140.30605Q340.41946 139.47792 340.41946 137.0248Q340.41946 134.54042 339.84134 133.72792Q339.2632 132.91542 338.3882 132.91542Q337.54446 132.91542 337.04446 133.63417Q336.40384 134.55605 336.40384 137.0248ZM343.3726 134.35292Q343.3726 133.2748 343.90384 132.5248Q344.4507 131.7748 345.48196 131.7748Q346.41946 131.7748 347.02884 132.44667Q347.65384 133.11855 347.65384 134.41542Q347.65384 135.69667 347.02884 136.38417Q346.40384 137.07167 345.4976 137.07167Q344.59134 137.07167 343.98196 136.3998Q343.3726 135.7123 343.3726 134.35292ZM345.5132 132.61855Q345.0601 132.61855 344.7476 133.0248Q344.4507 133.41542 344.4507 134.4623Q344.4507 135.43105 344.7476 135.82167Q345.0601 136.2123 345.5132 136.2123Q345.98196 136.2123 346.27884 135.82167Q346.59134 135.43105 346.59134 134.36855Q346.59134 133.3998 346.27884 133.00917Q345.96634 132.61855 345.5132 132.61855ZM345.5132 142.3373L350.9976 131.7748L351.9976 131.7748L346.54446 142.3373L345.5132 142.3373ZM349.85696 139.60292Q349.85696 138.5248 350.3882 137.79042Q350.9351 137.04042 351.96634 137.04042Q352.90384 137.04042 353.52884 137.7123Q354.15384 138.38417 354.15384 139.68105Q354.15384 140.9623 353.52884 141.6498Q352.90384 142.3373 351.96634 142.3373Q351.0601 142.3373 350.4507 141.66542Q349.85696 140.97792 349.85696 139.60292ZM351.9976 137.88417Q351.52884 137.88417 351.23196 138.29042Q350.9351 138.68105 350.9351 139.72792Q350.9351 140.69667 351.23196 141.0873Q351.54446 141.47792 351.9976 141.47792Q352.46634 141.47792 352.7632 141.0873Q353.0757 140.69667 353.0757 139.63417Q353.0757 138.66542 352.7632 138.2748Q352.46634 137.88417 351.9976 137.88417Z" fill-rule="nonzero"/><path fill="#000000" d="M389.03046 268.18332L387.79608 268.18332L387.79608 260.33957Q387.35858 260.76144 386.6242 261.19894Q385.90546 261.62082 385.34296 261.82394L385.34296 260.63644Q386.3742 260.15207 387.13983 259.46457Q387.92108 258.77707 388.23358 258.12082L389.03046 258.12082L389.03046 268.18332ZM392.38983 263.24582Q392.38983 261.46457 392.7492 260.38644Q393.1242 259.2927 393.84296 258.71457Q394.5617 258.12082 395.65546 258.12082Q396.46796 258.12082 397.07733 258.44894Q397.6867 258.77707 398.07733 259.38644Q398.48358 259.99582 398.70233 260.87082Q398.92108 261.74582 398.92108 263.24582Q398.92108 265.01144 398.5617 266.08957Q398.20233 267.1677 397.48358 267.76144Q396.76483 268.3552 395.65546 268.3552Q394.21796 268.3552 393.38983 267.30832Q392.38983 266.05832 392.38983 263.24582ZM393.65546 263.24582Q393.65546 265.71457 394.23358 266.52707Q394.8117 267.33957 395.65546 267.33957Q396.51483 267.33957 397.09296 266.52707Q397.67108 265.69894 397.67108 263.24582Q397.67108 260.76144 397.09296 259.94894Q396.51483 259.13644 395.63983 259.13644Q394.79608 259.13644 394.29608 259.8552Q393.65546 260.77707 393.65546 263.24582ZM401.07733 268.18332L401.07733 266.77707L402.48358 266.77707L402.48358 268.18332L401.07733 268.18332ZM404.38983 263.24582Q404.38983 261.46457 404.7492 260.38644Q405.1242 259.2927 405.84296 258.71457Q406.5617 258.12082 407.65546 258.12082Q408.46796 258.12082 409.07733 258.44894Q409.6867 258.77707 410.07733 259.38644Q410.48358 259.99582 410.70233 260.87082Q410.92108 261.74582 410.92108 263.24582Q410.92108 265.01144 410.5617 266.08957Q410.20233 267.1677 409.48358 267.76144Q408.76483 268.3552 407.65546 268.3552Q406.21796 268.3552 405.38983 267.30832Q404.38983 266.05832 404.38983 263.24582ZM405.65546 263.24582Q405.65546 265.71457 406.23358 266.52707Q406.8117 267.33957 407.65546 267.33957Q408.51483 267.33957 409.09296 266.52707Q409.67108 265.69894 409.67108 263.24582Q409.67108 260.76144 409.09296 259.94894Q408.51483 259.13644 407.63983 259.13644Q406.79608 259.13644 406.29608 259.8552Q405.65546 260.77707 405.65546 263.24582ZM412.6242 260.57394Q412.6242 259.49582 413.15546 258.74582Q413.70233 257.99582 414.73358 257.99582Q415.67108 257.99582 416.28046 258.6677Q416.90546 259.33957 416.90546 260.63644Q416.90546 261.9177 416.28046 262.6052Q415.65546 263.2927 414.7492 263.2927Q413.84296 263.2927 413.23358 262.62082Q412.6242 261.93332 412.6242 260.57394ZM414.76483 258.83957Q414.3117 258.83957 413.9992 259.24582Q413.70233 259.63644 413.70233 260.68332Q413.70233 261.65207 413.9992 262.0427Q414.3117 262.43332 414.76483 262.43332Q415.23358 262.43332 415.53046 262.0427Q415.84296 261.65207 415.84296 260.58957Q415.84296 259.62082 415.53046 259.2302Q415.21796 258.83957 414.76483 258.83957ZM414.76483 268.55832L420.2492 257.99582L421.2492 257.99582L415.79608 268.55832L414.76483 268.55832ZM419.10858 265.82394Q419.10858 264.74582 419.63983 264.01144Q420.1867 263.26144 421.21796 263.26144Q422.15546 263.26144 422.78046 263.93332Q423.40546 264.6052 423.40546 265.90207Q423.40546 267.18332 422.78046 267.87082Q422.15546 268.55832 421.21796 268.55832Q420.3117 268.55832 419.70233 267.88644Q419.10858 267.19894 419.10858 265.82394ZM421.2492 264.1052Q420.78046 264.1052 420.48358 264.51144Q420.1867 264.90207 420.1867 265.94894Q420.1867 266.9177 420.48358 267.30832Q420.79608 267.69894 421.2492 267.69894Q421.71796 267.69894 422.01483 267.30832Q422.32733 266.9177 422.32733 265.8552Q422.32733 264.88644 422.01483 264.49582Q421.71796 264.1052 421.2492 264.1052Z" fill-rule="nonzero"/><path fill="#000000" d="M337.35318 377.46262L336.1188 377.46262L336.1188 369.61887Q335.6813 370.04074 334.94693 370.47824Q334.22818 370.90012 333.66568 371.10324L333.66568 369.91574Q334.69693 369.43137 335.46255 368.74387Q336.2438 368.05637 336.5563 367.40012L337.35318 367.40012L337.35318 377.46262ZM340.71255 374.83762L342.00943 374.72824Q342.15005 375.66574 342.66568 376.15012Q343.19693 376.61887 343.9313 376.61887Q344.82193 376.61887 345.4313 375.947Q346.0563 375.27512 346.0563 374.18137Q346.0563 373.11887 345.46255 372.5095Q344.8688 371.90012 343.91568 371.90012Q343.32193 371.90012 342.83755 372.18137Q342.3688 372.447 342.08755 372.86887L340.9313 372.72824L341.90005 367.572L346.88443 367.572L346.88443 368.7595L342.88443 368.7595L342.35318 371.447Q343.25943 370.822 344.2438 370.822Q345.5563 370.822 346.44693 371.72824Q347.35318 372.6345 347.35318 374.072Q347.35318 375.43137 346.57193 376.41574Q345.60318 377.6345 343.9313 377.6345Q342.57193 377.6345 341.69693 376.86887Q340.83755 376.10324 340.71255 374.83762ZM349.40005 377.46262L349.40005 376.05637L350.8063 376.05637L350.8063 377.46262L349.40005 377.46262ZM352.71255 372.52512Q352.71255 370.74387 353.07193 369.66574Q353.44693 368.572 354.16568 367.99387Q354.88443 367.40012 355.97818 367.40012Q356.79068 367.40012 357.40005 367.72824Q358.00943 368.05637 358.40005 368.66574Q358.8063 369.27512 359.02505 370.15012Q359.2438 371.02512 359.2438 372.52512Q359.2438 374.29074 358.88443 375.36887Q358.52505 376.447 357.8063 377.04074Q357.08755 377.6345 355.97818 377.6345Q354.54068 377.6345 353.71255 376.58762Q352.71255 375.33762 352.71255 372.52512ZM353.97818 372.52512Q353.97818 374.99387 354.5563 375.80637Q355.13443 376.61887 355.97818 376.61887Q356.83755 376.61887 357.41568 375.80637Q357.9938 374.97824 357.9938 372.52512Q357.9938 370.04074 357.41568 369.22824Q356.83755 368.41574 355.96255 368.41574Q355.1188 368.41574 354.6188 369.1345Q353.97818 370.05637 353.97818 372.52512ZM360.94693 369.85324Q360.94693 368.77512 361.47818 368.02512Q362.02505 367.27512 363.0563 367.27512Q363.9938 367.27512 364.60318 367.947Q365.22818 368.61887 365.22818 369.91574Q365.22818 371.197 364.60318 371.8845Q363.97818 372.572 363.07193 372.572Q362.16568 372.572 361.5563 371.90012Q360.94693 371.21262 360.94693 369.85324ZM363.08755 368.11887Q362.63443 368.11887 362.32193 368.52512Q362.02505 368.91574 362.02505 369.96262Q362.02505 370.93137 362.32193 371.322Q362.63443 371.71262 363.08755 371.71262Q363.5563 371.71262 363.85318 371.322Q364.16568 370.93137 364.16568 369.86887Q364.16568 368.90012 363.85318 368.5095Q363.54068 368.11887 363.08755 368.11887ZM363.08755 377.83762L368.57193 367.27512L369.57193 367.27512L364.1188 377.83762L363.08755 377.83762ZM367.4313 375.10324Q367.4313 374.02512 367.96255 373.29074Q368.50943 372.54074 369.54068 372.54074Q370.47818 372.54074 371.10318 373.21262Q371.72818 373.8845 371.72818 375.18137Q371.72818 376.46262 371.10318 377.15012Q370.47818 377.83762 369.54068 377.83762Q368.63443 377.83762 368.02505 377.16574Q367.4313 376.47824 367.4313 375.10324ZM369.57193 373.3845Q369.10318 373.3845 368.8063 373.79074Q368.50943 374.18137 368.50943 375.22824Q368.50943 376.197 368.8063 376.58762Q369.1188 376.97824 369.57193 376.97824Q370.04068 376.97824 370.33755 376.58762Q370.65005 376.197 370.65005 375.1345Q370.65005 374.16574 370.33755 373.77512Q370.04068 373.3845 369.57193 373.3845Z" fill-rule="nonzero"/><path fill="#000000" d="M179.93456 420.77988L179.93456 421.96738L173.30956 421.96738Q173.29393 421.52988 173.45018 421.108Q173.7158 420.43613 174.26268 419.77988Q174.82518 419.12363 175.87206 418.26425Q177.51268 416.9205 178.07518 416.13925Q178.6533 415.358 178.6533 414.65488Q178.6533 413.9205 178.12206 413.4205Q177.60643 412.9205 176.7783 412.9205Q175.88768 412.9205 175.3408 413.45175Q174.80956 413.983 174.80956 414.93613L173.54393 414.7955Q173.66893 413.38925 174.51268 412.65488Q175.37206 411.90488 176.79393 411.90488Q178.24706 411.90488 179.07518 412.70175Q179.91893 413.49863 179.91893 414.68613Q179.91893 415.2955 179.66893 415.87363Q179.43456 416.45175 178.85643 417.09238Q178.29393 417.733 176.9658 418.858Q175.85643 419.77988 175.54393 420.12363Q175.23143 420.45175 175.0283 420.77988L179.93456 420.77988ZM181.4658 417.02988Q181.4658 415.24863 181.82518 414.1705Q182.20018 413.07675 182.91893 412.49863Q183.63768 411.90488 184.73143 411.90488Q185.54393 411.90488 186.1533 412.233Q186.76268 412.56113 187.1533 413.1705Q187.55956 413.77988 187.7783 414.65488Q187.99706 415.52988 187.99706 417.02988Q187.99706 418.7955 187.63768 419.87363Q187.2783 420.95175 186.55956 421.5455Q185.8408 422.13925 184.73143 422.13925Q183.29393 422.13925 182.4658 421.09238Q181.4658 419.84238 181.4658 417.02988ZM182.73143 417.02988Q182.73143 419.49863 183.30956 420.31113Q183.88768 421.12363 184.73143 421.12363Q185.5908 421.12363 186.16893 420.31113Q186.74706 419.483 186.74706 417.02988Q186.74706 414.5455 186.16893 413.733Q185.5908 412.9205 184.7158 412.9205Q183.87206 412.9205 183.37206 413.63925Q182.73143 414.56113 182.73143 417.02988ZM190.1533 421.96738L190.1533 420.56113L191.55956 420.56113L191.55956 421.96738L190.1533 421.96738ZM193.4658 417.02988Q193.4658 415.24863 193.82518 414.1705Q194.20018 413.07675 194.91893 412.49863Q195.63768 411.90488 196.73143 411.90488Q197.54393 411.90488 198.1533 412.233Q198.76268 412.56113 199.1533 413.1705Q199.55956 413.77988 199.7783 414.65488Q199.99706 415.52988 199.99706 417.02988Q199.99706 418.7955 199.63768 419.87363Q199.2783 420.95175 198.55956 421.5455Q197.8408 422.13925 196.73143 422.13925Q195.29393 422.13925 194.4658 421.09238Q193.4658 419.84238 193.4658 417.02988ZM194.73143 417.02988Q194.73143 419.49863 195.30956 420.31113Q195.88768 421.12363 196.73143 421.12363Q197.5908 421.12363 198.16893 420.31113Q198.74706 419.483 198.74706 417.02988Q198.74706 414.5455 198.16893 413.733Q197.5908 412.9205 196.7158 412.9205Q195.87206 412.9205 195.37206 413.63925Q194.73143 414.56113 194.73143 417.02988ZM201.70018 414.358Q201.70018 413.27988 202.23143 412.52988Q202.7783 411.77988 203.80956 411.77988Q204.74706 411.77988 205.35643 412.45175Q205.98143 413.12363 205.98143 414.4205Q205.98143 415.70175 205.35643 416.38925Q204.73143 417.07675 203.82518 417.07675Q202.91893 417.07675 202.30956 416.40488Q201.70018 415.71738 201.70018 414.358ZM203.8408 412.62363Q203.38768 412.62363 203.07518 413.02988Q202.7783 413.4205 202.7783 414.46738Q202.7783 415.43613 203.07518 415.82675Q203.38768 416.21738 203.8408 416.21738Q204.30956 416.21738 204.60643 415.82675Q204.91893 415.43613 204.91893 414.37363Q204.91893 413.40488 204.60643 413.01425Q204.29393 412.62363 203.8408 412.62363ZM203.8408 422.34238L209.32518 411.77988L210.32518 411.77988L204.87206 422.34238L203.8408 422.34238ZM208.18456 419.608Q208.18456 418.52988 208.7158 417.7955Q209.26268 417.0455 210.29393 417.0455Q211.23143 417.0455 211.85643 417.71738Q212.48143 418.38925 212.48143 419.68613Q212.48143 420.96738 211.85643 421.65488Q211.23143 422.34238 210.29393 422.34238Q209.38768 422.34238 208.7783 421.6705Q208.18456 420.983 208.18456 419.608ZM210.32518 417.88925Q209.85643 417.88925 209.55956 418.2955Q209.26268 418.68613 209.26268 419.733Q209.26268 420.70175 209.55956 421.09238Q209.87206 421.483 210.32518 421.483Q210.79393 421.483 211.0908 421.09238Q211.4033 420.70175 211.4033 419.63925Q211.4033 418.6705 211.0908 418.27988Q210.79393 417.88925 210.32518 417.88925Z" fill-rule="nonzero"/><path fill="#000000" d="M74.01508 310.13043L75.31196 310.02106Q75.45258 310.95856 75.96821 311.44293Q76.49946 311.91168 77.23383 311.91168Q78.12446 311.91168 78.73383 311.2398Q79.35883 310.56793 79.35883 309.47418Q79.35883 308.41168 78.76508 307.8023Q78.17133 307.19293 77.21821 307.19293Q76.62446 307.19293 76.14008 307.47418Q75.67133 307.7398 75.39008 308.16168L74.23383 308.02106L75.20258 302.8648L80.18696 302.8648L80.18696 304.0523L76.18696 304.0523L75.65571 306.7398Q76.56196 306.1148 77.54633 306.1148Q78.85883 306.1148 79.74946 307.02106Q80.65571 307.9273 80.65571 309.3648Q80.65571 310.72418 79.87446 311.70856Q78.90571 312.9273 77.23383 312.9273Q75.87446 312.9273 74.99946 312.16168Q74.14008 311.39606 74.01508 310.13043ZM82.70258 312.75543L82.70258 311.34918L84.10883 311.34918L84.10883 312.75543L82.70258 312.75543ZM86.01508 307.81793Q86.01508 306.03668 86.37446 304.95856Q86.74946 303.8648 87.46821 303.28668Q88.18696 302.69293 89.28071 302.69293Q90.09321 302.69293 90.70258 303.02106Q91.31196 303.34918 91.70258 303.95856Q92.10883 304.56793 92.32758 305.44293Q92.54633 306.31793 92.54633 307.81793Q92.54633 309.58356 92.18696 310.66168Q91.82758 311.7398 91.10883 312.33356Q90.39008 312.9273 89.28071 312.9273Q87.84321 312.9273 87.01508 311.88043Q86.01508 310.63043 86.01508 307.81793ZM87.28071 307.81793Q87.28071 310.28668 87.85883 311.09918Q88.43696 311.91168 89.28071 311.91168Q90.14008 311.91168 90.71821 311.09918Q91.29633 310.27106 91.29633 307.81793Q91.29633 305.33356 90.71821 304.52106Q90.14008 303.70856 89.26508 303.70856Q88.42133 303.70856 87.92133 304.4273Q87.28071 305.34918 87.28071 307.81793ZM94.24946 305.14606Q94.24946 304.06793 94.78071 303.31793Q95.32758 302.56793 96.35883 302.56793Q97.29633 302.56793 97.90571 303.2398Q98.53071 303.91168 98.53071 305.20856Q98.53071 306.4898 97.90571 307.1773Q97.28071 307.8648 96.37446 307.8648Q95.46821 307.8648 94.85883 307.19293Q94.24946 306.50543 94.24946 305.14606ZM96.39008 303.41168Q95.93696 303.41168 95.62446 303.81793Q95.32758 304.20856 95.32758 305.25543Q95.32758 306.22418 95.62446 306.6148Q95.93696 307.00543 96.39008 307.00543Q96.85883 307.00543 97.15571 306.6148Q97.46821 306.22418 97.46821 305.16168Q97.46821 304.19293 97.15571 303.8023Q96.84321 303.41168 96.39008 303.41168ZM96.39008 313.13043L101.87446 302.56793L102.87446 302.56793L97.42133 313.13043L96.39008 313.13043ZM100.73383 310.39606Q100.73383 309.31793 101.26508 308.58356Q101.81196 307.83356 102.84321 307.83356Q103.78071 307.83356 104.40571 308.50543Q105.03071 309.1773 105.03071 310.47418Q105.03071 311.75543 104.40571 312.44293Q103.78071 313.13043 102.84321 313.13043Q101.93696 313.13043 101.32758 312.45856Q100.73383 311.77106 100.73383 310.39606ZM102.87446 308.6773Q102.40571 308.6773 102.10883 309.08356Q101.81196 309.47418 101.81196 310.52106Q101.81196 311.4898 102.10883 311.88043Q102.42133 312.27106 102.87446 312.27106Q103.34321 312.27106 103.64008 311.88043Q103.95258 311.4898 103.95258 310.4273Q103.95258 309.45856 103.64008 309.06793Q103.34321 308.6773 102.87446 308.6773Z" fill-rule="nonzero"/><path fill="#000000" d="M70.66012 277.26614L70.66012 278.45364L64.03512 278.45364Q64.01949 278.01614 64.17574 277.59427Q64.44137 276.9224 64.98824 276.26614Q65.55074 275.6099 66.59762 274.75052Q68.23824 273.40677 68.80074 272.62552Q69.37887 271.84427 69.37887 271.14114Q69.37887 270.40677 68.84762 269.90677Q68.33199 269.40677 67.50387 269.40677Q66.61324 269.40677 66.06637 269.93802Q65.53512 270.46927 65.53512 271.4224L64.26949 271.28177Q64.39449 269.87552 65.23824 269.14114Q66.09762 268.39114 67.51949 268.39114Q68.97262 268.39114 69.80074 269.18802Q70.64449 269.9849 70.64449 271.1724Q70.64449 271.78177 70.39449 272.3599Q70.16012 272.93802 69.58199 273.57864Q69.01949 274.21927 67.69137 275.34427Q66.58199 276.26614 66.26949 276.6099Q65.95699 276.93802 65.75387 277.26614L70.66012 277.26614ZM72.87887 278.45364L72.87887 277.0474L74.28512 277.0474L74.28512 278.45364L72.87887 278.45364ZM76.19137 273.51614Q76.19137 271.7349 76.55074 270.65677Q76.92574 269.56302 77.64449 268.9849Q78.36324 268.39114 79.45699 268.39114Q80.26949 268.39114 80.87887 268.71927Q81.48824 269.0474 81.87887 269.65677Q82.28512 270.26614 82.50387 271.14114Q82.72262 272.01614 82.72262 273.51614Q82.72262 275.28177 82.36324 276.3599Q82.00387 277.43802 81.28512 278.03177Q80.56637 278.62552 79.45699 278.62552Q78.01949 278.62552 77.19137 277.57864Q76.19137 276.32864 76.19137 273.51614ZM77.45699 273.51614Q77.45699 275.9849 78.03512 276.7974Q78.61324 277.6099 79.45699 277.6099Q80.31637 277.6099 80.89449 276.7974Q81.47262 275.96927 81.47262 273.51614Q81.47262 271.03177 80.89449 270.21927Q80.31637 269.40677 79.44137 269.40677Q78.59762 269.40677 78.09762 270.12552Q77.45699 271.0474 77.45699 273.51614ZM84.42574 270.84427Q84.42574 269.76614 84.95699 269.01614Q85.50387 268.26614 86.53512 268.26614Q87.47262 268.26614 88.08199 268.93802Q88.70699 269.6099 88.70699 270.90677Q88.70699 272.18802 88.08199 272.87552Q87.45699 273.56302 86.55074 273.56302Q85.64449 273.56302 85.03512 272.89114Q84.42574 272.20364 84.42574 270.84427ZM86.56637 269.1099Q86.11324 269.1099 85.80074 269.51614Q85.50387 269.90677 85.50387 270.95364Q85.50387 271.9224 85.80074 272.31302Q86.11324 272.70364 86.56637 272.70364Q87.03512 272.70364 87.33199 272.31302Q87.64449 271.9224 87.64449 270.8599Q87.64449 269.89114 87.33199 269.50052Q87.01949 269.1099 86.56637 269.1099ZM86.56637 278.82864L92.05074 268.26614L93.05074 268.26614L87.59762 278.82864L86.56637 278.82864ZM90.91012 276.09427Q90.91012 275.01614 91.44137 274.28177Q91.98824 273.53177 93.01949 273.53177Q93.95699 273.53177 94.58199 274.20364Q95.20699 274.87552 95.20699 276.1724Q95.20699 277.45364 94.58199 278.14114Q93.95699 278.82864 93.01949 278.82864Q92.11324 278.82864 91.50387 278.15677Q90.91012 277.46927 90.91012 276.09427ZM93.05074 274.37552Q92.58199 274.37552 92.28512 274.78177Q91.98824 275.1724 91.98824 276.21927Q91.98824 277.18802 92.28512 277.57864Q92.59762 277.96927 93.05074 277.96927Q93.51949 277.96927 93.81637 277.57864Q94.12887 277.18802 94.12887 276.12552Q94.12887 275.15677 93.81637 274.76614Q93.51949 274.37552 93.05074 274.37552Z" fill-rule="nonzero"/><path fill="#000000" d="M80.04765 220.0867L78.81328 220.0867L78.81328 212.24295Q78.37578 212.66483 77.6414 213.10233Q76.92265 213.5242 76.36015 213.72733L76.36015 212.53983Q77.3914 212.05545 78.15703 211.36795Q78.93828 210.68045 79.25078 210.0242L80.04765 210.0242L80.04765 220.0867ZM83.40703 215.1492Q83.40703 213.36795 83.7664 212.28983Q84.1414 211.19608 84.86015 210.61795Q85.5789 210.0242 86.67265 210.0242Q87.48515 210.0242 88.09453 210.35233Q88.7039 210.68045 89.09453 211.28983Q89.50078 211.8992 89.71953 212.7742Q89.93828 213.6492 89.93828 215.1492Q89.93828 216.91483 89.5789 217.99295Q89.21953 219.07108 88.50078 219.66483Q87.78203 220.25858 86.67265 220.25858Q85.23515 220.25858 84.40703 219.2117Q83.40703 217.9617 83.40703 215.1492ZM84.67265 215.1492Q84.67265 217.61795 85.25078 218.43045Q85.8289 219.24295 86.67265 219.24295Q87.53203 219.24295 88.11015 218.43045Q88.68828 217.60233 88.68828 215.1492Q88.68828 212.66483 88.11015 211.85233Q87.53203 211.03983 86.65703 211.03983Q85.81328 211.03983 85.31328 211.75858Q84.67265 212.68045 84.67265 215.1492ZM92.09453 220.0867L92.09453 218.68045L93.50078 218.68045L93.50078 220.0867L92.09453 220.0867ZM95.40703 215.1492Q95.40703 213.36795 95.7664 212.28983Q96.1414 211.19608 96.86015 210.61795Q97.5789 210.0242 98.67265 210.0242Q99.48515 210.0242 100.09453 210.35233Q100.7039 210.68045 101.09453 211.28983Q101.50078 211.8992 101.71953 212.7742Q101.93828 213.6492 101.93828 215.1492Q101.93828 216.91483 101.5789 217.99295Q101.21953 219.07108 100.50078 219.66483Q99.78203 220.25858 98.67265 220.25858Q97.23515 220.25858 96.40703 219.2117Q95.40703 217.9617 95.40703 215.1492ZM96.67265 215.1492Q96.67265 217.61795 97.25078 218.43045Q97.8289 219.24295 98.67265 219.24295Q99.53203 219.24295 100.11015 218.43045Q100.68828 217.60233 100.68828 215.1492Q100.68828 212.66483 100.11015 211.85233Q99.53203 211.03983 98.65703 211.03983Q97.81328 211.03983 97.31328 211.75858Q96.67265 212.68045 96.67265 215.1492ZM103.6414 212.47733Q103.6414 211.3992 104.17265 210.6492Q104.71953 209.8992 105.75078 209.8992Q106.68828 209.8992 107.29765 210.57108Q107.92265 211.24295 107.92265 212.53983Q107.92265 213.82108 107.29765 214.50858Q106.67265 215.19608 105.7664 215.19608Q104.86015 215.19608 104.25078 214.5242Q103.6414 213.8367 103.6414 212.47733ZM105.78203 210.74295Q105.3289 210.74295 105.0164 211.1492Q104.71953 211.53983 104.71953 212.5867Q104.71953 213.55545 105.0164 213.94608Q105.3289 214.3367 105.78203 214.3367Q106.25078 214.3367 106.54765 213.94608Q106.86015 213.55545 106.86015 212.49295Q106.86015 211.5242 106.54765 211.13358Q106.23515 210.74295 105.78203 210.74295ZM105.78203 220.4617L111.2664 209.8992L112.2664 209.8992L106.81328 220.4617L105.78203 220.4617ZM110.12578 217.72733Q110.12578 216.6492 110.65703 215.91483Q111.2039 215.16483 112.23515 215.16483Q113.17265 215.16483 113.79765 215.8367Q114.42265 216.50858 114.42265 217.80545Q114.42265 219.0867 113.79765 219.7742Q113.17265 220.4617 112.23515 220.4617Q111.3289 220.4617 110.71953 219.78983Q110.12578 219.10233 110.12578 217.72733ZM112.2664 216.00858Q111.79765 216.00858 111.50078 216.41483Q111.2039 216.80545 111.2039 217.85233Q111.2039 218.82108 111.50078 219.2117Q111.81328 219.60233 112.2664 219.60233Q112.73515 219.60233 113.03203 219.2117Q113.34453 218.82108 113.34453 217.75858Q113.34453 216.78983 113.03203 216.3992Q112.73515 216.00858 112.2664 216.00858Z" fill-rule="nonzero"/><path fill="#000000" d="M156.1591 127.04262L154.92473 127.04262L154.92473 119.19887Q154.48723 119.62074 153.75285 120.05824Q153.0341 120.48012 152.4716 120.68324L152.4716 119.49574Q153.50285 119.01137 154.26848 118.32387Q155.04973 117.63637 155.36223 116.98012L156.1591 116.98012L156.1591 127.04262ZM159.51848 124.41762L160.81535 124.30824Q160.95598 125.24574 161.4716 125.73012Q162.00285 126.19887 162.73723 126.19887Q163.62785 126.19887 164.23723 125.52699Q164.86223 124.85512 164.86223 123.76137Q164.86223 122.69887 164.26848 122.08949Q163.67473 121.48012 162.7216 121.48012Q162.12785 121.48012 161.64348 121.76137Q161.17473 122.02699 160.89348 122.44887L159.73723 122.30824L160.70598 117.15199L165.69035 117.15199L165.69035 118.33949L161.69035 118.33949L161.1591 121.02699Q162.06535 120.40199 163.04973 120.40199Q164.36223 120.40199 165.25285 121.30824Q166.1591 122.21449 166.1591 123.65199Q166.1591 125.01137 165.37785 125.99574Q164.4091 127.21449 162.73723 127.21449Q161.37785 127.21449 160.50285 126.44887Q159.64348 125.68324 159.51848 124.41762ZM168.20598 127.04262L168.20598 125.63637L169.61223 125.63637L169.61223 127.04262L168.20598 127.04262ZM171.51848 122.10512Q171.51848 120.32387 171.87785 119.24574Q172.25285 118.15199 172.9716 117.57387Q173.69035 116.98012 174.7841 116.98012Q175.5966 116.98012 176.20598 117.30824Q176.81535 117.63637 177.20598 118.24574Q177.61223 118.85512 177.83098 119.73012Q178.04973 120.60512 178.04973 122.10512Q178.04973 123.87074 177.69035 124.94887Q177.33098 126.02699 176.61223 126.62074Q175.89348 127.21449 174.7841 127.21449Q173.3466 127.21449 172.51848 126.16762Q171.51848 124.91762 171.51848 122.10512ZM172.7841 122.10512Q172.7841 124.57387 173.36223 125.38637Q173.94035 126.19887 174.7841 126.19887Q175.64348 126.19887 176.2216 125.38637Q176.79973 124.55824 176.79973 122.10512Q176.79973 119.62074 176.2216 118.80824Q175.64348 117.99574 174.76848 117.99574Q173.92473 117.99574 173.42473 118.71449Q172.7841 119.63637 172.7841 122.10512ZM179.75285 119.43324Q179.75285 118.35512 180.2841 117.60512Q180.83098 116.85512 181.86223 116.85512Q182.79973 116.85512 183.4091 117.52699Q184.0341 118.19887 184.0341 119.49574Q184.0341 120.77699 183.4091 121.46449Q182.7841 122.15199 181.87785 122.15199Q180.9716 122.15199 180.36223 121.48012Q179.75285 120.79262 179.75285 119.43324ZM181.89348 117.69887Q181.44035 117.69887 181.12785 118.10512Q180.83098 118.49574 180.83098 119.54262Q180.83098 120.51137 181.12785 120.90199Q181.44035 121.29262 181.89348 121.29262Q182.36223 121.29262 182.6591 120.90199Q182.9716 120.51137 182.9716 119.44887Q182.9716 118.48012 182.6591 118.08949Q182.3466 117.69887 181.89348 117.69887ZM181.89348 127.41762L187.37785 116.85512L188.37785 116.85512L182.92473 127.41762L181.89348 127.41762ZM186.23723 124.68324Q186.23723 123.60512 186.76848 122.87074Q187.31535 122.12074 188.3466 122.12074Q189.2841 122.12074 189.9091 122.79262Q190.5341 123.46449 190.5341 124.76137Q190.5341 126.04262 189.9091 126.73012Q189.2841 127.41762 188.3466 127.41762Q187.44035 127.41762 186.83098 126.74574Q186.23723 126.05824 186.23723 124.68324ZM188.37785 122.96449Q187.9091 122.96449 187.61223 123.37074Q187.31535 123.76137 187.31535 124.80824Q187.31535 125.77699 187.61223 126.16762Q187.92473 126.55824 188.37785 126.55824Q188.8466 126.55824 189.14348 126.16762Q189.45598 125.77699 189.45598 124.71449Q189.45598 123.74574 189.14348 123.35512Q188.8466 122.96449 188.37785 122.96449Z" fill-rule="nonzero"/><path fill="#fbbc04" d="M485.5058 162.1639C485.5058 165.4776 482.81952 168.1639 479.5058 168.1639C476.1921 168.1639 473.5058 165.4776 473.5058 162.1639C473.5058 158.85019 476.1921 156.1639 479.5058 156.1639C482.81952 156.1639 485.5058 158.85019 485.5058 162.1639Z" fill-rule="nonzero"/><path fill="#ffffff" d="M494.53705 167.1639L494.53705 157.14827L498.28705 157.14827Q499.4433 157.14827 500.1308 157.46077Q500.83392 157.75764 501.22455 158.38264Q501.61517 159.00764 501.61517 159.71077Q501.61517 160.3514 501.2558 160.9139Q500.91205 161.4764 500.20892 161.83577Q501.11517 162.1014 501.59955 162.74202Q502.09955 163.38264 502.09955 164.25764Q502.09955 164.96077 501.80267 165.57014Q501.5058 166.17952 501.0683 166.50764Q500.6308 166.83577 499.95892 167.00764Q499.30267 167.1639 498.34955 167.1639L494.53705 167.1639ZM495.86517 161.3514L498.02142 161.3514Q498.91205 161.3514 499.28705 161.24202Q499.80267 161.08577 500.05267 160.74202Q500.30267 160.38264 500.30267 159.86702Q500.30267 159.36702 500.0683 158.99202Q499.83392 158.6014 499.3808 158.46077Q498.9433 158.32014 497.86517 158.32014L495.86517 158.32014L495.86517 161.3514ZM495.86517 165.9764L498.34955 165.9764Q498.99017 165.9764 499.2558 165.92952Q499.70892 165.8514 500.02142 165.6639Q500.33392 165.46077 500.52142 165.1014Q500.72455 164.74202 500.72455 164.25764Q500.72455 163.69514 500.42767 163.2889Q500.14642 162.86702 499.6308 162.71077Q499.1308 162.5389 498.17767 162.5389L495.86517 162.5389L495.86517 165.9764ZM502.9433 164.99202L504.14642 164.80452Q504.2558 165.5389 504.72455 165.92952Q505.1933 166.32014 506.03705 166.32014Q506.8808 166.32014 507.28705 165.9764Q507.70892 165.63264 507.70892 165.1639Q507.70892 164.74202 507.33392 164.50764Q507.08392 164.33577 506.08392 164.08577Q504.72455 163.74202 504.1933 163.49202Q503.67767 163.24202 503.41205 162.80452Q503.14642 162.36702 503.14642 161.83577Q503.14642 161.3514 503.36517 160.94514Q503.58392 160.52327 503.97455 160.24202Q504.2558 160.0389 504.74017 159.89827Q505.24017 159.74202 505.8183 159.74202Q506.66205 159.74202 507.30267 159.99202Q507.95892 160.2264 508.27142 160.64827Q508.58392 161.07014 508.6933 161.77327L507.49017 161.94514Q507.41205 161.38264 507.0058 161.07014Q506.61517 160.75764 505.89642 160.75764Q505.05267 160.75764 504.6933 161.0389Q504.33392 161.30452 504.33392 161.69514Q504.33392 161.92952 504.47455 162.11702Q504.6308 162.32014 504.95892 162.44514Q505.1308 162.50764 506.03705 162.75764Q507.34955 163.11702 507.86517 163.33577Q508.3808 163.55452 508.66205 163.9764Q508.95892 164.39827 508.95892 165.02327Q508.95892 165.64827 508.59955 166.19514Q508.2558 166.7264 507.5683 167.0389Q506.89642 167.33577 506.03705 167.33577Q504.6308 167.33577 503.8808 166.74202Q503.14642 166.14827 502.9433 164.99202ZM515.16205 164.50764L516.3808 164.6639Q516.1777 165.9139 515.34955 166.63264Q514.53705 167.33577 513.34955 167.33577Q511.86517 167.33577 510.95892 166.36702Q510.05267 165.38264 510.05267 163.55452Q510.05267 162.38264 510.4433 161.50764Q510.83392 160.61702 511.6308 160.17952Q512.4277 159.74202 513.3652 159.74202Q514.53705 159.74202 515.28705 160.33577Q516.0527 160.92952 516.2558 162.0389L515.0683 162.2264Q514.8964 161.49202 514.4589 161.13264Q514.0214 160.75764 513.41205 160.75764Q512.47455 160.75764 511.89642 161.42952Q511.3183 162.08577 511.3183 163.52327Q511.3183 164.99202 511.8808 165.6639Q512.4433 166.32014 513.3339 166.32014Q514.0683 166.32014 514.5527 165.88264Q515.03705 165.42952 515.16205 164.50764ZM521.3964 167.1639L521.3964 157.14827L522.6308 157.14827L522.6308 167.1639L521.3964 167.1639ZM529.16205 166.27327Q528.4902 166.8514 527.84955 167.1014Q527.22455 167.33577 526.4902 167.33577Q525.3027 167.33577 524.6464 166.75764Q524.0058 166.1639 524.0058 165.24202Q524.0058 164.71077 524.2402 164.27327Q524.4902 163.83577 524.8808 163.57014Q525.28705 163.30452 525.7714 163.1639Q526.1308 163.07014 526.8652 162.9764Q528.3652 162.80452 529.0683 162.55452Q529.0683 162.30452 529.0683 162.24202Q529.0683 161.4764 528.72455 161.17952Q528.2558 160.75764 527.3183 160.75764Q526.4589 160.75764 526.03705 161.07014Q525.6308 161.36702 525.4277 162.13264L524.22455 161.9764Q524.3808 161.19514 524.7558 160.7264Q525.1464 160.25764 525.84955 160.00764Q526.5683 159.74202 527.5058 159.74202Q528.4277 159.74202 529.0058 159.96077Q529.5839 160.17952 529.84955 160.50764Q530.1308 160.83577 530.2402 161.3514Q530.3027 161.6639 530.3027 162.4764L530.3027 164.11702Q530.3027 165.83577 530.3808 166.2889Q530.4589 166.74202 530.6933 167.1639L529.41205 167.1639Q529.22455 166.77327 529.16205 166.27327ZM529.0683 163.52327Q528.3964 163.7889 527.0527 163.99202Q526.3027 164.1014 525.97455 164.24202Q525.66205 164.36702 525.4902 164.63264Q525.3183 164.89827 525.3183 165.21077Q525.3183 165.71077 525.6933 166.0389Q526.0683 166.36702 526.78705 166.36702Q527.5058 166.36702 528.0527 166.05452Q528.59955 165.74202 528.8652 165.19514Q529.0683 164.7889 529.0683 163.9764L529.0683 163.52327ZM537.1933 167.1639L537.1933 166.1014Q536.3339 167.33577 534.8808 167.33577Q534.2402 167.33577 533.6777 167.08577Q533.1308 166.83577 532.84955 166.46077Q532.5839 166.08577 532.47455 165.55452Q532.3964 165.19514 532.3964 164.39827L532.3964 159.89827L533.6308 159.89827L533.6308 163.92952Q533.6308 164.89827 533.7089 165.2264Q533.8183 165.71077 534.1933 165.99202Q534.5683 166.27327 535.1308 166.27327Q535.6777 166.27327 536.16205 165.99202Q536.6464 165.69514 536.84955 165.21077Q537.0527 164.7264 537.0527 163.7889L537.0527 159.89827L538.28705 159.89827L538.28705 167.1639L537.1933 167.1639ZM540.4277 167.1639L540.4277 159.89827L541.53705 159.89827L541.53705 160.92952Q542.3339 159.74202 543.84955 159.74202Q544.5058 159.74202 545.0527 159.9764Q545.59955 160.21077 545.8652 160.6014Q546.1464 160.9764 546.2558 161.50764Q546.3339 161.8514 546.3339 162.69514L546.3339 167.1639L545.09955 167.1639L545.09955 162.74202Q545.09955 161.99202 544.9589 161.63264Q544.8183 161.25764 544.4433 161.0389Q544.0839 160.80452 543.5839 160.80452Q542.8027 160.80452 542.22455 161.30452Q541.66205 161.80452 541.66205 163.19514L541.66205 167.1639L540.4277 167.1639ZM553.16205 164.50764L554.3808 164.6639Q554.1777 165.9139 553.34955 166.63264Q552.53705 167.33577 551.34955 167.33577Q549.8652 167.33577 548.9589 166.36702Q548.0527 165.38264 548.0527 163.55452Q548.0527 162.38264 548.4433 161.50764Q548.8339 160.61702 549.6308 160.17952Q550.4277 159.74202 551.3652 159.74202Q552.53705 159.74202 553.28705 160.33577Q554.0527 160.92952 554.2558 162.0389L553.0683 162.2264Q552.8964 161.49202 552.4589 161.13264Q552.0214 160.75764 551.41205 160.75764Q550.47455 160.75764 549.8964 161.42952Q549.3183 162.08577 549.3183 163.52327Q549.3183 164.99202 549.8808 165.6639Q550.4433 166.32014 551.3339 166.32014Q552.0683 166.32014 552.5527 165.88264Q553.03705 165.42952 553.16205 164.50764ZM555.4277 167.1639L555.4277 157.14827L556.66205 157.14827L556.66205 160.74202Q557.5214 159.74202 558.8339 159.74202Q559.6464 159.74202 560.2402 160.07014Q560.8339 160.38264 561.0839 160.94514Q561.34955 161.49202 561.34955 162.57014L561.34955 167.1639L560.1152 167.1639L560.1152 162.57014Q560.1152 161.63264 559.7089 161.2264Q559.3183 160.80452 558.5839 160.80452Q558.03705 160.80452 557.5527 161.08577Q557.0683 161.36702 556.8652 161.8514Q556.66205 162.33577 556.66205 163.19514L556.66205 167.1639L555.4277 167.1639Z" fill-rule="nonzero"/><path fill="#38761d" d="M485.5058 188.1639C485.5058 191.4776 482.81952 194.1639 479.5058 194.1639C476.1921 194.1639 473.5058 191.4776 473.5058 188.1639C473.5058 184.85019 476.1921 182.1639 479.5058 182.1639C482.81952 182.1639 485.5058 184.85019 485.5058 188.1639Z" fill-rule="nonzero"/><path fill="#ffffff" d="M493.49017 193.1639L497.33392 183.14827L498.7558 183.14827L502.86517 193.1639L501.34955 193.1639L500.17767 190.13264L495.99017 190.13264L494.89642 193.1639L493.49017 193.1639ZM496.3808 189.05452L499.77142 189.05452L498.72455 186.27327Q498.2558 185.00764 498.02142 184.19514Q497.83392 185.1639 497.47455 186.1014L496.3808 189.05452ZM503.55267 193.1639L503.55267 183.14827L505.53705 183.14827L507.91205 190.24202Q508.24017 191.2264 508.39642 191.7264Q508.5683 191.17952 508.92767 190.11702L511.3183 183.14827L513.1152 183.14827L513.1152 193.1639L511.83392 193.1639L511.83392 184.77327L508.91205 193.1639L507.72455 193.1639L504.8183 184.63264L504.8183 193.1639L503.55267 193.1639ZM515.5527 193.1639L515.5527 183.14827L517.53705 183.14827L519.91205 190.24202Q520.2402 191.2264 520.3964 191.7264Q520.5683 191.17952 520.9277 190.11702L523.3183 183.14827L525.1152 183.14827L525.1152 193.1639L523.8339 193.1639L523.8339 184.77327L520.91205 193.1639L519.72455 193.1639L516.8183 184.63264L516.8183 193.1639L515.5527 193.1639ZM531.3964 193.1639L531.3964 183.14827L532.6308 183.14827L532.6308 193.1639L531.3964 193.1639ZM534.4433 184.55452L534.4433 183.14827L535.66205 183.14827L535.66205 184.55452L534.4433 184.55452ZM534.4433 193.1639L534.4433 185.89827L535.66205 185.89827L535.66205 193.1639L534.4433 193.1639ZM542.0527 195.94514L542.0527 192.39827Q541.7714 192.7889 541.2558 193.07014Q540.7402 193.33577 540.16205 193.33577Q538.8652 193.33577 537.9277 192.30452Q537.0058 191.25764 537.0058 189.46077Q537.0058 188.36702 537.3808 187.50764Q537.7558 186.63264 538.47455 186.19514Q539.1933 185.74202 540.0683 185.74202Q541.41205 185.74202 542.1777 186.86702L542.1777 185.89827L543.28705 185.89827L543.28705 195.94514L542.0527 195.94514ZM538.2558 189.50764Q538.2558 190.9139 538.84955 191.61702Q539.4433 192.32014 540.2558 192.32014Q541.0527 192.32014 541.6152 191.64827Q542.1777 190.9764 542.1777 189.61702Q542.1777 188.17952 541.5839 187.44514Q540.9902 186.71077 540.1777 186.71077Q539.3808 186.71077 538.8183 187.39827Q538.2558 188.07014 538.2558 189.50764ZM550.1933 193.1639L550.1933 192.1014Q549.3339 193.33577 547.8808 193.33577Q547.2402 193.33577 546.6777 193.08577Q546.1308 192.83577 545.84955 192.46077Q545.5839 192.08577 545.47455 191.55452Q545.3964 191.19514 545.3964 190.39827L545.3964 185.89827L546.6308 185.89827L546.6308 189.92952Q546.6308 190.89827 546.7089 191.2264Q546.8183 191.71077 547.1933 191.99202Q547.5683 192.27327 548.1308 192.27327Q548.6777 192.27327 549.16205 191.99202Q549.6464 191.69514 549.84955 191.21077Q550.0527 190.7264 550.0527 189.7889L550.0527 185.89827L551.28705 185.89827L551.28705 193.1639L550.1933 193.1639ZM553.4433 184.55452L553.4433 183.14827L554.66205 183.14827L554.66205 184.55452L553.4433 184.55452ZM553.4433 193.1639L553.4433 185.89827L554.66205 185.89827L554.66205 193.1639L553.4433 193.1639ZM561.1464 193.1639L561.1464 192.24202Q560.4433 193.33577 559.1152 193.33577Q558.2402 193.33577 557.5058 192.8514Q556.78705 192.36702 556.3808 191.50764Q555.9902 190.64827 555.9902 189.5389Q555.9902 188.46077 556.34955 187.57014Q556.7089 186.67952 557.4277 186.21077Q558.16205 185.74202 559.0527 185.74202Q559.7089 185.74202 560.22455 186.02327Q560.7402 186.2889 561.0527 186.74202L561.0527 183.14827L562.28705 183.14827L562.28705 193.1639L561.1464 193.1639ZM557.2558 189.5389Q557.2558 190.92952 557.8339 191.63264Q558.4277 192.32014 559.22455 192.32014Q560.03705 192.32014 560.59955 191.6639Q561.16205 190.99202 561.16205 189.64827Q561.16205 188.14827 560.5839 187.46077Q560.0058 186.75764 559.1777 186.75764Q558.34955 186.75764 557.8027 187.42952Q557.2558 188.1014 557.2558 189.5389ZM564.4433 184.55452L564.4433 183.14827L565.66205 183.14827L565.66205 184.55452L564.4433 184.55452ZM564.4433 193.1639L564.4433 185.89827L565.66205 185.89827L565.66205 193.1639L564.4433 193.1639ZM570.1152 192.07014L570.28705 193.14827Q569.7714 193.25764 569.3652 193.25764Q568.6933 193.25764 568.3183 193.05452Q567.9589 192.83577 567.8027 192.49202Q567.66205 192.14827 567.66205 191.0389L567.66205 186.86702L566.7558 186.86702L566.7558 185.89827L567.66205 185.89827L567.66205 184.1014L568.8808 183.36702L568.8808 185.89827L570.1152 185.89827L570.1152 186.86702L568.8808 186.86702L568.8808 191.1014Q568.8808 191.63264 568.9433 191.7889Q569.0058 191.92952 569.1464 192.02327Q569.3027 192.11702 569.5683 192.11702Q569.78705 192.11702 570.1152 192.07014ZM571.3808 195.96077L571.2402 194.80452Q571.6464 194.9139 571.9433 194.9139Q572.34955 194.9139 572.59955 194.77327Q572.84955 194.64827 573.0058 194.39827Q573.1152 194.21077 573.3808 193.4764Q573.41205 193.38264 573.4902 193.17952L570.72455 185.89827L572.0527 185.89827L573.5683 190.1014Q573.8652 190.9139 574.09955 191.7889Q574.3027 190.94514 574.59955 190.13264L576.1464 185.89827L577.3808 185.89827L574.6152 193.2889Q574.1777 194.4764 573.9277 194.92952Q573.59955 195.5389 573.1777 195.82014Q572.7558 196.11702 572.16205 196.11702Q571.8183 196.11702 571.3808 195.96077Z" fill-rule="nonzero"/><path fill="#e06666" d="M485.5058 214.1639C485.5058 217.4776 482.81952 220.1639 479.5058 220.1639C476.1921 220.1639 473.5058 217.4776 473.5058 214.1639C473.5058 210.85019 476.1921 208.1639 479.5058 208.1639C482.81952 208.1639 485.5058 210.85019 485.5058 214.1639Z" fill-rule="nonzero"/><path fill="#ffffff" d="M494.53705 219.1639L494.53705 209.14827L495.86517 209.14827L495.86517 217.9764L500.78705 217.9764L500.78705 219.1639L494.53705 219.1639ZM502.4433 210.55452L502.4433 209.14827L503.66205 209.14827L503.66205 210.55452L502.4433 210.55452ZM502.4433 219.1639L502.4433 211.89827L503.66205 211.89827L503.66205 219.1639L502.4433 219.1639ZM510.05267 221.94514L510.05267 218.39827Q509.77142 218.7889 509.2558 219.07014Q508.74017 219.33577 508.16205 219.33577Q506.86517 219.33577 505.92767 218.30452Q505.0058 217.25764 505.0058 215.46077Q505.0058 214.36702 505.3808 213.50764Q505.7558 212.63264 506.47455 212.19514Q507.1933 211.74202 508.0683 211.74202Q509.41205 211.74202 510.17767 212.86702L510.17767 211.89827L511.28705 211.89827L511.28705 221.94514L510.05267 221.94514ZM506.2558 215.50764Q506.2558 216.9139 506.84955 217.61702Q507.4433 218.32014 508.2558 218.32014Q509.05267 218.32014 509.61517 217.64827Q510.17767 216.9764 510.17767 215.61702Q510.17767 214.17952 509.58392 213.44514Q508.99017 212.71077 508.17767 212.71077Q507.3808 212.71077 506.8183 213.39827Q506.2558 214.07014 506.2558 215.50764ZM518.1933 219.1639L518.1933 218.1014Q517.3339 219.33577 515.8808 219.33577Q515.2402 219.33577 514.6777 219.08577Q514.1308 218.83577 513.84955 218.46077Q513.5839 218.08577 513.47455 217.55452Q513.3964 217.19514 513.3964 216.39827L513.3964 211.89827L514.6308 211.89827L514.6308 215.92952Q514.6308 216.89827 514.7089 217.2264Q514.8183 217.71077 515.1933 217.99202Q515.5683 218.27327 516.1308 218.27327Q516.6777 218.27327 517.16205 217.99202Q517.6464 217.69514 517.84955 217.21077Q518.0527 216.7264 518.0527 215.7889L518.0527 211.89827L519.28705 211.89827L519.28705 219.1639L518.1933 219.1639ZM521.4433 210.55452L521.4433 209.14827L522.66205 209.14827L522.66205 210.55452L521.4433 210.55452ZM521.4433 219.1639L521.4433 211.89827L522.66205 211.89827L522.66205 219.1639L521.4433 219.1639ZM529.1464 219.1639L529.1464 218.24202Q528.4433 219.33577 527.1152 219.33577Q526.2402 219.33577 525.5058 218.8514Q524.78705 218.36702 524.3808 217.50764Q523.9902 216.64827 523.9902 215.5389Q523.9902 214.46077 524.34955 213.57014Q524.7089 212.67952 525.4277 212.21077Q526.16205 211.74202 527.0527 211.74202Q527.7089 211.74202 528.22455 212.02327Q528.7402 212.2889 529.0527 212.74202L529.0527 209.14827L530.28705 209.14827L530.28705 219.1639L529.1464 219.1639ZM525.2558 215.5389Q525.2558 216.92952 525.8339 217.63264Q526.4277 218.32014 527.22455 218.32014Q528.03705 218.32014 528.59955 217.6639Q529.16205 216.99202 529.16205 215.64827Q529.16205 214.14827 528.5839 213.46077Q528.0058 212.75764 527.1777 212.75764Q526.34955 212.75764 525.8027 213.42952Q525.2558 214.1014 525.2558 215.5389ZM532.4433 210.55452L532.4433 209.14827L533.66205 209.14827L533.66205 210.55452L532.4433 210.55452ZM532.4433 219.1639L532.4433 211.89827L533.66205 211.89827L533.66205 219.1639L532.4433 219.1639ZM538.1152 218.07014L538.28705 219.14827Q537.7714 219.25764 537.3652 219.25764Q536.6933 219.25764 536.3183 219.05452Q535.9589 218.83577 535.8027 218.49202Q535.66205 218.14827 535.66205 217.0389L535.66205 212.86702L534.7558 212.86702L534.7558 211.89827L535.66205 211.89827L535.66205 210.1014L536.8808 209.36702L536.8808 211.89827L538.1152 211.89827L538.1152 212.86702L536.8808 212.86702L536.8808 217.1014Q536.8808 217.63264 536.9433 217.7889Q537.0058 217.92952 537.1464 218.02327Q537.3027 218.11702 537.5683 218.11702Q537.78705 218.11702 538.1152 218.07014ZM539.3808 221.96077L539.2402 220.80452Q539.6464 220.9139 539.9433 220.9139Q540.34955 220.9139 540.59955 220.77327Q540.84955 220.64827 541.0058 220.39827Q541.1152 220.21077 541.3808 219.4764Q541.41205 219.38264 541.4902 219.17952L538.72455 211.89827L540.0527 211.89827L541.5683 216.1014Q541.8652 216.9139 542.09955 217.7889Q542.3027 216.94514 542.59955 216.13264L544.1464 211.89827L545.3808 211.89827L542.6152 219.2889Q542.1777 220.4764 541.9277 220.92952Q541.59955 221.5389 541.1777 221.82014Q540.7558 222.11702 540.16205 222.11702Q539.8183 222.11702 539.3808 221.96077ZM550.4277 219.1639L550.4277 211.89827L551.53705 211.89827L551.53705 212.92952Q551.8652 212.38264 552.4277 212.07014Q553.0058 211.74202 553.72455 211.74202Q554.53705 211.74202 555.0527 212.08577Q555.5683 212.4139 555.78705 213.00764Q556.6464 211.74202 558.0214 211.74202Q559.09955 211.74202 559.6777 212.33577Q560.2714 212.92952 560.2714 214.17952L560.2714 219.1639L559.03705 219.1639L559.03705 214.58577Q559.03705 213.8514 558.91205 213.52327Q558.8027 213.19514 558.4902 213.00764Q558.1777 212.80452 557.7558 212.80452Q556.9902 212.80452 556.47455 213.32014Q555.97455 213.82014 555.97455 214.94514L555.97455 219.1639L554.7402 219.1639L554.7402 214.44514Q554.7402 213.63264 554.4433 213.2264Q554.1464 212.80452 553.4589 212.80452Q552.9433 212.80452 552.4902 213.08577Q552.0527 213.3514 551.84955 213.88264Q551.66205 214.39827 551.66205 215.39827L551.66205 219.1639L550.4277 219.1639ZM562.4433 210.55452L562.4433 209.14827L563.66205 209.14827L563.66205 210.55452L562.4433 210.55452ZM562.4433 219.1639L562.4433 211.89827L563.66205 211.89827L563.66205 219.1639L562.4433 219.1639ZM565.4277 219.1639L565.4277 211.89827L566.53705 211.89827L566.53705 212.92952Q567.3339 211.74202 568.84955 211.74202Q569.5058 211.74202 570.0527 211.9764Q570.59955 212.21077 570.8652 212.6014Q571.1464 212.9764 571.2558 213.50764Q571.3339 213.8514 571.3339 214.69514L571.3339 219.1639L570.09955 219.1639L570.09955 214.74202Q570.09955 213.99202 569.9589 213.63264Q569.8183 213.25764 569.4433 213.0389Q569.0839 212.80452 568.5839 212.80452Q567.8027 212.80452 567.22455 213.30452Q566.66205 213.80452 566.66205 215.19514L566.66205 219.1639L565.4277 219.1639ZM573.4433 210.55452L573.4433 209.14827L574.66205 209.14827L574.66205 210.55452L573.4433 210.55452ZM573.4433 219.1639L573.4433 211.89827L574.66205 211.89827L574.66205 219.1639L573.4433 219.1639ZM576.4277 219.1639L576.4277 211.89827L577.53705 211.89827L577.53705 212.92952Q578.3339 211.74202 579.84955 211.74202Q580.5058 211.74202 581.0527 211.9764Q581.59955 212.21077 581.8652 212.6014Q582.1464 212.9764 582.2558 213.50764Q582.3339 213.8514 582.3339 214.69514L582.3339 219.1639L581.09955 219.1639L581.09955 214.74202Q581.09955 213.99202 580.9589 213.63264Q580.8183 213.25764 580.4433 213.0389Q580.0839 212.80452 579.5839 212.80452Q578.8027 212.80452 578.22455 213.30452Q577.66205 213.80452 577.66205 215.19514L577.66205 219.1639L576.4277 219.1639ZM584.2089 219.77327L585.3964 219.94514Q585.47455 220.49202 585.8183 220.75764Q586.2714 221.08577 587.0683 221.08577Q587.9277 221.08577 588.3808 220.74202Q588.84955 220.4139 589.0214 219.7889Q589.1152 219.4139 589.09955 218.21077Q588.3027 219.1639 587.09955 219.1639Q585.59955 219.1639 584.7714 218.08577Q583.9589 217.00764 583.9589 215.49202Q583.9589 214.46077 584.3339 213.58577Q584.7089 212.69514 585.41205 212.2264Q586.1308 211.74202 587.09955 211.74202Q588.3808 211.74202 589.22455 212.77327L589.22455 211.89827L590.34955 211.89827L590.34955 218.17952Q590.34955 219.88264 590.0058 220.58577Q589.66205 221.2889 588.91205 221.69514Q588.16205 222.11702 587.0683 222.11702Q585.7714 222.11702 584.97455 221.52327Q584.1777 220.94514 584.2089 219.77327ZM585.22455 215.39827Q585.22455 216.83577 585.78705 217.49202Q586.34955 218.14827 587.2089 218.14827Q588.0527 218.14827 588.6308 217.49202Q589.2089 216.83577 589.2089 215.44514Q589.2089 214.11702 588.6152 213.44514Q588.0214 212.75764 587.1933 212.75764Q586.3652 212.75764 585.78705 213.42952Q585.22455 214.08577 585.22455 215.39827Z" fill-rule="nonzero"/><path fill="#990000" d="M485.5058 240.1639C485.5058 243.4776 482.81952 246.1639 479.5058 246.1639C476.1921 246.1639 473.5058 243.4776 473.5058 240.1639C473.5058 236.85019 476.1921 234.1639 479.5058 234.1639C482.81952 234.1639 485.5058 236.85019 485.5058 240.1639Z" fill-rule="nonzero"/><path fill="#ffffff" d="M501.74017 241.64827L503.0683 241.99202Q502.64642 243.61702 501.55267 244.4764Q500.47455 245.33577 498.91205 245.33577Q497.28705 245.33577 496.27142 244.67952Q495.2558 244.00764 494.72455 242.75764Q494.20892 241.50764 494.20892 240.07014Q494.20892 238.50764 494.80267 237.3514Q495.39642 236.17952 496.5058 235.58577Q497.61517 234.9764 498.92767 234.9764Q500.4433 234.9764 501.45892 235.74202Q502.49017 236.50764 502.89642 237.88264L501.58392 238.19514Q501.24017 237.1014 500.5683 236.6014Q499.91205 236.1014 498.91205 236.1014Q497.7558 236.1014 496.97455 236.6639Q496.1933 237.21077 495.8808 238.14827Q495.5683 239.08577 495.5683 240.07014Q495.5683 241.3514 495.9433 242.30452Q496.3183 243.25764 497.09955 243.7264Q497.8808 244.19514 498.80267 244.19514Q499.91205 244.19514 500.67767 243.55452Q501.45892 242.9139 501.74017 241.64827ZM503.97455 241.5389Q503.97455 239.52327 505.09955 238.5389Q506.02142 237.74202 507.3808 237.74202Q508.86517 237.74202 509.8183 238.7264Q510.77142 239.69514 510.77142 241.42952Q510.77142 242.83577 510.34955 243.64827Q509.92767 244.44514 509.11517 244.89827Q508.3183 245.33577 507.3808 245.33577Q505.84955 245.33577 504.91205 244.3514Q503.97455 243.36702 503.97455 241.5389ZM505.24017 241.5389Q505.24017 242.92952 505.84955 243.63264Q506.45892 244.32014 507.3808 244.32014Q508.28705 244.32014 508.89642 243.61702Q509.5058 242.9139 509.5058 241.49202Q509.5058 240.14827 508.89642 239.46077Q508.28705 238.75764 507.3808 238.75764Q506.45892 238.75764 505.84955 239.44514Q505.24017 240.13264 505.24017 241.5389ZM512.41205 245.1639L512.41205 237.89827L513.5214 237.89827L513.5214 239.00764Q513.9433 238.2264 514.3027 237.99202Q514.66205 237.74202 515.09955 237.74202Q515.72455 237.74202 516.3652 238.13264L515.9433 239.27327Q515.4902 239.00764 515.03705 239.00764Q514.6308 239.00764 514.3027 239.25764Q513.9902 239.49202 513.84955 239.92952Q513.6464 240.58577 513.6464 241.36702L513.6464 245.1639L512.41205 245.1639ZM522.3964 242.82014L523.6777 242.9764Q523.3652 244.1014 522.5527 244.7264Q521.7402 245.33577 520.47455 245.33577Q518.8808 245.33577 517.9433 244.3514Q517.0214 243.36702 517.0214 241.6014Q517.0214 239.75764 517.9589 238.75764Q518.91205 237.74202 520.41205 237.74202Q521.8652 237.74202 522.78705 238.74202Q523.7089 239.7264 523.7089 241.52327Q523.7089 241.63264 523.7089 241.8514L518.28705 241.8514Q518.3652 243.0389 518.9589 243.67952Q519.5683 244.32014 520.4902 244.32014Q521.16205 244.32014 521.6308 243.96077Q522.1152 243.6014 522.3964 242.82014ZM518.3652 240.83577L522.41205 240.83577Q522.3339 239.9139 521.9433 239.46077Q521.3652 238.75764 520.4277 238.75764Q519.5683 238.75764 518.9902 239.32014Q518.4277 239.88264 518.3652 240.83577ZM532.1308 245.1639L532.1308 236.32014L528.8339 236.32014L528.8339 235.14827L536.7714 235.14827L536.7714 236.32014L533.4589 236.32014L533.4589 245.1639L532.1308 245.1639ZM543.3964 242.82014L544.6777 242.9764Q544.3652 244.1014 543.5527 244.7264Q542.7402 245.33577 541.47455 245.33577Q539.8808 245.33577 538.9433 244.3514Q538.0214 243.36702 538.0214 241.6014Q538.0214 239.75764 538.9589 238.75764Q539.91205 237.74202 541.41205 237.74202Q542.8652 237.74202 543.78705 238.74202Q544.7089 239.7264 544.7089 241.52327Q544.7089 241.63264 544.7089 241.8514L539.28705 241.8514Q539.3652 243.0389 539.9589 243.67952Q540.5683 244.32014 541.4902 244.32014Q542.16205 244.32014 542.6308 243.96077Q543.1152 243.6014 543.3964 242.82014ZM539.3652 240.83577L543.41205 240.83577Q543.3339 239.9139 542.9433 239.46077Q542.3652 238.75764 541.4277 238.75764Q540.5683 238.75764 539.9902 239.32014Q539.4277 239.88264 539.3652 240.83577ZM551.16205 244.27327Q550.4902 244.8514 549.84955 245.1014Q549.22455 245.33577 548.4902 245.33577Q547.3027 245.33577 546.6464 244.75764Q546.0058 244.1639 546.0058 243.24202Q546.0058 242.71077 546.2402 242.27327Q546.4902 241.83577 546.8808 241.57014Q547.28705 241.30452 547.7714 241.1639Q548.1308 241.07014 548.8652 240.9764Q550.3652 240.80452 551.0683 240.55452Q551.0683 240.30452 551.0683 240.24202Q551.0683 239.4764 550.72455 239.17952Q550.2558 238.75764 549.3183 238.75764Q548.4589 238.75764 548.03705 239.07014Q547.6308 239.36702 547.4277 240.13264L546.22455 239.9764Q546.3808 239.19514 546.7558 238.7264Q547.1464 238.25764 547.84955 238.00764Q548.5683 237.74202 549.5058 237.74202Q550.4277 237.74202 551.0058 237.96077Q551.5839 238.17952 551.84955 238.50764Q552.1308 238.83577 552.2402 239.3514Q552.3027 239.6639 552.3027 240.4764L552.3027 242.11702Q552.3027 243.83577 552.3808 244.2889Q552.4589 244.74202 552.6933 245.1639L551.41205 245.1639Q551.22455 244.77327 551.16205 244.27327ZM551.0683 241.52327Q550.3964 241.7889 549.0527 241.99202Q548.3027 242.1014 547.97455 242.24202Q547.66205 242.36702 547.4902 242.63264Q547.3183 242.89827 547.3183 243.21077Q547.3183 243.71077 547.6933 244.0389Q548.0683 244.36702 548.78705 244.36702Q549.5058 244.36702 550.0527 244.05452Q550.59955 243.74202 550.8652 243.19514Q551.0683 242.7889 551.0683 241.9764L551.0683 241.52327ZM554.4277 245.1639L554.4277 237.89827L555.53705 237.89827L555.53705 238.92952Q555.8652 238.38264 556.4277 238.07014Q557.0058 237.74202 557.72455 237.74202Q558.53705 237.74202 559.0527 238.08577Q559.5683 238.4139 559.78705 239.00764Q560.6464 237.74202 562.0214 237.74202Q563.09955 237.74202 563.6777 238.33577Q564.2714 238.92952 564.2714 240.17952L564.2714 245.1639L563.03705 245.1639L563.03705 240.58577Q563.03705 239.8514 562.91205 239.52327Q562.8027 239.19514 562.4902 239.00764Q562.1777 238.80452 561.7558 238.80452Q560.9902 238.80452 560.47455 239.32014Q559.97455 239.82014 559.97455 240.94514L559.97455 245.1639L558.7402 245.1639L558.7402 240.44514Q558.7402 239.63264 558.4433 239.2264Q558.1464 238.80452 557.4589 238.80452Q556.9433 238.80452 556.4902 239.08577Q556.0527 239.3514 555.84955 239.88264Q555.66205 240.39827 555.66205 241.39827L555.66205 245.1639L554.4277 245.1639Z" fill-rule="nonzero"/><path fill="#999999" d="M485.5058 266.1639C485.5058 269.4776 482.81952 272.1639 479.5058 272.1639C476.1921 272.1639 473.5058 269.4776 473.5058 266.1639C473.5058 262.8502 476.1921 260.1639 479.5058 260.1639C482.81952 260.1639 485.5058 262.8502 485.5058 266.1639Z" fill-rule="nonzero"/><path fill="#ffffff" d="M501.74017 267.6483L503.0683 267.99203Q502.64642 269.61703 501.55267 270.4764Q500.47455 271.3358 498.91205 271.3358Q497.28705 271.3358 496.27142 270.67953Q495.2558 270.00766 494.72455 268.75766Q494.20892 267.50766 494.20892 266.07016Q494.20892 264.50766 494.80267 263.3514Q495.39642 262.17953 496.5058 261.5858Q497.61517 260.9764 498.92767 260.9764Q500.4433 260.9764 501.45892 261.74203Q502.49017 262.50766 502.89642 263.88266L501.58392 264.19516Q501.24017 263.1014 500.5683 262.6014Q499.91205 262.1014 498.91205 262.1014Q497.7558 262.1014 496.97455 262.6639Q496.1933 263.2108 495.8808 264.1483Q495.5683 265.0858 495.5683 266.07016Q495.5683 267.3514 495.9433 268.30453Q496.3183 269.25766 497.09955 269.7264Q497.8808 270.19516 498.80267 270.19516Q499.91205 270.19516 500.67767 269.55453Q501.45892 268.9139 501.74017 267.6483ZM503.97455 267.5389Q503.97455 265.5233 505.09955 264.5389Q506.02142 263.74203 507.3808 263.74203Q508.86517 263.74203 509.8183 264.7264Q510.77142 265.69516 510.77142 267.42953Q510.77142 268.8358 510.34955 269.6483Q509.92767 270.44516 509.11517 270.8983Q508.3183 271.3358 507.3808 271.3358Q505.84955 271.3358 504.91205 270.3514Q503.97455 269.36703 503.97455 267.5389ZM505.24017 267.5389Q505.24017 268.92953 505.84955 269.63266Q506.45892 270.32016 507.3808 270.32016Q508.28705 270.32016 508.89642 269.61703Q509.5058 268.9139 509.5058 267.49203Q509.5058 266.1483 508.89642 265.4608Q508.28705 264.75766 507.3808 264.75766Q506.45892 264.75766 505.84955 265.44516Q505.24017 266.13266 505.24017 267.5389ZM512.4277 271.1639L512.4277 263.8983L513.53705 263.8983L513.53705 264.92953Q513.8652 264.38266 514.4277 264.07016Q515.0058 263.74203 515.72455 263.74203Q516.53705 263.74203 517.0527 264.0858Q517.5683 264.4139 517.78705 265.00766Q518.6464 263.74203 520.0214 263.74203Q521.09955 263.74203 521.6777 264.3358Q522.2714 264.92953 522.2714 266.17953L522.2714 271.1639L521.03705 271.1639L521.03705 266.5858Q521.03705 265.8514 520.91205 265.5233Q520.8027 265.19516 520.4902 265.00766Q520.1777 264.80453 519.7558 264.80453Q518.9902 264.80453 518.47455 265.32016Q517.97455 265.82016 517.97455 266.94516L517.97455 271.1639L516.7402 271.1639L516.7402 266.44516Q516.7402 265.63266 516.4433 265.2264Q516.1464 264.80453 515.4589 264.80453Q514.9433 264.80453 514.4902 265.0858Q514.0527 265.3514 513.84955 265.88266Q513.66205 266.3983 513.66205 267.3983L513.66205 271.1639L512.4277 271.1639ZM524.4277 271.1639L524.4277 263.8983L525.53705 263.8983L525.53705 264.92953Q525.8652 264.38266 526.4277 264.07016Q527.0058 263.74203 527.72455 263.74203Q528.53705 263.74203 529.0527 264.0858Q529.5683 264.4139 529.78705 265.00766Q530.6464 263.74203 532.0214 263.74203Q533.09955 263.74203 533.6777 264.3358Q534.2714 264.92953 534.2714 266.17953L534.2714 271.1639L533.03705 271.1639L533.03705 266.5858Q533.03705 265.8514 532.91205 265.5233Q532.8027 265.19516 532.4902 265.00766Q532.1777 264.80453 531.7558 264.80453Q530.9902 264.80453 530.47455 265.32016Q529.97455 265.82016 529.97455 266.94516L529.97455 271.1639L528.7402 271.1639L528.7402 266.44516Q528.7402 265.63266 528.4433 265.2264Q528.1464 264.80453 527.4589 264.80453Q526.9433 264.80453 526.4902 265.0858Q526.0527 265.3514 525.84955 265.88266Q525.66205 266.3983 525.66205 267.3983L525.66205 271.1639L524.4277 271.1639ZM541.1933 271.1639L541.1933 270.1014Q540.3339 271.3358 538.8808 271.3358Q538.2402 271.3358 537.6777 271.0858Q537.1308 270.8358 536.84955 270.4608Q536.5839 270.0858 536.47455 269.55453Q536.3964 269.19516 536.3964 268.3983L536.3964 263.8983L537.6308 263.8983L537.6308 267.92953Q537.6308 268.8983 537.7089 269.2264Q537.8183 269.7108 538.1933 269.99203Q538.5683 270.2733 539.1308 270.2733Q539.6777 270.2733 540.16205 269.99203Q540.6464 269.69516 540.84955 269.2108Q541.0527 268.7264 541.0527 267.7889L541.0527 263.8983L542.28705 263.8983L542.28705 271.1639L541.1933 271.1639ZM544.4277 271.1639L544.4277 263.8983L545.53705 263.8983L545.53705 264.92953Q546.3339 263.74203 547.84955 263.74203Q548.5058 263.74203 549.0527 263.9764Q549.59955 264.2108 549.8652 264.6014Q550.1464 264.9764 550.2558 265.50766Q550.3339 265.8514 550.3339 266.69516L550.3339 271.1639L549.09955 271.1639L549.09955 266.74203Q549.09955 265.99203 548.9589 265.63266Q548.8183 265.25766 548.4433 265.0389Q548.0839 264.80453 547.5839 264.80453Q546.8027 264.80453 546.22455 265.30453Q545.66205 265.80453 545.66205 267.19516L545.66205 271.1639L544.4277 271.1639ZM552.4433 262.55453L552.4433 261.1483L553.66205 261.1483L553.66205 262.55453L552.4433 262.55453ZM552.4433 271.1639L552.4433 263.8983L553.66205 263.8983L553.66205 271.1639L552.4433 271.1639ZM558.1152 270.07016L558.28705 271.1483Q557.7714 271.25766 557.3652 271.25766Q556.6933 271.25766 556.3183 271.05453Q555.9589 270.8358 555.8027 270.49203Q555.66205 270.1483 555.66205 269.0389L555.66205 264.86703L554.7558 264.86703L554.7558 263.8983L555.66205 263.8983L555.66205 262.1014L556.8808 261.36703L556.8808 263.8983L558.1152 263.8983L558.1152 264.86703L556.8808 264.86703L556.8808 269.1014Q556.8808 269.63266 556.9433 269.7889Q557.0058 269.92953 557.1464 270.0233Q557.3027 270.11703 557.5683 270.11703Q557.78705 270.11703 558.1152 270.07016ZM559.3808 273.9608L559.2402 272.80453Q559.6464 272.9139 559.9433 272.9139Q560.34955 272.9139 560.59955 272.7733Q560.84955 272.6483 561.0058 272.3983Q561.1152 272.2108 561.3808 271.4764Q561.41205 271.38266 561.4902 271.17953L558.72455 263.8983L560.0527 263.8983L561.5683 268.1014Q561.8652 268.9139 562.09955 269.7889Q562.3027 268.94516 562.59955 268.13266L564.1464 263.8983L565.3808 263.8983L562.6152 271.2889Q562.1777 272.4764 561.9277 272.92953Q561.59955 273.5389 561.1777 273.82016Q560.7558 274.11703 560.16205 274.11703Q559.8183 274.11703 559.3808 273.9608Z" fill-rule="nonzero"/><path fill="#ffd966" d="M485.5058 292.1639C485.5058 295.4776 482.81952 298.1639 479.5058 298.1639C476.1921 298.1639 473.5058 295.4776 473.5058 292.1639C473.5058 288.8502 476.1921 286.1639 479.5058 286.1639C482.81952 286.1639 485.5058 288.8502 485.5058 292.1639Z" fill-rule="nonzero"/><path fill="#ffffff" d="M494.55267 297.1639L494.55267 287.1483L496.53705 287.1483L498.91205 294.24203Q499.24017 295.2264 499.39642 295.7264Q499.5683 295.17953 499.92767 294.11703L502.3183 287.1483L504.11517 287.1483L504.11517 297.1639L502.83392 297.1639L502.83392 288.7733L499.91205 297.1639L498.72455 297.1639L495.8183 288.63266L495.8183 297.1639L494.55267 297.1639ZM511.16205 296.2733Q510.49017 296.8514 509.84955 297.1014Q509.22455 297.3358 508.49017 297.3358Q507.30267 297.3358 506.64642 296.75766Q506.0058 296.1639 506.0058 295.24203Q506.0058 294.7108 506.24017 294.2733Q506.49017 293.8358 506.8808 293.57016Q507.28705 293.30453 507.77142 293.1639Q508.1308 293.07016 508.86517 292.9764Q510.36517 292.80453 511.0683 292.55453Q511.0683 292.30453 511.0683 292.24203Q511.0683 291.4764 510.72455 291.17953Q510.2558 290.75766 509.3183 290.75766Q508.45892 290.75766 508.03705 291.07016Q507.6308 291.36703 507.42767 292.13266L506.22455 291.9764Q506.3808 291.19516 506.7558 290.7264Q507.14642 290.25766 507.84955 290.00766Q508.5683 289.74203 509.5058 289.74203Q510.42767 289.74203 511.0058 289.9608Q511.58392 290.17953 511.84955 290.50766Q512.1308 290.8358 512.2402 291.3514Q512.3027 291.6639 512.3027 292.4764L512.3027 294.11703Q512.3027 295.8358 512.3808 296.2889Q512.4589 296.74203 512.6933 297.1639L511.41205 297.1639Q511.22455 296.7733 511.16205 296.2733ZM511.0683 293.5233Q510.39642 293.7889 509.05267 293.99203Q508.30267 294.1014 507.97455 294.24203Q507.66205 294.36703 507.49017 294.63266Q507.3183 294.8983 507.3183 295.2108Q507.3183 295.7108 507.6933 296.0389Q508.0683 296.36703 508.78705 296.36703Q509.5058 296.36703 510.05267 296.05453Q510.59955 295.74203 510.86517 295.19516Q511.0683 294.7889 511.0683 293.9764L511.0683 293.5233ZM514.41205 297.1639L514.41205 289.8983L515.5214 289.8983L515.5214 291.00766Q515.9433 290.2264 516.3027 289.99203Q516.66205 289.74203 517.09955 289.74203Q517.72455 289.74203 518.3652 290.13266L517.9433 291.2733Q517.4902 291.00766 517.03705 291.00766Q516.6308 291.00766 516.3027 291.25766Q515.9902 291.49203 515.84955 291.92953Q515.6464 292.5858 515.6464 293.36703L515.6464 297.1639L514.41205 297.1639ZM519.4433 297.1639L519.4433 287.1483L520.66205 287.1483L520.66205 292.8514L523.5839 289.8983L525.1777 289.8983L522.3964 292.6014L525.4589 297.1639L523.9277 297.1639L521.53705 293.44516L520.66205 294.2889L520.66205 297.1639L519.4433 297.1639ZM531.3964 294.82016L532.6777 294.9764Q532.3652 296.1014 531.5527 296.7264Q530.7402 297.3358 529.47455 297.3358Q527.8808 297.3358 526.9433 296.3514Q526.0214 295.36703 526.0214 293.6014Q526.0214 291.75766 526.9589 290.75766Q527.91205 289.74203 529.41205 289.74203Q530.8652 289.74203 531.78705 290.74203Q532.7089 291.7264 532.7089 293.5233Q532.7089 293.63266 532.7089 293.8514L527.28705 293.8514Q527.3652 295.0389 527.9589 295.67953Q528.5683 296.32016 529.4902 296.32016Q530.16205 296.32016 530.6308 295.9608Q531.1152 295.6014 531.3964 294.82016ZM527.3652 292.8358L531.41205 292.8358Q531.3339 291.9139 530.9433 291.4608Q530.3652 290.75766 529.4277 290.75766Q528.5683 290.75766 527.9902 291.32016Q527.4277 291.88266 527.3652 292.8358ZM537.1152 296.07016L537.28705 297.1483Q536.7714 297.25766 536.3652 297.25766Q535.6933 297.25766 535.3183 297.05453Q534.9589 296.8358 534.8027 296.49203Q534.66205 296.1483 534.66205 295.0389L534.66205 290.86703L533.7558 290.86703L533.7558 289.8983L534.66205 289.8983L534.66205 288.1014L535.8808 287.36703L535.8808 289.8983L537.1152 289.8983L537.1152 290.86703L535.8808 290.86703L535.8808 295.1014Q535.8808 295.63266 535.9433 295.7889Q536.0058 295.92953 536.1464 296.0233Q536.3027 296.11703 536.5683 296.11703Q536.78705 296.11703 537.1152 296.07016ZM538.4433 288.55453L538.4433 287.1483L539.66205 287.1483L539.66205 288.55453L538.4433 288.55453ZM538.4433 297.1639L538.4433 289.8983L539.66205 289.8983L539.66205 297.1639L538.4433 297.1639ZM541.4277 297.1639L541.4277 289.8983L542.53705 289.8983L542.53705 290.92953Q543.3339 289.74203 544.84955 289.74203Q545.5058 289.74203 546.0527 289.9764Q546.59955 290.2108 546.8652 290.6014Q547.1464 290.9764 547.2558 291.50766Q547.3339 291.8514 547.3339 292.69516L547.3339 297.1639L546.09955 297.1639L546.09955 292.74203Q546.09955 291.99203 545.9589 291.63266Q545.8183 291.25766 545.4433 291.0389Q545.0839 290.80453 544.5839 290.80453Q543.8027 290.80453 543.22455 291.30453Q542.66205 291.80453 542.66205 293.19516L542.66205 297.1639L541.4277 297.1639ZM549.2089 297.7733L550.3964 297.94516Q550.47455 298.49203 550.8183 298.75766Q551.2714 299.0858 552.0683 299.0858Q552.9277 299.0858 553.3808 298.74203Q553.84955 298.4139 554.0214 297.7889Q554.1152 297.4139 554.09955 296.2108Q553.3027 297.1639 552.09955 297.1639Q550.59955 297.1639 549.7714 296.0858Q548.9589 295.00766 548.9589 293.49203Q548.9589 292.4608 549.3339 291.5858Q549.7089 290.69516 550.41205 290.2264Q551.1308 289.74203 552.09955 289.74203Q553.3808 289.74203 554.22455 290.7733L554.22455 289.8983L555.34955 289.8983L555.34955 296.17953Q555.34955 297.88266 555.0058 298.5858Q554.66205 299.2889 553.91205 299.69516Q553.16205 300.11703 552.0683 300.11703Q550.7714 300.11703 549.97455 299.5233Q549.1777 298.94516 549.2089 297.7733ZM550.22455 293.3983Q550.22455 294.8358 550.78705 295.49203Q551.34955 296.1483 552.2089 296.1483Q553.0527 296.1483 553.6308 295.49203Q554.2089 294.8358 554.2089 293.44516Q554.2089 292.11703 553.6152 291.44516Q553.0214 290.75766 552.1933 290.75766Q551.3652 290.75766 550.78705 291.42953Q550.22455 292.0858 550.22455 293.3983Z" fill-rule="nonzero"/><path fill="#4285f4" d="M485.5058 318.1639C485.5058 321.4776 482.81952 324.1639 479.5058 324.1639C476.1921 324.1639 473.5058 321.4776 473.5058 318.1639C473.5058 314.8502 476.1921 312.1639 479.5058 312.1639C482.81952 312.1639 485.5058 314.8502 485.5058 318.1639Z" fill-rule="nonzero"/><path fill="#ffffff" d="M493.49017 323.1639L497.33392 313.1483L498.7558 313.1483L502.86517 323.1639L501.34955 323.1639L500.17767 320.13266L495.99017 320.13266L494.89642 323.1639L493.49017 323.1639ZM496.3808 319.05453L499.77142 319.05453L498.72455 316.2733Q498.2558 315.00766 498.02142 314.19516Q497.83392 315.1639 497.47455 316.1014L496.3808 319.05453ZM508.14642 323.1639L508.14642 322.24203Q507.4433 323.3358 506.11517 323.3358Q505.24017 323.3358 504.5058 322.8514Q503.78705 322.36703 503.3808 321.50766Q502.99017 320.6483 502.99017 319.5389Q502.99017 318.4608 503.34955 317.57016Q503.70892 316.67953 504.42767 316.2108Q505.16205 315.74203 506.05267 315.74203Q506.70892 315.74203 507.22455 316.0233Q507.74017 316.2889 508.05267 316.74203L508.05267 313.1483L509.28705 313.1483L509.28705 323.1639L508.14642 323.1639ZM504.2558 319.5389Q504.2558 320.92953 504.83392 321.63266Q505.42767 322.32016 506.22455 322.32016Q507.03705 322.32016 507.59955 321.6639Q508.16205 320.99203 508.16205 319.6483Q508.16205 318.1483 507.58392 317.4608Q507.0058 316.75766 506.17767 316.75766Q505.34955 316.75766 504.80267 317.42953Q504.2558 318.1014 504.2558 319.5389ZM513.4433 323.1639L510.67767 315.8983L511.99017 315.8983L513.53705 320.25766Q513.78705 320.9608 514.0058 321.7108Q514.1777 321.13266 514.4589 320.3358L516.0839 315.8983L517.34955 315.8983L514.59955 323.1639L513.4433 323.1639ZM518.4433 314.55453L518.4433 313.1483L519.66205 313.1483L519.66205 314.55453L518.4433 314.55453ZM518.4433 323.1639L518.4433 315.8983L519.66205 315.8983L519.66205 323.1639L518.4433 323.1639ZM520.9433 320.99203L522.1464 320.80453Q522.2558 321.5389 522.72455 321.92953Q523.1933 322.32016 524.03705 322.32016Q524.8808 322.32016 525.28705 321.9764Q525.7089 321.63266 525.7089 321.1639Q525.7089 320.74203 525.3339 320.50766Q525.0839 320.3358 524.0839 320.0858Q522.72455 319.74203 522.1933 319.49203Q521.6777 319.24203 521.41205 318.80453Q521.1464 318.36703 521.1464 317.8358Q521.1464 317.3514 521.3652 316.94516Q521.5839 316.5233 521.97455 316.24203Q522.2558 316.0389 522.7402 315.8983Q523.2402 315.74203 523.8183 315.74203Q524.66205 315.74203 525.3027 315.99203Q525.9589 316.2264 526.2714 316.6483Q526.5839 317.07016 526.6933 317.7733L525.4902 317.94516Q525.41205 317.38266 525.0058 317.07016Q524.6152 316.75766 523.8964 316.75766Q523.0527 316.75766 522.6933 317.0389Q522.3339 317.30453 522.3339 317.69516Q522.3339 317.92953 522.47455 318.11703Q522.6308 318.32016 522.9589 318.44516Q523.1308 318.50766 524.03705 318.75766Q525.34955 319.11703 525.8652 319.3358Q526.3808 319.55453 526.66205 319.9764Q526.9589 320.3983 526.9589 321.0233Q526.9589 321.6483 526.59955 322.19516Q526.2558 322.7264 525.5683 323.0389Q524.8964 323.3358 524.03705 323.3358Q522.6308 323.3358 521.8808 322.74203Q521.1464 322.1483 520.9433 320.99203ZM527.97455 319.5389Q527.97455 317.5233 529.09955 316.5389Q530.0214 315.74203 531.3808 315.74203Q532.8652 315.74203 533.8183 316.7264Q534.7714 317.69516 534.7714 319.42953Q534.7714 320.8358 534.34955 321.6483Q533.9277 322.44516 533.1152 322.8983Q532.3183 323.3358 531.3808 323.3358Q529.84955 323.3358 528.91205 322.3514Q527.97455 321.36703 527.97455 319.5389ZM529.2402 319.5389Q529.2402 320.92953 529.84955 321.63266Q530.4589 322.32016 531.3808 322.32016Q532.28705 322.32016 532.8964 321.61703Q533.5058 320.9139 533.5058 319.49203Q533.5058 318.1483 532.8964 317.4608Q532.28705 316.75766 531.3808 316.75766Q530.4589 316.75766 529.84955 317.44516Q529.2402 318.13266 529.2402 319.5389ZM536.41205 323.1639L536.41205 315.8983L537.5214 315.8983L537.5214 317.00766Q537.9433 316.2264 538.3027 315.99203Q538.66205 315.74203 539.09955 315.74203Q539.72455 315.74203 540.3652 316.13266L539.9433 317.2733Q539.4902 317.00766 539.03705 317.00766Q538.6308 317.00766 538.3027 317.25766Q537.9902 317.49203 537.84955 317.92953Q537.6464 318.5858 537.6464 319.36703L537.6464 323.1639L536.41205 323.1639ZM540.9433 320.99203L542.1464 320.80453Q542.2558 321.5389 542.72455 321.92953Q543.1933 322.32016 544.03705 322.32016Q544.8808 322.32016 545.28705 321.9764Q545.7089 321.63266 545.7089 321.1639Q545.7089 320.74203 545.3339 320.50766Q545.0839 320.3358 544.0839 320.0858Q542.72455 319.74203 542.1933 319.49203Q541.6777 319.24203 541.41205 318.80453Q541.1464 318.36703 541.1464 317.8358Q541.1464 317.3514 541.3652 316.94516Q541.5839 316.5233 541.97455 316.24203Q542.2558 316.0389 542.7402 315.8983Q543.2402 315.74203 543.8183 315.74203Q544.66205 315.74203 545.3027 315.99203Q545.9589 316.2264 546.2714 316.6483Q546.5839 317.07016 546.6933 317.7733L545.4902 317.94516Q545.41205 317.38266 545.0058 317.07016Q544.6152 316.75766 543.8964 316.75766Q543.0527 316.75766 542.6933 317.0389Q542.3339 317.30453 542.3339 317.69516Q542.3339 317.92953 542.47455 318.11703Q542.6308 318.32016 542.9589 318.44516Q543.1308 318.50766 544.03705 318.75766Q545.34955 319.11703 545.8652 319.3358Q546.3808 319.55453 546.66205 319.9764Q546.9589 320.3983 546.9589 321.0233Q546.9589 321.6483 546.59955 322.19516Q546.2558 322.7264 545.5683 323.0389Q544.8964 323.3358 544.03705 323.3358Q542.6308 323.3358 541.8808 322.74203Q541.1464 322.1483 540.9433 320.99203Z" fill-rule="nonzero"/><path fill="#ff0000" d="M485.5058 344.1639C485.5058 347.4776 482.81952 350.1639 479.5058 350.1639C476.1921 350.1639 473.5058 347.4776 473.5058 344.1639C473.5058 340.8502 476.1921 338.1639 479.5058 338.1639C482.81952 338.1639 485.5058 340.8502 485.5058 344.1639Z" fill-rule="nonzero"/><path fill="#ffffff" d="M494.1308 345.94516L495.3808 345.8358Q495.47455 346.5858 495.80267 347.07016Q496.1308 347.55453 496.80267 347.8514Q497.49017 348.1483 498.34955 348.1483Q499.09955 348.1483 499.67767 347.92953Q500.27142 347.69516 500.55267 347.30453Q500.83392 346.9139 500.83392 346.44516Q500.83392 345.9764 500.55267 345.63266Q500.28705 345.2733 499.66205 345.0233Q499.2558 344.86703 497.86517 344.5389Q496.49017 344.2108 495.9433 343.9139Q495.22455 343.5389 494.86517 342.99203Q494.52142 342.42953 494.52142 341.7264Q494.52142 340.9764 494.9433 340.32016Q495.3808 339.6483 496.20892 339.32016Q497.03705 338.9764 498.05267 338.9764Q499.16205 338.9764 500.0058 339.3358Q500.86517 339.69516 501.3183 340.3983Q501.77142 341.0858 501.8183 341.9608L500.53705 342.05453Q500.4433 341.11703 499.84955 340.63266Q499.2558 340.13266 498.09955 340.13266Q496.89642 340.13266 496.34955 340.5858Q495.80267 341.0233 495.80267 341.6483Q495.80267 342.17953 496.1933 342.5389Q496.5683 342.88266 498.17767 343.25766Q499.80267 343.61703 500.39642 343.88266Q501.27142 344.2889 501.6933 344.9139Q502.11517 345.5233 502.11517 346.3358Q502.11517 347.13266 501.64642 347.8514Q501.1933 348.55453 500.33392 348.94516Q499.47455 349.3358 498.41205 349.3358Q497.05267 349.3358 496.1308 348.94516Q495.20892 348.5389 494.67767 347.74203Q494.16205 346.94516 494.1308 345.94516ZM508.39642 346.82016L509.67767 346.9764Q509.36517 348.1014 508.55267 348.7264Q507.74017 349.3358 506.47455 349.3358Q504.8808 349.3358 503.9433 348.3514Q503.02142 347.36703 503.02142 345.6014Q503.02142 343.75766 503.95892 342.75766Q504.91205 341.74203 506.41205 341.74203Q507.86517 341.74203 508.78705 342.74203Q509.70892 343.7264 509.70892 345.5233Q509.70892 345.63266 509.70892 345.8514L504.28705 345.8514Q504.36517 347.0389 504.95892 347.67953Q505.5683 348.32016 506.49017 348.32016Q507.16205 348.32016 507.6308 347.9608Q508.11517 347.6014 508.39642 346.82016ZM504.36517 344.8358L508.41205 344.8358Q508.33392 343.9139 507.9433 343.4608Q507.36517 342.75766 506.42767 342.75766Q505.5683 342.75766 504.99017 343.32016Q504.42767 343.88266 504.36517 344.8358ZM516.3964 346.82016L517.6777 346.9764Q517.3652 348.1014 516.5527 348.7264Q515.7402 349.3358 514.47455 349.3358Q512.8808 349.3358 511.9433 348.3514Q511.02142 347.36703 511.02142 345.6014Q511.02142 343.75766 511.95892 342.75766Q512.91205 341.74203 514.41205 341.74203Q515.8652 341.74203 516.78705 342.74203Q517.7089 343.7264 517.7089 345.5233Q517.7089 345.63266 517.7089 345.8514L512.28705 345.8514Q512.3652 347.0389 512.9589 347.67953Q513.5683 348.32016 514.4902 348.32016Q515.16205 348.32016 515.6308 347.9608Q516.1152 347.6014 516.3964 346.82016ZM512.3652 344.8358L516.41205 344.8358Q516.3339 343.9139 515.9433 343.4608Q515.3652 342.75766 514.4277 342.75766Q513.5683 342.75766 512.9902 343.32016Q512.4277 343.88266 512.3652 344.8358ZM524.1464 349.1639L524.1464 348.24203Q523.4433 349.3358 522.1152 349.3358Q521.2402 349.3358 520.5058 348.8514Q519.78705 348.36703 519.3808 347.50766Q518.9902 346.6483 518.9902 345.5389Q518.9902 344.4608 519.34955 343.57016Q519.7089 342.67953 520.4277 342.2108Q521.16205 341.74203 522.0527 341.74203Q522.7089 341.74203 523.22455 342.0233Q523.7402 342.2889 524.0527 342.74203L524.0527 339.1483L525.28705 339.1483L525.28705 349.1639L524.1464 349.1639ZM520.2558 345.5389Q520.2558 346.92953 520.8339 347.63266Q521.4277 348.32016 522.22455 348.32016Q523.03705 348.32016 523.59955 347.6639Q524.16205 346.99203 524.16205 345.6483Q524.16205 344.1483 523.5839 343.4608Q523.0058 342.75766 522.1777 342.75766Q521.34955 342.75766 520.8027 343.42953Q520.2558 344.1014 520.2558 345.5389Z" fill-rule="nonzero"/><path fill="#9900ff" d="M485.5058 370.1639C485.5058 373.4776 482.81952 376.1639 479.5058 376.1639C476.1921 376.1639 473.5058 373.4776 473.5058 370.1639C473.5058 366.8502 476.1921 364.1639 479.5058 364.1639C482.81952 364.1639 485.5058 366.8502 485.5058 370.1639Z" fill-rule="nonzero"/><path fill="#ffffff" d="M497.1308 375.1639L497.1308 366.32016L493.83392 366.32016L493.83392 365.1483L501.77142 365.1483L501.77142 366.32016L498.45892 366.32016L498.45892 375.1639L497.1308 375.1639ZM503.41205 375.1639L503.41205 367.8983L504.52142 367.8983L504.52142 369.00766Q504.9433 368.2264 505.30267 367.99203Q505.66205 367.74203 506.09955 367.74203Q506.72455 367.74203 507.36517 368.13266L506.9433 369.2733Q506.49017 369.00766 506.03705 369.00766Q505.6308 369.00766 505.30267 369.25766Q504.99017 369.49203 504.84955 369.92953Q504.64642 370.5858 504.64642 371.36703L504.64642 375.1639L503.41205 375.1639ZM513.3964 372.82016L514.6777 372.9764Q514.3652 374.1014 513.5527 374.7264Q512.7402 375.3358 511.47455 375.3358Q509.8808 375.3358 508.9433 374.3514Q508.02142 373.36703 508.02142 371.6014Q508.02142 369.75766 508.95892 368.75766Q509.91205 367.74203 511.41205 367.74203Q512.8652 367.74203 513.78705 368.74203Q514.7089 369.7264 514.7089 371.5233Q514.7089 371.63266 514.7089 371.8514L509.28705 371.8514Q509.36517 373.0389 509.95892 373.67953Q510.5683 374.32016 511.49017 374.32016Q512.16205 374.32016 512.6308 373.9608Q513.1152 373.6014 513.3964 372.82016ZM509.36517 370.8358L513.41205 370.8358Q513.3339 369.9139 512.9433 369.4608Q512.3652 368.75766 511.42767 368.75766Q510.5683 368.75766 509.99017 369.32016Q509.42767 369.88266 509.36517 370.8358ZM521.16205 374.2733Q520.4902 374.8514 519.84955 375.1014Q519.22455 375.3358 518.4902 375.3358Q517.3027 375.3358 516.6464 374.75766Q516.0058 374.1639 516.0058 373.24203Q516.0058 372.7108 516.2402 372.2733Q516.4902 371.8358 516.8808 371.57016Q517.28705 371.30453 517.7714 371.1639Q518.1308 371.07016 518.8652 370.9764Q520.3652 370.80453 521.0683 370.55453Q521.0683 370.30453 521.0683 370.24203Q521.0683 369.4764 520.72455 369.17953Q520.2558 368.75766 519.3183 368.75766Q518.4589 368.75766 518.03705 369.07016Q517.6308 369.36703 517.4277 370.13266L516.22455 369.9764Q516.3808 369.19516 516.7558 368.7264Q517.1464 368.25766 517.84955 368.00766Q518.5683 367.74203 519.5058 367.74203Q520.4277 367.74203 521.0058 367.9608Q521.5839 368.17953 521.84955 368.50766Q522.1308 368.8358 522.2402 369.3514Q522.3027 369.6639 522.3027 370.4764L522.3027 372.11703Q522.3027 373.8358 522.3808 374.2889Q522.4589 374.74203 522.6933 375.1639L521.41205 375.1639Q521.22455 374.7733 521.16205 374.2733ZM521.0683 371.5233Q520.3964 371.7889 519.0527 371.99203Q518.3027 372.1014 517.97455 372.24203Q517.66205 372.36703 517.4902 372.63266Q517.3183 372.8983 517.3183 373.2108Q517.3183 373.7108 517.6933 374.0389Q518.0683 374.36703 518.78705 374.36703Q519.5058 374.36703 520.0527 374.05453Q520.59955 373.74203 520.8652 373.19516Q521.0683 372.7889 521.0683 371.9764L521.0683 371.5233ZM523.9433 372.99203L525.1464 372.80453Q525.2558 373.5389 525.72455 373.92953Q526.1933 374.32016 527.03705 374.32016Q527.8808 374.32016 528.28705 373.9764Q528.7089 373.63266 528.7089 373.1639Q528.7089 372.74203 528.3339 372.50766Q528.0839 372.3358 527.0839 372.0858Q525.72455 371.74203 525.1933 371.49203Q524.6777 371.24203 524.41205 370.80453Q524.1464 370.36703 524.1464 369.8358Q524.1464 369.3514 524.3652 368.94516Q524.5839 368.5233 524.97455 368.24203Q525.2558 368.0389 525.7402 367.8983Q526.2402 367.74203 526.8183 367.74203Q527.66205 367.74203 528.3027 367.99203Q528.9589 368.2264 529.2714 368.6483Q529.5839 369.07016 529.6933 369.7733L528.4902 369.94516Q528.41205 369.38266 528.0058 369.07016Q527.6152 368.75766 526.8964 368.75766Q526.0527 368.75766 525.6933 369.0389Q525.3339 369.30453 525.3339 369.69516Q525.3339 369.92953 525.47455 370.11703Q525.6308 370.32016 525.9589 370.44516Q526.1308 370.50766 527.03705 370.75766Q528.34955 371.11703 528.8652 371.3358Q529.3808 371.55453 529.66205 371.9764Q529.9589 372.3983 529.9589 373.0233Q529.9589 373.6483 529.59955 374.19516Q529.2558 374.7264 528.5683 375.0389Q527.8964 375.3358 527.03705 375.3358Q525.6308 375.3358 524.8808 374.74203Q524.1464 374.1483 523.9433 372.99203ZM536.1933 375.1639L536.1933 374.1014Q535.3339 375.3358 533.8808 375.3358Q533.2402 375.3358 532.6777 375.0858Q532.1308 374.8358 531.84955 374.4608Q531.5839 374.0858 531.47455 373.55453Q531.3964 373.19516 531.3964 372.3983L531.3964 367.8983L532.6308 367.8983L532.6308 371.92953Q532.6308 372.8983 532.7089 373.2264Q532.8183 373.7108 533.1933 373.99203Q533.5683 374.2733 534.1308 374.2733Q534.6777 374.2733 535.16205 373.99203Q535.6464 373.69516 535.84955 373.2108Q536.0527 372.7264 536.0527 371.7889L536.0527 367.8983L537.28705 367.8983L537.28705 375.1639L536.1933 375.1639ZM539.41205 375.1639L539.41205 367.8983L540.5214 367.8983L540.5214 369.00766Q540.9433 368.2264 541.3027 367.99203Q541.66205 367.74203 542.09955 367.74203Q542.72455 367.74203 543.3652 368.13266L542.9433 369.2733Q542.4902 369.00766 542.03705 369.00766Q541.6308 369.00766 541.3027 369.25766Q540.9902 369.49203 540.84955 369.92953Q540.6464 370.5858 540.6464 371.36703L540.6464 375.1639L539.41205 375.1639ZM544.3808 377.9608L544.2402 376.80453Q544.6464 376.9139 544.9433 376.9139Q545.34955 376.9139 545.59955 376.7733Q545.84955 376.6483 546.0058 376.3983Q546.1152 376.2108 546.3808 375.4764Q546.41205 375.38266 546.4902 375.17953L543.72455 367.8983L545.0527 367.8983L546.5683 372.1014Q546.8652 372.9139 547.09955 373.7889Q547.3027 372.94516 547.59955 372.13266L549.1464 367.8983L550.3808 367.8983L547.6152 375.2889Q547.1777 376.4764 546.9277 376.92953Q546.59955 377.5389 546.1777 377.82016Q545.7558 378.11703 545.16205 378.11703Q544.8183 378.11703 544.3808 377.9608Z" fill-rule="nonzero"/><path fill="#ffffff" d="M297.09375 43.55L297.09375 32.096874L299.40625 32.096874L299.40625 43.55L297.09375 43.55ZM304.09375 43.55L299.98438 32.096874L302.5 32.096874L305.40625 40.565624L308.20312 32.096874L310.65625 32.096874L306.5625 43.55L304.09375 43.55ZM312.1875 43.55L312.1875 32.096874L314.4375 32.096874L319.125 39.7375L319.125 32.096874L321.28125 32.096874L321.28125 43.55L318.95312 43.55L314.34375 36.08125L314.34375 43.55L312.1875 43.55ZM329.79688 37.784374L327.79688 37.425Q328.14062 36.221874 328.95312 35.64375Q329.78125 35.065624 331.39062 35.065624Q332.85938 35.065624 333.57812 35.409374Q334.29688 35.753124 334.59375 36.3Q334.89062 36.83125 334.89062 38.253124L334.85938 40.815624Q334.85938 41.909374 334.96875 42.440624Q335.07812 42.95625 335.35938 43.55L333.1875 43.55Q333.10938 43.33125 332.98438 42.89375Q332.92188 42.70625 332.90625 42.64375Q332.34375 43.190624 331.70312 43.471874Q331.0625 43.7375 330.32812 43.7375Q329.04688 43.7375 328.3125 43.05Q327.57812 42.346874 327.57812 41.284374Q327.57812 40.58125 327.90625 40.034374Q328.25 39.471874 328.84375 39.190624Q329.45312 38.89375 330.59375 38.675Q332.14062 38.378124 332.73438 38.128124L332.73438 37.909374Q332.73438 37.284374 332.42188 37.01875Q332.10938 36.7375 331.23438 36.7375Q330.65625 36.7375 330.32812 36.971874Q330.0 37.20625 329.79688 37.784374ZM332.73438 39.565624Q332.3125 39.70625 331.39062 39.909374Q330.48438 40.096874 330.20312 40.284374Q329.76562 40.58125 329.76562 41.05Q329.76562 41.51875 330.10938 41.8625Q330.45312 42.190624 330.98438 42.190624Q331.57812 42.190624 332.125 41.8Q332.51562 41.503124 332.64062 41.065624Q332.73438 40.784374 332.73438 40.003124L332.73438 39.565624ZM337.15625 43.55L337.15625 32.096874L339.34375 32.096874L339.34375 43.55L337.15625 43.55ZM341.15625 43.55L341.15625 32.096874L343.34375 32.096874L343.34375 43.55L341.15625 43.55ZM344.64062 39.284374Q344.64062 38.190624 345.17188 37.175Q345.71875 36.14375 346.70312 35.6125Q347.70312 35.065624 348.92188 35.065624Q350.79688 35.065624 352.0 36.284374Q353.20312 37.503124 353.20312 39.378124Q353.20312 41.253124 351.98438 42.503124Q350.78125 43.7375 348.9375 43.7375Q347.79688 43.7375 346.75 43.221874Q345.71875 42.70625 345.17188 41.70625Q344.64062 40.70625 344.64062 39.284374ZM346.89062 39.39375Q346.89062 40.628124 347.46875 41.284374Q348.0625 41.940624 348.92188 41.940624Q349.78125 41.940624 350.35938 41.284374Q350.95312 40.628124 350.95312 39.378124Q350.95312 38.159374 350.35938 37.503124Q349.78125 36.846874 348.92188 36.846874Q348.0625 36.846874 347.46875 37.503124Q346.89062 38.159374 346.89062 39.39375ZM362.39062 37.70625L360.21875 38.096874Q360.10938 37.440624 359.71875 37.1125Q359.34375 36.784374 358.71875 36.784374Q357.90625 36.784374 357.40625 37.3625Q356.92188 37.925 356.92188 39.253124Q356.92188 40.721874 357.42188 41.33125Q357.92188 41.940624 358.75 41.940624Q359.375 41.940624 359.76562 41.596874Q360.17188 41.2375 360.34375 40.3625L362.5 40.7375Q362.15625 42.221874 361.20312 42.9875Q360.25 43.7375 358.65625 43.7375Q356.82812 43.7375 355.75 42.596874Q354.67188 41.440624 354.67188 39.409374Q354.67188 37.346874 355.75 36.20625Q356.84375 35.065624 358.6875 35.065624Q360.20312 35.065624 361.09375 35.721874Q362.0 36.3625 362.39062 37.70625ZM365.79688 37.784374L363.79688 37.425Q364.14062 36.221874 364.95312 35.64375Q365.78125 35.065624 367.39062 35.065624Q368.85938 35.065624 369.57812 35.409374Q370.29688 35.753124 370.59375 36.3Q370.89062 36.83125 370.89062 38.253124L370.85938 40.815624Q370.85938 41.909374 370.96875 42.440624Q371.07812 42.95625 371.35938 43.55L369.1875 43.55Q369.10938 43.33125 368.98438 42.89375Q368.92188 42.70625 368.90625 42.64375Q368.34375 43.190624 367.70312 43.471874Q367.0625 43.7375 366.32812 43.7375Q365.04688 43.7375 364.3125 43.05Q363.57812 42.346874 363.57812 41.284374Q363.57812 40.58125 363.90625 40.034374Q364.25 39.471874 364.84375 39.190624Q365.45312 38.89375 366.59375 38.675Q368.14062 38.378124 368.73438 38.128124L368.73438 37.909374Q368.73438 37.284374 368.42188 37.01875Q368.10938 36.7375 367.23438 36.7375Q366.65625 36.7375 366.32812 36.971874Q366.0 37.20625 365.79688 37.784374ZM368.73438 39.565624Q368.3125 39.70625 367.39062 39.909374Q366.48438 40.096874 366.20312 40.284374Q365.76562 40.58125 365.76562 41.05Q365.76562 41.51875 366.10938 41.8625Q366.45312 42.190624 366.98438 42.190624Q367.57812 42.190624 368.125 41.8Q368.51562 41.503124 368.64062 41.065624Q368.73438 40.784374 368.73438 40.003124L368.73438 39.565624ZM376.95312 35.253124L376.95312 37.003124L375.45312 37.003124L375.45312 40.346874Q375.45312 41.3625 375.5 41.534374Q375.54688 41.690624 375.6875 41.8Q375.84375 41.909374 376.0625 41.909374Q376.375 41.909374 376.95312 41.70625L377.14062 43.409374Q376.375 43.7375 375.40625 43.7375Q374.8125 43.7375 374.32812 43.534374Q373.85938 43.33125 373.625 43.01875Q373.40625 42.70625 373.32812 42.159374Q373.25 41.784374 373.25 40.6125L373.25 37.003124L372.25 37.003124L372.25 35.253124L373.25 35.253124L373.25 33.596874L375.45312 32.315624L375.45312 35.253124L376.95312 35.253124ZM378.15625 34.128124L378.15625 32.096874L380.34375 32.096874L380.34375 34.128124L378.15625 34.128124ZM378.15625 43.55L378.15625 35.253124L380.34375 35.253124L380.34375 43.55L378.15625 43.55ZM381.64062 39.284374Q381.64062 38.190624 382.17188 37.175Q382.71875 36.14375 383.70312 35.6125Q384.70312 35.065624 385.92188 35.065624Q387.79688 35.065624 389.0 36.284374Q390.20312 37.503124 390.20312 39.378124Q390.20312 41.253124 388.98438 42.503124Q387.78125 43.7375 385.9375 43.7375Q384.79688 43.7375 383.75 43.221874Q382.71875 42.70625 382.17188 41.70625Q381.64062 40.70625 381.64062 39.284374ZM383.89062 39.39375Q383.89062 40.628124 384.46875 41.284374Q385.0625 41.940624 385.92188 41.940624Q386.78125 41.940624 387.35938 41.284374Q387.95312 40.628124 387.95312 39.378124Q387.95312 38.159374 387.35938 37.503124Q386.78125 36.846874 385.92188 36.846874Q385.0625 36.846874 384.46875 37.503124Q383.89062 38.159374 383.89062 39.39375ZM399.70312 43.55L397.5 43.55L397.5 39.315624Q397.5 37.971874 397.35938 37.58125Q397.21875 37.175 396.90625 36.95625Q396.59375 36.7375 396.14062 36.7375Q395.57812 36.7375 395.125 37.05Q394.67188 37.3625 394.5 37.878124Q394.32812 38.39375 394.32812 39.784374L394.32812 43.55L392.14062 43.55L392.14062 35.253124L394.17188 35.253124L394.17188 36.471874Q395.26562 35.065624 396.90625 35.065624Q397.64062 35.065624 398.23438 35.33125Q398.84375 35.58125 399.14062 35.9875Q399.45312 36.39375 399.57812 36.909374Q399.70312 37.425 399.70312 38.39375L399.70312 43.55Z" fill-rule="nonzero"/></svg>