<svg version="1.1" viewBox="0.0 0.0 693.0 491.0" fill="none" stroke="none" stroke-linecap="square" stroke-miterlimit="10" width="693" height="491" xmlns:xlink="http://www.w3.org/1999/xlink" xmlns="http://www.w3.org/2000/svg"><path fill="#ffffff" fill-opacity="0.0" d="M0 0L693.0 0L693.0 491.0L0 491.0L0 0Z" fill-rule="nonzero"/><path fill="#fbbc04" d="M242.85513 59.916668C330.9156 59.916668 408.96106 116.62 436.17322 200.37048L242.85513 263.18332Z" fill-rule="nonzero"/><path fill="#38761d" d="M436.17322 200.37048C449.438 241.19525 449.438 285.17142 436.17322 325.9962L242.85513 263.18332Z" fill-rule="nonzero"/><path fill="#e06666" d="M436.17322 325.9962C422.90845 366.82095 397.0599 402.39844 362.33228 427.62952L242.85513 263.18332Z" fill-rule="nonzero"/><path fill="#9900ff" d="M123.37799 98.737144C158.1056 73.50605 199.92944 59.916668 242.85513 59.916668L242.85513 263.18332Z" fill-rule="nonzero"/><path fill="#ff0000" d="M49.537052 200.37048C62.801823 159.54572 88.65037 123.96824 123.37799 98.737144L242.85513 263.18332Z" fill-rule="nonzero"/><path fill="#4285f4" d="M43.188885 225.09496C44.78485 216.7286 46.905087 208.47084 49.537052 200.37048L242.85513 263.18332Z" fill-rule="nonzero"/><path fill="#ffd966" d="M49.537052 325.9962C38.956905 293.43384 36.773308 258.72656 43.188885 225.09496L242.85513 263.18332Z" fill-rule="nonzero"/><path fill="#999999" d="M242.85513 466.45C154.79468 466.45 76.74923 409.74667 49.537052 325.9962L242.85513 263.18332Z" fill-rule="nonzero"/><path fill="#990000" d="M362.33228 427.62952C327.60468 452.86063 285.78085 466.45 242.85513 466.45L242.85513 263.18332Z" fill-rule="nonzero"/><path fill="#000000" d="M321.60696 140.7748L321.60696 141.9623L314.98196 141.9623Q314.96634 141.5248 315.1226 141.10292Q315.3882 140.43105 315.9351 139.7748Q316.4976 139.11855 317.54446 138.25917Q319.1851 136.91542 319.7476 136.13417Q320.3257 135.35292 320.3257 134.6498Q320.3257 133.91542 319.79446 133.41542Q319.27884 132.91542 318.4507 132.91542Q317.5601 132.91542 317.0132 133.44667Q316.48196 133.97792 316.48196 134.93105L315.21634 134.79042Q315.34134 133.38417 316.1851 132.6498Q317.04446 131.8998 318.46634 131.8998Q319.91946 131.8998 320.7476 132.69667Q321.59134 133.49355 321.59134 134.68105Q321.59134 135.29042 321.34134 135.86855Q321.10696 136.44667 320.52884 137.0873Q319.96634 137.72792 318.6382 138.85292Q317.52884 139.7748 317.21634 140.11855Q316.90384 140.44667 316.7007 140.7748L321.60696 140.7748ZM323.1382 137.0248Q323.1382 135.24355 323.4976 134.16542Q323.8726 133.07167 324.59134 132.49355Q325.3101 131.8998 326.40384 131.8998Q327.21634 131.8998 327.8257 132.22792Q328.4351 132.55605 328.8257 133.16542Q329.23196 133.7748 329.4507 134.6498Q329.66946 135.5248 329.66946 137.0248Q329.66946 138.79042 329.3101 139.86855Q328.9507 140.94667 328.23196 141.54042Q327.5132 142.13417 326.40384 142.13417Q324.96634 142.13417 324.1382 141.0873Q323.1382 139.8373 323.1382 137.0248ZM324.40384 137.0248Q324.40384 139.49355 324.98196 140.30605Q325.5601 141.11855 326.40384 141.11855Q327.2632 141.11855 327.84134 140.30605Q328.41946 139.47792 328.41946 137.0248Q328.41946 134.54042 327.84134 133.72792Q327.2632 132.91542 326.3882 132.91542Q325.54446 132.91542 325.04446 133.63417Q324.40384 134.55605 324.40384 137.0248ZM331.8257 141.9623L331.8257 140.55605L333.23196 140.55605L333.23196 141.9623L331.8257 141.9623ZM335.1382 137.0248Q335.1382 135.24355 335.4976 134.16542Q335.8726 133.07167 336.59134 132.49355Q337.3101 131.8998 338.40384 131.8998Q339.21634 131.8998 339.8257 132.22792Q340.4351 132.55605 340.8257 133.16542Q341.23196 133.7748 341.4507 134.6498Q341.66946 135.5248 341.66946 137.0248Q341.66946 138.79042 341.3101 139.86855Q340.9507 140.94667 340.23196 141.54042Q339.5132 142.13417 338.40384 142.13417Q336.96634 142.13417 336.1382 141.0873Q335.1382 139.8373 335.1382 137.0248ZM336.40384 137.0248Q336.40384 139.49355 336.98196 140.30605Q337.5601 141.11855 338.40384 141.11855Q339.2632 141.11855 339.84134 140.30605Q340.41946 139.47792 340.41946 137.0248Q340.41946 134.54042 339.84134 133.72792Q339.2632 132.91542 338.3882 132.91542Q337.54446 132.91542 337.04446 133.63417Q336.40384 134.55605 336.40384 137.0248ZM343.3726 134.35292Q343.3726 133.2748 343.90384 132.5248Q344.4507 131.7748 345.48196 131.7748Q346.41946 131.7748 347.02884 132.44667Q347.65384 133.11855 347.65384 134.41542Q347.65384 135.69667 347.02884 136.38417Q346.40384 137.07167 345.4976 137.07167Q344.59134 137.07167 343.98196 136.3998Q343.3726 135.7123 343.3726 134.35292ZM345.5132 132.61855Q345.0601 132.61855 344.7476 133.0248Q344.4507 133.41542 344.4507 134.4623Q344.4507 135.43105 344.7476 135.82167Q345.0601 136.2123 345.5132 136.2123Q345.98196 136.2123 346.27884 135.82167Q346.59134 135.43105 346.59134 134.36855Q346.59134 133.3998 346.27884 133.00917Q345.96634 132.61855 345.5132 132.61855ZM345.5132 142.3373L350.9976 131.7748L351.9976 131.7748L346.54446 142.3373L345.5132 142.3373ZM349.85696 139.60292Q349.85696 138.5248 350.3882 137.79042Q350.9351 137.04042 351.96634 137.04042Q352.90384 137.04042 353.52884 137.7123Q354.15384 138.38417 354.15384 139.68105Q354.15384 140.9623 353.52884 141.6498Q352.90384 142.3373 351.96634 142.3373Q351.0601 142.3373 350.4507 141.66542Q349.85696 140.97792 349.85696 139.60292ZM351.9976 137.88417Q351.52884 137.88417 351.23196 138.29042Q350.9351 138.68105 350.9351 139.72792Q350.9351 140.69667 351.23196 141.0873Q351.54446 141.47792 351.9976 141.47792Q352.46634 141.47792 352.7632 141.0873Q353.0757 140.69667 353.0757 139.63417Q353.0757 138.66542 352.7632 138.2748Q352.46634 137.88417 351.9976 137.88417Z" fill-rule="nonzero"/><path fill="#000000" d="M389.03046 268.18332L387.79608 268.18332L387.79608 260.33957Q387.35858 260.76144 386.6242 261.19894Q385.90546 261.62082 385.34296 261.82394L385.34296 260.63644Q386.3742 260.15207 387.13983 259.46457Q387.92108 258.77707 388.23358 258.12082L389.03046 258.12082L389.03046 268.18332ZM392.38983 263.24582Q392.38983 261.46457 392.7492 260.38644Q393.1242 259.2927 393.84296 258.71457Q394.5617 258.12082 395.65546 258.12082Q396.46796 258.12082 397.07733 258.44894Q397.6867 258.77707 398.07733 259.38644Q398.48358 259.99582 398.70233 260.87082Q398.92108 261.74582 398.92108 263.24582Q398.92108 265.01144 398.5617 266.08957Q398.20233 267.1677 397.48358 267.76144Q396.76483 268.3552 395.65546 268.3552Q394.21796 268.3552 393.38983 267.30832Q392.38983 266.05832 392.38983 263.24582ZM393.65546 263.24582Q393.65546 265.71457 394.23358 266.52707Q394.8117 267.33957 395.65546 267.33957Q396.51483 267.33957 397.09296 266.52707Q397.67108 265.69894 397.67108 263.24582Q397.67108 260.76144 397.09296 259.94894Q396.51483 259.13644 395.63983 259.13644Q394.79608 259.13644 394.29608 259.8552Q393.65546 260.77707 393.65546 263.24582ZM401.07733 268.18332L401.07733 266.77707L402.48358 266.77707L402.48358 268.18332L401.07733 268.18332ZM404.38983 263.24582Q404.38983 261.46457 404.7492 260.38644Q405.1242 259.2927 405.84296 258.71457Q406.5617 258.12082 407.65546 258.12082Q408.46796 258.12082 409.07733 258.44894Q409.6867 258.77707 410.07733 259.38644Q410.48358 259.99582 410.70233 260.87082Q410.92108 261.74582 410.92108 263.24582Q410.92108 265.01144 410.5617 266.08957Q410.20233 267.1677 409.48358 267.76144Q408.76483 268.3552 407.65546 268.3552Q406.21796 268.3552 405.38983 267.30832Q404.38983 266.05832 404.38983 263.24582ZM405.65546 263.24582Q405.65546 265.71457 406.23358 266.52707Q406.8117 267.33957 407.65546 267.33957Q408.51483 267.33957 409.09296 266.52707Q409.67108 265.69894 409.67108 263.24582Q409.67108 260.76144 409.09296 259.94894Q408.51483 259.13644 407.63983 259.13644Q406.79608 259.13644 406.29608 259.8552Q405.65546 260.77707 405.65546 263.24582ZM412.6242 260.57394Q412.6242 259.49582 413.15546 258.74582Q413.70233 257.99582 414.73358 257.99582Q415.67108 257.99582 416.28046 258.6677Q416.90546 259.33957 416.90546 260.63644Q416.90546 261.9177 416.28046 262.6052Q415.65546 263.2927 414.7492 263.2927Q413.84296 263.2927 413.23358 262.62082Q412.6242 261.93332 412.6242 260.57394ZM414.76483 258.83957Q414.3117 258.83957 413.9992 259.24582Q413.70233 259.63644 413.70233 260.68332Q413.70233 261.65207 413.9992 262.0427Q414.3117 262.43332 414.76483 262.43332Q415.23358 262.43332 415.53046 262.0427Q415.84296 261.65207 415.84296 260.58957Q415.84296 259.62082 415.53046 259.2302Q415.21796 258.83957 414.76483 258.83957ZM414.76483 268.55832L420.2492 257.99582L421.2492 257.99582L415.79608 268.55832L414.76483 268.55832ZM419.10858 265.82394Q419.10858 264.74582 419.63983 264.01144Q420.1867 263.26144 421.21796 263.26144Q422.15546 263.26144 422.78046 263.93332Q423.40546 264.6052 423.40546 265.90207Q423.40546 267.18332 422.78046 267.87082Q422.15546 268.55832 421.21796 268.55832Q420.3117 268.55832 419.70233 267.88644Q419.10858 267.19894 419.10858 265.82394ZM421.2492 264.1052Q420.78046 264.1052 420.48358 264.51144Q420.1867 264.90207 420.1867 265.94894Q420.1867 266.9177 420.48358 267.30832Q420.79608 267.69894 421.2492 267.69894Q421.71796 267.69894 422.01483 267.30832Q422.32733 266.9177 422.32733 265.8552Q422.32733 264.88644 422.01483 264.49582Q421.71796 264.1052 421.2492 264.1052Z" fill-rule="nonzero"/><path fill="#000000" d="M352.65457 358.6965L351.4202 358.6965L351.4202 350.85275Q350.9827 351.27463 350.24832 351.71213Q349.52957 352.134 348.96707 352.33713L348.96707 351.14963Q349.99832 350.66525 350.76395 349.97775Q351.5452 349.29025 351.8577 348.634L352.65457 348.634L352.65457 358.6965ZM356.01395 353.759Q356.01395 351.97775 356.37332 350.89963Q356.74832 349.80588 357.46707 349.22775Q358.18582 348.634 359.27957 348.634Q360.09207 348.634 360.70145 348.96213Q361.31082 349.29025 361.70145 349.89963Q362.1077 350.509 362.32645 351.384Q362.5452 352.259 362.5452 353.759Q362.5452 355.52463 362.18582 356.60275Q361.82645 357.68088 361.1077 358.27463Q360.38895 358.86838 359.27957 358.86838Q357.84207 358.86838 357.01395 357.8215Q356.01395 356.5715 356.01395 353.759ZM357.27957 353.759Q357.27957 356.22775 357.8577 357.04025Q358.43582 357.85275 359.27957 357.85275Q360.13895 357.85275 360.71707 357.04025Q361.2952 356.21213 361.2952 353.759Q361.2952 351.27463 360.71707 350.46213Q360.13895 349.64963 359.26395 349.64963Q358.4202 349.64963 357.9202 350.36838Q357.27957 351.29025 357.27957 353.759ZM364.70145 358.6965L364.70145 357.29025L366.1077 357.29025L366.1077 358.6965L364.70145 358.6965ZM368.01395 353.759Q368.01395 351.97775 368.37332 350.89963Q368.74832 349.80588 369.46707 349.22775Q370.18582 348.634 371.27957 348.634Q372.09207 348.634 372.70145 348.96213Q373.31082 349.29025 373.70145 349.89963Q374.1077 350.509 374.32645 351.384Q374.5452 352.259 374.5452 353.759Q374.5452 355.52463 374.18582 356.60275Q373.82645 357.68088 373.1077 358.27463Q372.38895 358.86838 371.27957 358.86838Q369.84207 358.86838 369.01395 357.8215Q368.01395 356.5715 368.01395 353.759ZM369.27957 353.759Q369.27957 356.22775 369.8577 357.04025Q370.43582 357.85275 371.27957 357.85275Q372.13895 357.85275 372.71707 357.04025Q373.2952 356.21213 373.2952 353.759Q373.2952 351.27463 372.71707 350.46213Q372.13895 349.64963 371.26395 349.64963Q370.4202 349.64963 369.9202 350.36838Q369.27957 351.29025 369.27957 353.759ZM376.24832 351.08713Q376.24832 350.009 376.77957 349.259Q377.32645 348.509 378.3577 348.509Q379.2952 348.509 379.90457 349.18088Q380.52957 349.85275 380.52957 351.14963Q380.52957 352.43088 379.90457 353.11838Q379.27957 353.80588 378.37332 353.80588Q377.46707 353.80588 376.8577 353.134Q376.24832 352.4465 376.24832 351.08713ZM378.38895 349.35275Q377.93582 349.35275 377.62332 349.759Q377.32645 350.14963 377.32645 351.1965Q377.32645 352.16525 377.62332 352.55588Q377.93582 352.9465 378.38895 352.9465Q378.8577 352.9465 379.15457 352.55588Q379.46707 352.16525 379.46707 351.10275Q379.46707 350.134 379.15457 349.74338Q378.84207 349.35275 378.38895 349.35275ZM378.38895 359.0715L383.87332 348.509L384.87332 348.509L379.4202 359.0715L378.38895 359.0715ZM382.7327 356.33713Q382.7327 355.259 383.26395 354.52463Q383.81082 353.77463 384.84207 353.77463Q385.77957 353.77463 386.40457 354.4465Q387.02957 355.11838 387.02957 356.41525Q387.02957 357.6965 386.40457 358.384Q385.77957 359.0715 384.84207 359.0715Q383.93582 359.0715 383.32645 358.39963Q382.7327 357.71213 382.7327 356.33713ZM384.87332 354.61838Q384.40457 354.61838 384.1077 355.02463Q383.81082 355.41525 383.81082 356.46213Q383.81082 357.43088 384.1077 357.8215Q384.4202 358.21213 384.87332 358.21213Q385.34207 358.21213 385.63895 357.8215Q385.95145 357.43088 385.95145 356.36838Q385.95145 355.39963 385.63895 355.009Q385.34207 354.61838 384.87332 354.61838Z" fill-rule="nonzero"/><path fill="#000000" d="M278.04135 421.96738L276.80698 421.96738L276.80698 414.12363Q276.36948 414.5455 275.6351 414.983Q274.91635 415.40488 274.35385 415.608L274.35385 414.4205Q275.3851 413.93613 276.15073 413.24863Q276.93198 412.56113 277.24448 411.90488L278.04135 411.90488L278.04135 421.96738ZM281.40073 417.02988Q281.40073 415.24863 281.7601 414.1705Q282.1351 413.07675 282.85385 412.49863Q283.5726 411.90488 284.66635 411.90488Q285.47885 411.90488 286.08823 412.233Q286.6976 412.56113 287.08823 413.1705Q287.49448 413.77988 287.71323 414.65488Q287.93198 415.52988 287.93198 417.02988Q287.93198 418.7955 287.5726 419.87363Q287.21323 420.95175 286.49448 421.5455Q285.77573 422.13925 284.66635 422.13925Q283.22885 422.13925 282.40073 421.09238Q281.40073 419.84238 281.40073 417.02988ZM282.66635 417.02988Q282.66635 419.49863 283.24448 420.31113Q283.8226 421.12363 284.66635 421.12363Q285.52573 421.12363 286.10385 420.31113Q286.68198 419.483 286.68198 417.02988Q286.68198 414.5455 286.10385 413.733Q285.52573 412.9205 284.65073 412.9205Q283.80698 412.9205 283.30698 413.63925Q282.66635 414.56113 282.66635 417.02988ZM290.08823 421.96738L290.08823 420.56113L291.49448 420.56113L291.49448 421.96738L290.08823 421.96738ZM293.40073 417.02988Q293.40073 415.24863 293.7601 414.1705Q294.1351 413.07675 294.85385 412.49863Q295.5726 411.90488 296.66635 411.90488Q297.47885 411.90488 298.08823 412.233Q298.6976 412.56113 299.08823 413.1705Q299.49448 413.77988 299.71323 414.65488Q299.93198 415.52988 299.93198 417.02988Q299.93198 418.7955 299.5726 419.87363Q299.21323 420.95175 298.49448 421.5455Q297.77573 422.13925 296.66635 422.13925Q295.22885 422.13925 294.40073 421.09238Q293.40073 419.84238 293.40073 417.02988ZM294.66635 417.02988Q294.66635 419.49863 295.24448 420.31113Q295.8226 421.12363 296.66635 421.12363Q297.52573 421.12363 298.10385 420.31113Q298.68198 419.483 298.68198 417.02988Q298.68198 414.5455 298.10385 413.733Q297.52573 412.9205 296.65073 412.9205Q295.80698 412.9205 295.30698 413.63925Q294.66635 414.56113 294.66635 417.02988ZM301.6351 414.358Q301.6351 413.27988 302.16635 412.52988Q302.71323 411.77988 303.74448 411.77988Q304.68198 411.77988 305.29135 412.45175Q305.91635 413.12363 305.91635 414.4205Q305.91635 415.70175 305.29135 416.38925Q304.66635 417.07675 303.7601 417.07675Q302.85385 417.07675 302.24448 416.40488Q301.6351 415.71738 301.6351 414.358ZM303.77573 412.62363Q303.3226 412.62363 303.0101 413.02988Q302.71323 413.4205 302.71323 414.46738Q302.71323 415.43613 303.0101 415.82675Q303.3226 416.21738 303.77573 416.21738Q304.24448 416.21738 304.54135 415.82675Q304.85385 415.43613 304.85385 414.37363Q304.85385 413.40488 304.54135 413.01425Q304.22885 412.62363 303.77573 412.62363ZM303.77573 422.34238L309.2601 411.77988L310.2601 411.77988L304.80698 422.34238L303.77573 422.34238ZM308.11948 419.608Q308.11948 418.52988 308.65073 417.7955Q309.1976 417.0455 310.22885 417.0455Q311.16635 417.0455 311.79135 417.71738Q312.41635 418.38925 312.41635 419.68613Q312.41635 420.96738 311.79135 421.65488Q311.16635 422.34238 310.22885 422.34238Q309.3226 422.34238 308.71323 421.6705Q308.11948 420.983 308.11948 419.608ZM310.2601 417.88925Q309.79135 417.88925 309.49448 418.2955Q309.1976 418.68613 309.1976 419.733Q309.1976 420.70175 309.49448 421.09238Q309.80698 421.483 310.2601 421.483Q310.72885 421.483 311.02573 421.09238Q311.33823 420.70175 311.33823 419.63925Q311.33823 418.6705 311.02573 418.27988Q310.72885 417.88925 310.2601 417.88925Z" fill-rule="nonzero"/><path fill="#000000" d="M138.19707 393.21686L138.19707 394.40436L131.57207 394.40436Q131.55644 393.96686 131.71269 393.54498Q131.97832 392.8731 132.52519 392.21686Q133.08769 391.5606 134.13457 390.70123Q135.77519 389.35748 136.33769 388.57623Q136.91582 387.79498 136.91582 387.09186Q136.91582 386.35748 136.38457 385.85748Q135.86894 385.35748 135.04082 385.35748Q134.15019 385.35748 133.60332 385.88873Q133.07207 386.41998 133.07207 387.3731L131.80644 387.23248Q131.93144 385.82623 132.77519 385.09186Q133.63457 384.34186 135.05644 384.34186Q136.50957 384.34186 137.33769 385.13873Q138.18144 385.9356 138.18144 387.1231Q138.18144 387.73248 137.93144 388.3106Q137.69707 388.88873 137.11894 389.52936Q136.55644 390.16998 135.22832 391.29498Q134.11894 392.21686 133.80644 392.5606Q133.49394 392.88873 133.29082 393.21686L138.19707 393.21686ZM139.72832 389.46686Q139.72832 387.6856 140.08769 386.60748Q140.46269 385.51373 141.18144 384.9356Q141.90019 384.34186 142.99394 384.34186Q143.80644 384.34186 144.41582 384.66998Q145.02519 384.9981 145.41582 385.60748Q145.82207 386.21686 146.04082 387.09186Q146.25957 387.96686 146.25957 389.46686Q146.25957 391.23248 145.90019 392.3106Q145.54082 393.38873 144.82207 393.98248Q144.10332 394.57623 142.99394 394.57623Q141.55644 394.57623 140.72832 393.52936Q139.72832 392.27936 139.72832 389.46686ZM140.99394 389.46686Q140.99394 391.9356 141.57207 392.7481Q142.15019 393.5606 142.99394 393.5606Q143.85332 393.5606 144.43144 392.7481Q145.00957 391.91998 145.00957 389.46686Q145.00957 386.98248 144.43144 386.16998Q143.85332 385.35748 142.97832 385.35748Q142.13457 385.35748 141.63457 386.07623Q140.99394 386.9981 140.99394 389.46686ZM148.41582 394.40436L148.41582 392.9981L149.82207 392.9981L149.82207 394.40436L148.41582 394.40436ZM151.72832 389.46686Q151.72832 387.6856 152.08769 386.60748Q152.46269 385.51373 153.18144 384.9356Q153.90019 384.34186 154.99394 384.34186Q155.80644 384.34186 156.41582 384.66998Q157.02519 384.9981 157.41582 385.60748Q157.82207 386.21686 158.04082 387.09186Q158.25957 387.96686 158.25957 389.46686Q158.25957 391.23248 157.90019 392.3106Q157.54082 393.38873 156.82207 393.98248Q156.10332 394.57623 154.99394 394.57623Q153.55644 394.57623 152.72832 393.52936Q151.72832 392.27936 151.72832 389.46686ZM152.99394 389.46686Q152.99394 391.9356 153.57207 392.7481Q154.15019 393.5606 154.99394 393.5606Q155.85332 393.5606 156.43144 392.7481Q157.00957 391.91998 157.00957 389.46686Q157.00957 386.98248 156.43144 386.16998Q155.85332 385.35748 154.97832 385.35748Q154.13457 385.35748 153.63457 386.07623Q152.99394 386.9981 152.99394 389.46686ZM159.96269 386.79498Q159.96269 385.71686 160.49394 384.96686Q161.04082 384.21686 162.07207 384.21686Q163.00957 384.21686 163.61894 384.88873Q164.24394 385.5606 164.24394 386.85748Q164.24394 388.13873 163.61894 388.82623Q162.99394 389.51373 162.08769 389.51373Q161.18144 389.51373 160.57207 388.84186Q159.96269 388.15436 159.96269 386.79498ZM162.10332 385.0606Q161.65019 385.0606 161.33769 385.46686Q161.04082 385.85748 161.04082 386.90436Q161.04082 387.8731 161.33769 388.26373Q161.65019 388.65436 162.10332 388.65436Q162.57207 388.65436 162.86894 388.26373Q163.18144 387.8731 163.18144 386.8106Q163.18144 385.84186 162.86894 385.45123Q162.55644 385.0606 162.10332 385.0606ZM162.10332 394.77936L167.58769 384.21686L168.58769 384.21686L163.13457 394.77936L162.10332 394.77936ZM166.44707 392.04498Q166.44707 390.96686 166.97832 390.23248Q167.52519 389.48248 168.55644 389.48248Q169.49394 389.48248 170.11894 390.15436Q170.74394 390.82623 170.74394 392.1231Q170.74394 393.40436 170.11894 394.09186Q169.49394 394.77936 168.55644 394.77936Q167.65019 394.77936 167.04082 394.10748Q166.44707 393.41998 166.44707 392.04498ZM168.58769 390.32623Q168.11894 390.32623 167.82207 390.73248Q167.52519 391.1231 167.52519 392.16998Q167.52519 393.13873 167.82207 393.52936Q168.13457 393.91998 168.58769 393.91998Q169.05644 393.91998 169.35332 393.52936Q169.66582 393.13873 169.66582 392.07623Q169.66582 391.10748 169.35332 390.71686Q169.05644 390.32623 168.58769 390.32623Z" fill-rule="nonzero"/><path fill="#000000" d="M66.08199 273.01614Q65.31637 272.7349 64.94137 272.21927Q64.58199 271.70364 64.58199 270.96927Q64.58199 269.87552 65.36324 269.14114Q66.16012 268.39114 67.45699 268.39114Q68.76949 268.39114 69.56637 269.15677Q70.37887 269.9224 70.37887 271.01614Q70.37887 271.70364 70.00387 272.21927Q69.64449 272.7349 68.89449 273.01614Q69.81637 273.31302 70.30074 273.9849Q70.78512 274.65677 70.78512 275.59427Q70.78512 276.87552 69.87887 277.75052Q68.97262 278.62552 67.48824 278.62552Q66.00387 278.62552 65.08199 277.75052Q64.17574 276.8599 64.17574 275.5474Q64.17574 274.57864 64.67574 273.9224Q65.17574 273.25052 66.08199 273.01614ZM65.84762 270.93802Q65.84762 271.64114 66.30074 272.09427Q66.75387 272.5474 67.48824 272.5474Q68.20699 272.5474 68.66012 272.1099Q69.11324 271.65677 69.11324 271.00052Q69.11324 270.32864 68.64449 269.87552Q68.17574 269.40677 67.47262 269.40677Q66.76949 269.40677 66.30074 269.8599Q65.84762 270.2974 65.84762 270.93802ZM65.44137 275.56302Q65.44137 276.09427 65.69137 276.59427Q65.94137 277.07864 66.42574 277.34427Q66.92574 277.6099 67.50387 277.6099Q68.37887 277.6099 68.94137 277.0474Q69.51949 276.4849 69.51949 275.6099Q69.51949 274.71927 68.92574 274.14114Q68.34762 273.5474 67.45699 273.5474Q66.58199 273.5474 66.00387 274.12552Q65.44137 274.70364 65.44137 275.56302ZM72.87887 278.45364L72.87887 277.0474L74.28512 277.0474L74.28512 278.45364L72.87887 278.45364ZM76.19137 273.51614Q76.19137 271.7349 76.55074 270.65677Q76.92574 269.56302 77.64449 268.9849Q78.36324 268.39114 79.45699 268.39114Q80.26949 268.39114 80.87887 268.71927Q81.48824 269.0474 81.87887 269.65677Q82.28512 270.26614 82.50387 271.14114Q82.72262 272.01614 82.72262 273.51614Q82.72262 275.28177 82.36324 276.3599Q82.00387 277.43802 81.28512 278.03177Q80.56637 278.62552 79.45699 278.62552Q78.01949 278.62552 77.19137 277.57864Q76.19137 276.32864 76.19137 273.51614ZM77.45699 273.51614Q77.45699 275.9849 78.03512 276.7974Q78.61324 277.6099 79.45699 277.6099Q80.31637 277.6099 80.89449 276.7974Q81.47262 275.96927 81.47262 273.51614Q81.47262 271.03177 80.89449 270.21927Q80.31637 269.40677 79.44137 269.40677Q78.59762 269.40677 78.09762 270.12552Q77.45699 271.0474 77.45699 273.51614ZM84.42574 270.84427Q84.42574 269.76614 84.95699 269.01614Q85.50387 268.26614 86.53512 268.26614Q87.47262 268.26614 88.08199 268.93802Q88.70699 269.6099 88.70699 270.90677Q88.70699 272.18802 88.08199 272.87552Q87.45699 273.56302 86.55074 273.56302Q85.64449 273.56302 85.03512 272.89114Q84.42574 272.20364 84.42574 270.84427ZM86.56637 269.1099Q86.11324 269.1099 85.80074 269.51614Q85.50387 269.90677 85.50387 270.95364Q85.50387 271.9224 85.80074 272.31302Q86.11324 272.70364 86.56637 272.70364Q87.03512 272.70364 87.33199 272.31302Q87.64449 271.9224 87.64449 270.8599Q87.64449 269.89114 87.33199 269.50052Q87.01949 269.1099 86.56637 269.1099ZM86.56637 278.82864L92.05074 268.26614L93.05074 268.26614L87.59762 278.82864L86.56637 278.82864ZM90.91012 276.09427Q90.91012 275.01614 91.44137 274.28177Q91.98824 273.53177 93.01949 273.53177Q93.95699 273.53177 94.58199 274.20364Q95.20699 274.87552 95.20699 276.1724Q95.20699 277.45364 94.58199 278.14114Q93.95699 278.82864 93.01949 278.82864Q92.11324 278.82864 91.50387 278.15677Q90.91012 277.46927 90.91012 276.09427ZM93.05074 274.37552Q92.58199 274.37552 92.28512 274.78177Q91.98824 275.1724 91.98824 276.21927Q91.98824 277.18802 92.28512 277.57864Q92.59762 277.96927 93.05074 277.96927Q93.51949 277.96927 93.81637 277.57864Q94.12887 277.18802 94.12887 276.12552Q94.12887 275.15677 93.81637 274.76614Q93.51949 274.37552 93.05074 274.37552Z" fill-rule="nonzero"/><path fill="#000000" d="M103.49321 177.67017L102.258835 177.67017L102.258835 169.82642Q101.821335 170.24829 101.08696 170.68579Q100.36821 171.10767 99.80571 171.31079L99.80571 170.12329Q100.83696 169.63892 101.602585 168.95142Q102.383835 168.26392 102.696335 167.60767L103.49321 167.60767L103.49321 177.67017ZM106.852585 172.73267Q106.852585 170.95142 107.21196 169.87329Q107.58696 168.77954 108.30571 168.20142Q109.02446 167.60767 110.11821 167.60767Q110.93071 167.60767 111.540085 167.93579Q112.14946 168.26392 112.540085 168.87329Q112.946335 169.48267 113.165085 170.35767Q113.383835 171.23267 113.383835 172.73267Q113.383835 174.49829 113.02446 175.57642Q112.665085 176.65454 111.946335 177.24829Q111.227585 177.84204 110.11821 177.84204Q108.68071 177.84204 107.852585 176.79517Q106.852585 175.54517 106.852585 172.73267ZM108.11821 172.73267Q108.11821 175.20142 108.696335 176.01392Q109.27446 176.82642 110.11821 176.82642Q110.977585 176.82642 111.55571 176.01392Q112.133835 175.18579 112.133835 172.73267Q112.133835 170.24829 111.55571 169.43579Q110.977585 168.62329 110.102585 168.62329Q109.258835 168.62329 108.758835 169.34204Q108.11821 170.26392 108.11821 172.73267ZM115.540085 177.67017L115.540085 176.26392L116.946335 176.26392L116.946335 177.67017L115.540085 177.67017ZM118.852585 172.73267Q118.852585 170.95142 119.21196 169.87329Q119.58696 168.77954 120.30571 168.20142Q121.02446 167.60767 122.11821 167.60767Q122.93071 167.60767 123.540085 167.93579Q124.14946 168.26392 124.540085 168.87329Q124.946335 169.48267 125.165085 170.35767Q125.383835 171.23267 125.383835 172.73267Q125.383835 174.49829 125.02446 175.57642Q124.665085 176.65454 123.946335 177.24829Q123.227585 177.84204 122.11821 177.84204Q120.68071 177.84204 119.852585 176.79517Q118.852585 175.54517 118.852585 172.73267ZM120.11821 172.73267Q120.11821 175.20142 120.696335 176.01392Q121.27446 176.82642 122.11821 176.82642Q122.977585 176.82642 123.55571 176.01392Q124.133835 175.18579 124.133835 172.73267Q124.133835 170.24829 123.55571 169.43579Q122.977585 168.62329 122.102585 168.62329Q121.258835 168.62329 120.758835 169.34204Q120.11821 170.26392 120.11821 172.73267ZM127.08696 170.06079Q127.08696 168.98267 127.61821 168.23267Q128.16508 167.48267 129.19633 167.48267Q130.13383 167.48267 130.74321 168.15454Q131.36821 168.82642 131.36821 170.12329Q131.36821 171.40454 130.74321 172.09204Q130.11821 172.77954 129.21196 172.77954Q128.30571 172.77954 127.696335 172.10767Q127.08696 171.42017 127.08696 170.06079ZM129.22758 168.32642Q128.77446 168.32642 128.46196 168.73267Q128.16508 169.12329 128.16508 170.17017Q128.16508 171.13892 128.46196 171.52954Q128.77446 171.92017 129.22758 171.92017Q129.69633 171.92017 129.99321 171.52954Q130.30571 171.13892 130.30571 170.07642Q130.30571 169.10767 129.99321 168.71704Q129.68071 168.32642 129.22758 168.32642ZM129.22758 178.04517L134.71196 167.48267L135.71196 167.48267L130.25883 178.04517L129.22758 178.04517ZM133.57133 175.31079Q133.57133 174.23267 134.10258 173.49829Q134.64946 172.74829 135.68071 172.74829Q136.61821 172.74829 137.24321 173.42017Q137.86821 174.09204 137.86821 175.38892Q137.86821 176.67017 137.24321 177.35767Q136.61821 178.04517 135.68071 178.04517Q134.77446 178.04517 134.16508 177.37329Q133.57133 176.68579 133.57133 175.31079ZM135.71196 173.59204Q135.24321 173.59204 134.94633 173.99829Q134.64946 174.38892 134.64946 175.43579Q134.64946 176.40454 134.94633 176.79517Q135.25883 177.18579 135.71196 177.18579Q136.18071 177.18579 136.47758 176.79517Q136.79008 176.40454 136.79008 175.34204Q136.79008 174.37329 136.47758 173.98267Q136.18071 173.59204 135.71196 173.59204Z" fill-rule="nonzero"/><path fill="#000000" d="M178.10643 114.3993L176.87206 114.3993L176.87206 106.55555Q176.43456 106.977425 175.70018 107.414925Q174.98143 107.8368 174.41893 108.039925L174.41893 106.852425Q175.45018 106.36805 176.2158 105.68055Q176.99706 104.99305 177.30956 104.3368L178.10643 104.3368L178.10643 114.3993ZM181.4658 109.4618Q181.4658 107.68055 181.82518 106.602425Q182.20018 105.508675 182.91893 104.93055Q183.63768 104.3368 184.73143 104.3368Q185.54393 104.3368 186.1533 104.664925Q186.76268 104.99305 187.1533 105.602425Q187.55956 106.2118 187.7783 107.0868Q187.99706 107.9618 187.99706 109.4618Q187.99706 111.227425 187.63768 112.30555Q187.2783 113.383675 186.55956 113.977425Q185.8408 114.571175 184.73143 114.571175Q183.29393 114.571175 182.4658 113.5243Q181.4658 112.2743 181.4658 109.4618ZM182.73143 109.4618Q182.73143 111.93055 183.30956 112.74305Q183.88768 113.55555 184.73143 113.55555Q185.5908 113.55555 186.16893 112.74305Q186.74706 111.914925 186.74706 109.4618Q186.74706 106.977425 186.16893 106.164925Q185.5908 105.352425 184.7158 105.352425Q183.87206 105.352425 183.37206 106.071175Q182.73143 106.99305 182.73143 109.4618ZM190.1533 114.3993L190.1533 112.99305L191.55956 112.99305L191.55956 114.3993L190.1533 114.3993ZM193.4658 109.4618Q193.4658 107.68055 193.82518 106.602425Q194.20018 105.508675 194.91893 104.93055Q195.63768 104.3368 196.73143 104.3368Q197.54393 104.3368 198.1533 104.664925Q198.76268 104.99305 199.1533 105.602425Q199.55956 106.2118 199.7783 107.0868Q199.99706 107.9618 199.99706 109.4618Q199.99706 111.227425 199.63768 112.30555Q199.2783 113.383675 198.55956 113.977425Q197.8408 114.571175 196.73143 114.571175Q195.29393 114.571175 194.4658 113.5243Q193.4658 112.2743 193.4658 109.4618ZM194.73143 109.4618Q194.73143 111.93055 195.30956 112.74305Q195.88768 113.55555 196.73143 113.55555Q197.5908 113.55555 198.16893 112.74305Q198.74706 111.914925 198.74706 109.4618Q198.74706 106.977425 198.16893 106.164925Q197.5908 105.352425 196.7158 105.352425Q195.87206 105.352425 195.37206 106.071175Q194.73143 106.99305 194.73143 109.4618ZM201.70018 106.789925Q201.70018 105.7118 202.23143 104.9618Q202.7783 104.2118 203.80956 104.2118Q204.74706 104.2118 205.35643 104.883675Q205.98143 105.55555 205.98143 106.852425Q205.98143 108.133675 205.35643 108.821175Q204.73143 109.508675 203.82518 109.508675Q202.91893 109.508675 202.30956 108.8368Q201.70018 108.1493 201.70018 106.789925ZM203.8408 105.05555Q203.38768 105.05555 203.07518 105.4618Q202.7783 105.852425 202.7783 106.8993Q202.7783 107.86805 203.07518 108.258675Q203.38768 108.6493 203.8408 108.6493Q204.30956 108.6493 204.60643 108.258675Q204.91893 107.86805 204.91893 106.80555Q204.91893 105.8368 204.60643 105.446175Q204.29393 105.05555 203.8408 105.05555ZM203.8408 114.7743L209.32518 104.2118L210.32518 104.2118L204.87206 114.7743L203.8408 114.7743ZM208.18456 112.039925Q208.18456 110.9618 208.7158 110.227425Q209.26268 109.477425 210.29393 109.477425Q211.23143 109.477425 211.85643 110.1493Q212.48143 110.821175 212.48143 112.11805Q212.48143 113.3993 211.85643 114.0868Q211.23143 114.7743 210.29393 114.7743Q209.38768 114.7743 208.7783 114.102425Q208.18456 113.414925 208.18456 112.039925ZM210.32518 110.321175Q209.85643 110.321175 209.55956 110.727425Q209.26268 111.11805 209.26268 112.164925Q209.26268 113.133675 209.55956 113.5243Q209.87206 113.914925 210.32518 113.914925Q210.79393 113.914925 211.0908 113.5243Q211.4033 113.133675 211.4033 112.071175Q211.4033 111.102425 211.0908 110.7118Q210.79393 110.321175 210.32518 110.321175Z" fill-rule="nonzero"/><path fill="#fbbc04" d="M485.5058 162.1639C485.5058 165.4776 482.81952 168.1639 479.5058 168.1639C476.1921 168.1639 473.5058 165.4776 473.5058 162.1639C473.5058 158.85019 476.1921 156.1639 479.5058 156.1639C482.81952 156.1639 485.5058 158.85019 485.5058 162.1639Z" fill-rule="nonzero"/><path fill="#ffffff" d="M494.53705 167.1639L494.53705 157.14827L498.28705 157.14827Q499.4433 157.14827 500.1308 157.46077Q500.83392 157.75764 501.22455 158.38264Q501.61517 159.00764 501.61517 159.71077Q501.61517 160.3514 501.2558 160.9139Q500.91205 161.4764 500.20892 161.83577Q501.11517 162.1014 501.59955 162.74202Q502.09955 163.38264 502.09955 164.25764Q502.09955 164.96077 501.80267 165.57014Q501.5058 166.17952 501.0683 166.50764Q500.6308 166.83577 499.95892 167.00764Q499.30267 167.1639 498.34955 167.1639L494.53705 167.1639ZM495.86517 161.3514L498.02142 161.3514Q498.91205 161.3514 499.28705 161.24202Q499.80267 161.08577 500.05267 160.74202Q500.30267 160.38264 500.30267 159.86702Q500.30267 159.36702 500.0683 158.99202Q499.83392 158.6014 499.3808 158.46077Q498.9433 158.32014 497.86517 158.32014L495.86517 158.32014L495.86517 161.3514ZM495.86517 165.9764L498.34955 165.9764Q498.99017 165.9764 499.2558 165.92952Q499.70892 165.8514 500.02142 165.6639Q500.33392 165.46077 500.52142 165.1014Q500.72455 164.74202 500.72455 164.25764Q500.72455 163.69514 500.42767 163.2889Q500.14642 162.86702 499.6308 162.71077Q499.1308 162.5389 498.17767 162.5389L495.86517 162.5389L495.86517 165.9764ZM502.9433 164.99202L504.14642 164.80452Q504.2558 165.5389 504.72455 165.92952Q505.1933 166.32014 506.03705 166.32014Q506.8808 166.32014 507.28705 165.9764Q507.70892 165.63264 507.70892 165.1639Q507.70892 164.74202 507.33392 164.50764Q507.08392 164.33577 506.08392 164.08577Q504.72455 163.74202 504.1933 163.49202Q503.67767 163.24202 503.41205 162.80452Q503.14642 162.36702 503.14642 161.83577Q503.14642 161.3514 503.36517 160.94514Q503.58392 160.52327 503.97455 160.24202Q504.2558 160.0389 504.74017 159.89827Q505.24017 159.74202 505.8183 159.74202Q506.66205 159.74202 507.30267 159.99202Q507.95892 160.2264 508.27142 160.64827Q508.58392 161.07014 508.6933 161.77327L507.49017 161.94514Q507.41205 161.38264 507.0058 161.07014Q506.61517 160.75764 505.89642 160.75764Q505.05267 160.75764 504.6933 161.0389Q504.33392 161.30452 504.33392 161.69514Q504.33392 161.92952 504.47455 162.11702Q504.6308 162.32014 504.95892 162.44514Q505.1308 162.50764 506.03705 162.75764Q507.34955 163.11702 507.86517 163.33577Q508.3808 163.55452 508.66205 163.9764Q508.95892 164.39827 508.95892 165.02327Q508.95892 165.64827 508.59955 166.19514Q508.2558 166.7264 507.5683 167.0389Q506.89642 167.33577 506.03705 167.33577Q504.6308 167.33577 503.8808 166.74202Q503.14642 166.14827 502.9433 164.99202ZM515.16205 164.50764L516.3808 164.6639Q516.1777 165.9139 515.34955 166.63264Q514.53705 167.33577 513.34955 167.33577Q511.86517 167.33577 510.95892 166.36702Q510.05267 165.38264 510.05267 163.55452Q510.05267 162.38264 510.4433 161.50764Q510.83392 160.61702 511.6308 160.17952Q512.4277 159.74202 513.3652 159.74202Q514.53705 159.74202 515.28705 160.33577Q516.0527 160.92952 516.2558 162.0389L515.0683 162.2264Q514.8964 161.49202 514.4589 161.13264Q514.0214 160.75764 513.41205 160.75764Q512.47455 160.75764 511.89642 161.42952Q511.3183 162.08577 511.3183 163.52327Q511.3183 164.99202 511.8808 165.6639Q512.4433 166.32014 513.3339 166.32014Q514.0683 166.32014 514.5527 165.88264Q515.03705 165.42952 515.16205 164.50764ZM521.3964 167.1639L521.3964 157.14827L522.6308 157.14827L522.6308 167.1639L521.3964 167.1639ZM529.16205 166.27327Q528.4902 166.8514 527.84955 167.1014Q527.22455 167.33577 526.4902 167.33577Q525.3027 167.33577 524.6464 166.75764Q524.0058 166.1639 524.0058 165.24202Q524.0058 164.71077 524.2402 164.27327Q524.4902 163.83577 524.8808 163.57014Q525.28705 163.30452 525.7714 163.1639Q526.1308 163.07014 526.8652 162.9764Q528.3652 162.80452 529.0683 162.55452Q529.0683 162.30452 529.0683 162.24202Q529.0683 161.4764 528.72455 161.17952Q528.2558 160.75764 527.3183 160.75764Q526.4589 160.75764 526.03705 161.07014Q525.6308 161.36702 525.4277 162.13264L524.22455 161.9764Q524.3808 161.19514 524.7558 160.7264Q525.1464 160.25764 525.84955 160.00764Q526.5683 159.74202 527.5058 159.74202Q528.4277 159.74202 529.0058 159.96077Q529.5839 160.17952 529.84955 160.50764Q530.1308 160.83577 530.2402 161.3514Q530.3027 161.6639 530.3027 162.4764L530.3027 164.11702Q530.3027 165.83577 530.3808 166.2889Q530.4589 166.74202 530.6933 167.1639L529.41205 167.1639Q529.22455 166.77327 529.16205 166.27327ZM529.0683 163.52327Q528.3964 163.7889 527.0527 163.99202Q526.3027 164.1014 525.97455 164.24202Q525.66205 164.36702 525.4902 164.63264Q525.3183 164.89827 525.3183 165.21077Q525.3183 165.71077 525.6933 166.0389Q526.0683 166.36702 526.78705 166.36702Q527.5058 166.36702 528.0527 166.05452Q528.59955 165.74202 528.8652 165.19514Q529.0683 164.7889 529.0683 163.9764L529.0683 163.52327ZM537.1933 167.1639L537.1933 166.1014Q536.3339 167.33577 534.8808 167.33577Q534.2402 167.33577 533.6777 167.08577Q533.1308 166.83577 532.84955 166.46077Q532.5839 166.08577 532.47455 165.55452Q532.3964 165.19514 532.3964 164.39827L532.3964 159.89827L533.6308 159.89827L533.6308 163.92952Q533.6308 164.89827 533.7089 165.2264Q533.8183 165.71077 534.1933 165.99202Q534.5683 166.27327 535.1308 166.27327Q535.6777 166.27327 536.16205 165.99202Q536.6464 165.69514 536.84955 165.21077Q537.0527 164.7264 537.0527 163.7889L537.0527 159.89827L538.28705 159.89827L538.28705 167.1639L537.1933 167.1639ZM540.4277 167.1639L540.4277 159.89827L541.53705 159.89827L541.53705 160.92952Q542.3339 159.74202 543.84955 159.74202Q544.5058 159.74202 545.0527 159.9764Q545.59955 160.21077 545.8652 160.6014Q546.1464 160.9764 546.2558 161.50764Q546.3339 161.8514 546.3339 162.69514L546.3339 167.1639L545.09955 167.1639L545.09955 162.74202Q545.09955 161.99202 544.9589 161.63264Q544.8183 161.25764 544.4433 161.0389Q544.0839 160.80452 543.5839 160.80452Q542.8027 160.80452 542.22455 161.30452Q541.66205 161.80452 541.66205 163.19514L541.66205 167.1639L540.4277 167.1639ZM553.16205 164.50764L554.3808 164.6639Q554.1777 165.9139 553.34955 166.63264Q552.53705 167.33577 551.34955 167.33577Q549.8652 167.33577 548.9589 166.36702Q548.0527 165.38264 548.0527 163.55452Q548.0527 162.38264 548.4433 161.50764Q548.8339 160.61702 549.6308 160.17952Q550.4277 159.74202 551.3652 159.74202Q552.53705 159.74202 553.28705 160.33577Q554.0527 160.92952 554.2558 162.0389L553.0683 162.2264Q552.8964 161.49202 552.4589 161.13264Q552.0214 160.75764 551.41205 160.75764Q550.47455 160.75764 549.8964 161.42952Q549.3183 162.08577 549.3183 163.52327Q549.3183 164.99202 549.8808 165.6639Q550.4433 166.32014 551.3339 166.32014Q552.0683 166.32014 552.5527 165.88264Q553.03705 165.42952 553.16205 164.50764ZM555.4277 167.1639L555.4277 157.14827L556.66205 157.14827L556.66205 160.74202Q557.5214 159.74202 558.8339 159.74202Q559.6464 159.74202 560.2402 160.07014Q560.8339 160.38264 561.0839 160.94514Q561.34955 161.49202 561.34955 162.57014L561.34955 167.1639L560.1152 167.1639L560.1152 162.57014Q560.1152 161.63264 559.7089 161.2264Q559.3183 160.80452 558.5839 160.80452Q558.03705 160.80452 557.5527 161.08577Q557.0683 161.36702 556.8652 161.8514Q556.66205 162.33577 556.66205 163.19514L556.66205 167.1639L555.4277 167.1639Z" fill-rule="nonzero"/><path fill="#38761d" d="M485.5058 188.1639C485.5058 191.4776 482.81952 194.1639 479.5058 194.1639C476.1921 194.1639 473.5058 191.4776 473.5058 188.1639C473.5058 184.85019 476.1921 182.1639 479.5058 182.1639C482.81952 182.1639 485.5058 184.85019 485.5058 188.1639Z" fill-rule="nonzero"/><path fill="#ffffff" d="M493.49017 193.1639L497.33392 183.14827L498.7558 183.14827L502.86517 193.1639L501.34955 193.1639L500.17767 190.13264L495.99017 190.13264L494.89642 193.1639L493.49017 193.1639ZM496.3808 189.05452L499.77142 189.05452L498.72455 186.27327Q498.2558 185.00764 498.02142 184.19514Q497.83392 185.1639 497.47455 186.1014L496.3808 189.05452ZM503.55267 193.1639L503.55267 183.14827L505.53705 183.14827L507.91205 190.24202Q508.24017 191.2264 508.39642 191.7264Q508.5683 191.17952 508.92767 190.11702L511.3183 183.14827L513.1152 183.14827L513.1152 193.1639L511.83392 193.1639L511.83392 184.77327L508.91205 193.1639L507.72455 193.1639L504.8183 184.63264L504.8183 193.1639L503.55267 193.1639ZM514.5527 193.1639L514.5527 183.14827L516.53705 183.14827L518.91205 190.24202Q519.2402 191.2264 519.3964 191.7264Q519.5683 191.17952 519.9277 190.11702L522.3183 183.14827L524.1152 183.14827L524.1152 193.1639L522.8339 193.1639L522.8339 184.77327L519.91205 193.1639L518.72455 193.1639L515.8183 184.63264L515.8183 193.1639L514.5527 193.1639ZM529.3964 193.1639L529.3964 183.14827L530.6308 183.14827L530.6308 193.1639L529.3964 193.1639ZM532.4433 184.55452L532.4433 183.14827L533.66205 183.14827L533.66205 184.55452L532.4433 184.55452ZM532.4433 193.1639L532.4433 185.89827L533.66205 185.89827L533.66205 193.1639L532.4433 193.1639ZM540.0527 195.94514L540.0527 192.39827Q539.7714 192.7889 539.2558 193.07014Q538.7402 193.33577 538.16205 193.33577Q536.8652 193.33577 535.9277 192.30452Q535.0058 191.25764 535.0058 189.46077Q535.0058 188.36702 535.3808 187.50764Q535.7558 186.63264 536.47455 186.19514Q537.1933 185.74202 538.0683 185.74202Q539.41205 185.74202 540.1777 186.86702L540.1777 185.89827L541.28705 185.89827L541.28705 195.94514L540.0527 195.94514ZM536.2558 189.50764Q536.2558 190.9139 536.84955 191.61702Q537.4433 192.32014 538.2558 192.32014Q539.0527 192.32014 539.6152 191.64827Q540.1777 190.9764 540.1777 189.61702Q540.1777 188.17952 539.5839 187.44514Q538.9902 186.71077 538.1777 186.71077Q537.3808 186.71077 536.8183 187.39827Q536.2558 188.07014 536.2558 189.50764ZM548.1933 193.1639L548.1933 192.1014Q547.3339 193.33577 545.8808 193.33577Q545.2402 193.33577 544.6777 193.08577Q544.1308 192.83577 543.84955 192.46077Q543.5839 192.08577 543.47455 191.55452Q543.3964 191.19514 543.3964 190.39827L543.3964 185.89827L544.6308 185.89827L544.6308 189.92952Q544.6308 190.89827 544.7089 191.2264Q544.8183 191.71077 545.1933 191.99202Q545.5683 192.27327 546.1308 192.27327Q546.6777 192.27327 547.16205 191.99202Q547.6464 191.69514 547.84955 191.21077Q548.0527 190.7264 548.0527 189.7889L548.0527 185.89827L549.28705 185.89827L549.28705 193.1639L548.1933 193.1639ZM551.4433 184.55452L551.4433 183.14827L552.66205 183.14827L552.66205 184.55452L551.4433 184.55452ZM551.4433 193.1639L551.4433 185.89827L552.66205 185.89827L552.66205 193.1639L551.4433 193.1639ZM559.1464 193.1639L559.1464 192.24202Q558.4433 193.33577 557.1152 193.33577Q556.2402 193.33577 555.5058 192.8514Q554.78705 192.36702 554.3808 191.50764Q553.9902 190.64827 553.9902 189.5389Q553.9902 188.46077 554.34955 187.57014Q554.7089 186.67952 555.4277 186.21077Q556.16205 185.74202 557.0527 185.74202Q557.7089 185.74202 558.22455 186.02327Q558.7402 186.2889 559.0527 186.74202L559.0527 183.14827L560.28705 183.14827L560.28705 193.1639L559.1464 193.1639ZM555.2558 189.5389Q555.2558 190.92952 555.8339 191.63264Q556.4277 192.32014 557.22455 192.32014Q558.03705 192.32014 558.59955 191.6639Q559.16205 190.99202 559.16205 189.64827Q559.16205 188.14827 558.5839 187.46077Q558.0058 186.75764 557.1777 186.75764Q556.34955 186.75764 555.8027 187.42952Q555.2558 188.1014 555.2558 189.5389ZM562.4433 184.55452L562.4433 183.14827L563.66205 183.14827L563.66205 184.55452L562.4433 184.55452ZM562.4433 193.1639L562.4433 185.89827L563.66205 185.89827L563.66205 193.1639L562.4433 193.1639ZM568.1152 192.07014L568.28705 193.14827Q567.7714 193.25764 567.3652 193.25764Q566.6933 193.25764 566.3183 193.05452Q565.9589 192.83577 565.8027 192.49202Q565.66205 192.14827 565.66205 191.0389L565.66205 186.86702L564.7558 186.86702L564.7558 185.89827L565.66205 185.89827L565.66205 184.1014L566.8808 183.36702L566.8808 185.89827L568.1152 185.89827L568.1152 186.86702L566.8808 186.86702L566.8808 191.1014Q566.8808 191.63264 566.9433 191.7889Q567.0058 191.92952 567.1464 192.02327Q567.3027 192.11702 567.5683 192.11702Q567.78705 192.11702 568.1152 192.07014ZM569.3808 195.96077L569.2402 194.80452Q569.6464 194.9139 569.9433 194.9139Q570.34955 194.9139 570.59955 194.77327Q570.84955 194.64827 571.0058 194.39827Q571.1152 194.21077 571.3808 193.4764Q571.41205 193.38264 571.4902 193.17952L568.72455 185.89827L570.0527 185.89827L571.5683 190.1014Q571.8652 190.9139 572.09955 191.7889Q572.3027 190.94514 572.59955 190.13264L574.1464 185.89827L575.3808 185.89827L572.6152 193.2889Q572.1777 194.4764 571.9277 194.92952Q571.59955 195.5389 571.1777 195.82014Q570.7558 196.11702 570.16205 196.11702Q569.8183 196.11702 569.3808 195.96077Z" fill-rule="nonzero"/><path fill="#e06666" d="M485.5058 214.1639C485.5058 217.4776 482.81952 220.1639 479.5058 220.1639C476.1921 220.1639 473.5058 217.4776 473.5058 214.1639C473.5058 210.85019 476.1921 208.1639 479.5058 208.1639C482.81952 208.1639 485.5058 210.85019 485.5058 214.1639Z" fill-rule="nonzero"/><path fill="#ffffff" d="M494.1308 215.94514L495.3808 215.83577Q495.47455 216.58577 495.80267 217.07014Q496.1308 217.55452 496.80267 217.8514Q497.49017 218.14827 498.34955 218.14827Q499.09955 218.14827 499.67767 217.92952Q500.27142 217.69514 500.55267 217.30452Q500.83392 216.9139 500.83392 216.44514Q500.83392 215.9764 500.55267 215.63264Q500.28705 215.27327 499.66205 215.02327Q499.2558 214.86702 497.86517 214.5389Q496.49017 214.21077 495.9433 213.9139Q495.22455 213.5389 494.86517 212.99202Q494.52142 212.42952 494.52142 211.7264Q494.52142 210.9764 494.9433 210.32014Q495.3808 209.64827 496.20892 209.32014Q497.03705 208.9764 498.05267 208.9764Q499.16205 208.9764 500.0058 209.33577Q500.86517 209.69514 501.3183 210.39827Q501.77142 211.08577 501.8183 211.96077L500.53705 212.05452Q500.4433 211.11702 499.84955 210.63264Q499.2558 210.13264 498.09955 210.13264Q496.89642 210.13264 496.34955 210.58577Q495.80267 211.02327 495.80267 211.64827Q495.80267 212.17952 496.1933 212.5389Q496.5683 212.88264 498.17767 213.25764Q499.80267 213.61702 500.39642 213.88264Q501.27142 214.2889 501.6933 214.9139Q502.11517 215.52327 502.11517 216.33577Q502.11517 217.13264 501.64642 217.8514Q501.1933 218.55452 500.33392 218.94514Q499.47455 219.33577 498.41205 219.33577Q497.05267 219.33577 496.1308 218.94514Q495.20892 218.5389 494.67767 217.74202Q494.16205 216.94514 494.1308 215.94514ZM502.97455 215.5389Q502.97455 213.52327 504.09955 212.5389Q505.02142 211.74202 506.3808 211.74202Q507.86517 211.74202 508.8183 212.7264Q509.77142 213.69514 509.77142 215.42952Q509.77142 216.83577 509.34955 217.64827Q508.92767 218.44514 508.11517 218.89827Q507.3183 219.33577 506.3808 219.33577Q504.84955 219.33577 503.91205 218.3514Q502.97455 217.36702 502.97455 215.5389ZM504.24017 215.5389Q504.24017 216.92952 504.84955 217.63264Q505.45892 218.32014 506.3808 218.32014Q507.28705 218.32014 507.89642 217.61702Q508.5058 216.9139 508.5058 215.49202Q508.5058 214.14827 507.89642 213.46077Q507.28705 212.75764 506.3808 212.75764Q505.45892 212.75764 504.84955 213.44514Q504.24017 214.13264 504.24017 215.5389ZM511.39642 219.1639L511.39642 209.14827L512.6308 209.14827L512.6308 219.1639L511.39642 219.1639ZM519.16205 218.27327Q518.4902 218.8514 517.84955 219.1014Q517.22455 219.33577 516.4902 219.33577Q515.3027 219.33577 514.6464 218.75764Q514.0058 218.1639 514.0058 217.24202Q514.0058 216.71077 514.2402 216.27327Q514.4902 215.83577 514.8808 215.57014Q515.28705 215.30452 515.7714 215.1639Q516.1308 215.07014 516.8652 214.9764Q518.3652 214.80452 519.0683 214.55452Q519.0683 214.30452 519.0683 214.24202Q519.0683 213.4764 518.72455 213.17952Q518.2558 212.75764 517.3183 212.75764Q516.4589 212.75764 516.03705 213.07014Q515.6308 213.36702 515.4277 214.13264L514.22455 213.9764Q514.3808 213.19514 514.7558 212.7264Q515.1464 212.25764 515.84955 212.00764Q516.5683 211.74202 517.5058 211.74202Q518.4277 211.74202 519.0058 211.96077Q519.5839 212.17952 519.84955 212.50764Q520.1308 212.83577 520.2402 213.3514Q520.3027 213.6639 520.3027 214.4764L520.3027 216.11702Q520.3027 217.83577 520.3808 218.2889Q520.4589 218.74202 520.6933 219.1639L519.41205 219.1639Q519.22455 218.77327 519.16205 218.27327ZM519.0683 215.52327Q518.3964 215.7889 517.0527 215.99202Q516.3027 216.1014 515.97455 216.24202Q515.66205 216.36702 515.4902 216.63264Q515.3183 216.89827 515.3183 217.21077Q515.3183 217.71077 515.6933 218.0389Q516.0683 218.36702 516.78705 218.36702Q517.5058 218.36702 518.0527 218.05452Q518.59955 217.74202 518.8652 217.19514Q519.0683 216.7889 519.0683 215.9764L519.0683 215.52327ZM522.4277 219.1639L522.4277 211.89827L523.53705 211.89827L523.53705 212.92952Q524.3339 211.74202 525.84955 211.74202Q526.5058 211.74202 527.0527 211.9764Q527.59955 212.21077 527.8652 212.6014Q528.1464 212.9764 528.2558 213.50764Q528.3339 213.8514 528.3339 214.69514L528.3339 219.1639L527.09955 219.1639L527.09955 214.74202Q527.09955 213.99202 526.9589 213.63264Q526.8183 213.25764 526.4433 213.0389Q526.0839 212.80452 525.5839 212.80452Q524.8027 212.80452 524.22455 213.30452Q523.66205 213.80452 523.66205 215.19514L523.66205 219.1639L522.4277 219.1639ZM535.16205 218.27327Q534.4902 218.8514 533.84955 219.1014Q533.22455 219.33577 532.4902 219.33577Q531.3027 219.33577 530.6464 218.75764Q530.0058 218.1639 530.0058 217.24202Q530.0058 216.71077 530.2402 216.27327Q530.4902 215.83577 530.8808 215.57014Q531.28705 215.30452 531.7714 215.1639Q532.1308 215.07014 532.8652 214.9764Q534.3652 214.80452 535.0683 214.55452Q535.0683 214.30452 535.0683 214.24202Q535.0683 213.4764 534.72455 213.17952Q534.2558 212.75764 533.3183 212.75764Q532.4589 212.75764 532.03705 213.07014Q531.6308 213.36702 531.4277 214.13264L530.22455 213.9764Q530.3808 213.19514 530.7558 212.7264Q531.1464 212.25764 531.84955 212.00764Q532.5683 211.74202 533.5058 211.74202Q534.4277 211.74202 535.0058 211.96077Q535.5839 212.17952 535.84955 212.50764Q536.1308 212.83577 536.2402 213.3514Q536.3027 213.6639 536.3027 214.4764L536.3027 216.11702Q536.3027 217.83577 536.3808 218.2889Q536.4589 218.74202 536.6933 219.1639L535.41205 219.1639Q535.22455 218.77327 535.16205 218.27327ZM535.0683 215.52327Q534.3964 215.7889 533.0527 215.99202Q532.3027 216.1014 531.97455 216.24202Q531.66205 216.36702 531.4902 216.63264Q531.3183 216.89827 531.3183 217.21077Q531.3183 217.71077 531.6933 218.0389Q532.0683 218.36702 532.78705 218.36702Q533.5058 218.36702 534.0527 218.05452Q534.59955 217.74202 534.8652 217.19514Q535.0683 216.7889 535.0683 215.9764L535.0683 215.52327ZM542.3964 219.1639L542.3964 209.14827L543.6308 209.14827L543.6308 219.1639L542.3964 219.1639ZM550.16205 218.27327Q549.4902 218.8514 548.84955 219.1014Q548.22455 219.33577 547.4902 219.33577Q546.3027 219.33577 545.6464 218.75764Q545.0058 218.1639 545.0058 217.24202Q545.0058 216.71077 545.2402 216.27327Q545.4902 215.83577 545.8808 215.57014Q546.28705 215.30452 546.7714 215.1639Q547.1308 215.07014 547.8652 214.9764Q549.3652 214.80452 550.0683 214.55452Q550.0683 214.30452 550.0683 214.24202Q550.0683 213.4764 549.72455 213.17952Q549.2558 212.75764 548.3183 212.75764Q547.4589 212.75764 547.03705 213.07014Q546.6308 213.36702 546.4277 214.13264L545.22455 213.9764Q545.3808 213.19514 545.7558 212.7264Q546.1464 212.25764 546.84955 212.00764Q547.5683 211.74202 548.5058 211.74202Q549.4277 211.74202 550.0058 211.96077Q550.5839 212.17952 550.84955 212.50764Q551.1308 212.83577 551.2402 213.3514Q551.3027 213.6639 551.3027 214.4764L551.3027 216.11702Q551.3027 217.83577 551.3808 218.2889Q551.4589 218.74202 551.6933 219.1639L550.41205 219.1639Q550.22455 218.77327 550.16205 218.27327ZM550.0683 215.52327Q549.3964 215.7889 548.0527 215.99202Q547.3027 216.1014 546.97455 216.24202Q546.66205 216.36702 546.4902 216.63264Q546.3183 216.89827 546.3183 217.21077Q546.3183 217.71077 546.6933 218.0389Q547.0683 218.36702 547.78705 218.36702Q548.5058 218.36702 549.0527 218.05452Q549.59955 217.74202 549.8652 217.19514Q550.0683 216.7889 550.0683 215.9764L550.0683 215.52327ZM558.1933 219.1639L558.1933 218.1014Q557.3339 219.33577 555.8808 219.33577Q555.2402 219.33577 554.6777 219.08577Q554.1308 218.83577 553.84955 218.46077Q553.5839 218.08577 553.47455 217.55452Q553.3964 217.19514 553.3964 216.39827L553.3964 211.89827L554.6308 211.89827L554.6308 215.92952Q554.6308 216.89827 554.7089 217.2264Q554.8183 217.71077 555.1933 217.99202Q555.5683 218.27327 556.1308 218.27327Q556.6777 218.27327 557.16205 217.99202Q557.6464 217.69514 557.84955 217.21077Q558.0527 216.7264 558.0527 215.7889L558.0527 211.89827L559.28705 211.89827L559.28705 219.1639L558.1933 219.1639ZM561.4277 219.1639L561.4277 211.89827L562.53705 211.89827L562.53705 212.92952Q563.3339 211.74202 564.84955 211.74202Q565.5058 211.74202 566.0527 211.9764Q566.59955 212.21077 566.8652 212.6014Q567.1464 212.9764 567.2558 213.50764Q567.3339 213.8514 567.3339 214.69514L567.3339 219.1639L566.09955 219.1639L566.09955 214.74202Q566.09955 213.99202 565.9589 213.63264Q565.8183 213.25764 565.4433 213.0389Q565.0839 212.80452 564.5839 212.80452Q563.8027 212.80452 563.22455 213.30452Q562.66205 213.80452 562.66205 215.19514L562.66205 219.1639L561.4277 219.1639ZM574.16205 216.50764L575.3808 216.6639Q575.1777 217.9139 574.34955 218.63264Q573.53705 219.33577 572.34955 219.33577Q570.8652 219.33577 569.9589 218.36702Q569.0527 217.38264 569.0527 215.55452Q569.0527 214.38264 569.4433 213.50764Q569.8339 212.61702 570.6308 212.17952Q571.4277 211.74202 572.3652 211.74202Q573.53705 211.74202 574.28705 212.33577Q575.0527 212.92952 575.2558 214.0389L574.0683 214.2264Q573.8964 213.49202 573.4589 213.13264Q573.0214 212.75764 572.41205 212.75764Q571.47455 212.75764 570.8964 213.42952Q570.3183 214.08577 570.3183 215.52327Q570.3183 216.99202 570.8808 217.6639Q571.4433 218.32014 572.3339 218.32014Q573.0683 218.32014 573.5527 217.88264Q574.03705 217.42952 574.16205 216.50764ZM576.4277 219.1639L576.4277 209.14827L577.66205 209.14827L577.66205 212.74202Q578.5214 211.74202 579.8339 211.74202Q580.6464 211.74202 581.2402 212.07014Q581.8339 212.38264 582.0839 212.94514Q582.34955 213.49202 582.34955 214.57014L582.34955 219.1639L581.1152 219.1639L581.1152 214.57014Q581.1152 213.63264 580.7089 213.2264Q580.3183 212.80452 579.5839 212.80452Q579.03705 212.80452 578.5527 213.08577Q578.0683 213.36702 577.8652 213.8514Q577.66205 214.33577 577.66205 215.19514L577.66205 219.1639L576.4277 219.1639Z" fill-rule="nonzero"/><path fill="#990000" d="M485.5058 240.1639C485.5058 243.4776 482.81952 246.1639 479.5058 246.1639C476.1921 246.1639 473.5058 243.4776 473.5058 240.1639C473.5058 236.85019 476.1921 234.1639 479.5058 234.1639C482.81952 234.1639 485.5058 236.85019 485.5058 240.1639Z" fill-rule="nonzero"/><path fill="#ffffff" d="M494.53705 245.1639L494.53705 235.14827L495.86517 235.14827L495.86517 243.9764L500.78705 243.9764L500.78705 245.1639L494.53705 245.1639ZM502.4433 236.55452L502.4433 235.14827L503.66205 235.14827L503.66205 236.55452L502.4433 236.55452ZM502.4433 245.1639L502.4433 237.89827L503.66205 237.89827L503.66205 245.1639L502.4433 245.1639ZM510.05267 247.94514L510.05267 244.39827Q509.77142 244.7889 509.2558 245.07014Q508.74017 245.33577 508.16205 245.33577Q506.86517 245.33577 505.92767 244.30452Q505.0058 243.25764 505.0058 241.46077Q505.0058 240.36702 505.3808 239.50764Q505.7558 238.63264 506.47455 238.19514Q507.1933 237.74202 508.0683 237.74202Q509.41205 237.74202 510.17767 238.86702L510.17767 237.89827L511.28705 237.89827L511.28705 247.94514L510.05267 247.94514ZM506.2558 241.50764Q506.2558 242.9139 506.84955 243.61702Q507.4433 244.32014 508.2558 244.32014Q509.05267 244.32014 509.61517 243.64827Q510.17767 242.9764 510.17767 241.61702Q510.17767 240.17952 509.58392 239.44514Q508.99017 238.71077 508.17767 238.71077Q507.3808 238.71077 506.8183 239.39827Q506.2558 240.07014 506.2558 241.50764ZM518.1933 245.1639L518.1933 244.1014Q517.3339 245.33577 515.8808 245.33577Q515.2402 245.33577 514.6777 245.08577Q514.1308 244.83577 513.84955 244.46077Q513.5839 244.08577 513.47455 243.55452Q513.3964 243.19514 513.3964 242.39827L513.3964 237.89827L514.6308 237.89827L514.6308 241.92952Q514.6308 242.89827 514.7089 243.2264Q514.8183 243.71077 515.1933 243.99202Q515.5683 244.27327 516.1308 244.27327Q516.6777 244.27327 517.16205 243.99202Q517.6464 243.69514 517.84955 243.21077Q518.0527 242.7264 518.0527 241.7889L518.0527 237.89827L519.28705 237.89827L519.28705 245.1639L518.1933 245.1639ZM521.4433 236.55452L521.4433 235.14827L522.66205 235.14827L522.66205 236.55452L521.4433 236.55452ZM521.4433 245.1639L521.4433 237.89827L522.66205 237.89827L522.66205 245.1639L521.4433 245.1639ZM529.1464 245.1639L529.1464 244.24202Q528.4433 245.33577 527.1152 245.33577Q526.2402 245.33577 525.5058 244.8514Q524.78705 244.36702 524.3808 243.50764Q523.9902 242.64827 523.9902 241.5389Q523.9902 240.46077 524.34955 239.57014Q524.7089 238.67952 525.4277 238.21077Q526.16205 237.74202 527.0527 237.74202Q527.7089 237.74202 528.22455 238.02327Q528.7402 238.2889 529.0527 238.74202L529.0527 235.14827L530.28705 235.14827L530.28705 245.1639L529.1464 245.1639ZM525.2558 241.5389Q525.2558 242.92952 525.8339 243.63264Q526.4277 244.32014 527.22455 244.32014Q528.03705 244.32014 528.59955 243.6639Q529.16205 242.99202 529.16205 241.64827Q529.16205 240.14827 528.5839 239.46077Q528.0058 238.75764 527.1777 238.75764Q526.34955 238.75764 525.8027 239.42952Q525.2558 240.1014 525.2558 241.5389ZM532.4433 236.55452L532.4433 235.14827L533.66205 235.14827L533.66205 236.55452L532.4433 236.55452ZM532.4433 245.1639L532.4433 237.89827L533.66205 237.89827L533.66205 245.1639L532.4433 245.1639ZM538.1152 244.07014L538.28705 245.14827Q537.7714 245.25764 537.3652 245.25764Q536.6933 245.25764 536.3183 245.05452Q535.9589 244.83577 535.8027 244.49202Q535.66205 244.14827 535.66205 243.0389L535.66205 238.86702L534.7558 238.86702L534.7558 237.89827L535.66205 237.89827L535.66205 236.1014L536.8808 235.36702L536.8808 237.89827L538.1152 237.89827L538.1152 238.86702L536.8808 238.86702L536.8808 243.1014Q536.8808 243.63264 536.9433 243.7889Q537.0058 243.92952 537.1464 244.02327Q537.3027 244.11702 537.5683 244.11702Q537.78705 244.11702 538.1152 244.07014ZM539.3808 247.96077L539.2402 246.80452Q539.6464 246.9139 539.9433 246.9139Q540.34955 246.9139 540.59955 246.77327Q540.84955 246.64827 541.0058 246.39827Q541.1152 246.21077 541.3808 245.4764Q541.41205 245.38264 541.4902 245.17952L538.72455 237.89827L540.0527 237.89827L541.5683 242.1014Q541.8652 242.9139 542.09955 243.7889Q542.3027 242.94514 542.59955 242.13264L544.1464 237.89827L545.3808 237.89827L542.6152 245.2889Q542.1777 246.4764 541.9277 246.92952Q541.59955 247.5389 541.1777 247.82014Q540.7558 248.11702 540.16205 248.11702Q539.8183 248.11702 539.3808 247.96077ZM550.4277 245.1639L550.4277 237.89827L551.53705 237.89827L551.53705 238.92952Q551.8652 238.38264 552.4277 238.07014Q553.0058 237.74202 553.72455 237.74202Q554.53705 237.74202 555.0527 238.08577Q555.5683 238.4139 555.78705 239.00764Q556.6464 237.74202 558.0214 237.74202Q559.09955 237.74202 559.6777 238.33577Q560.2714 238.92952 560.2714 240.17952L560.2714 245.1639L559.03705 245.1639L559.03705 240.58577Q559.03705 239.8514 558.91205 239.52327Q558.8027 239.19514 558.4902 239.00764Q558.1777 238.80452 557.7558 238.80452Q556.9902 238.80452 556.47455 239.32014Q555.97455 239.82014 555.97455 240.94514L555.97455 245.1639L554.7402 245.1639L554.7402 240.44514Q554.7402 239.63264 554.4433 239.2264Q554.1464 238.80452 553.4589 238.80452Q552.9433 238.80452 552.4902 239.08577Q552.0527 239.3514 551.84955 239.88264Q551.66205 240.39827 551.66205 241.39827L551.66205 245.1639L550.4277 245.1639ZM561.4433 236.55452L561.4433 235.14827L562.66205 235.14827L562.66205 236.55452L561.4433 236.55452ZM561.4433 245.1639L561.4433 237.89827L562.66205 237.89827L562.66205 245.1639L561.4433 245.1639ZM564.4277 245.1639L564.4277 237.89827L565.53705 237.89827L565.53705 238.92952Q566.3339 237.74202 567.84955 237.74202Q568.5058 237.74202 569.0527 237.9764Q569.59955 238.21077 569.8652 238.6014Q570.1464 238.9764 570.2558 239.50764Q570.3339 239.8514 570.3339 240.69514L570.3339 245.1639L569.09955 245.1639L569.09955 240.74202Q569.09955 239.99202 568.9589 239.63264Q568.8183 239.25764 568.4433 239.0389Q568.0839 238.80452 567.5839 238.80452Q566.8027 238.80452 566.22455 239.30452Q565.66205 239.80452 565.66205 241.19514L565.66205 245.1639L564.4277 245.1639ZM572.4433 236.55452L572.4433 235.14827L573.66205 235.14827L573.66205 236.55452L572.4433 236.55452ZM572.4433 245.1639L572.4433 237.89827L573.66205 237.89827L573.66205 245.1639L572.4433 245.1639ZM575.4277 245.1639L575.4277 237.89827L576.53705 237.89827L576.53705 238.92952Q577.3339 237.74202 578.84955 237.74202Q579.5058 237.74202 580.0527 237.9764Q580.59955 238.21077 580.8652 238.6014Q581.1464 238.9764 581.2558 239.50764Q581.3339 239.8514 581.3339 240.69514L581.3339 245.1639L580.09955 245.1639L580.09955 240.74202Q580.09955 239.99202 579.9589 239.63264Q579.8183 239.25764 579.4433 239.0389Q579.0839 238.80452 578.5839 238.80452Q577.8027 238.80452 577.22455 239.30452Q576.66205 239.80452 576.66205 241.19514L576.66205 245.1639L575.4277 245.1639ZM583.2089 245.77327L584.3964 245.94514Q584.47455 246.49202 584.8183 246.75764Q585.2714 247.08577 586.0683 247.08577Q586.9277 247.08577 587.3808 246.74202Q587.84955 246.4139 588.0214 245.7889Q588.1152 245.4139 588.09955 244.21077Q587.3027 245.1639 586.09955 245.1639Q584.59955 245.1639 583.7714 244.08577Q582.9589 243.00764 582.9589 241.49202Q582.9589 240.46077 583.3339 239.58577Q583.7089 238.69514 584.41205 238.2264Q585.1308 237.74202 586.09955 237.74202Q587.3808 237.74202 588.22455 238.77327L588.22455 237.89827L589.34955 237.89827L589.34955 244.17952Q589.34955 245.88264 589.0058 246.58577Q588.66205 247.2889 587.91205 247.69514Q587.16205 248.11702 586.0683 248.11702Q584.7714 248.11702 583.97455 247.52327Q583.1777 246.94514 583.2089 245.77327ZM584.22455 241.39827Q584.22455 242.83577 584.78705 243.49202Q585.34955 244.14827 586.2089 244.14827Q587.0527 244.14827 587.6308 243.49202Q588.2089 242.83577 588.2089 241.44514Q588.2089 240.11702 587.6152 239.44514Q587.0214 238.75764 586.1933 238.75764Q585.3652 238.75764 584.78705 239.42952Q584.22455 240.08577 584.22455 241.39827ZM597.78705 248.11702Q596.7558 246.82014 596.0527 245.1014Q595.34955 243.38264 595.34955 241.5389Q595.34955 239.9139 595.8808 238.4139Q596.4902 236.67952 597.78705 234.9764L598.66205 234.9764Q597.8339 236.39827 597.5683 237.00764Q597.1464 237.94514 596.91205 238.9764Q596.6152 240.24202 596.6152 241.5389Q596.6152 244.83577 598.66205 248.11702L597.78705 248.11702ZM599.9433 242.99202L601.1464 242.80452Q601.2558 243.5389 601.72455 243.92952Q602.1933 244.32014 603.03705 244.32014Q603.8808 244.32014 604.28705 243.9764Q604.7089 243.63264 604.7089 243.1639Q604.7089 242.74202 604.3339 242.50764Q604.0839 242.33577 603.0839 242.08577Q601.72455 241.74202 601.1933 241.49202Q600.6777 241.24202 600.41205 240.80452Q600.1464 240.36702 600.1464 239.83577Q600.1464 239.3514 600.3652 238.94514Q600.5839 238.52327 600.97455 238.24202Q601.2558 238.0389 601.7402 237.89827Q602.2402 237.74202 602.8183 237.74202Q603.66205 237.74202 604.3027 237.99202Q604.9589 238.2264 605.2714 238.64827Q605.5839 239.07014 605.6933 239.77327L604.4902 239.94514Q604.41205 239.38264 604.0058 239.07014Q603.6152 238.75764 602.8964 238.75764Q602.0527 238.75764 601.6933 239.0389Q601.3339 239.30452 601.3339 239.69514Q601.3339 239.92952 601.47455 240.11702Q601.6308 240.32014 601.9589 240.44514Q602.1308 240.50764 603.03705 240.75764Q604.34955 241.11702 604.8652 241.33577Q605.3808 241.55452 605.66205 241.9764Q605.9589 242.39827 605.9589 243.02327Q605.9589 243.64827 605.59955 244.19514Q605.2558 244.7264 604.5683 245.0389Q603.8964 245.33577 603.03705 245.33577Q601.6308 245.33577 600.8808 244.74202Q600.1464 244.14827 599.9433 242.99202ZM606.97455 241.5389Q606.97455 239.52327 608.09955 238.5389Q609.0214 237.74202 610.3808 237.74202Q611.8652 237.74202 612.8183 238.7264Q613.7714 239.69514 613.7714 241.42952Q613.7714 242.83577 613.34955 243.64827Q612.9277 244.44514 612.1152 244.89827Q611.3183 245.33577 610.3808 245.33577Q608.84955 245.33577 607.91205 244.3514Q606.97455 243.36702 606.97455 241.5389ZM608.2402 241.5389Q608.2402 242.92952 608.84955 243.63264Q609.4589 244.32014 610.3808 244.32014Q611.28705 244.32014 611.8964 243.61702Q612.5058 242.9139 612.5058 241.49202Q612.5058 240.14827 611.8964 239.46077Q611.28705 238.75764 610.3808 238.75764Q609.4589 238.75764 608.84955 239.44514Q608.2402 240.13264 608.2402 241.5389ZM615.3964 245.1639L615.3964 235.14827L616.6308 235.14827L616.6308 245.1639L615.3964 245.1639ZM621.0058 243.5389L621.0058 240.7889L618.28705 240.7889L618.28705 239.64827L621.0058 239.64827L621.0058 236.9139L622.1777 236.9139L622.1777 239.64827L624.8964 239.64827L624.8964 240.7889L622.1777 240.7889L622.1777 243.5389L621.0058 243.5389ZM627.5683 245.1639L626.4277 245.1639L626.4277 235.14827L627.6464 235.14827L627.6464 238.71077Q628.4277 237.74202 629.6464 237.74202Q630.3183 237.74202 630.91205 238.00764Q631.5058 238.27327 631.8964 238.77327Q632.28705 239.25764 632.5058 239.94514Q632.72455 240.63264 632.72455 241.42952Q632.72455 243.2889 631.78705 244.32014Q630.8652 245.33577 629.5839 245.33577Q628.3027 245.33577 627.5683 244.25764L627.5683 245.1639ZM627.5527 241.4764Q627.5527 242.7889 627.91205 243.36702Q628.4902 244.32014 629.47455 244.32014Q630.28705 244.32014 630.8652 243.61702Q631.4589 242.9139 631.4589 241.52327Q631.4589 240.1014 630.8964 239.42952Q630.3339 238.75764 629.53705 238.75764Q628.72455 238.75764 628.1308 239.46077Q627.5527 240.14827 627.5527 241.4764ZM633.9433 242.99202L635.1464 242.80452Q635.2558 243.5389 635.72455 243.92952Q636.1933 244.32014 637.03705 244.32014Q637.8808 244.32014 638.28705 243.9764Q638.7089 243.63264 638.7089 243.1639Q638.7089 242.74202 638.3339 242.50764Q638.0839 242.33577 637.0839 242.08577Q635.72455 241.74202 635.1933 241.49202Q634.6777 241.24202 634.41205 240.80452Q634.1464 240.36702 634.1464 239.83577Q634.1464 239.3514 634.3652 238.94514Q634.5839 238.52327 634.97455 238.24202Q635.2558 238.0389 635.7402 237.89827Q636.2402 237.74202 636.8183 237.74202Q637.66205 237.74202 638.3027 237.99202Q638.9589 238.2264 639.2714 238.64827Q639.5839 239.07014 639.6933 239.77327L638.4902 239.94514Q638.41205 239.38264 638.0058 239.07014Q637.6152 238.75764 636.8964 238.75764Q636.0527 238.75764 635.6933 239.0389Q635.3339 239.30452 635.3339 239.69514Q635.3339 239.92952 635.47455 240.11702Q635.6308 240.32014 635.9589 240.44514Q636.1308 240.50764 637.03705 240.75764Q638.34955 241.11702 638.8652 241.33577Q639.3808 241.55452 639.66205 241.9764Q639.9589 242.39827 639.9589 243.02327Q639.9589 243.64827 639.59955 244.19514Q639.2558 244.7264 638.5683 245.0389Q637.8964 245.33577 637.03705 245.33577Q635.6308 245.33577 634.8808 244.74202Q634.1464 244.14827 633.9433 242.99202ZM646.16205 242.50764L647.3808 242.6639Q647.1777 243.9139 646.34955 244.63264Q645.53705 245.33577 644.34955 245.33577Q642.8652 245.33577 641.9589 244.36702Q641.0527 243.38264 641.0527 241.55452Q641.0527 240.38264 641.4433 239.50764Q641.8339 238.61702 642.6308 238.17952Q643.4277 237.74202 644.3652 237.74202Q645.53705 237.74202 646.28705 238.33577Q647.0527 238.92952 647.2558 240.0389L646.0683 240.2264Q645.8964 239.49202 645.4589 239.13264Q645.0214 238.75764 644.41205 238.75764Q643.47455 238.75764 642.8964 239.42952Q642.3183 240.08577 642.3183 241.52327Q642.3183 242.99202 642.8808 243.6639Q643.4433 244.32014 644.3339 244.32014Q645.0683 244.32014 645.5527 243.88264Q646.03705 243.42952 646.16205 242.50764ZM649.2402 248.11702L648.34955 248.11702Q650.3964 244.83577 650.3964 241.5389Q650.3964 240.25764 650.09955 238.99202Q649.8652 237.96077 649.4589 237.02327Q649.1933 236.4139 648.34955 234.9764L649.2402 234.9764Q650.5214 236.67952 651.1308 238.4139Q651.66205 239.9139 651.66205 241.5389Q651.66205 243.38264 650.9433 245.1014Q650.2402 246.82014 649.2402 248.11702Z" fill-rule="nonzero"/><path fill="#999999" d="M485.5058 266.1639C485.5058 269.4776 482.81952 272.1639 479.5058 272.1639C476.1921 272.1639 473.5058 269.4776 473.5058 266.1639C473.5058 262.8502 476.1921 260.1639 479.5058 260.1639C482.81952 260.1639 485.5058 262.8502 485.5058 266.1639Z" fill-rule="nonzero"/><path fill="#ffffff" d="M501.74017 267.6483L503.0683 267.99203Q502.64642 269.61703 501.55267 270.4764Q500.47455 271.3358 498.91205 271.3358Q497.28705 271.3358 496.27142 270.67953Q495.2558 270.00766 494.72455 268.75766Q494.20892 267.50766 494.20892 266.07016Q494.20892 264.50766 494.80267 263.3514Q495.39642 262.17953 496.5058 261.5858Q497.61517 260.9764 498.92767 260.9764Q500.4433 260.9764 501.45892 261.74203Q502.49017 262.50766 502.89642 263.88266L501.58392 264.19516Q501.24017 263.1014 500.5683 262.6014Q499.91205 262.1014 498.91205 262.1014Q497.7558 262.1014 496.97455 262.6639Q496.1933 263.2108 495.8808 264.1483Q495.5683 265.0858 495.5683 266.07016Q495.5683 267.3514 495.9433 268.30453Q496.3183 269.25766 497.09955 269.7264Q497.8808 270.19516 498.80267 270.19516Q499.91205 270.19516 500.67767 269.55453Q501.45892 268.9139 501.74017 267.6483ZM503.97455 267.5389Q503.97455 265.5233 505.09955 264.5389Q506.02142 263.74203 507.3808 263.74203Q508.86517 263.74203 509.8183 264.7264Q510.77142 265.69516 510.77142 267.42953Q510.77142 268.8358 510.34955 269.6483Q509.92767 270.44516 509.11517 270.8983Q508.3183 271.3358 507.3808 271.3358Q505.84955 271.3358 504.91205 270.3514Q503.97455 269.36703 503.97455 267.5389ZM505.24017 267.5389Q505.24017 268.92953 505.84955 269.63266Q506.45892 270.32016 507.3808 270.32016Q508.28705 270.32016 508.89642 269.61703Q509.5058 268.9139 509.5058 267.49203Q509.5058 266.1483 508.89642 265.4608Q508.28705 264.75766 507.3808 264.75766Q506.45892 264.75766 505.84955 265.44516Q505.24017 266.13266 505.24017 267.5389ZM512.41205 271.1639L512.41205 263.8983L513.5214 263.8983L513.5214 265.00766Q513.9433 264.2264 514.3027 263.99203Q514.66205 263.74203 515.09955 263.74203Q515.72455 263.74203 516.3652 264.13266L515.9433 265.2733Q515.4902 265.00766 515.03705 265.00766Q514.6308 265.00766 514.3027 265.25766Q513.9902 265.49203 513.84955 265.92953Q513.6464 266.5858 513.6464 267.36703L513.6464 271.1639L512.41205 271.1639ZM522.3964 268.82016L523.6777 268.9764Q523.3652 270.1014 522.5527 270.7264Q521.7402 271.3358 520.47455 271.3358Q518.8808 271.3358 517.9433 270.3514Q517.0214 269.36703 517.0214 267.6014Q517.0214 265.75766 517.9589 264.75766Q518.91205 263.74203 520.41205 263.74203Q521.8652 263.74203 522.78705 264.74203Q523.7089 265.7264 523.7089 267.5233Q523.7089 267.63266 523.7089 267.8514L518.28705 267.8514Q518.3652 269.0389 518.9589 269.67953Q519.5683 270.32016 520.4902 270.32016Q521.16205 270.32016 521.6308 269.9608Q522.1152 269.6014 522.3964 268.82016ZM518.3652 266.8358L522.41205 266.8358Q522.3339 265.9139 521.9433 265.4608Q521.3652 264.75766 520.4277 264.75766Q519.5683 264.75766 518.9902 265.32016Q518.4277 265.88266 518.3652 266.8358ZM532.1308 271.1639L532.1308 262.32016L528.8339 262.32016L528.8339 261.1483L536.7714 261.1483L536.7714 262.32016L533.4589 262.32016L533.4589 271.1639L532.1308 271.1639ZM543.3964 268.82016L544.6777 268.9764Q544.3652 270.1014 543.5527 270.7264Q542.7402 271.3358 541.47455 271.3358Q539.8808 271.3358 538.9433 270.3514Q538.0214 269.36703 538.0214 267.6014Q538.0214 265.75766 538.9589 264.75766Q539.91205 263.74203 541.41205 263.74203Q542.8652 263.74203 543.78705 264.74203Q544.7089 265.7264 544.7089 267.5233Q544.7089 267.63266 544.7089 267.8514L539.28705 267.8514Q539.3652 269.0389 539.9589 269.67953Q540.5683 270.32016 541.4902 270.32016Q542.16205 270.32016 542.6308 269.9608Q543.1152 269.6014 543.3964 268.82016ZM539.3652 266.8358L543.41205 266.8358Q543.3339 265.9139 542.9433 265.4608Q542.3652 264.75766 541.4277 264.75766Q540.5683 264.75766 539.9902 265.32016Q539.4277 265.88266 539.3652 266.8358ZM551.16205 270.2733Q550.4902 270.8514 549.84955 271.1014Q549.22455 271.3358 548.4902 271.3358Q547.3027 271.3358 546.6464 270.75766Q546.0058 270.1639 546.0058 269.24203Q546.0058 268.7108 546.2402 268.2733Q546.4902 267.8358 546.8808 267.57016Q547.28705 267.30453 547.7714 267.1639Q548.1308 267.07016 548.8652 266.9764Q550.3652 266.80453 551.0683 266.55453Q551.0683 266.30453 551.0683 266.24203Q551.0683 265.4764 550.72455 265.17953Q550.2558 264.75766 549.3183 264.75766Q548.4589 264.75766 548.03705 265.07016Q547.6308 265.36703 547.4277 266.13266L546.22455 265.9764Q546.3808 265.19516 546.7558 264.7264Q547.1464 264.25766 547.84955 264.00766Q548.5683 263.74203 549.5058 263.74203Q550.4277 263.74203 551.0058 263.9608Q551.5839 264.17953 551.84955 264.50766Q552.1308 264.8358 552.2402 265.3514Q552.3027 265.6639 552.3027 266.4764L552.3027 268.11703Q552.3027 269.8358 552.3808 270.2889Q552.4589 270.74203 552.6933 271.1639L551.41205 271.1639Q551.22455 270.7733 551.16205 270.2733ZM551.0683 267.5233Q550.3964 267.7889 549.0527 267.99203Q548.3027 268.1014 547.97455 268.24203Q547.66205 268.36703 547.4902 268.63266Q547.3183 268.8983 547.3183 269.2108Q547.3183 269.7108 547.6933 270.0389Q548.0683 270.36703 548.78705 270.36703Q549.5058 270.36703 550.0527 270.05453Q550.59955 269.74203 550.8652 269.19516Q551.0683 268.7889 551.0683 267.9764L551.0683 267.5233ZM554.4277 271.1639L554.4277 263.8983L555.53705 263.8983L555.53705 264.92953Q555.8652 264.38266 556.4277 264.07016Q557.0058 263.74203 557.72455 263.74203Q558.53705 263.74203 559.0527 264.0858Q559.5683 264.4139 559.78705 265.00766Q560.6464 263.74203 562.0214 263.74203Q563.09955 263.74203 563.6777 264.3358Q564.2714 264.92953 564.2714 266.17953L564.2714 271.1639L563.03705 271.1639L563.03705 266.5858Q563.03705 265.8514 562.91205 265.5233Q562.8027 265.19516 562.4902 265.00766Q562.1777 264.80453 561.7558 264.80453Q560.9902 264.80453 560.47455 265.32016Q559.97455 265.82016 559.97455 266.94516L559.97455 271.1639L558.7402 271.1639L558.7402 266.44516Q558.7402 265.63266 558.4433 265.2264Q558.1464 264.80453 557.4589 264.80453Q556.9433 264.80453 556.4902 265.0858Q556.0527 265.3514 555.84955 265.88266Q555.66205 266.3983 555.66205 267.3983L555.66205 271.1639L554.4277 271.1639Z" fill-rule="nonzero"/><path fill="#ffd966" d="M485.5058 292.1639C485.5058 295.4776 482.81952 298.1639 479.5058 298.1639C476.1921 298.1639 473.5058 295.4776 473.5058 292.1639C473.5058 288.8502 476.1921 286.1639 479.5058 286.1639C482.81952 286.1639 485.5058 288.8502 485.5058 292.1639Z" fill-rule="nonzero"/><path fill="#ffffff" d="M494.55267 297.1639L494.55267 287.1483L496.53705 287.1483L498.91205 294.24203Q499.24017 295.2264 499.39642 295.7264Q499.5683 295.17953 499.92767 294.11703L502.3183 287.1483L504.11517 287.1483L504.11517 297.1639L502.83392 297.1639L502.83392 288.7733L499.91205 297.1639L498.72455 297.1639L495.8183 288.63266L495.8183 297.1639L494.55267 297.1639ZM510.16205 296.2733Q509.49017 296.8514 508.84955 297.1014Q508.22455 297.3358 507.49017 297.3358Q506.30267 297.3358 505.64642 296.75766Q505.0058 296.1639 505.0058 295.24203Q505.0058 294.7108 505.24017 294.2733Q505.49017 293.8358 505.8808 293.57016Q506.28705 293.30453 506.77142 293.1639Q507.1308 293.07016 507.86517 292.9764Q509.36517 292.80453 510.0683 292.55453Q510.0683 292.30453 510.0683 292.24203Q510.0683 291.4764 509.72455 291.17953Q509.2558 290.75766 508.3183 290.75766Q507.45892 290.75766 507.03705 291.07016Q506.6308 291.36703 506.42767 292.13266L505.22455 291.9764Q505.3808 291.19516 505.7558 290.7264Q506.14642 290.25766 506.84955 290.00766Q507.5683 289.74203 508.5058 289.74203Q509.42767 289.74203 510.0058 289.9608Q510.58392 290.17953 510.84955 290.50766Q511.1308 290.8358 511.24017 291.3514Q511.30267 291.6639 511.30267 292.4764L511.30267 294.11703Q511.30267 295.8358 511.3808 296.2889Q511.45892 296.74203 511.6933 297.1639L510.41205 297.1639Q510.22455 296.7733 510.16205 296.2733ZM510.0683 293.5233Q509.39642 293.7889 508.05267 293.99203Q507.30267 294.1014 506.97455 294.24203Q506.66205 294.36703 506.49017 294.63266Q506.3183 294.8983 506.3183 295.2108Q506.3183 295.7108 506.6933 296.0389Q507.0683 296.36703 507.78705 296.36703Q508.5058 296.36703 509.05267 296.05453Q509.59955 295.74203 509.86517 295.19516Q510.0683 294.7889 510.0683 293.9764L510.0683 293.5233ZM513.41205 297.1639L513.41205 289.8983L514.5214 289.8983L514.5214 291.00766Q514.9433 290.2264 515.3027 289.99203Q515.66205 289.74203 516.09955 289.74203Q516.72455 289.74203 517.3652 290.13266L516.9433 291.2733Q516.4902 291.00766 516.03705 291.00766Q515.6308 291.00766 515.3027 291.25766Q514.9902 291.49203 514.84955 291.92953Q514.6464 292.5858 514.6464 293.36703L514.6464 297.1639L513.41205 297.1639ZM518.4433 297.1639L518.4433 287.1483L519.66205 287.1483L519.66205 292.8514L522.5839 289.8983L524.1777 289.8983L521.3964 292.6014L524.4589 297.1639L522.9277 297.1639L520.53705 293.44516L519.66205 294.2889L519.66205 297.1639L518.4433 297.1639ZM530.3964 294.82016L531.6777 294.9764Q531.3652 296.1014 530.5527 296.7264Q529.7402 297.3358 528.47455 297.3358Q526.8808 297.3358 525.9433 296.3514Q525.0214 295.36703 525.0214 293.6014Q525.0214 291.75766 525.9589 290.75766Q526.91205 289.74203 528.41205 289.74203Q529.8652 289.74203 530.78705 290.74203Q531.7089 291.7264 531.7089 293.5233Q531.7089 293.63266 531.7089 293.8514L526.28705 293.8514Q526.3652 295.0389 526.9589 295.67953Q527.5683 296.32016 528.4902 296.32016Q529.16205 296.32016 529.6308 295.9608Q530.1152 295.6014 530.3964 294.82016ZM526.3652 292.8358L530.41205 292.8358Q530.3339 291.9139 529.9433 291.4608Q529.3652 290.75766 528.4277 290.75766Q527.5683 290.75766 526.9902 291.32016Q526.4277 291.88266 526.3652 292.8358ZM536.1152 296.07016L536.28705 297.1483Q535.7714 297.25766 535.3652 297.25766Q534.6933 297.25766 534.3183 297.05453Q533.9589 296.8358 533.8027 296.49203Q533.66205 296.1483 533.66205 295.0389L533.66205 290.86703L532.7558 290.86703L532.7558 289.8983L533.66205 289.8983L533.66205 288.1014L534.8808 287.36703L534.8808 289.8983L536.1152 289.8983L536.1152 290.86703L534.8808 290.86703L534.8808 295.1014Q534.8808 295.63266 534.9433 295.7889Q535.0058 295.92953 535.1464 296.0233Q535.3027 296.11703 535.5683 296.11703Q535.78705 296.11703 536.1152 296.07016ZM537.4433 288.55453L537.4433 287.1483L538.66205 287.1483L538.66205 288.55453L537.4433 288.55453ZM537.4433 297.1639L537.4433 289.8983L538.66205 289.8983L538.66205 297.1639L537.4433 297.1639ZM540.4277 297.1639L540.4277 289.8983L541.53705 289.8983L541.53705 290.92953Q542.3339 289.74203 543.84955 289.74203Q544.5058 289.74203 545.0527 289.9764Q545.59955 290.2108 545.8652 290.6014Q546.1464 290.9764 546.2558 291.50766Q546.3339 291.8514 546.3339 292.69516L546.3339 297.1639L545.09955 297.1639L545.09955 292.74203Q545.09955 291.99203 544.9589 291.63266Q544.8183 291.25766 544.4433 291.0389Q544.0839 290.80453 543.5839 290.80453Q542.8027 290.80453 542.22455 291.30453Q541.66205 291.80453 541.66205 293.19516L541.66205 297.1639L540.4277 297.1639ZM548.2089 297.7733L549.3964 297.94516Q549.47455 298.49203 549.8183 298.75766Q550.2714 299.0858 551.0683 299.0858Q551.9277 299.0858 552.3808 298.74203Q552.84955 298.4139 553.0214 297.7889Q553.1152 297.4139 553.09955 296.2108Q552.3027 297.1639 551.09955 297.1639Q549.59955 297.1639 548.7714 296.0858Q547.9589 295.00766 547.9589 293.49203Q547.9589 292.4608 548.3339 291.5858Q548.7089 290.69516 549.41205 290.2264Q550.1308 289.74203 551.09955 289.74203Q552.3808 289.74203 553.22455 290.7733L553.22455 289.8983L554.34955 289.8983L554.34955 296.17953Q554.34955 297.88266 554.0058 298.5858Q553.66205 299.2889 552.91205 299.69516Q552.16205 300.11703 551.0683 300.11703Q549.7714 300.11703 548.97455 299.5233Q548.1777 298.94516 548.2089 297.7733ZM549.22455 293.3983Q549.22455 294.8358 549.78705 295.49203Q550.34955 296.1483 551.2089 296.1483Q552.0527 296.1483 552.6308 295.49203Q553.2089 294.8358 553.2089 293.44516Q553.2089 292.11703 552.6152 291.44516Q552.0214 290.75766 551.1933 290.75766Q550.3652 290.75766 549.78705 291.42953Q549.22455 292.0858 549.22455 293.3983Z" fill-rule="nonzero"/><path fill="#4285f4" d="M485.5058 318.1639C485.5058 321.4776 482.81952 324.1639 479.5058 324.1639C476.1921 324.1639 473.5058 321.4776 473.5058 318.1639C473.5058 314.8502 476.1921 312.1639 479.5058 312.1639C482.81952 312.1639 485.5058 314.8502 485.5058 318.1639Z" fill-rule="nonzero"/><path fill="#ffffff" d="M493.49017 323.1639L497.33392 313.1483L498.7558 313.1483L502.86517 323.1639L501.34955 323.1639L500.17767 320.13266L495.99017 320.13266L494.89642 323.1639L493.49017 323.1639ZM496.3808 319.05453L499.77142 319.05453L498.72455 316.2733Q498.2558 315.00766 498.02142 314.19516Q497.83392 315.1639 497.47455 316.1014L496.3808 319.05453ZM508.14642 323.1639L508.14642 322.24203Q507.4433 323.3358 506.11517 323.3358Q505.24017 323.3358 504.5058 322.8514Q503.78705 322.36703 503.3808 321.50766Q502.99017 320.6483 502.99017 319.5389Q502.99017 318.4608 503.34955 317.57016Q503.70892 316.67953 504.42767 316.2108Q505.16205 315.74203 506.05267 315.74203Q506.70892 315.74203 507.22455 316.0233Q507.74017 316.2889 508.05267 316.74203L508.05267 313.1483L509.28705 313.1483L509.28705 323.1639L508.14642 323.1639ZM504.2558 319.5389Q504.2558 320.92953 504.83392 321.63266Q505.42767 322.32016 506.22455 322.32016Q507.03705 322.32016 507.59955 321.6639Q508.16205 320.99203 508.16205 319.6483Q508.16205 318.1483 507.58392 317.4608Q507.0058 316.75766 506.17767 316.75766Q505.34955 316.75766 504.80267 317.42953Q504.2558 318.1014 504.2558 319.5389ZM513.4433 323.1639L510.67767 315.8983L511.99017 315.8983L513.53705 320.25766Q513.78705 320.9608 514.0058 321.7108Q514.1777 321.13266 514.4589 320.3358L516.0839 315.8983L517.34955 315.8983L514.59955 323.1639L513.4433 323.1639ZM518.4433 314.55453L518.4433 313.1483L519.66205 313.1483L519.66205 314.55453L518.4433 314.55453ZM518.4433 323.1639L518.4433 315.8983L519.66205 315.8983L519.66205 323.1639L518.4433 323.1639ZM520.9433 320.99203L522.1464 320.80453Q522.2558 321.5389 522.72455 321.92953Q523.1933 322.32016 524.03705 322.32016Q524.8808 322.32016 525.28705 321.9764Q525.7089 321.63266 525.7089 321.1639Q525.7089 320.74203 525.3339 320.50766Q525.0839 320.3358 524.0839 320.0858Q522.72455 319.74203 522.1933 319.49203Q521.6777 319.24203 521.41205 318.80453Q521.1464 318.36703 521.1464 317.8358Q521.1464 317.3514 521.3652 316.94516Q521.5839 316.5233 521.97455 316.24203Q522.2558 316.0389 522.7402 315.8983Q523.2402 315.74203 523.8183 315.74203Q524.66205 315.74203 525.3027 315.99203Q525.9589 316.2264 526.2714 316.6483Q526.5839 317.07016 526.6933 317.7733L525.4902 317.94516Q525.41205 317.38266 525.0058 317.07016Q524.6152 316.75766 523.8964 316.75766Q523.0527 316.75766 522.6933 317.0389Q522.3339 317.30453 522.3339 317.69516Q522.3339 317.92953 522.47455 318.11703Q522.6308 318.32016 522.9589 318.44516Q523.1308 318.50766 524.03705 318.75766Q525.34955 319.11703 525.8652 319.3358Q526.3808 319.55453 526.66205 319.9764Q526.9589 320.3983 526.9589 321.0233Q526.9589 321.6483 526.59955 322.19516Q526.2558 322.7264 525.5683 323.0389Q524.8964 323.3358 524.03705 323.3358Q522.6308 323.3358 521.8808 322.74203Q521.1464 322.1483 520.9433 320.99203ZM527.97455 319.5389Q527.97455 317.5233 529.09955 316.5389Q530.0214 315.74203 531.3808 315.74203Q532.8652 315.74203 533.8183 316.7264Q534.7714 317.69516 534.7714 319.42953Q534.7714 320.8358 534.34955 321.6483Q533.9277 322.44516 533.1152 322.8983Q532.3183 323.3358 531.3808 323.3358Q529.84955 323.3358 528.91205 322.3514Q527.97455 321.36703 527.97455 319.5389ZM529.2402 319.5389Q529.2402 320.92953 529.84955 321.63266Q530.4589 322.32016 531.3808 322.32016Q532.28705 322.32016 532.8964 321.61703Q533.5058 320.9139 533.5058 319.49203Q533.5058 318.1483 532.8964 317.4608Q532.28705 316.75766 531.3808 316.75766Q530.4589 316.75766 529.84955 317.44516Q529.2402 318.13266 529.2402 319.5389ZM536.41205 323.1639L536.41205 315.8983L537.5214 315.8983L537.5214 317.00766Q537.9433 316.2264 538.3027 315.99203Q538.66205 315.74203 539.09955 315.74203Q539.72455 315.74203 540.3652 316.13266L539.9433 317.2733Q539.4902 317.00766 539.03705 317.00766Q538.6308 317.00766 538.3027 317.25766Q537.9902 317.49203 537.84955 317.92953Q537.6464 318.5858 537.6464 319.36703L537.6464 323.1639L536.41205 323.1639ZM540.9433 320.99203L542.1464 320.80453Q542.2558 321.5389 542.72455 321.92953Q543.1933 322.32016 544.03705 322.32016Q544.8808 322.32016 545.28705 321.9764Q545.7089 321.63266 545.7089 321.1639Q545.7089 320.74203 545.3339 320.50766Q545.0839 320.3358 544.0839 320.0858Q542.72455 319.74203 542.1933 319.49203Q541.6777 319.24203 541.41205 318.80453Q541.1464 318.36703 541.1464 317.8358Q541.1464 317.3514 541.3652 316.94516Q541.5839 316.5233 541.97455 316.24203Q542.2558 316.0389 542.7402 315.8983Q543.2402 315.74203 543.8183 315.74203Q544.66205 315.74203 545.3027 315.99203Q545.9589 316.2264 546.2714 316.6483Q546.5839 317.07016 546.6933 317.7733L545.4902 317.94516Q545.41205 317.38266 545.0058 317.07016Q544.6152 316.75766 543.8964 316.75766Q543.0527 316.75766 542.6933 317.0389Q542.3339 317.30453 542.3339 317.69516Q542.3339 317.92953 542.47455 318.11703Q542.6308 318.32016 542.9589 318.44516Q543.1308 318.50766 544.03705 318.75766Q545.34955 319.11703 545.8652 319.3358Q546.3808 319.55453 546.66205 319.9764Q546.9589 320.3983 546.9589 321.0233Q546.9589 321.6483 546.59955 322.19516Q546.2558 322.7264 545.5683 323.0389Q544.8964 323.3358 544.03705 323.3358Q542.6308 323.3358 541.8808 322.74203Q541.1464 322.1483 540.9433 320.99203Z" fill-rule="nonzero"/><path fill="#ff0000" d="M485.5058 344.1639C485.5058 347.4776 482.81952 350.1639 479.5058 350.1639C476.1921 350.1639 473.5058 347.4776 473.5058 344.1639C473.5058 340.8502 476.1921 338.1639 479.5058 338.1639C482.81952 338.1639 485.5058 340.8502 485.5058 344.1639Z" fill-rule="nonzero"/><path fill="#ffffff" d="M494.1308 345.94516L495.3808 345.8358Q495.47455 346.5858 495.80267 347.07016Q496.1308 347.55453 496.80267 347.8514Q497.49017 348.1483 498.34955 348.1483Q499.09955 348.1483 499.67767 347.92953Q500.27142 347.69516 500.55267 347.30453Q500.83392 346.9139 500.83392 346.44516Q500.83392 345.9764 500.55267 345.63266Q500.28705 345.2733 499.66205 345.0233Q499.2558 344.86703 497.86517 344.5389Q496.49017 344.2108 495.9433 343.9139Q495.22455 343.5389 494.86517 342.99203Q494.52142 342.42953 494.52142 341.7264Q494.52142 340.9764 494.9433 340.32016Q495.3808 339.6483 496.20892 339.32016Q497.03705 338.9764 498.05267 338.9764Q499.16205 338.9764 500.0058 339.3358Q500.86517 339.69516 501.3183 340.3983Q501.77142 341.0858 501.8183 341.9608L500.53705 342.05453Q500.4433 341.11703 499.84955 340.63266Q499.2558 340.13266 498.09955 340.13266Q496.89642 340.13266 496.34955 340.5858Q495.80267 341.0233 495.80267 341.6483Q495.80267 342.17953 496.1933 342.5389Q496.5683 342.88266 498.17767 343.25766Q499.80267 343.61703 500.39642 343.88266Q501.27142 344.2889 501.6933 344.9139Q502.11517 345.5233 502.11517 346.3358Q502.11517 347.13266 501.64642 347.8514Q501.1933 348.55453 500.33392 348.94516Q499.47455 349.3358 498.41205 349.3358Q497.05267 349.3358 496.1308 348.94516Q495.20892 348.5389 494.67767 347.74203Q494.16205 346.94516 494.1308 345.94516ZM508.39642 346.82016L509.67767 346.9764Q509.36517 348.1014 508.55267 348.7264Q507.74017 349.3358 506.47455 349.3358Q504.8808 349.3358 503.9433 348.3514Q503.02142 347.36703 503.02142 345.6014Q503.02142 343.75766 503.95892 342.75766Q504.91205 341.74203 506.41205 341.74203Q507.86517 341.74203 508.78705 342.74203Q509.70892 343.7264 509.70892 345.5233Q509.70892 345.63266 509.70892 345.8514L504.28705 345.8514Q504.36517 347.0389 504.95892 347.67953Q505.5683 348.32016 506.49017 348.32016Q507.16205 348.32016 507.6308 347.9608Q508.11517 347.6014 508.39642 346.82016ZM504.36517 344.8358L508.41205 344.8358Q508.33392 343.9139 507.9433 343.4608Q507.36517 342.75766 506.42767 342.75766Q505.5683 342.75766 504.99017 343.32016Q504.42767 343.88266 504.36517 344.8358ZM516.3964 346.82016L517.6777 346.9764Q517.3652 348.1014 516.5527 348.7264Q515.7402 349.3358 514.47455 349.3358Q512.8808 349.3358 511.9433 348.3514Q511.02142 347.36703 511.02142 345.6014Q511.02142 343.75766 511.95892 342.75766Q512.91205 341.74203 514.41205 341.74203Q515.8652 341.74203 516.78705 342.74203Q517.7089 343.7264 517.7089 345.5233Q517.7089 345.63266 517.7089 345.8514L512.28705 345.8514Q512.3652 347.0389 512.9589 347.67953Q513.5683 348.32016 514.4902 348.32016Q515.16205 348.32016 515.6308 347.9608Q516.1152 347.6014 516.3964 346.82016ZM512.3652 344.8358L516.41205 344.8358Q516.3339 343.9139 515.9433 343.4608Q515.3652 342.75766 514.4277 342.75766Q513.5683 342.75766 512.9902 343.32016Q512.4277 343.88266 512.3652 344.8358ZM524.1464 349.1639L524.1464 348.24203Q523.4433 349.3358 522.1152 349.3358Q521.2402 349.3358 520.5058 348.8514Q519.78705 348.36703 519.3808 347.50766Q518.9902 346.6483 518.9902 345.5389Q518.9902 344.4608 519.34955 343.57016Q519.7089 342.67953 520.4277 342.2108Q521.16205 341.74203 522.0527 341.74203Q522.7089 341.74203 523.22455 342.0233Q523.7402 342.2889 524.0527 342.74203L524.0527 339.1483L525.28705 339.1483L525.28705 349.1639L524.1464 349.1639ZM520.2558 345.5389Q520.2558 346.92953 520.8339 347.63266Q521.4277 348.32016 522.22455 348.32016Q523.03705 348.32016 523.59955 347.6639Q524.16205 346.99203 524.16205 345.6483Q524.16205 344.1483 523.5839 343.4608Q523.0058 342.75766 522.1777 342.75766Q521.34955 342.75766 520.8027 343.42953Q520.2558 344.1014 520.2558 345.5389Z" fill-rule="nonzero"/><path fill="#9900ff" d="M485.5058 370.1639C485.5058 373.4776 482.81952 376.1639 479.5058 376.1639C476.1921 376.1639 473.5058 373.4776 473.5058 370.1639C473.5058 366.8502 476.1921 364.1639 479.5058 364.1639C482.81952 364.1639 485.5058 366.8502 485.5058 370.1639Z" fill-rule="nonzero"/><path fill="#ffffff" d="M497.1308 375.1639L497.1308 366.32016L493.83392 366.32016L493.83392 365.1483L501.77142 365.1483L501.77142 366.32016L498.45892 366.32016L498.45892 375.1639L497.1308 375.1639ZM503.41205 375.1639L503.41205 367.8983L504.52142 367.8983L504.52142 369.00766Q504.9433 368.2264 505.30267 367.99203Q505.66205 367.74203 506.09955 367.74203Q506.72455 367.74203 507.36517 368.13266L506.9433 369.2733Q506.49017 369.00766 506.03705 369.00766Q505.6308 369.00766 505.30267 369.25766Q504.99017 369.49203 504.84955 369.92953Q504.64642 370.5858 504.64642 371.36703L504.64642 375.1639L503.41205 375.1639ZM513.3964 372.82016L514.6777 372.9764Q514.3652 374.1014 513.5527 374.7264Q512.7402 375.3358 511.47455 375.3358Q509.8808 375.3358 508.9433 374.3514Q508.02142 373.36703 508.02142 371.6014Q508.02142 369.75766 508.95892 368.75766Q509.91205 367.74203 511.41205 367.74203Q512.8652 367.74203 513.78705 368.74203Q514.7089 369.7264 514.7089 371.5233Q514.7089 371.63266 514.7089 371.8514L509.28705 371.8514Q509.36517 373.0389 509.95892 373.67953Q510.5683 374.32016 511.49017 374.32016Q512.16205 374.32016 512.6308 373.9608Q513.1152 373.6014 513.3964 372.82016ZM509.36517 370.8358L513.41205 370.8358Q513.3339 369.9139 512.9433 369.4608Q512.3652 368.75766 511.42767 368.75766Q510.5683 368.75766 509.99017 369.32016Q509.42767 369.88266 509.36517 370.8358ZM521.16205 374.2733Q520.4902 374.8514 519.84955 375.1014Q519.22455 375.3358 518.4902 375.3358Q517.3027 375.3358 516.6464 374.75766Q516.0058 374.1639 516.0058 373.24203Q516.0058 372.7108 516.2402 372.2733Q516.4902 371.8358 516.8808 371.57016Q517.28705 371.30453 517.7714 371.1639Q518.1308 371.07016 518.8652 370.9764Q520.3652 370.80453 521.0683 370.55453Q521.0683 370.30453 521.0683 370.24203Q521.0683 369.4764 520.72455 369.17953Q520.2558 368.75766 519.3183 368.75766Q518.4589 368.75766 518.03705 369.07016Q517.6308 369.36703 517.4277 370.13266L516.22455 369.9764Q516.3808 369.19516 516.7558 368.7264Q517.1464 368.25766 517.84955 368.00766Q518.5683 367.74203 519.5058 367.74203Q520.4277 367.74203 521.0058 367.9608Q521.5839 368.17953 521.84955 368.50766Q522.1308 368.8358 522.2402 369.3514Q522.3027 369.6639 522.3027 370.4764L522.3027 372.11703Q522.3027 373.8358 522.3808 374.2889Q522.4589 374.74203 522.6933 375.1639L521.41205 375.1639Q521.22455 374.7733 521.16205 374.2733ZM521.0683 371.5233Q520.3964 371.7889 519.0527 371.99203Q518.3027 372.1014 517.97455 372.24203Q517.66205 372.36703 517.4902 372.63266Q517.3183 372.8983 517.3183 373.2108Q517.3183 373.7108 517.6933 374.0389Q518.0683 374.36703 518.78705 374.36703Q519.5058 374.36703 520.0527 374.05453Q520.59955 373.74203 520.8652 373.19516Q521.0683 372.7889 521.0683 371.9764L521.0683 371.5233ZM523.9433 372.99203L525.1464 372.80453Q525.2558 373.5389 525.72455 373.92953Q526.1933 374.32016 527.03705 374.32016Q527.8808 374.32016 528.28705 373.9764Q528.7089 373.63266 528.7089 373.1639Q528.7089 372.74203 528.3339 372.50766Q528.0839 372.3358 527.0839 372.0858Q525.72455 371.74203 525.1933 371.49203Q524.6777 371.24203 524.41205 370.80453Q524.1464 370.36703 524.1464 369.8358Q524.1464 369.3514 524.3652 368.94516Q524.5839 368.5233 524.97455 368.24203Q525.2558 368.0389 525.7402 367.8983Q526.2402 367.74203 526.8183 367.74203Q527.66205 367.74203 528.3027 367.99203Q528.9589 368.2264 529.2714 368.6483Q529.5839 369.07016 529.6933 369.7733L528.4902 369.94516Q528.41205 369.38266 528.0058 369.07016Q527.6152 368.75766 526.8964 368.75766Q526.0527 368.75766 525.6933 369.0389Q525.3339 369.30453 525.3339 369.69516Q525.3339 369.92953 525.47455 370.11703Q525.6308 370.32016 525.9589 370.44516Q526.1308 370.50766 527.03705 370.75766Q528.34955 371.11703 528.8652 371.3358Q529.3808 371.55453 529.66205 371.9764Q529.9589 372.3983 529.9589 373.0233Q529.9589 373.6483 529.59955 374.19516Q529.2558 374.7264 528.5683 375.0389Q527.8964 375.3358 527.03705 375.3358Q525.6308 375.3358 524.8808 374.74203Q524.1464 374.1483 523.9433 372.99203ZM536.1933 375.1639L536.1933 374.1014Q535.3339 375.3358 533.8808 375.3358Q533.2402 375.3358 532.6777 375.0858Q532.1308 374.8358 531.84955 374.4608Q531.5839 374.0858 531.47455 373.55453Q531.3964 373.19516 531.3964 372.3983L531.3964 367.8983L532.6308 367.8983L532.6308 371.92953Q532.6308 372.8983 532.7089 373.2264Q532.8183 373.7108 533.1933 373.99203Q533.5683 374.2733 534.1308 374.2733Q534.6777 374.2733 535.16205 373.99203Q535.6464 373.69516 535.84955 373.2108Q536.0527 372.7264 536.0527 371.7889L536.0527 367.8983L537.28705 367.8983L537.28705 375.1639L536.1933 375.1639ZM539.41205 375.1639L539.41205 367.8983L540.5214 367.8983L540.5214 369.00766Q540.9433 368.2264 541.3027 367.99203Q541.66205 367.74203 542.09955 367.74203Q542.72455 367.74203 543.3652 368.13266L542.9433 369.2733Q542.4902 369.00766 542.03705 369.00766Q541.6308 369.00766 541.3027 369.25766Q540.9902 369.49203 540.84955 369.92953Q540.6464 370.5858 540.6464 371.36703L540.6464 375.1639L539.41205 375.1639ZM544.3808 377.9608L544.2402 376.80453Q544.6464 376.9139 544.9433 376.9139Q545.34955 376.9139 545.59955 376.7733Q545.84955 376.6483 546.0058 376.3983Q546.1152 376.2108 546.3808 375.4764Q546.41205 375.38266 546.4902 375.17953L543.72455 367.8983L545.0527 367.8983L546.5683 372.1014Q546.8652 372.9139 547.09955 373.7889Q547.3027 372.94516 547.59955 372.13266L549.1464 367.8983L550.3808 367.8983L547.6152 375.2889Q547.1777 376.4764 546.9277 376.92953Q546.59955 377.5389 546.1777 377.82016Q545.7558 378.11703 545.16205 378.11703Q544.8183 378.11703 544.3808 377.9608Z" fill-rule="nonzero"/><path fill="#ffffff" d="M297.09375 43.55L297.09375 32.096874L299.40625 32.096874L299.40625 43.55L297.09375 43.55ZM304.09375 43.55L299.98438 32.096874L302.5 32.096874L305.40625 40.565624L308.20312 32.096874L310.65625 32.096874L306.5625 43.55L304.09375 43.55ZM312.1875 43.55L312.1875 32.096874L314.4375 32.096874L319.125 39.7375L319.125 32.096874L321.28125 32.096874L321.28125 43.55L318.95312 43.55L314.34375 36.08125L314.34375 43.55L312.1875 43.55ZM329.79688 37.784374L327.79688 37.425Q328.14062 36.221874 328.95312 35.64375Q329.78125 35.065624 331.39062 35.065624Q332.85938 35.065624 333.57812 35.409374Q334.29688 35.753124 334.59375 36.3Q334.89062 36.83125 334.89062 38.253124L334.85938 40.815624Q334.85938 41.909374 334.96875 42.440624Q335.07812 42.95625 335.35938 43.55L333.1875 43.55Q333.10938 43.33125 332.98438 42.89375Q332.92188 42.70625 332.90625 42.64375Q332.34375 43.190624 331.70312 43.471874Q331.0625 43.7375 330.32812 43.7375Q329.04688 43.7375 328.3125 43.05Q327.57812 42.346874 327.57812 41.284374Q327.57812 40.58125 327.90625 40.034374Q328.25 39.471874 328.84375 39.190624Q329.45312 38.89375 330.59375 38.675Q332.14062 38.378124 332.73438 38.128124L332.73438 37.909374Q332.73438 37.284374 332.42188 37.01875Q332.10938 36.7375 331.23438 36.7375Q330.65625 36.7375 330.32812 36.971874Q330.0 37.20625 329.79688 37.784374ZM332.73438 39.565624Q332.3125 39.70625 331.39062 39.909374Q330.48438 40.096874 330.20312 40.284374Q329.76562 40.58125 329.76562 41.05Q329.76562 41.51875 330.10938 41.8625Q330.45312 42.190624 330.98438 42.190624Q331.57812 42.190624 332.125 41.8Q332.51562 41.503124 332.64062 41.065624Q332.73438 40.784374 332.73438 40.003124L332.73438 39.565624ZM337.15625 43.55L337.15625 32.096874L339.34375 32.096874L339.34375 43.55L337.15625 43.55ZM341.15625 43.55L341.15625 32.096874L343.34375 32.096874L343.34375 43.55L341.15625 43.55ZM344.64062 39.284374Q344.64062 38.190624 345.17188 37.175Q345.71875 36.14375 346.70312 35.6125Q347.70312 35.065624 348.92188 35.065624Q350.79688 35.065624 352.0 36.284374Q353.20312 37.503124 353.20312 39.378124Q353.20312 41.253124 351.98438 42.503124Q350.78125 43.7375 348.9375 43.7375Q347.79688 43.7375 346.75 43.221874Q345.71875 42.70625 345.17188 41.70625Q344.64062 40.70625 344.64062 39.284374ZM346.89062 39.39375Q346.89062 40.628124 347.46875 41.284374Q348.0625 41.940624 348.92188 41.940624Q349.78125 41.940624 350.35938 41.284374Q350.95312 40.628124 350.95312 39.378124Q350.95312 38.159374 350.35938 37.503124Q349.78125 36.846874 348.92188 36.846874Q348.0625 36.846874 347.46875 37.503124Q346.89062 38.159374 346.89062 39.39375ZM362.39062 37.70625L360.21875 38.096874Q360.10938 37.440624 359.71875 37.1125Q359.34375 36.784374 358.71875 36.784374Q357.90625 36.784374 357.40625 37.3625Q356.92188 37.925 356.92188 39.253124Q356.92188 40.721874 357.42188 41.33125Q357.92188 41.940624 358.75 41.940624Q359.375 41.940624 359.76562 41.596874Q360.17188 41.2375 360.34375 40.3625L362.5 40.7375Q362.15625 42.221874 361.20312 42.9875Q360.25 43.7375 358.65625 43.7375Q356.82812 43.7375 355.75 42.596874Q354.67188 41.440624 354.67188 39.409374Q354.67188 37.346874 355.75 36.20625Q356.84375 35.065624 358.6875 35.065624Q360.20312 35.065624 361.09375 35.721874Q362.0 36.3625 362.39062 37.70625ZM365.79688 37.784374L363.79688 37.425Q364.14062 36.221874 364.95312 35.64375Q365.78125 35.065624 367.39062 35.065624Q368.85938 35.065624 369.57812 35.409374Q370.29688 35.753124 370.59375 36.3Q370.89062 36.83125 370.89062 38.253124L370.85938 40.815624Q370.85938 41.909374 370.96875 42.440624Q371.07812 42.95625 371.35938 43.55L369.1875 43.55Q369.10938 43.33125 368.98438 42.89375Q368.92188 42.70625 368.90625 42.64375Q368.34375 43.190624 367.70312 43.471874Q367.0625 43.7375 366.32812 43.7375Q365.04688 43.7375 364.3125 43.05Q363.57812 42.346874 363.57812 41.284374Q363.57812 40.58125 363.90625 40.034374Q364.25 39.471874 364.84375 39.190624Q365.45312 38.89375 366.59375 38.675Q368.14062 38.378124 368.73438 38.128124L368.73438 37.909374Q368.73438 37.284374 368.42188 37.01875Q368.10938 36.7375 367.23438 36.7375Q366.65625 36.7375 366.32812 36.971874Q366.0 37.20625 365.79688 37.784374ZM368.73438 39.565624Q368.3125 39.70625 367.39062 39.909374Q366.48438 40.096874 366.20312 40.284374Q365.76562 40.58125 365.76562 41.05Q365.76562 41.51875 366.10938 41.8625Q366.45312 42.190624 366.98438 42.190624Q367.57812 42.190624 368.125 41.8Q368.51562 41.503124 368.64062 41.065624Q368.73438 40.784374 368.73438 40.003124L368.73438 39.565624ZM376.95312 35.253124L376.95312 37.003124L375.45312 37.003124L375.45312 40.346874Q375.45312 41.3625 375.5 41.534374Q375.54688 41.690624 375.6875 41.8Q375.84375 41.909374 376.0625 41.909374Q376.375 41.909374 376.95312 41.70625L377.14062 43.409374Q376.375 43.7375 375.40625 43.7375Q374.8125 43.7375 374.32812 43.534374Q373.85938 43.33125 373.625 43.01875Q373.40625 42.70625 373.32812 42.159374Q373.25 41.784374 373.25 40.6125L373.25 37.003124L372.25 37.003124L372.25 35.253124L373.25 35.253124L373.25 33.596874L375.45312 32.315624L375.45312 35.253124L376.95312 35.253124ZM378.15625 34.128124L378.15625 32.096874L380.34375 32.096874L380.34375 34.128124L378.15625 34.128124ZM378.15625 43.55L378.15625 35.253124L380.34375 35.253124L380.34375 43.55L378.15625 43.55ZM381.64062 39.284374Q381.64062 38.190624 382.17188 37.175Q382.71875 36.14375 383.70312 35.6125Q384.70312 35.065624 385.92188 35.065624Q387.79688 35.065624 389.0 36.284374Q390.20312 37.503124 390.20312 39.378124Q390.20312 41.253124 388.98438 42.503124Q387.78125 43.7375 385.9375 43.7375Q384.79688 43.7375 383.75 43.221874Q382.71875 42.70625 382.17188 41.70625Q381.64062 40.70625 381.64062 39.284374ZM383.89062 39.39375Q383.89062 40.628124 384.46875 41.284374Q385.0625 41.940624 385.92188 41.940624Q386.78125 41.940624 387.35938 41.284374Q387.95312 40.628124 387.95312 39.378124Q387.95312 38.159374 387.35938 37.503124Q386.78125 36.846874 385.92188 36.846874Q385.0625 36.846874 384.46875 37.503124Q383.89062 38.159374 383.89062 39.39375ZM399.70312 43.55L397.5 43.55L397.5 39.315624Q397.5 37.971874 397.35938 37.58125Q397.21875 37.175 396.90625 36.95625Q396.59375 36.7375 396.14062 36.7375Q395.57812 36.7375 395.125 37.05Q394.67188 37.3625 394.5 37.878124Q394.32812 38.39375 394.32812 39.784374L394.32812 43.55L392.14062 43.55L392.14062 35.253124L394.17188 35.253124L394.17188 36.471874Q395.26562 35.065624 396.90625 35.065624Q397.64062 35.065624 398.23438 35.33125Q398.84375 35.58125 399.14062 35.9875Q399.45312 36.39375 399.57812 36.909374Q399.70312 37.425 399.70312 38.39375L399.70312 43.55Z" fill-rule="nonzero"/></svg>